<svg fill="none" xmlns="http://www.w3.org/2000/svg" viewBox="0 0 512 512"><path d="M128 6H0m128 500H0M6 0v512M384 506h128M384 6h128m-6 506V0" stroke="#d72516" stroke-width="12"/><path d="M179.6 322c0-2.1-1.7-3.8-3.7-3.8a40.4 40.4 0 01-16.7-77.1 3.7 3.7 0 10-3.1-6.8 48 48 0 0019.8 91.4c2 0 3.7-1.7 3.7-3.8zM206.5 243.6A63.3 63.3 0 01325 225a3.7 3.7 0 106.6-3.5c-2.1-4-4.6-7.6-7.3-11v-50l9-10.8a11.3 11.3 0 10-5.7-4.8l-10 11.8c-.5.7-.8 1.5-.8 2.4v43.3a70.7 70.7 0 00-22.6-13.9v-26.2a11.3 11.3 0 10-7.5 0v23.8a71.1 71.1 0 00-27-1.6v-34.8a11.3 11.3 0 10-7.4 0V186a70.8 70.8 0 00-27 13v-36.5a11.3 11.3 0 10-7.5 0v43.3a70.5 70.5 0 00-17.4 31c-1.8-1-3.6-2-5.4-2.8v-74.7c0-.9-.4-1.7-1-2.4l-9.9-11.9a11.3 11.3 0 10-5.7 4.8l9 10.9v70.8c-3.7-1-7.6-1.4-11.5-1.4a3.8 3.8 0 000 7.5c9 0 17.5 2.9 24.6 8.4a3.7 3.7 0 006-2.3zm130.8-108.1a3.7 3.7 0 110 7.5 3.7 3.7 0 010-7.5zm-46.8 12.6a3.7 3.7 0 110 7.5 3.7 3.7 0 010-7.5zM256 135.5a3.7 3.7 0 110 7.5 3.7 3.7 0 010-7.5zm-34.5 12.6a3.7 3.7 0 110 7.5 3.7 3.7 0 010-7.5zm-50.8-8.9a3.7 3.7 0 117.5 0 3.7 3.7 0 01-7.5 0zM347.9 253.5c-2.8 0-5.4.3-8 .9-.1-5.2-.7-10.4-1.9-15.5a3.7 3.7 0 00-7.3 1.7 63.7 63.7 0 011.5 18.7 3.7 3.7 0 005.1 3.7 28.6 28.6 0 1110.6 55.2h-12.3a3.8 3.8 0 000 7.5h12.3a36.1 36.1 0 000-72.2zM305.8 318.2H271a3.8 3.8 0 000 7.5h15.7v36.5a11.3 11.3 0 107.5 0v-36.5h11.6a3.8 3.8 0 000-7.5zm-15.3 58.3a3.7 3.7 0 110-7.5 3.7 3.7 0 010 7.5zM241 318.2h-34.2a3.8 3.8 0 000 7.5h11v36.5a11.3 11.3 0 107.5 0v-36.5H241a3.8 3.8 0 000-7.5zm-19.5 58.3a3.7 3.7 0 110-7.5 3.7 3.7 0 010 7.5z" fill="#d72516"/><path d="M191.4 285.8a11.3 11.3 0 00-3.7 21.9v51.2l-15.9 19a3.7 3.7 0 105.8 4.8l16.7-20c.6-.7.9-1.5.9-2.4v-52.6a11.3 11.3 0 00-3.8-21.9zm0 15a3.7 3.7 0 110-7.5 3.7 3.7 0 010 7.5zM256 285.8a11.3 11.3 0 00-3.8 21.9v72.6a3.8 3.8 0 007.6 0v-72.6a11.3 11.3 0 00-3.8-21.9zm0 15a3.7 3.7 0 110-7.5 3.7 3.7 0 010 7.5zM324.3 359v-51.3a11.3 11.3 0 10-7.5 0v52.6c0 .9.3 1.7.9 2.4l16.8 20a3.7 3.7 0 105.7-4.9L324.3 359zm-3.7-65.7a3.7 3.7 0 110 7.5 3.7 3.7 0 010-7.5z" fill="#d72516"/></svg>