<svg fill="none" xmlns="http://www.w3.org/2000/svg" viewBox="0 0 512 512"><path d="M128 6H0m128 500H0M6 0v512M384 506h128M384 6h128m-6 506V0" stroke="#0b70ba" stroke-width="12"/><path d="M378.9 152H133.1a5.1 5.1 0 00-5.1 5v161.4c0 2.8 2.3 5 5.1 5h90v26.4h-18.2a5.1 5.1 0 100 10.2h102.2a5.1 5.1 0 000-10.2H289v-26.3h89.9c2.8 0 5.1-2.3 5.1-5.1V157c0-2.9-2.3-5.1-5.1-5.1zM278.8 349.8h-45.6v-26.3h45.6v26.3zm95-36.5H138.2V162.2h235.6v151z" fill="#0b70ba"/><path d="M247.3 174H156a5.1 5.1 0 00-5.1 5.2V245c0 2.8 2.3 5.1 5 5.1h91.5c2.8 0 5.1-2.3 5.1-5.1v-66c0-2.7-2.3-5-5-5zm-78.9 66l16.2-16.2 16.2 16.2h-32.4zm73.8 0h-27l-.4-.5-8.8-8.7 19.9-19.9 16.3 16.4V240zm0-27.1L229.5 200c-2-2-5.3-2-7.3 0l-23.4 23.4-10.6-10.5c-2-2-5.2-2-7.2 0l-20 20v-48.7h81.2v28.6z" fill="#0b70ba"/><path d="M360.6 183.3l-9.2-9.3a12 12 0 00-17 0l-66.2 66.2a5 5 0 00-1.3 2.1l-7.2 23.8H156a5.1 5.1 0 100 10.2h107.8a5 5 0 002-.5l26.6-8a5 5 0 002.2-1.3l66.1-66.2a12 12 0 000-17zm-89.4 80.2l3-10 7 7-10 3zm19.7-7.8L279 243.8l51.8-51.7 11.8 11.8-51.7 51.8zm62.5-62.6l-3.6 3.6-11.8-11.9 3.6-3.5c.7-.8 1.9-.8 2.6 0l9.2 9.2a1.8 1.8 0 010 2.6zM334 290.6H156a5.1 5.1 0 100 10.2H334a5.1 5.1 0 000-10.2zM356.7 290.6h-2.8a5.1 5.1 0 100 10.2h2.8a5.1 5.1 0 000-10.2z" fill="#0b70ba"/></svg>