<svg fill="none" xmlns="http://www.w3.org/2000/svg" viewBox="0 0 512 512"><path d="M128 6H0m128 500H0M6 0v512M384 506h128M384 6h128m-6 506V0" stroke="#21815b" stroke-width="12"/><g clip-path="url(#clip0)"><path fill-rule="evenodd" clip-rule="evenodd" d="M237.5 172c-4-11.6-7.5-23.4-10.6-35.4 11.2-12.2 54.5-10.6 67-.1l-11.5 27.4c6.2-8.2 8.2-11.5 12-16 1.5 1 3 2.1 4.3 3.3 3.3 3 6.2 6.3 6.8 10.9.4 3-.4 6-3 9L276 202c-3.4-.5-6.8-1.4-10-2.5l4.8-11-9.6 10.4a36 36 0 00-25.6 3.2l-26.8-32.2a9 9 0 01-2.3-5.8c0-7.8 11.6-14.5 17.7-17l13.3 25zm34.3 58.2l-5.2-24c22.4 4.2 58.4 49.8 70 70.6 5.9 10.6 11 22.2 15.3 35.2 8.5 31.6.4 61-33.9 68-21.4 4.3-61.4 4.6-84 3.4-24.1-1.3-61.7-1.2-71.5-26.1-15.8-40.2 13.2-88 39.6-117.3 3.5-3.9 7-7.5 10.8-10.8 9.6-8.4 20-18.5 32.3-22.7l-12 22.3 17.4-23h9.2l12 24.4zM260.7 250v4.2c4.5.5 8.3 1.4 11.5 2.8a26.7 26.7 0 0112.8 12.9c1 2.2 1.5 4.3 1.5 6.2 0 2-.7 3.9-2.3 5.4a7.7 7.7 0 01-5.5 2.3c-4.2 0-6.8-2.2-8-6.7a14.3 14.3 0 00-10-10.4v26.1a140 140 0 0112.4 4 25.3 25.3 0 0116.4 23.8 27.5 27.5 0 01-13.3 23.6 35 35 0 01-15.6 4.7v4.3c0 2.4-.2 4.3-.7 5.4-.5 1.1-1.5 1.7-3.1 1.7s-2.6-.5-3.2-1.4a8 8 0 01-1-4.3v-5.6c-4.8-.5-9.1-1.7-12.8-3.4a30.3 30.3 0 01-14.6-14.8 21.5 21.5 0 01-1.7-8.3c0-2 .8-3.8 2.3-5.4a7.9 7.9 0 015.9-2.4c1.9 0 3.5.4 4.8 1.3a7 7 0 012.7 3.7 81 81 0 003 7.9 15.6 15.6 0 0010.5 8.4v-29.2a76.6 76.6 0 01-14-5.2c-3.8-1.9-7-4.6-9.2-8-2.4-3.6-3.6-8.1-3.6-13.6a24 24 0 017-17.8 30.8 30.8 0 0119.8-8V250c0-3.5 1.3-5.3 4-5.3s4 1.7 4 5.2zm-8 40.5v-24c-3.5 1-6.3 2.4-8.2 4-2 1.8-3 4.4-3 7.9 0 3.3 1 5.8 2.8 7.5 1.8 1.7 4.6 3.2 8.4 4.6zm8 18.6v27.6c4.2-.9 7.5-2.5 9.8-5.1a13 13 0 003.4-9c0-3.6-1-6.4-3.3-8.4s-5.6-3.7-10-5z" fill="#21815b"/></g><defs><clipPath id="clip0"><path fill="#21815b" transform="translate(158 128)" d="M0 0h197v256H0z"/></clipPath></defs></svg>