<svg fill="none" xmlns="http://www.w3.org/2000/svg" viewBox="0 0 512 512"><path d="M128 6H0m128 500H0M6 0v512M384 506h128M384 6h128m-6 506V0" stroke="#0b70ba" stroke-width="12"/><g clip-path="url(#clip0)"><path fill-rule="evenodd" clip-rule="evenodd" d="M256 128c44 28 83 41 116 37 6 119-38 190-115 219-76-27-120-95-117-220 40 2 78-7 116-36zm1 41c30 18 56 27 79 25 4 81-26 129-79 149h-1V169h1zm-1-26c39 24 73 36 103 33 5 105-34 167-102 193-67-24-106-83-103-195 35 2 69-5 102-31z" fill="#0b70ba"/></g><defs><clipPath id="clip0"><path fill="#0b70ba" transform="translate(140 128)" d="M0 0h233v256H0z"/></clipPath></defs></svg>