<svg fill="none" xmlns="http://www.w3.org/2000/svg" viewBox="0 0 512 512"><path d="M373 128h-47c-5 0-8 4-10 8l-43 137h-93l-26-76h97a11 11 0 100-22H139c-10 0-12 9-10 14l33 98c1 5 6 8 10 8h108c5 0 9-3 10-8l44-137h39c6 0 11-5 11-11s-5-11-11-11zM182 314c-19 0-35 16-35 35s16 35 35 35 35-16 35-35-16-35-35-35zm13 35c0 8-6 14-13 14s-13-6-13-14c0-7 6-13 13-13s13 6 13 13zM267 314c-19 0-35 16-35 35s16 35 35 35 34-16 34-35-15-35-34-35zm13 35c0 8-6 14-13 14s-13-6-13-14c0-7 6-13 13-13s13 6 13 13z" fill="#21815b"/><path d="M128 6H0m128 500H0M6 0v512M384 506h128M384 6h128m-6 506V0" stroke="#21815b" stroke-width="12"/></svg>