<svg fill="none" xmlns="http://www.w3.org/2000/svg" viewBox="0 0 512 512"><path d="M128 6H0m128 500H0M6 0v512M384 506h128M384 6h128m-6 506V0" stroke="#d72516" stroke-width="12"/><g clip-path="url(#clip0)"><path d="M248 256l69-44h1l7 7v2l-52 60c-7 8-15 10-22 8-3-1-6-3-8-6l-4-8c-1-7 1-14 9-19zm-93 128a149 149 0 01-36-165 148 148 0 11242 161h-2l-7-8h-1l-20-20v-2l11-11h1l16 16a132 132 0 0027-76h-22l-1-2v-15l1-1h21a129 129 0 00-35-75l-14 15h-1l-11-11v-2l13-14a131 131 0 00-76-28v19l-1 1h-15l-2-1v-19a130 130 0 00-74 33l14 14v2l-11 11h-1l-14-14a130 130 0 00-31 76h22l1 1v16l-1 1h-22a129 129 0 0029 73l18-18h2l10 11v2a1358 1358 0 00-30 30z" fill="#d72516"/></g><defs><clipPath id="clip0"><path fill="#d72516" transform="translate(108 128)" d="M0 0h296v256H0z"/></clipPath></defs></svg>