<svg viewBox="0 0 183 47" fill="none" xmlns="http://www.w3.org/2000/svg">
    <title>Snipcart</title>
    <path
        d="M38.478 8.937l-14-8.012a7.17 7.17 0 00-7.044 0L3.522 8.937C1.321 10.17 0 12.547 0 15.013v16.113c0 2.553 1.32 4.843 3.522 6.075l13.912 8.013a7.17 7.17 0 007.044 0L38.39 37.2c2.201-1.232 3.522-3.61 3.522-6.075V15.013c.088-2.466-1.32-4.843-3.434-6.076zm-6.516 6.692c-.352-.352-.88-.528-1.585-.528-2.73 0-7.044-1.057-9.157-3.17-.176-.088-.352-.088-.44 0-2.113 2.113-6.428 3.17-9.157 3.17-.705 0-1.233.176-1.585.528-.352.44-.529 1.057-.617 1.585l24.654 9.95c.44.176.705.616.705 1.056 0 .352.176 2.378-1.145 3.874-.528.617-1.497 1.321-3.17 1.321-2.2 0-4.842.705-6.603 1.761-.705.44-1.233.88-1.497 1.409-.264.44-.705.704-1.321.704-.528 0-1.057-.264-1.233-.704-.88-1.673-4.93-3.17-8.1-3.17-1.673 0-2.642-.704-3.17-1.32-1.497-1.586-1.409-3.699-1.32-3.963.087-.528.527-.969 1.056-.969h.088c.616.089 1.056.617.968 1.233 0 .352 0 1.497.617 2.201.352.353.88.529 1.585.529 2.73 0 7.044 1.056 9.157 3.17.176.088.352.088.44 0 2.113-2.114 6.428-3.17 9.157-3.17.705 0 1.233-.176 1.585-.529.44-.44.529-1.144.617-1.584l-24.655-9.95-.088-.088c-.088-.088-.176-.088-.264-.176 0 0-.088-.088-.088-.176s-.088-.177-.088-.177c0-.088 0-.088-.088-.176 0-.088 0-.088-.088-.176 0-.264-.176-2.377 1.145-3.874.528-.616 1.497-1.32 3.17-1.32 3.17 0 7.22-1.498 8.1-3.17.264-.44.705-.705 1.233-.705.528 0 1.056.264 1.32.705.265.528.793.968 1.497 1.408C25.27 12.107 28 12.9 30.201 12.9c1.673 0 2.642.705 3.17 1.321 1.32 1.497 1.233 3.61 1.145 3.874-.088.529-.529.969-1.057.969h-.088c-.616-.088-1.056-.616-.968-1.233.176-.352.176-1.497-.44-2.201z"
        fill="currentColor" class="logo-snipcart__icon" data-v-ef4ec502=""></path>
    <path
        d="M68.545 19.37c0-1.593 1.783-2.276 3.21-2.276 1.425 0 2.97.455 3.09 2.049h1.307c-.357-2.618-2.734-3.187-4.517-3.187-2.258 0-4.397 1.252-4.397 3.642 0 2.846 3.446 3.529 5.705 4.325 1.188.342 2.139 1.025 2.139 2.277 0 1.707-1.783 2.618-3.328 2.618-1.901 0-3.447-.57-3.447-2.618H67c0 2.162 1.902 3.756 4.16 3.756 2.852 0 5.467-.91 5.467-3.756-.238-4.78-8.082-3.073-8.082-6.83zm24.484 8.537l-7.726-11.723h-1.426V29.5h1.307V18.005L92.672 29.5h1.545V16.184H92.91l.119 11.723zm9.746 1.707h1.307v-13.43h-1.307v13.43zm13.43-13.43h-3.447V29.5h1.308v-5.805h2.258c2.733 0 5.705-.57 5.705-3.756-.119-3.187-3.209-3.756-5.824-3.756zm.832 6.487h-3.09v-5.35h3.09c1.902 0 3.565.57 3.565 2.619-.118 2.162-1.782 2.731-3.565 2.731zm16.164 6.033c-3.566 0-4.635-3.073-4.635-5.805 0-2.732 1.069-5.805 4.635-5.805 1.545 0 3.09.683 3.328 2.277h1.307c-.238-2.39-2.377-3.415-4.635-3.415-4.16 0-6.062 3.3-6.062 6.943 0 3.756 1.783 6.943 6.062 6.943 2.258 0 4.397-1.252 4.754-3.528h-1.307c-.357 1.707-1.902 2.39-3.447 2.39zm14.143-12.52L141.758 29.5h1.308l1.426-3.643h6.893l1.545 3.643h1.427l-5.586-13.317h-1.427zm-2.377 8.65l3.09-7.512 2.972 7.512h-6.062zm20.681-2.276c1.663-.456 2.733-1.48 2.733-2.96 0-1.252-.475-2.276-1.426-2.845-1.07-.683-2.021-.683-3.328-.683h-4.516v13.317h1.307v-6.374h3.447c2.496 0 2.733.569 2.971 3.642.119.91.119 1.935.475 2.732h1.427c-.595-.797-.476-1.821-.713-3.984-.238-1.366-.595-2.504-2.377-2.845zm-2.734-.456h-2.734v-4.78h2.853c1.307 0 3.803-.228 3.803 2.39.119 2.276-2.139 2.39-3.922 2.39zm9.984-5.918v1.138h4.516v12.293h1.188V17.322H183v-1.138h-10.102z"
        fill="currentColor" class="logo-snipcart__text" data-v-ef4ec502=""></path>
</svg>