<svg viewBox="0 0 434 95" fill="none" xmlns="http://www.w3.org/2000/svg">
    <path
        d="M56.0596 32.1219C55.6145 31.4937 54.8632 31.1113 54.0563 31.1113H45.598C44.5685 31.1113 43.6225 31.7668 43.2886 32.7229L28.8761 73.8041L14.2409 32.6956C13.907 31.7395 12.9888 31.084 11.9315 31.084H3.22278C2.4159 31.084 1.69248 31.4664 1.21948 32.0946C0.774308 32.7229 0.663014 33.5423 0.913426 34.2798L21.6698 90.6846C22.0036 91.6406 22.9218 92.2689 23.9513 92.2689H33.1609C34.1903 92.2689 35.1085 91.6406 35.4424 90.6846L56.31 34.2798C56.5883 33.5423 56.477 32.7229 56.004 32.0946L56.0596 32.1219Z"
        fill="#17C1FF" />
    <path
        d="M116.27 63.6159C116.353 62.7145 116.409 61.4854 116.409 59.8738C116.409 54.1923 115.101 48.9752 112.541 44.3317C109.981 39.6882 106.364 35.9461 101.857 33.242C97.3218 30.5378 92.1744 29.1448 86.6097 29.1448C80.7111 29.1448 75.3412 30.5651 70.6668 33.3512C65.9925 36.1373 62.3198 40.0706 59.7044 45.0146C57.1168 49.9039 55.8091 55.5034 55.8091 61.6492C55.8091 67.795 57.1446 73.3946 59.76 78.3112C62.4033 83.2552 66.1316 87.1885 70.8338 89.9746C75.536 92.7607 80.9615 94.181 86.9436 94.181C93.3708 94.181 99.0468 92.8972 103.832 90.3297C108.59 87.7621 112.486 84.1839 115.407 79.7043C116.103 78.6117 115.797 77.164 114.711 76.4265L108.089 72.0835C107.533 71.7284 106.865 71.5918 106.197 71.7284C105.558 71.8649 104.973 72.2747 104.639 72.821C102.914 75.6617 100.577 77.9015 97.7391 79.5131C94.9011 81.0973 91.2006 81.9167 86.721 81.9167C81.3789 81.9167 77.2888 80.1959 74.2282 76.6177C71.5572 73.5038 69.9156 69.9256 69.2757 65.7191H113.849C115.101 65.7191 116.158 64.7904 116.27 63.5613V63.6159ZM70.1382 54.247C71.1398 50.9146 72.8371 48.1012 75.2299 45.7248C78.1792 42.8294 81.8797 41.4091 86.5819 41.4091C91.2841 41.4091 95.1794 42.6382 97.9339 45.1512C100.188 47.2271 101.801 50.2863 102.692 54.2197H70.1104L70.1382 54.247Z"
        fill="#17C1FF" />
    <path
        d="M174.894 39.7975C172.64 36.3012 169.58 33.5971 165.796 31.7943C162.095 30.0462 157.977 29.1448 153.637 29.1448C148.935 29.1448 144.733 30.2647 141.116 32.4499C139.642 33.3512 138.278 34.4165 137.054 35.6184V33.4605C137.054 32.1494 135.969 31.0568 134.606 31.0568H126.259C124.923 31.0568 123.81 32.1221 123.81 33.4605V89.8653C123.81 91.1764 124.895 92.269 126.259 92.269H134.606C135.941 92.269 137.054 91.2037 137.054 89.8653V61.6492C137.054 55.2849 138.39 50.1771 141.033 46.5169C143.509 43.0753 147.21 41.3818 152.301 41.3818C161.038 41.3818 165.1 45.9433 165.1 55.7493V89.8653C165.1 91.1764 166.185 92.269 167.549 92.269H175.896C177.231 92.269 178.344 91.2037 178.344 89.8653V52.1437C178.344 47.4456 177.203 43.2938 174.978 39.7975H174.894Z"
        fill="#17C1FF" />
    <path
        d="M245.566 0H237.219C235.883 0 234.77 1.06527 234.77 2.40369V35.7003C233.184 34.3346 231.431 33.1327 229.567 32.1767C225.755 30.1827 221.498 29.1994 216.963 29.1994C211.065 29.1994 205.695 30.6198 201.02 33.4059C196.346 36.1919 192.673 40.0979 190.058 45.0146C187.47 49.8766 186.163 55.4488 186.163 61.6219C186.163 67.795 187.498 73.5038 190.114 78.3931C192.757 83.3371 196.485 87.2704 201.187 90.0565C205.889 92.8426 211.259 94.263 217.186 94.263C221.665 94.263 225.867 93.2523 229.623 91.2583C231.459 90.275 233.184 89.1278 234.742 87.7621V89.9199C234.742 91.231 235.828 92.3236 237.191 92.3236H245.538C246.874 92.3236 247.986 91.2583 247.986 89.9199V2.40369C247.986 1.09259 246.901 0 245.538 0H245.566ZM234.77 61.6765C234.77 65.6372 233.991 69.2154 232.433 72.3293C230.903 75.4158 228.844 77.7376 226.117 79.4311C223.418 81.1246 220.413 81.944 216.935 81.944C213.457 81.944 210.592 81.1246 207.948 79.4311C205.277 77.7376 203.218 75.3885 201.688 72.302C200.13 69.1881 199.351 65.5825 199.351 61.54C199.351 57.4974 200.13 54.0284 201.688 50.9692C203.218 47.9099 205.277 45.6155 207.948 43.8947C210.592 42.2012 213.541 41.3817 216.935 41.3817C220.33 41.3817 223.418 42.2012 226.117 43.8947C228.788 45.5609 230.903 47.9646 232.433 50.9965C233.991 54.1104 234.77 57.6886 234.77 61.6492V61.6765Z"
        fill="#17C1FF" />
    <path
        d="M311.508 31.0842H303.16C301.825 31.0842 300.712 32.1495 300.712 33.4879V61.6766C300.712 68.041 299.376 73.1488 296.733 76.809C294.257 80.2506 290.556 81.9441 285.465 81.9441C276.728 81.9441 272.666 77.3826 272.666 67.5766V33.4606C272.666 32.1495 271.581 31.0569 270.217 31.0569H261.87C260.535 31.0569 259.422 32.1222 259.422 33.4606V71.1821C259.422 75.8803 260.563 80.0321 262.789 83.5284C265.042 87.0247 268.103 89.7288 271.887 91.5316C275.615 93.2797 279.705 94.1811 284.046 94.1811C288.748 94.1811 292.949 93.0612 296.566 90.876C298.041 89.9747 299.404 88.9367 300.656 87.7075V89.8654C300.656 91.1765 301.741 92.2691 303.105 92.2691H311.452C312.787 92.2691 313.9 91.2038 313.9 89.8654V33.4879C313.9 32.1768 312.815 31.0842 311.452 31.0842H311.508Z"
        fill="#17C1FF" />
    <path
        d="M361.59 30.1281C359.559 29.4999 357.416 29.1721 355.218 29.1721C350.46 29.1721 346.148 30.4832 342.336 33.1054C340.694 34.2253 339.164 35.5638 337.745 37.1207V33.5152C337.745 32.204 336.66 31.1115 335.297 31.1115H326.949C325.614 31.1115 324.501 32.1767 324.501 33.5152V89.92C324.501 91.2311 325.586 92.3237 326.949 92.3237H335.297C336.632 92.3237 337.745 91.2584 337.745 89.92V62.9331C337.745 58.3442 338.58 54.3563 340.249 51.0239C341.891 47.7734 344.061 45.2878 346.704 43.5943C349.347 41.9008 352.13 41.0813 355.19 41.0813C356.888 41.0813 358.39 41.4091 359.781 42.0646C360.532 42.4197 361.423 42.3651 362.118 41.9281C362.814 41.491 363.259 40.7262 363.259 39.9068V32.4226C363.259 31.3846 362.564 30.4559 361.562 30.1554L361.59 30.1281Z"
        fill="#17C1FF" />
    <path
        d="M421.828 63.6159C421.911 62.7145 421.967 61.5127 421.967 59.8738C421.967 54.1924 420.659 48.9479 418.127 44.3318C415.567 39.6883 411.95 35.9462 407.443 33.242C402.908 30.5379 397.76 29.1721 392.196 29.1721C386.297 29.1721 380.927 30.5925 376.253 33.3786C371.578 36.1647 367.906 40.098 365.29 45.0419C362.703 49.9313 361.395 55.5308 361.395 61.6766C361.395 67.8224 362.731 73.4219 365.346 78.3385C367.989 83.2825 371.718 87.2158 376.448 90.0019C381.15 92.788 386.575 94.2084 392.557 94.2084C398.985 94.2084 404.661 92.9246 409.446 90.357C414.204 87.7894 418.099 84.2112 421.021 79.7316C421.716 78.639 421.41 77.1913 420.325 76.4538L413.703 72.1108C413.147 71.7557 412.479 71.6191 411.811 71.7557C411.171 71.8923 410.615 72.302 410.253 72.8483C408.528 75.689 406.191 77.9288 403.325 79.5404C400.487 81.1246 396.787 81.9441 392.307 81.9441C386.965 81.9441 382.875 80.2232 379.814 76.645C377.143 73.5311 375.502 69.9529 374.862 65.7465H419.435C420.687 65.7465 421.744 64.8178 421.856 63.5886L421.828 63.6159ZM375.696 54.247C376.698 50.9146 378.395 48.1012 380.788 45.7248C383.737 42.8295 387.438 41.4091 392.14 41.4091C396.842 41.4091 400.737 42.6383 403.492 45.1512C405.746 47.2271 407.359 50.2864 408.25 54.2197H375.668L375.696 54.247Z"
        fill="#17C1FF" />
    <path fill-rule="evenodd" clip-rule="evenodd"
        d="M425.175 15.8333C421.188 15.8333 417.956 19.0233 417.956 22.9583C417.956 26.8934 421.188 30.0833 425.175 30.0833C429.163 30.0833 432.395 26.8934 432.395 22.9583C432.395 19.0233 429.163 15.8333 425.175 15.8333ZM416.351 22.9583C416.351 18.1489 420.302 14.25 425.175 14.25C430.049 14.25 434 18.1489 434 22.9583C434 27.7678 430.049 31.6667 425.175 31.6667C420.302 31.6667 416.351 27.7678 416.351 22.9583Z"
        fill="#17C1FF" />
    <path
        d="M424.686 22.2427C425.185 22.2427 425.547 22.1443 425.765 21.9565C425.982 21.7776 426.1 21.4734 426.1 21.0441C426.1 20.6236 425.982 20.3284 425.765 20.1406C425.547 19.9617 425.185 19.8722 424.686 19.8722H423.671V22.2427H424.686ZM423.671 23.8797V27.3684H421.26V18.1458H424.94C426.173 18.1458 427.07 18.3515 427.641 18.763C428.221 19.1655 428.502 19.8096 428.502 20.6952C428.502 21.3035 428.357 21.8044 428.058 22.198C427.759 22.5827 427.315 22.8779 426.707 23.0568C427.043 23.1373 427.333 23.3072 427.596 23.5667C427.859 23.8261 428.121 24.2197 428.384 24.7564L429.699 27.3684H427.133L425.991 25.0784C425.765 24.6222 425.529 24.3002 425.293 24.1392C425.058 23.9692 424.74 23.8797 424.351 23.8797H423.671Z"
        fill="#17C1FF" />
</svg>