<svg fill="none" xmlns="http://www.w3.org/2000/svg" viewBox="0 0 1160 966"><path d="M361.2 809.1c-9 0-13.5-12-13.5-36.1V177.9c0-11.5-2.3-16.9-7-16.2l-43.1 10.8c-7.9.7-11.8-7.2-11.8-23.7V97.1c0-14.3 4.3-22.4 12.9-24.2l142.2-36.6a19 19 0 014.8-.5c7.9 0 11.8 8.4 11.8 25.3v712c0 24.1-4.7 36.1-14 36.1l-82.3-.1v0zm368.3 1.1c-14.4 0-26.8-1-37.4-3a99.8 99.8 0 01-33.1-13.5 84 84 0 01-28.3-28.8 166.5 166.5 0 01-18-51.2c-4.6-21.9-7-47.9-7-78.1V359.4c0-7.2-2-10.8-5.9-10.8h-33.4c-9 0-13.5-8.6-13.5-25.8v-29.1c0-17.6 4.5-26.4 13.5-26.4h33.4c3.9 0 5.9-4.8 5.9-14.5l9.7-209.5c1.1-19 5.7-28.5 14-28.5h53.9c9 0 13.5 9.5 13.5 28.5v209.5c0 9.7 2.1 14.5 6.5 14.5H772c9 0 13.5 8.8 13.5 26.4v29.1c0 17.2-4.5 25.8-13.5 25.8h-68.9c-2.5 0-4.2.6-5.1 1.9-.9 1.2-1.3 4.2-1.3 8.9v277.9c0 20.8 1.3 38.2 4 52 2.7 13.8 6.6 24 11.8 30.4a41.4 41.4 0 0015.6 12.9 49.2 49.2 0 0019.1 3.2h38.2c9.7 0 14.5 6.7 14.5 19.9V788c0 14.7-5.2 22.1-15.6 22.1l-54.8.1v0zm206.7 64.6c8.2 0 15.4-6.7 21.5-20.2s9.2-32.6 9.2-57.4c0-5.8-3.6-25.7-10.8-59.8L850.5 298.5c-.7-5-1.1-9-1.1-11.9 0-12.9 2.7-19.4 8.1-19.4h65.2c5 0 9.1 1.7 12.4 5.1 3.3 3.4 5.8 10.3 7.5 20.7l70 370.5c1.4 4.3 2.3 6.5 2.7 6.5 1.4 0 2.2-2 2.2-5.9l54.9-369.5a47 47 0 016.7-21.8c3-3.8 6.9-5.7 11.6-5.7h45.2c6.1 0 9.2 7 9.2 21 0 3.2-.4 7.4-1.1 12.4l-95.9 499.3c-7.5 41.3-15.8 72.9-24.8 94.8-9 21.9-19 36.8-30.2 44.7a77.6 77.6 0 01-44.2 12.4h-5.4c-29.1 0-48.8-7.7-59.2-23.2-2.9-3.2-4.3-11.5-4.3-24.8 0-26.6 4.3-39.9 12.9-39.9.7 0 7.2 1.8 19.4 5.4 12.4 3.8 20.3 5.6 23.9 5.6v0zM90.2 810.1c-9 0-13.5-12-13.5-36.1V178.9c0-11.5-2.3-16.9-7-16.2l-43.1 10.8c-7.9.7-11.8-7.2-11.8-23.7V98.1c0-14.3 4.3-22.4 12.9-24.2L170 37.2a19 19 0 014.8-.5c7.9 0 11.8 8.4 11.8 25.3v712c0 24.1-4.7 36.1-14 36.1H90.2v0z" fill="#37322e" stroke="#37322e" stroke-width="28" stroke-miterlimit="10"/></svg>