<svg viewBox="0 0 53 16" fill="none" xmlns="http://www.w3.org/2000/svg"><path d="M9.1 14.4l4.6-.8-2.3-2.8L9 7.9l2.5-6.8a1099.8 1099.8 0 018.2 14v.1H4.5l4.6-.8zm29.1-.7c-1.2 0-1.8-.7-2-2V7.4h1v4c0 .6.2 1 .4 1.2l.7.4h.7c.3-.1.6-.2.8-.5.3-.2.4-.6.5-1V7.3h1.1V13.6h-1V13v-.5a2.1 2.1 0 01-2.2 1.1zm11.7 0l-1.2-.3c-.7-.5-1.1-1.3-1.3-2.3V10c.1-.7.4-1.4.8-1.9l.4-.4a2.8 2.8 0 012-.6c.7 0 1.3.4 1.7.8.4.5.6 1.2.6 2v.8h-4.5l.2 1c.1.3.3.6.5.7.3.3.7.4 1.1.5h.8a3.1 3.1 0 001.5-.7v.9l-.1.1c-.5.3-1 .5-1.5.5h-1zm2-4c0-.5-.2-1-.5-1.3-.3-.2-.5-.4-.8-.4h-.7c-.3 0-.6.2-.8.4a2.3 2.3 0 00-.6 1.4h3.4zm-30.4 3.9L23.2 9 25 4.7H26v.1l3.4 8.8h-1.2l-.4-1.2-.5-1.3h-3.7l-.5 1.3-.4 1.2h-1.2zm5.5-3.4a780.8 780.8 0 00-1.7-3.9 246.2 246.2 0 01-1.4 3.9 61.4 61.4 0 003 0zm2.7 3.2v-.1l2-2.6 1.8-2.6H30v-.8H35V7.6L33 10l-1.9 2.6H35v.9h-5.2v-.2zm13.8.2V7.3h1V8.4l.6-.8a1.5 1.5 0 011.2-.5l.4.1v1.1c-.3-.2-.5-.2-.7-.2h-.4l-.7.6a3 3 0 00-.4 1.2v3.7H44a9 9 0 01-.5 0zM0 13.6l2.5-4.4L5 5l3-2.5A1080.9 1080.9 0 0110.7.1L7.6 7l-3 6.7H0z" fill="#37322e"/></svg>