<svg fill="none" xmlns="http://www.w3.org/2000/svg" viewBox="0 0 192 57"><path d="M137.73 38.1a6.56 6.56 0 110-13.13 6.56 6.56 0 010 13.12zm12.1-19.9h-3.9c-.86 0-1.36.58-1.64 1.26a.46.46 0 01-.62.24 13.75 13.75 0 00-5.94-1.42 13.25 13.25 0 105.41 25.32h.01c.54-.26.82-.07.85.32-.09 4.74-2.52 6.85-6.8 6.85a5.87 5.87 0 01-5.19-2.7 1.04 1.04 0 00-.89-.48H126a.83.83 0 00-.82 1.03c1.2 4.46 5.7 8.23 12.22 8.23 9.63 0 13.42-6.4 13.42-13.43V19.2a1 1 0 00-1-1M79.1 38.1a6.57 6.57 0 110-13.14 6.57 6.57 0 010 13.13zm1.94-19.67c-2.64-.4-5.34.02-7.74 1.2-.22.1-.48-.05-.48-.3V7.69a1 1 0 00-1-1h-4.8A1.01 1.01 0 0066 7.69v35.66a1 1 0 001 1h4.25c.6 0 1.12-.36 1.34-.88a.33.33 0 01.46-.17 13.25 13.25 0 108-24.87" fill="#37322e"/><path fill-rule="evenodd" clip-rule="evenodd" d="M190.2 23.02c-1.77-4.6-6.82-6.25-11.4-5.36-1.26.24-2.48.68-3.59 1.3-.08.05-.26.19-.44.3-.18.09-.47 0-.54-.17a1.46 1.46 0 00-1.34-.9h-4.24a1 1 0 00-1 1v24.17c0 .54.43.98.97.98h4.97a.98.98 0 00.98-.98V29.08c0-2.97 1.77-5.3 4.8-5.3 3.32 0 4.73 2.23 4.73 5.1v14.46c0 .56.46 1.02 1.02 1.02H190c.56 0 1.01-.46 1.01-1.02V27.68a13 13 0 00-.8-4.66zm-28.44-4.81h-4.92a1 1 0 00-1 1v24.14a1 1 0 001 1h4.91a1 1 0 001-1V19.21a1 1 0 00-1-1h.01zm-47.8 10.1h-11.3c-.26 0-.46-.21-.42-.46.34-2.1 2.93-4.07 6.07-4.07s5.73 1.98 6.07 4.07c.04.24-.17.46-.43.46zm-5.71-10.1c-7.82 0-13.64 6.8-13.17 14.37a13.16 13.16 0 0012.04 12.1v.02c9.23.67 12.74-4.93 13.73-7.3a.76.76 0 00-.07-.7.75.75 0 00-.63-.32h-5.45c-.32 0-.62.13-.86.34-2.8 2.49-6.64 1.86-7.14 1.76h-.05a7 7 0 01-5-4.4.38.38 0 01.35-.52h18.25c.65 0 1.18-.52 1.18-1.15v-1.3c-.33-6.88-5.36-12.9-13.17-12.9h-.01zM159.3 6.68a3.98 3.98 0 00-3.95 4 3.96 3.96 0 007.9.01c0-2.22-1.73-4-3.95-4M23.63 10.47V.94A.93.93 0 0022.6 0c-4.9.55-9.4 2.48-13.08 5.4a.93.93 0 00-.06 1.38l6.77 6.74c.32.32.82.35 1.2.1a14.33 14.33 0 015.43-2.25.93.93 0 00.78-.91M13.67 33.47a14.18 14.18 0 01-2.25-5.4.94.94 0 00-.92-.78H.94c-.55 0-1 .47-.93 1.02.55 4.9 2.49 9.37 5.42 13.04.34.42.99.45 1.38.06l6.76-6.75a.94.94 0 00.1-1.2M41.48 5.4C37.71 2.42 33.18.55 28.4 0a.93.93 0 00-1.03.94v9.53c0 .45.34.83.78.91 1.95.36 3.8 1.13 5.43 2.24a.94.94 0 001.2-.1l6.76-6.74a.92.92 0 00-.06-1.37M24.84 28.72L9.46 44.05a.92.92 0 00.06 1.38A25.6 25.6 0 0025.5 51a25.6 25.6 0 0015.98-5.57.92.92 0 00.06-1.38L26.16 28.72a.93.93 0 00-1.32 0M13.57 16.17L6.81 9.43a.93.93 0 00-1.38.06C2.43 13.24.55 17.76 0 22.53a.93.93 0 00.93 1.02h9.56c.45 0 .83-.33.9-.78a14.12 14.12 0 012.26-5.4.94.94 0 00-.1-1.2h.01zm26.92 7.38h9.56c.55 0 .99-.48.93-1.02a25.38 25.38 0 00-5.42-13.04.93.93 0 00-1.38-.06l-6.76 6.74a.93.93 0 00-.1 1.2 14.24 14.24 0 012.26 5.4.93.93 0 00.9.78M39.58 28.06a14.12 14.12 0 01-2.25 5.41.93.93 0 00.1 1.2l6.76 6.74a.94.94 0 001.38-.07c3-3.75 4.88-8.27 5.42-13.04a.93.93 0 00-.94-1.02h-9.56a.94.94 0 00-.92.77" fill="#37322e"/></svg>