<svg fill="none" xmlns="http://www.w3.org/2000/svg" viewBox="0 0 656 150"><path d="M187.9 90.9c3.9-3 4.5-1.3 7.9 2.1 1.7 1.7 6.1 4.6 3.3 7.1a30.4 30.4 0 01-50.1-24 29 29 0 019.8-21c5.7-4.7 13-7.1 20.4-6.9 3.7 0 7.3.7 10.7 2.1 2.3.9 4.5 2 6.5 3.5 4 3 2.2 4.9-1 8l-2.1 2.1c-1.6 1.6-2.7 2.7-4.8 1.3-4-3-9.2-4.1-14.1-3-15.7 4.1-14.8 32 4.4 32 3.4-.2 6.5-1.3 9.1-3.3zM624 106.2a4.8 4.8 0 01-4.8-4.8V39.6c0-2.6 2.1-4.8 4.8-4.8h5.1c2.6 0 4.8 2.1 4.8 4.8v61.9c0 2.6-2.1 4.8-4.8 4.8l-5.1-.1zm-26.9-7a25.2 25.2 0 01-18.8 8c-16 0-23.6-13.2-23.6-28V54.1c0-2.6 2.1-4.8 4.8-4.8h5.1c2.6 0 4.8 2.1 4.8 4.8v25a13 13 0 0013.2 14.7c8-.2 14.3-6.9 14.1-14.8v-9.6-15.3c0-2.6 2.1-4.8 4.8-4.8h5.1c2.6 0 4.8 2.1 4.8 4.8v47.5c0 2.6-2.1 4.7-4.7 4.7h-4.3a4.8 4.8 0 01-4.7-4.7v-2.4h-.6zm-61.4-49.7h10c2.6 0 4.7 2.2 4.7 4.8v3.3c0 2.6-2.1 4.8-4.7 4.8h-10v39.1c0 2.6-2.1 4.8-4.8 4.8h-5.1a4.8 4.8 0 01-4.8-4.8v-54a20.4 20.4 0 0118.5-22.2h8c2.6 0 4.7 2.2 4.7 4.8v3c0 2.6-2.1 4.8-4.7 4.8h-3.8c-5.7 0-8.1 4.4-8.1 9.7l.1 1.9zm-35.6 0H511c2.6 0 4.7 2.1 4.7 4.7v3.2c0 2.6-2.1 4.7-4.7 4.7h-10.9V86c0 4.6 2.2 7.3 6.9 7.3h2.2c2.6 0 4.7 2.1 4.7 4.7v3.2c0 2.6-2.1 4.7-4.7 4.7h-6.6c-11.8-.7-17.1-8.4-17.1-19.9V39.7c0-2.6 2.1-4.7 4.7-4.7h5c2.6 0 4.7 2.1 4.7 4.7l.2 9.8zm-157.8 0h10.9c2.6 0 4.7 2.1 4.7 4.7v3.2c0 2.6-2.1 4.7-4.7 4.7h-10.6V86c0 4.6 2.2 7.3 6.9 7.3h2.2c2.6 0 4.7 2.1 4.7 4.7v3.2c0 2.6-2.1 4.7-4.7 4.7h-3.3c-12.9 0-20.3-5.5-20.3-20V39.7c0-2.6 2.1-4.7 4.7-4.7h5c2.6 0 4.7 2.1 4.7 4.7v9.8h-.2zm-64 6.9c4.7-5 11.3-7.9 18.2-8 15.9 0 24.3 13.1 24.3 28v25.1c0 2.6-2.1 4.8-4.8 4.8h-5.1a4.8 4.8 0 01-4.8-4.8v-25a13 13 0 00-11.3-14.6l-1.9-.1c-8 .2-14.3 6.9-14 14.8v24.8c0 2.6-2.1 4.7-4.7 4.7h-5a4.7 4.7 0 01-4.7-4.7V54c0-2.6 2.1-4.7 4.7-4.7h4.3c2.6.1 4.6 2.1 4.7 4.7l.1 2.4zm157.9 0c4.7-5 11.3-7.9 18.2-8 15.9 0 24.3 13.1 24.3 28v25.1c0 2.6-2.1 4.8-4.8 4.8h-5.1a4.8 4.8 0 01-4.8-4.8v-25a13 13 0 00-11.3-14.6l-1.9-.1c-8 .2-14.3 6.9-14 14.8v24.8c0 2.6-2.1 4.7-4.7 4.7H427a4.7 4.7 0 01-4.7-4.7V54c0-2.6 2.1-4.7 4.7-4.7h4.3c2.6.1 4.6 2.1 4.7 4.7v2.5l.2-.1zm-206.4-8.2a28.5 28.5 0 00-29.5 27.6v2.1a29.6 29.6 0 1059.2 0 28.7 28.7 0 00-27.8-29.7h-1.9zm143.6 35a14.8 14.8 0 0016.3 11.2c3.7-.1 7.4-.9 10.7-2.4l1.6-.8c1.8-1 3.4-1.6 5 0l2.6 2.6 2.3 2.5c2.4 3 .7 3.8-2 5.6-6.1 4-13.2 6.1-20.5 6.1-18.8 0-31.3-11.4-31.3-30.4a28.5 28.5 0 0127.2-29.8h3.2c18.2 0 28.7 10.7 29 29 0 5 .3 6.6-4.9 6.6l-39.2-.2zM230.3 61.5c8.6.2 15.4 7.3 15.2 15.9v.4a15 15 0 01-13.6 16.3 15 15 0 01-16.3-16.3 15 15 0 0113.8-16.2h1.1l-.2-.1zm143.8 9.3h29.2a12.5 12.5 0 00-14.2-10.2 15.2 15.2 0 00-15 10.2z" fill="#37322e"/><path d="M100.6 52.6s9.8 11.3 19.7.9c9.9-10.4-5.8-21.6-5.8-21.6S82.1 3 43.2 32.2c0 0-21.3 16.3-20.3 46.6s26.5 44.6 26.5 44.6 30.9 20.9 63.6-2.5c0 0 15.9-8.4 6.8-22.3 0 0-9-10.1-16.8-1.6a32 32 0 01-46.1.7c-18.1-17-8.3-52.3 20.4-53.4 0 0 12.3-1.6 23.3 8.3z" stroke="#37322e" stroke-width="5" stroke-miterlimit="10"/><path d="M47.7 56.6a12.2 12.2 0 100-24.4 12.2 12.2 0 000 24.4zM48.3 118.8a12.2 12.2 0 100-24.4 12.2 12.2 0 000 24.4z" stroke="#37322e" stroke-width="5" stroke-miterlimit="10"/></svg>