<svg version="1.1" id="Layer_1" xmlns="http://www.w3.org/2000/svg" x="0" y="0" viewBox="0 0 603 103" xml:space="preserve"><path fill="#37322e" d="M52.1 102.1V82.5a31.1 31.1 0 0011.4-59.9 31.1 31.1 0 00-42.4 28.9H1.5c0-33.1 32-58.9 66.7-48.1a50.8 50.8 0 01-16.1 98.7z"/><path fill="#37322e" class="st0" d="M52.1 82.5H32.6V63h19.5zM32.6 97.5h-15v-15h15zM17.6 82.5H5V70h12.6z"/><path id="XMLID_2635_" d="M181.5 30.2a37 37 0 00-21.4-6.1h-18.3v58.1h18.3a35 35 0 0021.4-6.4c3.2-2.2 5.7-5.4 7.4-9.3s2.6-8.5 2.6-13.7a34 34 0 00-2.6-13.6 20.6 20.6 0 00-7.4-9zm-29 3.8h5.8c6.4 0 11.7 1.3 15.7 3.7 4.4 2.7 6.7 7.8 6.7 15.1 0 7.6-2.3 12.9-6.7 15.8a28.3 28.3 0 01-15.6 3.8h-5.8l-.1-38.4z"/><path fill="#37322e" d="M204.3 23.4c-1.8 0-3.3.6-4.5 1.8a6.1 6.1 0 00-1.9 4.4c0 1.8.6 3.3 1.9 4.5 1.2 1.2 2.7 1.9 4.5 1.9s3.3-.6 4.5-1.9a6.4 6.4 0 001.9-4.5c0-1.8-.6-3.3-1.9-4.4a6.3 6.3 0 00-4.5-1.8zM199 41.3h10.3v41H199zM246.8 44.7a15.4 15.4 0 00-10.3-4.4 19 19 0 00-14.1 5.8 20.3 20.3 0 00-5.5 14.7c0 5.8 1.8 10.7 5.5 14.7a19 19 0 0014.1 5.8c4 0 7.4-1.1 10.2-3.3v1c0 3.4-.9 6-2.7 7.9a10 10 0 01-7.4 2.7c-4.8 0-7.7-1.9-11.4-6.8l-7 6.7.2.3a25 25 0 006.9 6.2c3.1 2 6.9 3 11.5 3 6.1 0 11.1-1.9 14.7-5.6 3.7-3.7 5.5-8.7 5.5-14.9V41.3h-10.1l-.1 3.4zm-2.7 24.2c-1.8 2-4.1 3-7.1 3s-5.3-1-7-3c-1.8-2-2.7-4.7-2.7-8s.9-6.1 2.7-8.1 4.1-3.1 7-3.1c3 0 5.3 1 7.1 3.1 1.8 2 2.7 4.8 2.7 8.1s-1 6-2.7 8zM265.7 41.3H276v41h-10.3zM271 23.4c-1.8 0-3.3.6-4.5 1.8a6.1 6.1 0 00-1.9 4.4c0 1.8.6 3.3 1.9 4.5 1.2 1.2 2.7 1.9 4.5 1.9s3.3-.6 4.5-1.9a6.4 6.4 0 001.9-4.5c0-1.8-.6-3.3-1.9-4.4a6.3 6.3 0 00-4.5-1.8zM298.6 30.3h-10.1v11.1h-5.9v9.4h5.9v17c0 5.3 1.1 9.1 3.2 11.3 2.1 2.2 5.8 3.3 11.1 3.3l5-.2h.5v-9.4l-3.5.2c-2.5 0-4.1-.4-4.9-1.3s-1.2-2.7-1.2-5.4V50.7h9.6v-9.4h-9.6v-11h-.1zM356.5 24.1h10.3v58.1h-10.3zM470.9 67.6a24.4 24.4 0 01-5.2 4.8 9.7 9.7 0 01-5.3 1.4c-3 0-5.5-1.1-7.5-3.4s-3-5.2-3-8.7 1-6.4 2.9-8.6c2-2.3 4.4-3.4 7.4-3.4 3.3 0 6.8 2.1 9.8 5.6l6.8-6.5a20.2 20.2 0 00-16.9-8.5c-5.7 0-10.6 2.1-14.6 6.1s-6 9.2-6 15.3 2 11.2 6 15.3 8.9 6.1 14.6 6.1c7.5 0 13.5-3.2 17.5-9.1l-6.5-6.4zM513.2 47c-1.5-2-3.5-3.7-5.9-4.9a19.3 19.3 0 00-8.5-1.8c-5.8 0-10.5 2.1-14 6.3a23.7 23.7 0 00-5.2 15.4c0 6.2 1.9 11.3 5.7 15.3 3.7 3.9 8.8 5.9 14.9 5.9 6.9 0 12.7-2.8 16.9-8.4l.2-.3-6.7-6.5c-.6.8-1.5 1.6-2.3 2.4a11 11 0 01-8.2 3.3c-2.9 0-5.2-.8-7-2.5a8.9 8.9 0 01-2.9-6.2h27.3l.1-3.8a22.7 22.7 0 00-4.4-14.2zm-22.5 9.7c.5-2 1.4-3.6 2.7-4.9a7.3 7.3 0 015.4-2.1c2.5 0 4.4.7 5.7 2.1a8.1 8.1 0 012.1 4.8h-15.9v.1zM552.8 44.4c-3.1-2.7-7.4-4-12.8-4-3.4 0-6.6.8-9.5 2.2a17 17 0 00-7 6.6l.1.1 6.6 6.3c2.7-4.3 5.7-5.8 9.7-5.8 2.2 0 3.9.6 5.3 1.7s2 2.6 2 4.4v2c-2.6-.8-5.1-1.2-7.6-1.2-5.1 0-9.3 1.2-12.4 3.6a12.3 12.3 0 00-4.7 10.2c0 3.8 1.3 7 4 9.3 2.7 2.2 6 3.4 9.9 3.4s7.6-1.6 10.9-4.3v3.4h10.1V55.9c.2-4.9-1.4-8.8-4.6-11.5zm-18.3 22.2a8.7 8.7 0 014.9-1.2c2.5 0 5.1.5 7.8 1.5v4a12.4 12.4 0 01-8.9 3.1c-1.8 0-3.2-.4-4.1-1.2-.9-.8-1.4-1.7-1.4-3s.6-2.4 1.7-3.2zM597.2 45.2a15.4 15.4 0 00-12-4.8 14 14 0 00-9.9 3.5v-2.5h-10.1v41h10.3V59.7c0-3.1.7-5.6 2.2-7.3 1.5-1.8 3.4-2.6 6.1-2.6 2.3 0 4.1.8 5.4 2.3 1.3 1.6 2 3.7 2 6.4v23.7h10.3V58.5c0-5.6-1.4-10.1-4.3-13.3zM343.6 44.4c-3.1-2.7-7.4-4-12.8-4-3.4 0-6.6.8-9.5 2.2a17 17 0 00-7 6.6l.1.1 6.6 6.3c2.7-4.3 5.7-5.8 9.7-5.8 2.2 0 3.9.6 5.3 1.7s2 2.6 2 4.4v2c-2.6-.8-5.1-1.2-7.6-1.2-5.1 0-9.3 1.2-12.4 3.6a12.3 12.3 0 00-4.7 10.2c0 3.8 1.3 7 4 9.3 2.7 2.2 6 3.4 9.9 3.4s7.6-1.6 10.9-4.3v3.4h10.1V55.9c.1-4.9-1.5-8.8-4.6-11.5zm-18.3 22.2a8.7 8.7 0 014.9-1.2c2.5 0 5.1.5 7.8 1.5v4a12.4 12.4 0 01-8.9 3.1c-1.8 0-3.2-.4-4.1-1.2a3.7 3.7 0 01-1.4-3c0-1.3.5-2.4 1.7-3.2zM404.2 83.1a30 30 0 110-60 30 30 0 010 60zm0-49.3a19.4 19.4 0 100 38.8 19.4 19.4 0 000-38.8z"/></svg>