<svg fill="none" xmlns="http://www.w3.org/2000/svg" viewBox="0 0 239 68"><path d="M72.2 52.7h-4.5V17.6H88v4.3H72.2v11.5h14.2v4.2H72.2v15zm24-30c-1 1-2.7 1.2-4 .4a3.2 3.2 0 01-1-4 3.1 3.1 0 016 1.3 3 3 0 01-1 2.2zm0 30h-4.4v-24h4.5v24zm9.8 0h-4.4v-24h4.2v3.9h.2a6.1 6.1 0 012.8-3.2 7.9 7.9 0 014-1.3c1.2 0 2.3.2 3.4.6l-1.7 4.2c-.8-.3-1.6-.4-2.4-.4-1.6 0-3.2.8-4.2 2a7 7 0 00-2 5l.1 13.2zm22.3.7c-3.5 0-6.4-1.2-8.7-3.6a13 13 0 01-3.3-9.1c0-3.3 1-6.6 3.2-9 2.1-2.5 5.2-3.9 8.4-3.8 3.5 0 6.3 1.1 8.4 3.5 2.1 2.3 3.2 5.4 3.1 9.3v.8h-18.7c.1 2.4 1 4.3 2.4 5.8a7.2 7.2 0 005.1 2c3.2 0 5.4-1.3 6.5-4l4 1.6a10.7 10.7 0 01-10.4 6.5zm6.4-15.6c0-1.4-.7-2.7-1.8-4-1.2-1.2-2.9-1.8-5.1-1.8-1.6 0-3.1.5-4.3 1.6a8 8 0 00-2.5 4.2h13.7zm20.8 15.6a10 10 0 01-4.8-1.1 8.2 8.2 0 01-3.2-3h-.2v3.4H143V17.6h4.5v11l-.2 3.4h.2a8.2 8.2 0 013.2-3 10.3 10.3 0 0112.8 2.5 13 13 0 013.2 9.2 13 13 0 01-3.3 9 10.3 10.3 0 01-8 3.7zm-.7-4c2 0 4-1 5.3-2.4a8.9 8.9 0 002.2-6.3c0-2.7-.7-4.8-2.2-6.3a7.2 7.2 0 00-10.7 0 8.9 8.9 0 00-2.2 6.3c0 2.6.8 4.7 2.3 6.3a7 7 0 005.3 2.4zm23.2 4c-2.5 0-4.6-.7-6.2-2.2a7.4 7.4 0 01-2.6-5.8c0-2.6 1-4.6 3-6.1a12 12 0 017.4-2.3c2.6 0 4.7.5 6.4 1.5v-.7c0-1.6-.6-3.1-1.8-4.2a6.3 6.3 0 00-4.4-1.6c-1.2 0-2.4.3-3.5 1-1 .5-1.7 1.4-2.1 2.5l-4-1.8a9.4 9.4 0 013.2-4c1.6-1.2 3.7-1.8 6.3-1.8 3 0 5.6.9 7.6 2.7 2 1.7 3 4.3 3 7.6v14.5H186v-3.3h-.2a8.7 8.7 0 01-7.8 4zm.8-4c1.8 0 3.6-.8 5-2.1s2.2-3 2.2-5c-1.2-1-3.1-1.5-5.6-1.5-2.2 0-3.8.5-4.9 1.4-1 .8-1.6 2-1.6 3.3 0 1.2.5 2.2 1.5 2.8 1 .7 2.2 1 3.4 1zm24.5 4a10.5 10.5 0 01-10.3-6.8l4-1.7c1.2 3 3.4 4.5 6.4 4.5 1.2 0 2.4-.2 3.4-.9.8-.5 1.3-1.5 1.3-2.4 0-1.6-1-2.7-3.2-3.2l-4.8-1.2c-1.6-.4-3-1.2-4.3-2.2-1.3-1.1-2-2.7-2-4.5a6 6 0 012.8-5.1c1.9-1.4 4.2-2 6.5-2 2 0 4 .5 5.6 1.4 1.6 1 2.9 2.4 3.6 4.2l-3.9 1.6c-.9-2.1-2.7-3.2-5.4-3.2-1.2 0-2.3.2-3.3.8-.9.5-1.4 1.3-1.4 2.3 0 1.4 1 2.3 3.2 2.8l4.6 1.1c2.3.5 3.9 1.4 5 2.7 1 1.2 1.6 2.7 1.5 4.3 0 2.1-.9 4.1-2.6 5.4-1.7 1.4-4 2.1-6.7 2.1zm24 0c-3.6 0-6.5-1.2-8.8-3.6a13 13 0 01-3.3-9.1c-.1-3.4 1-6.6 3.2-9 2-2.5 5.2-3.9 8.4-3.8 3.5 0 6.3 1.1 8.4 3.5 2 2.3 3.1 5.4 3.1 9.3v.8h-18.7c.1 2.4 1 4.3 2.4 5.8a7.2 7.2 0 005.1 2c3.2 0 5.4-1.3 6.5-4l4 1.6a10.7 10.7 0 01-10.4 6.5zm6.3-15.6c-.1-1.4-.7-2.7-1.9-4-1.1-1.2-2.8-1.8-5-1.8-1.6 0-3.1.5-4.3 1.6a8 8 0 00-2.5 4.2h13.7zM2.2 44.3L8.8 1.7c0-.6.6-1.2 1.2-1.3.7 0 1.3.2 1.6.8l7.1 13.4L2.2 44.3zm47 10.3l-6.3-39.2c-.1-.5-.5-1-1-1.2-.6-.1-1.2 0-1.6.4L.5 54.6l22 12.4c1.4.8 3.1.8 4.5 0l22.2-12.4zm-18-34.2l-5-9.7a1.5 1.5 0 00-2.7 0l-22.4 40 30.2-30.3z" fill="#37322e"/></svg>