<svg viewBox="0 0 484.1 101.9" xmlns="http://www.w3.org/2000/svg"><path d="M104.7 16.8l-5.6-5.6-18.7 18.6V0h-8v29.8L53.7 11.2l-5.6 5.6 24.3 24.4v11.2L53.7 33.8 32.3 12.3V0h-8v12.3L0 36.7l5.6 5.6 18.7-18.6v11.2L0 59.3l5.6 5.6 18.7-18.6v55.6h8V46.3L51 64.9l5.6-5.6-24.3-24.4V23.7l15.8 15.7 1.6 1.6 1.3 1.3 21.4 21.5v38.1h8V63.8l24.3-24.4-5.6-5.6-18.7 18.6V41.2zM127.4 76.4h9V55.3h22.5v-8.2h-22.5V33.7h23.8v-8.2h-32.8zM211.6 31.4A24.1 24.1 0 00203 26a29 29 0 00-10.9-1.8c-3.7 0-7.3.6-10.8 1.9A23.7 23.7 0 00167.2 40a28 28 0 00-2 11.1c-.1 3.7.6 7.4 2 10.9a24.3 24.3 0 0014.1 13.8 30.7 30.7 0 0021.7-.1 25.3 25.3 0 0016.2-24.8 28 28 0 00-2-11.1c-1.3-3.2-3.2-6-5.6-8.4zm-3.1 26.8a17.5 17.5 0 01-9.1 10c-2.3 1-4.7 1.4-7.2 1.4a16.3 16.3 0 01-12.7-5.4 17.5 17.5 0 01-3.6-6 21.1 21.1 0 010-14.6 17.6 17.6 0 019.1-9.7c2.3-1 4.7-1.4 7.2-1.4s4.9.4 7.2 1.4a17.6 17.6 0 019.1 9.7 21.1 21.1 0 010 14.6zM259.8 49.4c2.1-2.6 3.2-5.9 3.1-9.3.1-2.5-.5-4.9-1.6-7.1a12 12 0 00-4.2-4.5 18.8 18.8 0 00-6.1-2.3c-2.3-.5-4.7-.7-7.1-.7h-17.7v50.9h9.1V54.9h6.6l11.8 21.6h10.9l-13.5-22.6c3.4-.3 6.5-1.9 8.7-4.5zm-13.6-2.5l-3.9.2h-7V33.3h7.8l3.6.2c1.1.1 2.3.4 3.3.9 1 .4 1.8 1.1 2.4 2 .7 1.1 1 2.3.9 3.6.1 1.4-.3 2.7-1 3.9-.7.9-1.6 1.7-2.6 2.1-1.1.5-2.3.8-3.5.9zM279.9 54.4h23.4v-8.2h-23.4V33.7h24.7v-8.2h-33.7v50.9h35v-8.2h-26zM340 49.8c-1.8-1.1-3.8-2-5.8-2.6l-5.8-1.9c-1.6-.6-3.1-1.4-4.5-2.4a4.9 4.9 0 01-1.8-4c0-1 .2-2.1.7-3 .5-.8 1.1-1.5 1.9-2s1.7-.9 2.7-1.1a12.9 12.9 0 018.2.6c1.5.6 2.9 1.7 3.8 3.1l6.6-7c-1.9-1.8-4.3-3.2-6.8-4a26 26 0 00-14.7-.3c-2.2.6-4.2 1.5-6 2.8a14.9 14.9 0 00-4.2 4.8 13.4 13.4 0 00-1.6 6.8c-.1 2.5.5 5 1.8 7.2 1.2 1.8 2.7 3.2 4.5 4.3s3.8 2 5.8 2.6l5.8 2c1.6.6 3.2 1.5 4.5 2.6a5.5 5.5 0 011.8 4.3 6.3 6.3 0 01-2.9 5.3c-.9.6-1.9 1-2.9 1.3-3 .8-6.2.4-8.9-1-1.7-.9-3.2-2.3-4.3-3.9l-6.9 6.5c2 2.4 4.6 4.2 7.5 5.3a25.7 25.7 0 0016.2.6 15.7 15.7 0 0010-8.1 15 15 0 001.5-7.2c.1-2.6-.5-5.1-1.8-7.3a14 14 0 00-4.4-4.3zM350.1 33.7h15.6v42.7h9V33.7h15.6v-8.2h-40.2zM431.9 49.4c2.1-2.6 3.2-5.9 3.1-9.3.1-2.5-.5-4.9-1.6-7.1a12 12 0 00-4.2-4.5 18.8 18.8 0 00-6.1-2.3c-2.3-.5-4.7-.7-7.1-.7h-17.7v50.9h9.1V54.9h6.6l11.8 21.6h10.9l-13.5-22.6c3.4-.3 6.5-1.9 8.7-4.5zm-13.6-2.5l-3.9.2h-7V33.3h7.8l3.6.2c1.1.1 2.3.4 3.3.9 1 .4 1.8 1.1 2.4 2 .7 1.1 1 2.3.9 3.6.1 1.4-.3 2.7-1 3.9-.7.9-1.6 1.7-2.6 2.1-1.1.5-2.3.8-3.5.9zM473.3 25.5l-12.7 20.3-12.5-20.3h-11.3l19.1 29.1v21.8h9V54.6l19.2-29.1z" fill="#37322e"/></svg>