<svg fill="none" xmlns="http://www.w3.org/2000/svg" viewBox="0 0 1289 245"><path d="M221.5 101.4a22.5 22.5 0 0123.2 20.3c4.4 57-47.8 121-121.3 123A121.5 121.5 0 010 121.6a21.4 21.4 0 1143 0 78.6 78.6 0 0079.2 80.3c48.8-1.4 80.5-43.6 78.9-78.1a21.4 21.4 0 0120.3-22.4z" fill="#37322e"/><path d="M168.2 123.2a22 22 0 0122-21.9h32.2c12.1 0 22.3 9.8 22.3 22 0 12-10.2 21.9-22.3 21.9h-32.2a22 22 0 01-22-22zM100.7 123.3a22 22 0 1143.9 0 22 22 0 01-43.9 0z" fill="#37322e"/><path fill-rule="evenodd" clip-rule="evenodd" d="M143.9 20.7A21.4 21.4 0 01123.5 43c-51 2.1-82 42-80.5 80a21.2 21.2 0 01-20.2 22.3A22 22 0 010 124.4C-2.3 62.5 49.1 1.4 121.7.2a21.4 21.4 0 0122.2 20.5z" fill="#37322e"/><path d="M408.1 137.5h41.2c-2 7.7-5.4 14.7-9.9 21-4.3 6.1-10 11-17 14.7-7.1 3.7-15.7 5.6-25.8 5.6a56 56 0 01-51-29.2 66 66 0 01-7.8-32.4c0-12.4 2.6-23 7.8-32.1a56 56 0 0151-28.7c11.7 0 21.7 2.4 29.8 7.2A52.3 52.3 0 01446 83L469 67.2a77.4 77.4 0 00-29.6-27.5 88.7 88.7 0 00-42.8-9.9 94.8 94.8 0 00-35.4 6.5A84.1 84.1 0 00333 54.2c-7.8 7.7-14 17-18.5 27.8a92.5 92.5 0 00-6.5 35.2c0 12.9 2.2 24.7 6.5 35.5a83 83 0 0018.3 28c8 7.9 17.4 14 28.2 18.4a96 96 0 0035.1 6.2 76.3 76.3 0 0062.1-27.5c7-8.5 12.4-18.3 15.9-29.2 3.5-11.1 5.1-22.9 4.8-35.3h-67.4l-3.4 24.2zM557.2 118.7l12.7-22.3c-2.5-2.9-5.6-5-9.1-6.2-3.6-1.3-7.3-2-11.3-2a25 25 0 00-13.8 4.4 36.1 36.1 0 00-11.5 11.6V90.7h-25.8v111h25.8v-62.5c0-8 1.4-14.5 4.3-19.3 2.9-4.9 7.6-7.3 14-7.3 3.2 0 5.8.6 8 1.7 2 1 4.3 2.4 6.7 4.4zM583 90.7v111h25.5v-111h-25.6zm-3.7-40.8a16.2 16.2 0 0016.4 16c4.7 0 8.6-1.6 11.8-4.6a15 15 0 004.8-11.4 15 15 0 00-4.8-11.3c-3.2-3.1-7.1-4.6-11.8-4.6a16.2 16.2 0 00-16.4 16zM652.1 146.2c0-11.1 3.3-19.7 9.9-25.8a32.7 32.7 0 0123.3-9.5c5 0 10 1.4 14.7 4.1a35.4 35.4 0 0116.9 31.1 33.9 33.9 0 01-16.9 31.1 29.4 29.4 0 01-14.7 4.2c-9 0-16.7-3-23.3-9.1-6.6-6.3-9.9-15-9.9-26.1zm-27 0c0 12.2 2.5 22.7 7.5 31.4a53 53 0 0019.8 19.8c8.1 4.5 17 6.7 26.7 6.7a44 44 0 0021.6-5.3 45 45 0 0016.2-15.4v18.3H743V21.3H717V109a43 43 0 00-16.2-15.2 42.6 42.6 0 00-21.6-5.6 53 53 0 00-46.5 26.8c-5 8.6-7.4 19-7.4 31.2zM772.7 161.6l-15.2 14.8c5.1 8.2 12 15 20.5 20.5a53.4 53.4 0 0029 8.2 46 46 0 0028.7-8.4c7.6-5.8 11.3-14.6 11.3-26.4 0-6.6-1.4-12-4.3-16.1a35.2 35.2 0 00-11.3-10.4 92.5 92.5 0 00-15-7.5c-4.1-1.8-8.4-3.4-12.7-4.8a41.4 41.4 0 01-10.3-5.1c-2.8-2-4.1-4.4-4.1-7.5 0-3.4 1.3-5.8 3.8-7.2 2.7-1.7 6.4-2.5 10.9-2.5 4.4 0 9.1 1.3 14 4 4.9 2.5 9.2 5.8 13 9.8l14.4-15a46.8 46.8 0 00-17.9-14 53.6 53.6 0 00-43.3-2.1 34 34 0 00-14 10.3c-3.5 4.5-5.2 10-5.2 16.5 0 6.9 1.5 12.5 4.5 16.9 3.2 4.1 7.3 7.5 12 10.1 4.9 2.6 9.9 5 15 7 6.4 2.4 12 5 16.8 7.7 5 2.8 7.5 6.6 7.5 11.4 0 3.7-1.4 6.5-4 8.4a19 19 0 01-11 2.7c-4.7 0-10.2-2-16.3-5.8-6-4-11.5-9.2-16.8-15.5zM884.6 146.2c0-10.5 3.2-19 9.4-25.4a32 32 0 0123.6-9.6c9.5 0 17.3 3.2 23.6 9.6a34.8 34.8 0 019.4 25.4c0 10.3-3.1 18.7-9.4 25.3a31.5 31.5 0 01-23.6 9.7 32 32 0 01-23.6-9.7c-6.2-6.6-9.4-15-9.4-25.3zm-26.7 0c0 11.4 2.6 21.5 7.7 30.2a57.1 57.1 0 0021.4 20.5 64.5 64.5 0 0030.6 7.2c11.4 0 21.6-2.4 30.6-7.2a56.8 56.8 0 0029.1-50.7c0-11.4-2.6-21.5-8-30.2a53.6 53.6 0 00-21.1-20.3 62 62 0 00-30.6-7.5 62.8 62.8 0 00-30.6 7.5 55.3 55.3 0 00-21.4 20.3 58.2 58.2 0 00-7.7 30.2zM1151 131.2c0-14-2.9-24.6-8.7-31.9-5.8-7.4-14.7-11-26.7-11-7.4 0-14.1 1.7-20.2 5.2a39 39 0 00-14.7 14.3c-5-13-15.6-19.6-31.8-19.6-7.2 0-13.5 1.7-18.8 5.1a36.9 36.9 0 00-12.2 13.5V90.7h-25.5v111h25.5v-67.6c0-7.4 1.8-13.3 5.5-17.9a20 20 0 0116.4-7c6.7 0 11.5 2.2 14.2 6.6 2.7 4.1 4 10.3 4 18.3v67.6h26.3v-67.6c0-7.4 1.9-13.3 5.5-17.9a20 20 0 0116.4-7c6.8 0 11.5 2.2 14.2 6.6a32.3 32.3 0 014.3 18.3v67.6h26.3v-70.5zM1193.6 152.2h88.4c.2-1.3.2-2.6.2-3.8l.3-3.4c0-17.6-7.4-31.4-17.4-41.6a53.6 53.6 0 00-40.4-15.2 57.5 57.5 0 00-38.8 12.8 54.3 54.3 0 00-18.7 39.2 63.4 63.4 0 006.7 36 51.7 51.7 0 0019.7 20.5 58 58 0 0029.9 7.4c13.8 0 25.1-2.7 34-8.2 9-5.4 18.5-12.7 24-21.7l-25-9.2a36.7 36.7 0 01-12.8 13c-5.1 3.1-11.5 4.6-19 4.6-8.5 0-15.6-2.4-21.2-7.4a34.3 34.3 0 01-9.9-23zm.5-18a28.3 28.3 0 0110.1-19.2c5.6-4.6 12.4-7 20.3-7 8.3 0 14.7 2.4 19.2 7a32 32 0 018.2 19.1h-57.8z" fill="#37322e"/></svg>