<svg fill="none" xmlns="http://www.w3.org/2000/svg" viewBox="0 0 1501 410"><g filter="url(#filter0_d)"><path fill-rule="evenodd" clip-rule="evenodd" d="M336.1 261.9V139.6c0-15.9-8.4-30.6-22.1-38.7L200.8 34.4a52.6 52.6 0 00-54.3.6L46 97a58 58 0 00-27.5 49.3v125.2c0 19.9 10.5 38.3 27.7 48.4L151 381c13.9 8.1 31 8.3 45.2.5l116-64.6a46.7 46.7 0 0023.9-40.8v-14.3z" fill="#37322e"/><path fill-rule="evenodd" clip-rule="evenodd" d="M174.2 13.7H178.6l.3.1h1.1l.2.1H181.2l.2.1H182.3l.2.1h.6l.3.1h.2l.3.1h.5l.3.1h.3l.3.1h.5v.1h.5l.3.1h.3l.2.1h.3l.3.1.3.1h.2l.3.1h.3v.1h.2l.3.1h.3l.2.1.3.1h.3l.2.1.3.1h.3l.2.1.3.1h.3v.1h.3l.2.1.3.1.3.1h.2v.1h.3l.3.2h.2l.3.1.3.1.2.1h.3v.1h.3l.2.2h.3l.2.1.3.1.3.1.2.1.3.1.3.1.2.1.3.1.2.1.3.1.3.1.2.1.3.2h.3l.2.2h.3v.1l.2.1.3.1.2.1.3.1.3.1.2.2h.3l.2.2.3.1.2.1.3.2h.2l.3.2.3.1.2.2h.2v.1l.3.1.3.1.2.2.3.1.2.1.3.2.2.1.3.2.2.1.3.1.2.2.2.1.3.2 113.3 66.6h.2l.2.2.2.1.2.2h.2v.1l.2.1.2.1.2.1.2.2.2.1.2.1.2.2.2.1.2.1.2.2h.2v.1l.2.1.2.1.2.2.2.1.2.2.2.1.2.1.2.2.1.1.2.1.2.2.2.1.2.2.2.1.2.2.2.1.2.2.2.1.3.3.4.3.4.3.3.3.4.3.3.3.4.3.3.3.4.4.3.3.4.3.3.3.4.3.3.4.3.3.4.4.3.3.3.3.3.4.3.3.4.4.3.3.3.4.3.3.3.4.3.4.3.3.3.4.3.3.3.4.2.4.3.4.3.3.3.4.3.4.2.4.3.4.3.4.2.4.3.3.2.4.3.4.2.4.3.4.2.4.3.4.2.4.2.4.3.4.2.4.2.4v.1l.2.4.2.4.3.4.2.4.2.4v.1l.2.4.2.4.2.4.2.5.1.4.2.4.2.4v.1l.2.4.1.4.2.5.2.4.2.4.1.5.2.4.1.5.2.4.1.4v.1l.1.4.2.4.1.5.2.4v.5h.1l.1.4.1.5.2.5v.4l.2.5.1.4v.1l.1.4.1.5v.4h.1v.5l.2.4v.5l.1.5.1.5v.5l.1.4v.3l.1.2v.7h.1v.7l.1.3v.7l.1.2v1.2l.1.3v145.2l-.1.3v.7l-.1.3v.7l-.1.3v.5l-.1.2v.3l-.1.2v.5l-.1.3v.5l-.1.2v.3l-.1.2v.5l-.1.2v.3l-.1.2v.3l-.1.2v.3l-.1.2v.2l-.1.3v.2l-.1.2v.3l-.1.2v.3l-.1.2-.1.2v.3l-.1.2-.1.2v.3l-.1.2v.3h-.1v.2l-.1.3-.1.2v.2l-.2.3v.4h-.1v.3l-.1.2-.1.2-.1.3v.2l-.2.3v.2l-.1.2-.1.3v.2l-.2.2v.3l-.1.2-.1.2v.3h-.1v.2l-.2.2v.3l-.2.2v.2l-.1.3-.1.2-.1.2-.1.2-.1.3-.1.2-.1.2-.1.3-.1.2-.1.2-.1.2-.1.3-.1.2-.1.2-.1.2-.1.2-.1.2-.1.3-.2.2v.2l-.2.2v.3l-.2.2-.1.2-.1.2-.1.3-.1.2-.2.2v.2h-.1l-.1.2-.1.2-.2.2v.3l-.2.2-.1.2-.1.2-.2.2v.2h-.1l-.1.2-.1.3-.2.2v.2h-.1l-.1.2-.2.2v.2h-.1l-.1.2-.2.2-.1.2-.1.2-.2.2-.1.2-.1.2-.2.2-.1.2-.2.2-.1.2-.1.2-.2.2-.1.2-.2.2-.1.2-.2.2-.1.2-.2.2-.1.2-.2.2-.1.2-.2.2-.1.2-.2.2-.1.2-.2.2-.1.1-.2.2-.2.2-.1.2-.2.2-.1.2-.2.2-.2.2-.1.2-.2.2-.1.1-.2.2-.2.2-.1.2-.2.2-.2.2-.1.2-.2.1-.2.2-.2.2-.1.2-.2.2-.2.1-.1.2-.2.2-.2.2-.2.1-.2.2-.1.2-.2.2-.2.1-.2.2-.2.2-.1.2-.2.1-.2.2-.2.2-.2.1-.2.2-.1.2-.2.1-.2.2-.2.1-.2.2-.2.2-.2.2-.2.1-.2.2-.2.1-.2.2-.2.1-.2.2-.1.2-.2.1-.2.2-.2.1-.2.2-.2.2-.2.1-.2.2-.2.1-.2.1-.2.2-.2.1-.2.2-.2.1-.3.2-.2.1-.2.2-.2.1-.2.1-.2.2-.2.1-.2.2-.2.1-.3.1-.2.2-.2.1-.2.2h-.2v.1l-.2.1-.2.2-.3.1-.2.1-.2.2h-.2v.1l-.2.1-.3.2h-.2v.1l-.2.1-.2.1-.3.1-115.9 64.7h-.2l-.2.2-.2.1-.2.1-.3.1-.2.1-.2.1-.2.2h-.2l-.2.2h-.3v.1l-.2.1-.2.1-.2.1-.2.1-.2.1-.2.1-.2.1-.3.1-.2.1-.2.1-.2.1-.2.1-.3.1-.2.1-.2.1-.2.1h-.2v.1h-.3l-.2.2h-.2l-.2.1-.3.1-.2.1-.2.1-.2.1h-.3l-.2.2h-.2l-.2.1-.3.1h-.2v.1h-.2l-.3.1-.2.1h-.2v.1h-.2l-.2.1-.3.1h-.2l-.2.1-.3.1-.4.2-.5.1-.4.1-.5.1-.5.2-.4.1-.5.1-.4.1h-.1l-.4.1-.5.1-.4.1h-.1l-.4.1-.5.1-.5.1h-.4v.1h-.5l-.5.1-.4.1h-.5v.1h-.5l-.4.1h-.5v.1h-.5l-.5.1h-.8l-.5.1h-1l-.4.1H169.6l-.5-.1h-.5l-.4-.1h-.5l-.5-.1h-.5l-.4-.1h-.5v-.1h-.5l-.4-.1-.5-.1h-.5l-.4-.2h-.5l-.4-.1-.5-.1-.5-.1-.4-.1h-.1l-.4-.1-.5-.1-.4-.2h-.5v-.1l-.5-.1-.4-.1-.5-.2-.4-.1h-.1l-.4-.2h-.5v-.1l-.4-.1-.5-.2h-.2l-.3-.1h-.2v-.1h-.2l-.2-.2h-.3l-.2-.1h-.2v-.1h-.2l-.3-.2h-.2l-.2-.1-.2-.1-.3-.1-.2-.1-.2-.1h-.2v-.1h-.3l-.2-.2h-.2l-.3-.2h-.2l-.2-.1-.2-.1-.2-.1-.3-.1-.2-.1-.2-.1-.2-.1-.3-.1-.2-.1-.2-.1-.2-.1-.2-.2h-.2l-.3-.2h-.2v-.1l-.2-.1-.2-.1-.2-.1-.2-.1-.3-.2h-.2l-.2-.2h-.2v-.1l-.2-.1-.2-.1-.2-.1-.3-.2h-.2l-.2-.2-.2-.1-104.8-61.2-.2-.1-.3-.2-.2-.1-.3-.2-.2-.1-.3-.2-.2-.1-.3-.2-.2-.1-.3-.2h.1l-.2-.1-.3-.2-.2-.2-.3-.1-.2-.2-.2-.2-.3-.1-.2-.2-.3-.2-.2-.1-.2-.2-.3-.2-.2-.1-.2-.2-.3-.2-.2-.1-.2-.2-.3-.2-.2-.2-.2-.1-.3-.2-.2-.2-.2-.2-.2-.1-.2-.2-.3-.2-.2-.2-.2-.2-.2-.2-.2-.1-.2-.2-.3-.2-.2-.2-.2-.2-.2-.1-.2-.2-.2-.2-.3-.2-.2-.2-.2-.2-.2-.2-.2-.2-.2-.1-.2-.2-.2-.2-.2-.2-.2-.2-.2-.2-.2-.2-.3-.2-.2-.2-.2-.2-.2-.2-.2-.2-.2-.2-.2-.2-.1-.2-.2-.2-.2-.2-.2-.2-.2-.3-.2-.2-.2-.2-.2-.2-.2-.2-.2-.2-.2-.2-.1-.2-.2-.2-.2-.3-.2-.2-.2-.2-.2-.2-.2-.2-.1-.2-.2-.2-.2-.3-.2-.2-.2-.2-.2-.2-.1-.2-.2-.2-.2-.3-.2-.2-.1-.2-.2-.2-.2-.2-.1-.3-.2-.2-.2-.2-.1-.2-.2-.3-.2-.2-.1-.2-.2-.2-.2-.3-.1-.2-.2-.2-.1-.3-.2-.2-.2-.2-.1-.3-.2-.2-.1-.2-.2-.3-.1-.2-.2-.2-.1-.3-.2-.2-.2-.2v-.3H15l-.1-.2-.2-.2-.1-.3-.2-.2-.1-.3-.2-.2-.1-.3-.2-.2-.1-.2-.1-.3-.2-.2-.1-.3-.1-.2-.2-.3-.1-.2-.1-.3-.2-.2v-.3l-.2-.2-.1-.3-.2-.2v-.3H12l-.1-.2-.1-.3-.2-.2v-.3l-.2-.2-.1-.3-.1-.2-.1-.3-.2-.2v-.3l-.2-.2-.1-.3-.1-.3-.1-.2-.2-.3v-.2l-.2-.3v-.2l-.2-.3v-.2l-.2-.3v-.3h-.1v-.2h-.1v-.3h-.1v-.2h-.1v-.3h-.1v-.3H9v-.2l-.2-.3v-.3l-.2-.2v-.3l-.2-.3v-.2l-.1-.3-.1-.3-.1-.2-.1-.3v-.3H8v-.2l-.2-.3v-.3l-.1-.3-.1-.2v-.3l-.2-.3v-.3l-.1-.2v-.3h-.1v-.2l-.1-.3v-.3H7v-.3l-.1-.2v-.3l-.2-.3v-.5l-.1-.3-.1-.2v-.3l-.1-.3-.1-.3v-.2l-.1-.3v-.3l-.1-.3v-.2l-.1-.3v-.3h-.1v-.3l-.1-.3v-.5l-.1-.3v-.3l-.1-.2v-.3l-.1-.3v-.6l-.1-.2v-.6l-.1-.3v-.6l-.1-.3v-.5l-.1-.3v-.6l-.1-.3v-1.1l-.1-.3v-2.3l-.1-.2V142.8l.1-.3V140.8l.1-.3V139.6l.1-.2v-.6l.1-.3v-.6l.1-.3v-.5l.1-.3v-.6l.1-.3v-.3l.1-.2v-.3l.1-.3v-.6l.2-.2v-.6l.1-.3v-.3l.1-.2v-.3l.1-.3.1-.3v-.2l.1-.3v-.3l.1-.2v-.3h.1v-.3l.1-.3v-.3l.1-.2.1-.3v-.3l.1-.3.1-.2v-.3l.2-.3v-.3l.1-.2v-.3h.1v-.3l.1-.3.1-.2.1-.3.1-.3v-.2l.2-.3v-.3l.1-.2.1-.3.1-.3v-.2h.1v-.3l.2-.3v-.2l.2-.3v-.3l.1-.2.1-.3.1-.2.1-.3.1-.3.1-.2.1-.3.1-.3.1-.2.2-.3v-.2l.2-.3v-.3h.1l.1-.3.1-.2.1-.3.1-.2.1-.3.2-.3v-.2l.2-.3.1-.2.1-.3.1-.2.2-.3v-.2h.1l.1-.3.1-.2.1-.3.2-.2v-.3h.1l.1-.2.1-.3.2-.2.1-.3.1-.2.2-.3.1-.2.1-.3.2-.2.1-.3.1-.2.2-.2.1-.3.2-.2.1-.3.1-.2.2-.3.1-.2.2-.2.1-.3.2-.2.1-.3.2-.2.1-.2.2-.3.1-.2.2-.2.1-.3.2-.2.1-.2.2-.3.1-.2.2-.2.1-.3.2-.2.2-.2.1-.3.2-.2.2-.2.1-.3.2-.2.2-.2.1-.2.2-.3.2-.2.1-.2.2-.2.2-.2.1-.3.2-.2.2-.2.2-.2.2-.2.1-.3.2-.2.2-.2.2-.2.1-.2.2-.3.2-.2.2-.2.2-.2.2-.2.1-.2.2-.2.2-.3.2-.2.2-.2.2-.2.2-.2.2-.2.1-.2.2-.2.2-.2.2-.2.2-.2.2-.3.2-.2.2-.2.2-.2.2-.2.2-.2.2-.2.2-.2.2-.2.2-.2.2-.2.2-.2.3-.1.2-.2.2-.2.2-.2.2-.2.2-.2.2-.2.2-.2.2-.2.3-.1.2-.2.2-.2.2-.2.2-.2.2-.2.3-.1.2-.2.2-.2.2-.2.2-.2.3-.1.2-.2.2-.2.3-.2.2-.2.2-.1.2-.2.3-.2.2-.2.2-.1.2-.2.3-.2.2-.1.2-.2.3-.2.2-.1.3-.2.2-.1.2-.2.3-.2.2-.1.2-.2.3-.1.2-.2.3-.2.2-.1.2-.2.3-.1.2-.2.3-.1.2-.2 100.5-62 .3-.1.2-.2.3-.1.2-.2.3-.1.2-.2.3-.1.2-.1.3-.2.2-.1.2-.2h.3v-.1l.2-.1.3-.2.2-.1.3-.1.2-.2.3-.1.2-.1.3-.2h.3v-.1l.2-.1.3-.1.2-.1.3-.2h.2V20l.3-.1.3-.1.2-.1.3-.2h.2l.3-.2.2-.1.3-.1.3-.1.2-.1.3-.1.2-.1.3-.2h.3l.2-.2h.3v-.1h.3v-.1h.2V18h.3V18h.2l.3-.2h.3l.3-.2h.2l.3-.1.3-.1.2-.1.3-.1.2-.1.3-.1h.3v-.1h.3l.2-.1.3-.1.3-.1h.2l.3-.2h.2l.3-.1.3-.1h.3l.2-.1.3-.1h.3l.2-.2h.6v-.1h.2l.3-.1h.3l.3-.1.2-.1h.3l.3-.1h.2l.3-.1h.3l.3-.1.2-.1h.3l.3-.1h.3l.2-.1h.3l.3-.1h.3l.2-.1h.6l.3-.1h.2l.3-.1h.6l.2-.1h.6l.3-.1h.8l.3-.1h.5l.3-.1h1.1l.3-.1H172l.3-.1h2v-.1zm-.2 27H171.4l-.2.1h-.7l-.2.1H169.7l-.2.1h-.6l-.2.1h-.5l-.1.1h-.4l-.1.1h-.5l-.2.1H166.6l-.2.1H166.1l-.1.1h-.4l-.1.1H165.2l-.2.1h-.2l-.1.1H164.4l-.2.1h-.2l-.1.1h-.2l-.1.1h-.4l-.1.1h-.2l-.1.1h-.2l-.1.1h-.2l-.2.1h-.1l-.2.2H161.5l-.2.1h-.1l-.2.1h-.1l-.2.1h-.1l-.2.1-.2.1h-.1l-.2.1h-.1l-.2.2H159.3l-.2.1-.1.1h-.2l-.1.1-.2.1h-.1l-.2.1-.1.1h-.2l-.1.2H157.5l-.2.2h-.1l-.2.1h-.1l-.2.2h-.1l-.2.1h-.1l-.2.2h-.1l-.2.1h-.1l-.2.2h-.1l-.2.1-.1.1-.2.1h-.1l-.2.2h-.1l-.2.2h-.1l-.2.1-.1.1-.2.1h-.1l-.2.2L53 108.6H53l-.2.2h-.1l-.2.2h-.1l-.2.2H52l-.2.2h-.1l-.2.2h-.1l-.2.2h-.1l-.2.2h-.1l-.2.2h-.1l-.2.2-.2.2h-.2l-.1.2-.2.1v.1l-.2.1-.2.1-.1.1-.2.1v.2h-.2l-.2.2h-.1l-.1.2-.2.1-.1.1-.2.1v.1l-.2.1-.2.2-.2.2-.1.1-.2.1-.1.1-.1.1-.2.2-.2.2-.2.1v.1l-.2.2h-.1l-.2.2-.1.1-.1.1-.2.2-.2.2-.1.1-.2.2-.2.2-.1.1-.1.2H44v.2l-.2.1-.1.2-.1.1-.2.1v.2h-.2l-.1.2-.1.2h-.2v.2l-.2.2-.2.2-.1.2h-.1l-.2.2v.2h-.2v.2l-.2.2-.1.1-.1.2h-.1l-.1.2-.1.2-.1.1-.2.2-.2.2v.2l-.2.1v.2l-.2.1v.1l-.2.2v.1l-.2.2v.1l-.2.2v.1l-.2.2-.2.2v.2l-.1.1-.1.2-.1.1-.1.2v.1l-.2.2v.1l-.2.2v.1l-.2.2v.1l-.1.2-.1.1-.1.2-.1.1-.1.2v.1l-.2.2v.1l-.2.2v.2l-.1.1-.1.2v.1l-.2.2v.1l-.1.2-.1.1v.2l-.2.2v.1l-.1.2-.1.1v.2l-.2.1v.2l-.1.2v.1l-.2.2V128.3l-.2.2v.1l-.1.2v.1l-.1.2-.1.2v.1l-.1.2-.1.2v.1l-.1.2-.1.1v.2l-.1.2-.1.1v.2l-.1.2v.1l-.1.2-.1.2v.1l-.1.2v.2l-.1.1v.2l-.1.2v.1l-.1.2v.2l-.1.1v.2l-.2.2V133.9l-.1.2v.1l-.1.2v.2l-.1.1v.4l-.1.2v.1l-.1.2v.2l-.1.1v.4l-.1.2v.1l-.1.2V137l-.1.2V137.6l-.1.2v.4l-.1.2v.5l-.1.2V139.4l-.1.2v.5l-.1.2v.5l-.1.2v.7l-.1.2V142.8l-.1.2V144.8l-.1.1V274.6l.1.2V275.9l.1.1v.7l.1.2v.7l.1.2v.5l.1.2V278.8l.1.2v.5l.1.2V280l.1.2v.1l.1.2V280.8l.1.2v.4l.1.1v.2l.1.2v.1l.1.2V282.5l.1.2v.2l.1.1v.4l.1.1v.2l.1.2v.1l.1.2v.2l.1.1v.2l.1.2v.1l.1.2.1.1v.2l.1.2v.1l.1.2.1.1v.2l.1.2v.1l.1.2.1.1v.2l.1.2v.1l.2.2V287.9l.1.2.1.1v.2l.1.1.1.2v.2l.1.1.1.2v.1l.1.2.1.2v.1l.2.2v.1l.1.2v.2l.2.1v.2l.1.1.1.2v.1l.2.2v.1l.1.2.1.1v.2l.2.1v.2l.1.1.1.2.1.1v.2l.2.1v.2l.1.1.1.2.1.1.1.1.1.2v.1l.2.2v.1l.2.2v.1l.1.2.1.1.1.1.1.2.1.1.1.2v.1l.2.2.2.2v.2l.2.1v.2l.2.1v.1l.2.2v.1l.2.2.1.1.1.1.1.2.1.1.1.2h.1l.1.2.1.2h.1l.2.2v.2h.2v.2l.2.2h.1l.1.2.1.1.1.2.1.1.2.1v.2h.2l.1.2.1.2h.1l.2.2v.1l.2.2h.1l.1.2.1.1.2.2.2.2.1.1.1.1.2.2.2.2.1.1.2.1v.2h.2l.1.2.1.1.2.1.1.2h.1l.2.2v.1l.2.1.1.1.2.1.1.2h.1l.2.2.1.1.1.1.2.1.1.1.1.1.2.2h.1l.2.2.2.2h.2l.1.2.1.1.2.1.1.1.2.1.1.1.1.1.2.1.1.1.2.1.1.1.1.1.2.1.1.1.2.1.1.1.2.1.1.1.2.1.1.1.2.1.1.1.1.1h.2l.1.2h.2l.1.2h.2l.2.1.1.1.2.1 104.7 61.2v.1h.2l.1.1h.1l.2.2h.2l.1.1.1.1h.1l.2.1.2.2h.2l.2.1.2.2h.2l.2.1.2.1h.1l.1.1h.2v.2H161.2l.1.1h.2v.1h.2l.1.1h.1l.2.1.2.1h.1l.1.1h.2v.1h.2l.1.1h.1l.2.1h.2l.1.1h.2v.1h.2l.2.1.3.1h.2l.3.2h.5l.2.2h.3l.2.1h.3l.2.1h.3l.2.1h.3l.2.1h.3l.2.1h.3l.2.1h.3l.2.1h.6l.2.1h.5l.3.1h1l.3.1H176.9l.2-.1h.5l.3-.1h.5l.3-.1h.5l.2-.1h.3l.2-.1h.3l.2-.1h.3l.2-.1h.3l.2-.1.3-.1h.2l.3-.1.2-.1h.3l.2-.1.3-.1h.1l.1-.1H183.7l.1-.1h.1l.1-.1H184.3l.1-.1h.1l.2-.1.2-.1H185.2v-.1h.2l.1-.1h.1l.2-.1.2-.1h.1l.1-.1h.2v-.1h.2l.1-.1h.1l.2-.1.2-.1h.1l.1-.1.2-.1.2-.1h.1l.1-.1.2-.1.2-.1h.1l.1-.1.2-.1.2-.1h.1l.1-.1.1-.1h.2l116-64.7.2-.1.1-.1h.2v-.1l.2-.1.1-.1h.1l.2-.1v-.1h.2l.1-.2h.1l.2-.1.2-.2h.1l.1-.1h.2v-.2h.2l.1-.1.1-.1h.1l.1-.2h.2v-.1l.2-.1h.1l.1-.2h.1l.1-.1.1-.1h.2v-.2h.2v-.1l.2-.1.1-.1.1-.1h.1l.1-.2h.1l.2-.1v-.1l.2-.1v-.1h.2v-.2h.2l.1-.2h.1l.1-.1.1-.1.1-.1.1-.1.1-.1.1-.1.1-.1.1-.1.1-.1.1-.1.1-.1.1-.1.1-.1.1-.1.1-.1.1-.1.1-.1.1-.1.1-.1.1-.1.1-.1v-.1l.2-.1v-.1l.2-.1v-.1l.1-.1.1-.1.1-.1.1-.1.1-.1.1-.1v-.1l.2-.1v-.1l.2-.1v-.1l.1-.1.1-.1.1-.1.1-.1.1-.1v-.1l.2-.2.1-.2h.1v-.2l.2-.1v-.1l.1-.1.1-.1v-.1l.2-.1v-.2h.1l.1-.2.2-.2v-.1l.1-.1v-.1l.2-.2.1-.2v-.1l.2-.1v-.1l.1-.1v-.2h.1l.1-.2v-.1l.2-.1v-.1l.1-.2.1-.2.1-.1v-.1l.1-.2h.1v-.2l.1-.1.1-.1v-.2h.1v-.2l.1-.1.1-.1v-.2h.1l.1-.2v-.1l.1-.1v-.2l.1-.1.1-.1v-.1l.1-.2.1-.2.1-.1v-.2l.1-.1v-.1l.1-.1v-.2l.1-.1v-.1l.1-.2.1-.2v-.1l.1-.2v-.1l.1-.1v-.2h.1v-.2l.1-.1V287.4l.1-.1v-.2l.1-.1v-.1l.1-.2.1-.2v-.1l.1-.2v-.2l.1-.2v-.1l.1-.1v-.2l.1-.2V284.9l.1-.1V284.5l.1-.1V284l.1-.1V283.7l.1-.1v-.4l.1-.1V282.8l.1-.2v-.4l.1-.1v-.4l.1-.1v-.6l.1-.1v-.7l.1-.2V279.2l.1-.1v-1.3l.1-.1V137h-.1v-1h-.1v-.7l-.1-.1v-.5l-.1-.3v-.2l-.1-.3v-.5l-.1-.2-.1-.3v-.2l-.1-.3v-.2l-.1-.3-.1-.2v-.3l-.1-.2-.1-.3v-.2l-.2-.3v-.2l-.1-.3v-.2l-.2-.3v-.2l-.1-.2-.1-.3-.1-.2-.1-.2v-.3l-.2-.2v-.3l-.2-.2v-.2l-.2-.3v-.2l-.2-.2v-.2l-.2-.3-.1-.2-.1-.2-.1-.3-.1-.2-.2-.2v-.2l-.2-.3-.1-.2-.1-.2-.2-.2v-.2l-.2-.3-.2-.2v-.2l-.2-.2-.2-.2v-.2l-.2-.2-.2-.2-.1-.3-.2-.2v-.2l-.2-.2-.2-.2-.1-.2-.2-.2-.1-.2-.2-.2-.2-.2-.1-.2-.2-.2-.1-.2-.2-.2-.2-.1-.1-.2-.2-.2-.2-.2-.2-.2-.1-.2-.2-.2-.2-.2-.2-.1-.1-.2-.2-.2-.2-.2-.2-.2-.2-.1-.2-.2-.2-.2-.2-.1-.2-.2-.2-.2-.2-.1-.2-.2-.1-.2-.3-.1-.1-.2h-.1l-.1-.1-.1-.1h-.1l-.1-.2h-.1l-.2-.1v-.1h-.2v-.2h-.2v-.1h-.2v-.2h-.2v-.1h-.2v-.2h-.2l-.1-.1h-.1l-.1-.1-.1-.1h-.1l-.2-.2h-.2v-.2H307.3l-.1-.2h-.1L194 46l-.2-.1h-.1l-.2-.2h-.1l-.2-.2h-.1l-.1-.1h-.2l-.1-.2h-.2l-.1-.1-.2-.1h-.1l-.2-.2h-.1l-.2-.1-.1-.1h-.2l-.1-.2h-.2l-.1-.1h-.2l-.2-.2H190.2l-.1-.2H189.8l-.2-.2h-.1l-.2-.1h-.1l-.2-.1h-.1l-.2-.2H188.4l-.2-.1-.1-.1h-.2l-.1-.1h-.2l-.1-.1-.2-.1h-.1l-.2-.1h-.2l-.1-.1h-.2l-.1-.1h-.2l-.1-.1h-.2l-.2-.1h-.1l-.2-.1h-.1l-.2-.1h-.1l-.2-.1H184.5l-.2-.1h-.1l-.2-.1h-.2l-.1-.1H183.4l-.2-.1h-.2l-.1-.1H182.6l-.2-.1H182l-.2-.1H181.6l-.2-.1h-.4l-.2-.1h-.5l-.2-.1h-.4l-.2-.1h-.5l-.1-.1H178l-.1-.1h-1.1l-.2-.1H174z" fill="#37322e"/><path d="M98 310V102.6h43.3v75.5h71.9v-75.5h43.5v207.2h-43.5v-90.6h-72V310H98z" fill="#fff"/><path fill-rule="evenodd" clip-rule="evenodd" d="M716.9 259.3V136.6c0-15.7-8.3-30.1-21.8-38L581.6 31.7a52.6 52.6 0 00-54.3.6L431 91.7a67 67 0 00-31.8 57v120.1c0 20 10.5 38.4 27.8 48.5l104.7 61.2c13.9 8.1 31 8.3 45.2.4l116-64.5a46.7 46.7 0 0023.9-40.8v-14.4z" fill="#37322e"/><path fill-rule="evenodd" clip-rule="evenodd" d="M555 11H556.7l.2.1h2l.2.1h1.1l.3.1h1.1l.3.1h.5l.3.1h.8l.3.1h.5l.3.1h.5l.3.1h.3l.3.1h.5l.3.1h.3l.2.1h.3l.3.1h.3v.1h.2l.3.1h.3l.2.1h.3l.3.1h.2v.1h.3l.3.1h.2v.1h.3l.3.1.2.1h.3l.3.1h.2v.1h.3l.3.1.2.1.3.1h.3l.2.2h.3l.3.1.2.1h.3v.1h.3l.2.2h.3l.3.1.2.1.3.1.3.1.2.1h.3v.1h.3v.1h.2v.1h.3v.1h.3v.1h.2v.1h.3v.1l.2.1.3.1.3.1.2.1.3.1.2.1.3.1.2.2h.3l.3.2.2.1.3.1.2.1.3.1.3.2h.2v.1l.3.1.2.1.3.1.2.2h.3v.1l.2.1.3.2h.2v.1l.3.1.2.1.3.2.3.1.2.1.2.2.3.1.2.1.3.2.2.1.3.2.2.1L702 87h.2l.2.1.2.2.2.1.2.1.2.2h.2v.1l.2.1.2.1.2.1.2.2.2.1.2.1.2.2.3.2h.1l.3.3h.1l.3.2.4.3.4.3.4.3.4.2.3.3.4.3.4.3.3.3.4.3.3.3.4.3.4.3.3.3.4.3.3.3.4.3.3.3.3.3.4.4.3.3.3.3.4.3.3.4.3.3.3.4.4.3.3.3.3.4.3.3.3.4.3.3.3.4.3.3.3.4.3.4.3.3.2.4.3.4.3.3.3.4.2.4.3.3.3.4.2.4.3.4.3.4.2.4.3.4.2.4.3.4.2.3v.1l.2.3v.1l.3.3.2.4.2.4v.1l.3.4.2.4.2.4.2.4.2.4.2.4.2.4.2.4.2.5.2.4.2.4.2.4.2.4v.1l.2.4.2.4.1.4.2.5.2.4.1.4.2.5.2.4.1.4.2.5.1.4.2.5.1.4.1.4.2.5v.4h.1l.1.5.1.4.2.5v.4l.2.5.1.4.1.5.1.4.1.5.1.4v.1l.1.4v.5h.1v.5l.1.4.1.5v.5l.1.4.1.5v.5l.1.4v.5h.1v.9l.1.5v.5l.1.4v2.2l.1.2v141.5l-.1.3v1.3l-.1.2v1l-.1.3v.5l-.1.2v.8h-.1v.5l-.1.2v.5l-.1.3v.5l-.1.2v.5l-.1.3v.2l-.1.3v.2l-.1.2v.3l-.1.2v.3l-.1.2v.3l-.1.2v.3l-.1.2v.2h-.1v.3l-.1.2v.3l-.1.2-.1.3v.2l-.1.2v.3l-.2.2v.5l-.1.2-.1.3v.2l-.2.3v.2l-.1.2v.3h-.1v.2l-.2.2v.3l-.1.2v.3h-.1v.2l-.2.2v.3l-.1.2-.1.2v.3l-.2.2v.2l-.2.3v.2l-.1.2-.1.3-.1.2-.1.2v.3h-.1v.2l-.2.2v.3l-.2.2v.2l-.2.2v.3l-.2.2v.2l-.2.2v.3l-.2.2v.2h-.1l-.1.2-.1.3-.1.2-.1.2-.1.2-.2.2v.2l-.2.3v.2l-.2.2-.1.2-.1.2-.2.2v.3l-.2.2-.1.2-.1.2-.1.2-.2.3-.1.2-.1.2-.2.2v.2l-.2.2-.1.2-.1.2-.2.3-.1.2-.2.2v.2h-.1l-.1.2-.2.2v.2h-.1l-.1.2-.2.2v.2l-.2.2-.1.2-.2.2-.1.2-.2.2v.2h-.1l-.1.2-.2.2-.1.2-.2.2-.1.2-.2.2-.1.2-.2.2-.1.2-.2.2-.1.2-.2.2-.1.2-.2.2-.1.2-.2.2-.2.2-.1.2-.2.1-.1.2-.2.2-.1.2-.2.2-.1.2-.2.2-.2.2-.1.1-.2.2-.2.2-.1.2-.2.2-.2.1-.2.2-.1.2-.2.2-.2.2-.1.1-.2.2-.2.2-.2.2-.1.2-.2.1-.2.2-.2.2-.1.2-.2.1-.2.2-.2.2-.2.1-.2.2-.1.2-.2.2-.2.1-.2.2-.2.2-.2.1-.2.2-.1.2-.2.1-.2.2-.2.1-.2.2-.2.2-.2.1-.2.2-.2.1-.2.2-.1.2-.2.1-.2.2-.2.1-.2.2-.2.2-.2.1-.2.2-.2.1-.3.2-.2.1-.2.2-.2.1-.2.1-.2.2-.2.1-.2.2-.2.1-.2.2-.2.1-.2.1-.2.2-.2.1-.2.2-.3.1-.2.1-.2.2-.2.1-.2.1-.2.2-.2.1-.3.1-.2.2-.2.1-.2.1-.2.2-.2.1-.2.1-.3.2h-.2v.1l-.2.1-116 64.6-.2.1-.2.1-.2.1-.2.2h-.2v.1l-.3.1-.2.1-.2.1-.2.1-.2.1-.2.2h-.3l-.2.2h-.2v.1h-.2v.1h-.2v.1h-.3v.1h-.2v.1h-.2v.1h-.2v.1h-.2v.1h-.3v.1h-.2v.1h-.2v.1h-.2l-.2.2h-.3l-.2.2h-.2l-.2.1-.3.1-.2.1-.2.1-.2.1h-.2v.1h-.3l-.2.2h-.2l-.2.1-.3.1-.2.1h-.2l-.2.2h-.3l-.2.1h-.2v.1h-.2l-.3.1-.2.1-.2.1h-.3l-.2.1-.4.2-.5.1-.5.1-.4.1-.5.2h-.5l-.4.2-.5.1-.5.1-.4.1-.5.1-.4.1-.5.1h-.5v.1h-.4l-.5.2h-.5l-.4.1h-.5l-.5.1-.4.1h-.5l-.5.1h-.4l-.5.1h-.5l-.5.1h-.9l-.5.1H550.4l-.5-.1h-.5l-.4-.1h-.5l-.5-.1h-.4l-.5-.1h-.5v-.1h-.5l-.4-.1-.5-.1h-.4l-.5-.2h-.5l-.4-.1-.5-.1-.5-.1-.4-.1-.5-.1-.5-.1-.4-.1-.5-.1-.5-.2h-.4v-.1l-.5-.1-.4-.1-.5-.2-.4-.1-.5-.1-.4-.2h-.3l-.2-.1-.2-.1h-.2l-.3-.2h-.2l-.2-.1-.2-.1h-.3v-.1h-.2l-.2-.2h-.3l-.2-.1-.2-.1-.2-.1h-.3v-.1h-.2v-.1h-.2l-.2-.2h-.3l-.2-.2h-.2l-.2-.1-.3-.1-.2-.1-.2-.1-.2-.1-.3-.1-.2-.1-.2-.1-.2-.1-.2-.1-.3-.1-.2-.2h-.2l-.2-.2-.2-.1-.2-.1-.3-.1-.2-.1-.2-.1-.2-.2h-.2v-.1l-.2-.1-.2-.1-.3-.1-.2-.2h-.2v-.1l-.2-.1-.2-.1-.2-.1-.2-.2-104.8-61.2-.3-.1-.2-.2-.3-.1-.2-.2-.2-.1-.3-.2-.2-.1-.3-.2-.2-.1-.3-.2-.2-.1-.2-.2-.3-.1-.2-.2-.2-.2-.3-.1-.2-.2-.3-.1-.2-.2-.2-.2-.3-.1-.2-.2-.2-.2-.3-.1-.2-.2-.2-.2-.3-.2-.2-.1-.2-.2-.2-.2-.3-.2-.2-.2-.2-.1-.2-.2-.3-.2-.2-.2-.2-.2-.2-.1-.3-.2-.2-.2-.2-.2-.2-.2-.2-.2-.3-.2-.2-.1-.2-.2-.2-.2-.2-.2-.2-.2-.2-.2-.3-.2-.2-.2-.2-.2-.2-.1-.2-.2-.2-.2-.2-.2-.2-.2-.2-.2-.2-.2-.2-.2-.2-.2-.2-.2-.2-.2-.2-.2-.2-.2-.2-.2-.2-.2-.2-.2-.2-.2-.2-.2-.2-.2-.2-.2-.2-.3-.1-.2-.2-.2-.2-.2-.2-.2-.2-.2-.2-.2-.2-.2-.2-.2-.1-.2-.2-.3-.2-.2-.2-.2-.2-.2-.2-.2-.1-.2-.2-.3-.2-.2-.2-.2-.1-.2-.2-.2-.2-.3-.1-.2-.2-.2-.2-.2-.1-.3-.2-.2-.2-.2-.1-.3-.2-.2-.2-.2-.1-.2-.2-.3-.2-.2-.1-.2-.2-.3-.1-.2-.2-.2-.1-.3-.2-.2-.2-.2-.1-.2-.2-.3-.1-.2-.1-.3-.2-.2-.1-.2-.2-.3-.1-.2-.1-.2-.2-.3-.1-.2-.2-.3-.1-.2-.2-.2-.1-.3-.1-.2-.2-.3-.1-.2-.1-.3-.2-.2-.1-.2-.1-.3-.2-.2v-.3h-.1l-.1-.2-.1-.3-.2-.2v-.3h-.1l-.1-.2-.1-.3-.1-.2-.2-.3v-.2h-.1l-.1-.3-.1-.3-.1-.2-.2-.3v-.2l-.2-.3-.1-.3-.1-.2-.1-.3-.1-.2-.1-.3-.1-.2-.1-.3-.2-.2v-.3l-.2-.3v-.2l-.2-.3v-.3l-.2-.2v-.3l-.2-.3v-.2l-.2-.3v-.2l-.1-.3-.1-.3-.1-.2-.1-.3-.1-.3-.1-.3-.1-.2v-.3l-.2-.3v-.2l-.1-.3-.1-.3-.1-.2v-.3h-.1v-.3l-.1-.2-.1-.3-.1-.3v-.3l-.1-.2-.1-.3-.1-.3v-.3l-.1-.2v-.3h-.1v-.3l-.1-.3-.1-.3v-.2l-.1-.3-.1-.3v-.3l-.1-.2v-.3l-.1-.3-.1-.3v-.3l-.1-.2v-.3l-.1-.3v-.3l-.1-.2v-.3l-.1-.3v-.3l-.1-.3v-.5l-.1-.3v-.2l-.1-.3v-.6h-.1v-.5l-.1-.3v-.5l-.1-.3V275l-.1-.3v-.8l-.1-.3v-1.4l-.1-.3V143.6l.1-.3V142h.1V141l.1-.3v-.6l.1-.4v-.6h.1v-.6l.1-.4v-.3l.1-.3v-.3l.1-.3v-.4l.1-.3v-.3l.1-.3v-.3l.1-.4v-.3l.1-.3v-.3l.1-.3.1-.4v-.3l.1-.3v-.3l.1-.3.1-.3v-.4l.1-.3.1-.3v-.3l.2-.3v-.3l.1-.4v-.3l.2-.3v-.3l.1-.3v-.3h.1v-.3l.2-.4v-.3l.1-.3.1-.3.1-.3.1-.3v-.3h.1v-.3l.2-.3v-.3l.2-.3v-.3l.2-.3v-.3l.2-.3v-.3l.2-.3v-.3l.2-.3v-.3l.2-.3.1-.3.1-.3.1-.3.1-.3.1-.3.2-.3v-.3l.2-.3.1-.3.1-.3.2-.3v-.3l.2-.3.1-.3.2-.3v-.3l.2-.3.1-.3.2-.2v-.3h.1l.1-.3.2-.3v-.3h.1l.1-.3.2-.3.1-.2.1-.3.2-.3.1-.3.1-.3.2-.3.1-.2.2-.3.1-.3.2-.3.1-.3.2-.3.1-.2.2-.3.1-.3.2-.3.1-.3.2-.2.1-.3.2-.3.2-.3.1-.2.2-.3.1-.3.2-.3.2-.2.1-.3.2-.3.2-.2.1-.3.2-.3.2-.2.1-.3.2-.3.2-.2.2-.3.1-.3.2-.2.2-.3.2-.2.1-.3.2-.3.2-.2.2-.3.2-.2.1-.3.2-.2.2-.3.2-.2.2-.3.2-.2.2-.3.1-.2.2-.3.2-.2.2-.3.2-.2.2-.3.2-.2.2-.3.2-.2.2-.3.2-.2.2-.3.2-.2.2-.3.2-.2.2-.2.2-.3.3-.2.2-.3.2-.2.2-.2.2-.3.2-.2.2-.2.2-.3.3-.2.2-.3.2-.2.2-.2.2-.2.3-.3.2-.2.2-.2.3-.3.2-.2.2-.2.2-.2.3-.3.2-.2.2-.2.3-.2.2-.2.2-.3.3-.2.2-.2.2-.2.3-.2.2-.2.3-.3.2-.2.2-.2.3-.2.2-.2.3-.2.2-.2.3-.2.2-.2.3-.2.2-.2.3-.3.2-.2.3-.2.2-.2.3-.2.2-.2.3-.2.2-.2.3-.2.3-.2.2-.2.3-.2.3-.2.2-.1.3-.2.2-.2.3-.2.3-.2.2-.2.3-.2.3-.2.2-.1.3-.2.2-.2.3-.2.3-.2.3-.1.2-.2.3-.2.3-.2.3-.1.3-.2.2-.2L520 20.8l.2-.1.3-.2.2-.1.3-.2.2-.1.3-.2.2-.1.3-.1.2-.2.3-.1.2-.2.3-.1.2-.1.3-.2.2-.1.3-.1.2-.2.3-.1.2-.1.3-.2h.2v-.1l.3-.1.2-.2h.3l.3-.2.2-.1.3-.1.2-.2h.3l.3-.2.2-.1.3-.1.2-.1.3-.1.3-.1.2-.2h.3l.2-.2h.3l.3-.2h.2v-.1h.3v-.1h.3v-.1h.2v-.1h.3v-.1h.2V15h.3V15h.3v-.1h.2l.3-.2h.3l.2-.2h.3l.3-.1.2-.1.3-.1h.3V14h.2l.3-.2h.3l.2-.1.3-.1h.3l.2-.2h.3l.3-.1h.2l.3-.2h.3l.2-.1h.3V13h.3l.3-.1h.2v-.1h.3l.3-.1.2-.1h.3l.3-.1.3-.1h.2l.3-.1h.3l.2-.1h.3l.3-.1h.3l.2-.1h.3l.3-.1h.2l.3-.1h.3l.3-.1h.5l.3-.1h.3l.3-.1h.8l.2-.1h.6l.3-.1h.8l.3-.1h1.1l.3-.1H552.4l.3-.1h2.3zm-.2 27h-2l-.1.1H551l-.1.1H550l-.1.1h-.7l-.2.1H548.5l-.2.1h-.5l-.1.1H547.4l-.2.1H547l-.2.1H546.4l-.2.1H546l-.2.1H545.4l-.1.1h-.2l-.2.1H544.6l-.1.1h-.2l-.1.1h-.4l-.1.1h-.2l-.1.1h-.2l-.2.1h-.1l-.2.1h-.1l-.2.1h-.1l-.2.1h-.2l-.1.1h-.2l-.1.1-.2.1h-.1l-.2.1h-.2l-.1.1h-.2l-.1.1-.2.1h-.1l-.2.1h-.1l-.2.1-.1.1h-.2l-.2.1-.1.1h-.2l-.1.1-.2.1h-.1l-.2.2h-.1l-.2.1h-.1l-.2.1-.1.1-.2.1h-.1l-.2.1-.1.1-.2.1h-.1l-.2.2h-.1l-.2.1-.1.1h-.2l-.1.2h-.2l-.1.1-.2.1h-.1l-.2.2h-.1l-.2.1-.1.1-.2.1-.1.1L438 103l-.2.1-.2.1-.2.1-.2.2h-.2l-.1.2-.2.1-.2.1-.2.2h-.1l-.2.2-.2.1-.2.1-.2.2-.1.1-.2.1-.2.1-.2.2h-.1l-.2.2-.2.1-.2.2-.1.1-.2.1-.2.2-.1.1-.2.1-.2.2h-.2l-.1.2-.2.2h-.1l-.2.2-.2.2h-.2l-.1.2-.2.2-.1.1-.2.2h-.2l-.1.2-.2.2-.1.1-.2.2-.1.1-.2.1-.2.2-.1.1-.2.2-.1.1-.2.2-.1.1-.2.2h-.2l-.1.2-.2.2-.1.1-.2.2-.1.1-.2.2-.1.1-.2.2-.1.1-.2.2-.1.2-.1.1-.2.2-.1.1-.2.2-.1.1-.2.2-.1.2-.1.1-.2.2-.1.1-.2.2-.1.2-.1.1-.2.2-.1.1-.1.2-.2.2-.1.1-.1.2-.2.2-.1.1-.1.2-.2.1v.2l-.2.2-.1.2-.2.1-.1.2-.1.2-.2.1v.2l-.2.2-.1.1-.1.2-.2.2v.2l-.2.1-.1.2-.2.2v.1l-.2.2-.1.2-.1.2-.1.2-.2.1v.2l-.2.2-.1.2-.1.1-.1.2-.1.2-.2.2v.2l-.2.1v.2l-.2.2-.1.2-.1.2-.1.2-.1.1-.1.2-.1.2-.1.2-.1.2-.1.2-.2.2v.1l-.2.2v.2l-.1.2-.1.2-.1.2-.1.2-.1.2-.1.1-.1.2-.1.2-.1.2v.2l-.2.2v.2l-.2.2v.2l-.1.2-.1.1-.1.2v.2l-.2.2v.2l-.1.2-.1.2v.2l-.2.2v.2l-.1.2-.1.2v.2l-.2.2v.2l-.1.2-.1.2v.2l-.1.2-.1.2v.2l-.1.2-.1.2v.2l-.2.2v.2l-.1.2v.2l-.1.2-.1.2v.2l-.1.2v.2l-.1.2-.1.2v.2l-.1.2v.2l-.1.2-.1.2v.2l-.1.2v.2l-.1.3v.2l-.1.2v.2l-.1.2v.2l-.1.2v.2l-.1.2v.2l-.1.2v.3l-.1.2v.4l-.1.2v.2l-.1.2v.4l-.1.2v.3l-.1.2v.4l-.1.2v.4l-.1.2v.7l-.1.2v.4l-.1.2v.7l-.1.2v.8l-.1.3v1l-.1.2V272.4l.1.2v.7l.1.2v.7l.1.1v.5l.1.2v.5l.1.2V276l.1.2v.5l.1.2V277.2l.1.2v.2l.1.1v.4l.1.1v.2l.1.2V278.9l.1.2v.2l.1.1v.4l.1.1v.2l.1.2v.1l.1.2v.1l.1.2v.2l.1.1v.2l.1.2v.1l.1.2v.2l.1.1v.2l.1.2.1.1v.2l.1.1v.2l.1.2.1.1v.2l.1.1v.2l.1.2.1.1v.2l.1.2.1.1v.2l.1.1.1.2v.2l.1.1.1.2v.1l.2.2v.2l.1.1v.2l.1.1.1.2v.1l.1.2.1.1.1.2v.2l.2.1v.2l.1.1.1.2v.1l.2.2v.1l.1.2.1.1v.2l.2.1v.2l.1.1.1.2.1.1v.2l.2.1v.1l.2.2v.1l.1.2.1.1.1.2.1.1.1.2.1.1v.2l.2.1v.2l.2.1v.1l.2.2v.1l.1.2.1.1.1.2.1.1.1.1.1.2.1.1.1.2.1.1.1.1.1.2.1.1.1.2h.1l.1.2.1.2.1.1.2.2.2.2v.2l.2.1.1.1.1.2.1.1.1.1.1.2h.2v.2l.2.2.2.2.1.1.1.2h.2v.2l.2.2h.1l.1.2.2.1v.2h.2l.1.2.1.1.2.1v.2h.2l.1.2.1.1.2.2.2.2.1.1.2.1v.2h.2l.2.2v.1l.2.1.1.1.2.2h.1l.1.2.2.1v.1l.2.1.2.2.2.2h.2v.2l.2.1.2.1.1.1.2.1v.1l.2.2h.2l.1.2h.1l.2.2h.1l.2.2h.1l.1.2h.2l.1.2h.2l.1.2.1.1.2.1.1.1.2.1.1.1.2.1.1.1.1.1h.2l.1.2h.2l.1.2h.2l.1.2h.2l.1.2h.2l.1.2h.2l.1.1.2.1 104.7 61.2.1.1h.1l.2.1v.1h.2v.1h.2l.1.2H539.7v.1l.2.1h.1l.1.1h.2v.1h.2l.1.2H541v.1h.2l.1.1h.1l.2.1.2.2h.2l.2.1.2.1h.1l.1.1h.2v.1h.2l.1.1h.2v.1H543.6l.1.1h.2v.1h.2l.1.1H544.4v.1h.2l.1.1h.3l.2.2h.3l.2.1h.3l.2.2h.5l.3.2h.5l.2.1h.3l.2.1h.3l.2.1h.3l.2.1h.3l.3.1h.5l.2.1h.6l.2.1h1l.3.1H557.8l.2-.1h.5l.3-.1h.5l.3-.1h.5l.2-.1h.3l.2-.1h.3l.2-.1h.3l.2-.1h.3l.2-.1.3-.1h.2l.3-.1.2-.1h.3l.2-.2h.4l.1-.1h.2v-.1H564.9l.2-.1.2-.1h.1l.1-.1h.2l.2-.1h.1l.2-.1.2-.1h.2l.2-.1.2-.1h.1l.1-.1h.2v-.1l.2-.1h.1l.1-.1h.2v-.1h.2l.1-.1h.1l.2-.1.2-.1h.1l.1-.1.2-.1.2-.1h.1l.1-.1.1-.1h.2v-.1h.2l.1-.2h.1l.2-.1 115.9-64.6h.1l.1-.1h.2v-.1l.2-.1h.1l.1-.2h.2v-.1h.2l.1-.2h.1l.2-.1.2-.2h.1l.1-.1.2-.1.2-.2h.1l.1-.1.1-.1h.2v-.2h.2l.1-.1.1-.1h.1l.1-.2h.1l.2-.1v-.1h.2v-.2h.2l.1-.1.1-.1.1-.1.1-.1h.1l.2-.2.2-.1v-.1l.2-.1v-.1l.2-.1.2-.2.2-.2.2-.1v-.1l.2-.1v-.1l.2-.1v-.1l.2-.1v-.1l.2-.1.2-.2.2-.2.2-.2.2-.2.1-.2h.1l.1-.2h.1l.1-.2.2-.2.2-.2.2-.2.1-.2h.1l.1-.2h.1v-.2h.2v-.2l.2-.1v-.1l.1-.1.1-.1v-.1l.2-.1v-.1l.1-.2h.1v-.2h.2v-.2l.1-.1.1-.1v-.1l.2-.1v-.2h.1l.1-.2.2-.2v-.1l.1-.1.1-.1v-.1l.2-.2.1-.2v-.1l.1-.1.1-.1v-.2h.2v-.2l.1-.1v-.1l.1-.1.1-.2.1-.2.1-.1v-.1l.2-.2v-.2l.2-.1v-.1l.1-.2.1-.2.1-.1v-.1l.1-.2.1-.2.1-.1v-.1l.1-.2v-.1l.1-.1v-.1l.2-.2v-.2l.1-.1v-.2h.1v-.2l.1-.1.1-.2v-.1l.1-.1v-.2h.1v-.2l.1-.1v-.2l.1-.1v-.1l.1-.2.1-.2v-.1l.1-.2.1-.2V284l.1-.1v-.1l.1-.2v-.1l.1-.1V283l.1-.1v-.1l.1-.2v-.2l.1-.2v-.1l.1-.1v-.2l.1-.2v-.2l.1-.2V281l.1-.1v-.4l.1-.1V280l.1-.1v-.5h.1V279.1l.1-.2v-.5l.1-.2v-.5l.1-.2v-.7l.1-.1v-1l.1-.1V133.6l-.1-.3v-.5l-.1-.2v-.5l-.1-.3v-.5l-.1-.2v-.3l-.1-.2v-.2l-.1-.3v-.2l-.1-.3v-.2l-.1-.2-.1-.3v-.2l-.1-.3-.1-.2v-.2l-.1-.3-.1-.2v-.2l-.2-.3v-.2l-.1-.2-.1-.3v-.2l-.2-.2v-.2l-.1-.3-.1-.2-.1-.2-.1-.3-.1-.2-.1-.2-.1-.2-.1-.2-.1-.3-.1-.2-.1-.2-.1-.2-.2-.2v-.3l-.2-.2-.1-.2-.1-.2-.1-.2-.2-.2v-.2l-.2-.3-.1-.2-.2-.2v-.2l-.2-.2-.2-.2-.1-.2-.1-.2-.2-.2-.1-.2-.1-.2-.2-.2-.1-.2-.2-.2-.1-.2-.2-.2-.1-.2-.2-.2-.1-.2-.2-.1-.2-.2-.1-.2-.2-.2-.1-.2-.2-.2-.2-.2-.2-.1-.1-.2-.2-.2-.2-.2-.2-.2-.1-.1-.2-.2-.2-.2-.2-.1-.1-.2-.2-.2-.2-.2-.2-.1-.2-.2-.2-.2-.2-.1-.1-.2-.2-.1-.2-.2-.2-.2-.2-.1-.2-.2-.2-.1-.2-.2-.2-.1-.2-.1-.2-.2-.2-.1-.2-.2-.3-.1-.2-.2-.2-.1-.2-.1-.1-.1h-.1l-.1-.1-.1-.1h-.1l-.1-.1-.2-.1-113.5-66.9h-.1l-.2-.1-.1-.1-.2-.1h-.1l-.2-.2h-.1l-.2-.1-.1-.1h-.2l-.1-.2h-.2l-.1-.1-.2-.1h-.1l-.2-.1-.1-.1h-.2l-.1-.2h-.2l-.1-.1h-.2l-.1-.2h-.2l-.1-.1h-.2l-.1-.1-.2-.1h-.1l-.2-.1-.1-.1h-.2l-.1-.2H569.6l-.2-.1-.1-.1h-.2l-.1-.1h-.2l-.1-.1-.2-.1h-.1l-.2-.1h-.2l-.1-.1-.2-.1h-.1l-.2-.1h-.1l-.2-.1h-.2l-.1-.1h-.2l-.1-.1h-.2l-.1-.1h-.2l-.2-.1h-.1l-.2-.1H565.2l-.2-.1h-.1l-.2-.1H564.4l-.2-.1h-.1l-.2-.1H563.6l-.2-.1H563.1l-.1-.1h-.2l-.2-.1h-.4l-.2-.1H561.7l-.2-.1H561.2l-.2-.1h-.5l-.1-.1h-.7l-.1-.1h-.7l-.1-.1h-1.2l-.2-.1H555z" fill="#37322e"/><path d="M478.3 109.4h42.3v112.2c0 17.8.5 29.3 1.5 34.6a30.5 30.5 0 0011.2 19.5c6.3 5 13.7 6.5 24.8 6.5 11.2 0 15-1.7 20.6-6.5 5.7-4.9 9.2-9.5 10.3-16.6 1.2-7 3.1-18.8 3.1-35.2V109.4h42.3v108.8c0 24.8-1 42.4-3.2 52.7-2.2 10.2-6.1 18.9-11.9 26a59.8 59.8 0 01-23 16.8 95.2 95.2 0 01-37.6 6.3c-18.7 0-32.9-2.3-42.6-6.8a61.2 61.2 0 01-22.9-17.8c-5.6-7.3-9.3-15-11-23a265.7 265.7 0 01-4-52.5V109.4h.1z" fill="#fff"/><path fill-rule="evenodd" clip-rule="evenodd" d="M1100.4 259.3V136.8c0-15.8-8.5-30.4-22.3-38.3l-113.6-65a52.6 52.6 0 00-53.2.6l-96 57.6a67 67 0 00-32.6 57.5v119.5c0 20 10.6 38.4 27.8 48.5l104.8 61.2c13.9 8.1 31 8.3 45.2.5l115.9-64.6a46.7 46.7 0 0024-40.8v-14.4z" fill="#37322e"/><path fill-rule="evenodd" clip-rule="evenodd" d="M938.5 13.2h2.1l.3.1H942.3l.3.1h.8l.2.1h1.1l.3.1h.5l.3.1h.5l.3.1h.6l.2.1h.6l.2.1h.3l.3.1h.3l.2.1h.3l.3.1h.2l.3.1h.3l.2.1h.3l.3.1h.3l.2.1h.3l.3.1.2.1h.3l.3.1h.2l.3.1.3.1h.2l.3.2h.5l.3.2h.5v.1h.3l.3.1.2.1h.3v.1h.3l.3.2h.2l.3.1.3.1h.2l.3.2h.3l.2.1.3.1.3.1.2.1h.3v.1h.2l.3.2h.3l.2.2h.3l.2.2h.3l.2.2h.3l.3.2h.2l.3.2h.2l.3.2h.2l.3.2.3.1.2.1.3.1.2.1.3.2h.2l.3.2.2.1.3.1.3.1.2.2h.2l.3.2.2.1.3.2h.3l.2.2.2.1.3.2.2.1.3.1.2.2.3.1.2.1.3.2.2.1.2.2L1085 87h.2l.3.2.2.1.2.2h.2l.2.2.2.1.2.2h.2l.2.2.2.1.2.2h.2l.2.2.3.1.1.2h.3v.1l.2.1.2.2h.2l.2.2.2.1.2.2.2.1.1.2h.2v.1l.2.1.2.2.2.1.2.2.2.1.2.2.2.1.2.2h.2v.1l.2.1.2.2.1.1.2.2.2.2.2.1.2.2.2.1.2.2.3.2.4.4.3.3.4.3.3.3.4.3.3.4.4.3.3.3.3.4.4.3.3.3.3.4.4.3.3.4.3.3.3.4.3.3.4.4.3.3.3.4.3.4.3.3.3.4.3.4.3.3.2.4.3.4.3.4.3.4.2.3.3.4.3.4.2.4.3.4.2.4.3.4.2.4.3.4.2.4.3.4.2.4.3.4.2.4.2.4.2.4.3.4.2.4.2.5.2.4.2.4.2.4.2.4.2.5.2.4.2.4.2.4v.1l.2.4.2.4.1.5.2.4.2.4.1.5.2.4.2.5.1.4.2.4.1.5.1.4.2.5.1.4.2.5.1.4.1.5.1.4.2.5v.5h.1l.1.4.1.5.1.5.1.4v.5h.1v.5h.1v.4l.1.3v.2l.1.3v.4l.1.3v.2l.1.2v.5l.1.2v.5l.1.2v.8l.1.2v.7l.1.2v.7h.1v1.5l.1.2V278l-.1.2v1.3h-.1v.7l-.1.3v.5l-.1.2v.8l-.1.2v.5h-.1v.6l-.1.2v.3l-.1.2v.5l-.1.2v.3l-.1.2v.3l-.1.2v.3l-.1.2v.3l-.1.2v.3l-.1.2v.3l-.1.2v.2h-.1v.3l-.1.2v.2l-.1.3v.2h-.1v.3l-.1.2v.3l-.2.2v.5l-.2.2v.5h-.1v.2l-.1.3-.1.2v.2l-.1.3-.1.2-.1.2v.3l-.2.2v.2l-.1.3-.1.2v.2h-.1v.3l-.2.2v.2l-.2.3v.2l-.1.2-.1.3-.1.2-.1.2v.2h-.1v.3l-.2.2v.2l-.2.3v.2l-.2.2v.3l-.2.2v.2l-.2.2v.3l-.2.2v.2h-.1l-.1.2-.1.3-.1.2-.1.2-.1.2-.2.3v.2l-.2.2v.2h-.1l-.1.2-.1.2-.1.2-.2.3v.2l-.2.2-.1.2-.1.2-.1.2-.2.3-.1.2-.1.2-.1.2-.2.2v.2h-.1l-.1.2-.1.2-.2.2-.1.3-.1.2-.2.2-.1.2-.1.2-.2.2-.1.2-.1.2-.2.2-.1.2-.1.2-.2.2-.1.2-.1.2-.2.2-.1.2-.2.3-.1.2-.2.2-.1.2-.2.2-.1.2-.2.2-.1.1-.2.2-.1.2-.2.2-.1.2-.2.2-.1.2-.2.2-.2.2-.1.2-.2.2-.1.2-.2.2-.2.2-.1.1-.2.2-.1.2-.2.2-.2.2-.1.2-.2.2-.2.1-.1.2-.2.2-.2.2-.1.2-.2.1-.2.2-.2.2-.1.2-.2.2-.2.2-.2.1-.2.2-.1.2-.2.2-.2.1-.2.2-.1.2-.2.2-.2.1-.2.2-.2.2-.2.1-.2.2-.1.2-.2.1-.2.2-.2.2-.2.1-.2.2-.2.1-.2.2-.2.2-.1.1-.2.2-.2.1-.2.2-.2.1-.2.2-.2.2-.2.1-.2.2-.2.1-.2.2-.2.1-.2.2-.2.1-.2.2-.2.1-.2.2-.2.1-.2.2-.2.1-.2.2h-.2v.1l-.2.1-.2.2-.2.1-.3.2-.2.1-.2.2-.2.1-.2.1-.2.2-.2.1-.2.2h-.2v.1l-.3.1-.2.2h-.2v.1l-.2.1-.2.2h-.3v.1l-.2.1-.2.1-.2.2-.2.1-.3.1-116 64.6-.1.1-.2.2h-.3l-.2.2-.2.1-.2.1-.2.1-.2.2h-.2l-.3.2h-.2v.1l-.2.1-.2.1-.3.1-.2.1-.2.1-.2.1-.2.1-.3.1-.2.1-.2.1-.2.1-.2.1-.3.1-.2.1-.2.1-.2.1-.3.1h-.2v.1h-.2v.1h-.2l-.3.2h-.2l-.2.2h-.2l-.3.1-.2.1-.2.1h-.2v.1h-.3l-.2.2h-.2l-.2.1h-.3v.1h-.2l-.2.2h-.3l-.2.1h-.2l-.2.1-.3.1h-.3l-.4.2-.5.1-.5.2-.4.1-.5.1-.4.1h-.1l-.4.1-.5.1-.4.1-.5.1-.5.1-.4.1-.5.1-.5.1-.4.1h-.5v.1h-.5l-.4.1h-.5v.1h-.5l-.5.1h-.4l-.5.1h-.5l-.5.1h-.4l-.5.1h-1l-.4.1H940l-.5.1h-4.8l-.5-.1h-.9l-.5-.1h-.5l-.4-.1h-.5l-.5-.1h-.5v-.1h-.4l-.5-.1-.5-.1-.5-.1h-.4v-.1h-.5l-.5-.2h-.5l-.4-.2h-.5l-.5-.2h-.4l-.5-.2-.4-.1-.5-.1-.5-.1-.4-.2-.5-.1-.4-.1-.5-.2-.4-.1-.5-.2h-.2l-.3-.1-.2-.1-.2-.1h-.3l-.2-.2h-.2l-.2-.1-.2-.1h-.3l-.2-.2h-.2l-.2-.1-.3-.1-.2-.1-.2-.1-.2-.1h-.3v-.1h-.2l-.2-.2h-.2l-.2-.2h-.3l-.2-.2h-.2l-.2-.2h-.2l-.3-.2h-.2l-.2-.2h-.2l-.2-.2h-.3l-.2-.2h-.2l-.2-.2h-.3v-.1l-.2-.1-.2-.1-.2-.1-.2-.1-.2-.1-.3-.1-.2-.2h-.2l-.2-.2-.2-.1-.2-.1-.2-.2h-.2v-.1l-.3-.1-.2-.1-105-61.3-.2-.1-.2-.2-.3-.1-.2-.2-.3-.1-.2-.1-.3-.2-.2-.2-.3-.1-.2-.2-.3-.1-.2-.2-.2-.2-.3-.1-.2-.2-.3-.1-.2-.2-.2-.2-.3-.2-.2-.1-.2-.2-.2-.1-.3-.2-.2-.2-.2-.1-.3-.2-.2-.2-.2-.2-.2-.1-.3-.2-.2-.2-.2-.2-.2-.2-.3-.1-.2-.2-.2-.2-.2-.2-.3-.1-.2-.2-.2-.2-.2-.2-.2-.2-.3-.2-.2-.2-.2-.2-.2-.1-.2-.2-.2-.2-.2-.2-.3-.2-.2-.2-.2-.2-.2-.2-.2-.2-.2-.2-.2-.2-.2-.2-.2-.2-.2-.2-.2-.1-.2-.2-.2-.2-.2-.2-.2-.2-.2-.2-.2-.2-.2-.2-.2-.2-.2-.2-.2-.2-.2-.3-.2-.2-.2-.2-.2-.2-.2-.2-.2-.2-.2-.2-.1-.2-.2-.2-.2-.2-.2-.3-.2-.2-.2-.2-.1-.2-.2-.2-.2-.2-.2-.2-.2-.3-.1-.2-.2-.2-.2-.2-.2-.2-.1-.2-.2-.3-.2-.2-.2-.2-.1-.2-.2-.3-.2-.2-.1-.2-.2-.3-.2-.2-.1-.2-.2-.2-.2-.3-.1-.2-.2-.2-.1-.2-.2-.3-.1-.2-.2-.2-.2-.3-.1-.2-.2-.2-.1-.3-.2-.2-.1-.2-.2-.3-.1-.2-.2-.3-.1-.2-.2-.2-.1-.3-.2-.2v-.2h-.1l-.1-.3-.2-.2-.1-.3-.2-.2v-.3h-.1l-.1-.2-.2-.2-.1-.3-.1-.2-.2-.3-.1-.2-.1-.3-.2-.2v-.2l-.2-.3-.1-.2-.2-.3v-.2l-.2-.3-.1-.2-.1-.3-.2-.3v-.2l-.2-.3-.1-.2-.1-.3-.2-.2v-.3l-.2-.3v-.2h-.1l-.1-.3-.1-.2-.1-.3-.1-.3-.1-.2-.1-.3-.2-.2v-.3l-.2-.3v-.2l-.2-.3v-.3l-.2-.2v-.3l-.2-.2v-.3l-.2-.3v-.2l-.2-.3v-.3l-.2-.2v-.3l-.1-.2-.1-.3-.1-.3v-.2h-.1v-.3l-.2-.3v-.2l-.1-.3-.1-.3v-.3l-.2-.2v-.3l-.1-.3-.1-.3v-.2l-.2-.3v-.3l-.1-.3v-.2l-.1-.3-.1-.3v-.3l-.1-.2v-.3l-.2-.3v-.5h-.1v-.3l-.1-.3V282.9l-.1-.3v-.3l-.1-.3-.1-.3v-.2l-.1-.3v-.3l-.1-.3v-.3l-.1-.2v-.3l-.1-.3v-.6l-.1-.3v-.2l-.1-.3V277.5l-.1-.3V276.2h-.1V275.4l-.1-.2V274l-.1-.2V272l-.1-.3V144.3l.1-.4V143.1l.1-.4v-.6l.1-.4V140.8l.1-.4v-.6l.1-.4v-.3l.1-.3v-.6l.1-.3v-.4l.1-.3v-.3l.1-.3v-.3l.1-.4v-.3l.1-.3v-.3l.2-.3v-.7l.1-.3.1-.3v-.3l.1-.4.1-.3v-.3l.2-.3v-.6h.1v-.3l.1-.4.1-.3v-.3l.2-.3v-.3l.1-.3.1-.4.1-.3v-.3h.1v-.3l.2-.3v-.3l.1-.3.1-.3.1-.4.1-.3.1-.3.1-.3.1-.3.1-.3.1-.3.1-.3.1-.3.1-.3.1-.3.1-.3.1-.3.1-.3.1-.3.2-.3v-.3l.2-.3.1-.3.1-.3.1-.3.1-.3.2-.3v-.3l.2-.3.1-.3.1-.3.2-.3v-.3h.1l.1-.3.2-.3v-.3h.1l.1-.3.1-.3.2-.3.1-.3.1-.3.2-.2.1-.3.1-.3.2-.3.1-.3.2-.3.1-.3.1-.3.2-.2.1-.3.2-.3.1-.3.2-.3.1-.3.2-.3.1-.2.2-.3.1-.3.2-.3.2-.2.1-.3.2-.3.1-.3.2-.3.2-.2.1-.3.2-.3.2-.2.1-.3.2-.3.1-.3.2-.2.2-.3.2-.3.1-.2.2-.3.2-.3.2-.3.1-.2.2-.3.2-.2.2-.3.2-.3.1-.2.2-.3.2-.3.2-.2.2-.3.2-.2.2-.3.2-.2.1-.3.2-.3.2-.2.2-.3.2-.2.2-.3.2-.2.2-.3.2-.2.2-.3.2-.2.2-.3.2-.2.3-.3.2-.2.2-.3.2-.2.2-.3.2-.2.2-.3.2-.2.3-.2.2-.3.2-.2.2-.3.2-.2.2-.2.3-.3.2-.2.2-.2.2-.3.3-.2.2-.2.2-.3.2-.2.3-.2.2-.3.2-.2.3-.2.2-.2.2-.3.3-.2.2-.2.2-.2.3-.3.2-.2.3-.2.2-.2.2-.2.3-.3.2-.2.3-.2.2-.2.3-.2.2-.2.2-.2.3-.2.2-.3.3-.2.2-.2.3-.2.2-.2.3-.2.3-.2.2-.2.3-.2.2-.2.3-.2.2-.2.3-.2.3-.2.2-.2.3-.2.2-.2.3-.2.3-.2.2-.2.3-.2.3-.1.2-.2.3-.2.3-.2.2-.2.3-.2.3-.2.3-.1.2-.2.3-.2.3-.2.3-.2.2-.1.3-.2.3-.2.3-.2.3-.1.2-.2.3-.2 96-57.5.3-.1.2-.2.2-.1.3-.1.2-.2.3-.1.2-.2.2-.1.3-.1.2-.2.3-.1.2-.1.2-.2h.3l.2-.2.3-.1.2-.2h.3l.2-.2.3-.1.2-.1.3-.2h.2v-.1l.3-.1.2-.1.3-.1.2-.1.3-.2h.2V19l.3-.1.2-.1.3-.1.3-.1.2-.1.3-.1.2-.1.3-.1.2-.2h.3l.2-.2h.3l.3-.2h.2l.3-.1.2-.1.3-.1.2-.1.3-.1.3-.1.2-.1h.3v-.1h.2l.3-.2h.2l.3-.1.2-.1.3-.1h.3v-.1h.2l.3-.1.3-.1.2-.1h.3l.3-.1.2-.1.3-.1h.2l.3-.1.3-.1h.2l.3-.1.3-.1h.2l.3-.1.3-.1h.2l.3-.1.3-.1h.3l.2-.1h.3l.3-.1h.2v-.1h.3l.3-.1h.2l.3-.1h.5v-.1h.6l.2-.1h.3l.3-.1h.5l.3-.1h.5l.3-.1h.8l.3-.1h.8l.3-.1h.8l.2-.1H935l.2-.1h3.3v-.3zm-.2 27h-1.5l-.1.1h-1.3l-.2.1h-.8l-.1.1h-.7l-.1.1h-.7l-.1.1H932.4l-.2.1h-.5l-.1.1h-.4l-.1.1H930.8l-.2.1H930.3l-.2.1H929.8l-.2.1h-.1l-.2.1H929l-.2.1h-.1l-.2.1H928.2l-.2.1h-.1l-.2.1h-.1l-.2.1h-.1l-.2.1h-.2l-.1.1h-.2l-.1.1h-.2l-.1.1h-.2l-.2.1h-.1l-.2.1h-.1l-.2.1h-.1l-.2.1h-.1l-.2.1-.1.1h-.2l-.1.1h-.2l-.1.1-.2.1h-.1l-.2.1h-.1l-.2.1-.1.1h-.2l-.1.1-.2.1h-.1l-.2.2H922l-.1.2h-.2l-.1.1h-.2l-.1.1-.2.1h-.1l-.2.2h-.1l-.2.1h-.1l-.2.2h-.1l-.2.1-.2.2h-.2l-.1.1-.2.1h-.1l-.2.2h-.1l-.1.1-.2.1h-.1l-.2.2-96 57.5-.1.2h-.2l-.2.2-.2.1-.2.1-.2.1-.2.2h-.2l-.1.2-.2.1-.2.1-.2.2h-.2l-.1.2-.2.1-.2.2h-.2l-.2.2-.1.1-.2.2-.2.1-.2.1-.2.2h-.1l-.2.2-.2.2h-.2l-.1.2-.2.1-.2.2-.2.1-.1.1-.2.2-.2.1-.1.1-.2.2-.2.1-.1.2-.2.1-.2.1-.1.2-.2.1-.1.2-.2.1-.2.2-.1.1-.2.1-.2.2-.1.1-.2.2-.1.1-.2.2-.2.1-.1.2-.2.1-.1.2-.2.1-.1.2-.2.1-.1.2-.2.1-.1.2-.2.1-.1.2-.2.1-.1.2-.2.2-.1.1-.2.2v.1l-.2.2-.2.2-.1.1-.2.2-.1.1-.2.2v.2l-.2.1-.2.2-.1.1-.2.2v.2l-.2.1-.2.2-.1.1-.1.2-.2.2-.1.1-.1.2-.2.2-.1.1-.1.2-.2.2-.1.2-.1.1-.2.2v.2l-.2.1-.1.2-.2.2v.1l-.2.2-.1.2-.2.2v.1l-.2.2-.1.2-.2.2v.2l-.2.1-.1.2-.1.2-.2.2v.2l-.2.1-.1.2-.1.2-.1.2-.1.2-.2.1v.2l-.2.2v.2l-.2.2-.1.1-.1.2-.1.2-.1.2-.1.2-.1.2-.1.1-.2.2v.2l-.2.2v.2l-.2.2v.2l-.2.2v.2l-.2.2v.1l-.1.2-.1.2-.1.2-.1.2v.2l-.2.2v.2l-.2.2v.2l-.1.2-.1.2-.1.2-.1.1v.2l-.2.2v.2l-.1.2-.1.2v.2l-.2.2v.2l-.1.2-.1.2v.2l-.2.2v.2l-.1.2v.2l-.2.2v.2l-.1.2v.2l-.2.2v.4l-.2.2v.2l-.1.2v.2l-.1.3-.1.2v.2l-.1.2v.2l-.2.2v.4l-.1.2v.2l-.1.2v.2l-.1.2v.3l-.1.2v.2l-.1.2v.2l-.1.2v.2l-.1.2v.2l-.1.2v.3l-.1.2v.2l-.1.2v.2l-.1.2v.4l-.1.2v.3l-.1.2v.4l-.1.2v.4l-.1.2v.7l-.1.2v.4l-.1.2v.7l-.1.2V144.9l-.1.2v1.1l-.1.2V273l.1.1v.7l.1.2v.7l.1.2v.5l.1.2V275.9l.1.2v.5l.1.2V277l.1.2V277.6l.1.2V278l.1.2v.2l.1.1v.4l.1.1v.2l.1.2v.1l.1.2V280l.1.2v.2l.1.1v.2l.1.2v.1l.1.2v.2l.1.1v.2l.1.2v.1l.1.2v.2l.1.1v.2l.1.2.1.1v.2l.1.2v.1l.1.2.1.1v.2l.1.2v.1l.1.2.1.1v.2l.1.2.1.1v.2l.1.1.1.2v.2l.1.1.1.2v.1l.1.2.1.2v.1l.2.2v.1l.1.2v.1l.2.2v.2l.1.1v.2l.2.1v.2l.1.1.1.2v.1l.2.2v.1l.1.2.1.1v.2l.2.1v.2l.1.1.1.2.1.1v.2l.2.1v.2l.2.1v.2l.1.1.1.2.1.1.1.2h.1l.1.2v.2l.2.1v.2l.2.1v.2l.2.1v.2l.2.1v.2h.1l.1.2.1.2.1.1.1.2h.1l.1.2.2.2v.1l.2.1v.2l.2.1v.2h.2v.2l.2.2h.1l.1.2.1.1.1.2.1.1.1.1.1.2.2.1v.1l.2.2.2.2.1.2h.1l.1.2.2.1v.2l.2.1.1.1.1.2h.1l.2.2v.1l.2.2h.1l.1.2.2.1v.2h.2l.1.2.1.1.2.1v.2h.2l.1.2.2.1v.1l.2.1.1.2h.2l.1.2.1.1.2.1.1.1.1.1.2.2.2.2h.2l.1.2.1.1.2.1v.1l.2.1.2.2.2.2h.1l.2.2h.1l.2.2.1.1.1.1.2.1.1.1.2.1.1.1.1.1.2.1.1.1.2.1.1.1.1.1.2.1.1.1.2.1.1.1.2.1.1.1.2.1.1.1.2.1h.1l.2.2h.1l.2.2h.1l.2.2h.1l.2.1.1.1L921.8 367l.2.1.2.1.1.1h.1l.1.1.2.1.2.1h.1l.1.2h.2l.2.1.1.1h.1l.1.1h.2v.1l.2.1h.1l.1.1h.2v.1h.2l.1.1h.1l.2.1.2.1h.1l.1.1h.2v.1h.2l.1.1h.2v.1h.2l.1.1h.1l.2.1.2.1h.1l.1.1H927.6l.1.1h.1l.2.1.3.1h.3l.2.2h.3l.2.1h.3l.2.2h.5l.3.1.2.1h.3l.2.1h.3l.2.1h.3l.2.1h.6l.2.1h.3l.2.1h.5l.3.1h.7l.3.1h1.8l.3.1H940.6l.2-.1h.8l.2-.1h.5l.3-.1h.5l.3-.1h.2l.3-.1h.2l.3-.1h.2l.3-.1h.2l.3-.1.2-.1h.3l.3-.1.2-.1h.3l.2-.1.3-.1h.2l.1-.1h.2v-.1H948l.1-.1h.2v-.1H948.7l.1-.1h.2v-.1h.2l.1-.1H949.5l.1-.1h.1l.1-.1h.2v-.1h.2l.1-.1h.1l.2-.1.2-.1h.1l.1-.1h.2v-.1l.2-.1h.1l.1-.1h.2v-.1h.2l.1-.1.1-.1h.2v-.1h.2l.1-.1.1-.1h.1l.2-.1.2-.1.1-.1h.1l.2-.1 115.9-64.6h.1l.1-.1.2-.1h.1l.1-.2h.1l.2-.1.2-.1.1-.1h.1l.2-.2.2-.1h.1l.1-.2h.2v-.1h.2v-.2h.2l.1-.1.1-.1h.2v-.2h.2l.1-.1.1-.1h.1l.1-.2h.2v-.1l.2-.1v-.1h.2l.1-.2h.1l.1-.1.1-.1.1-.1.1-.1h.1l.1-.2h.2v-.2h.2v-.1l.2-.1.1-.1.1-.1.1-.1h.1l.1-.2h.1l.1-.2h.1l.1-.1.1-.1.1-.1.1-.1.1-.1.1-.1.1-.1h.1l.1-.2h.1l.1-.2h.1l.1-.2h.1l.1-.2h.1v-.2h.2v-.2h.2v-.2h.1l.1-.2h.1l.1-.2h.1l.1-.2.2-.2v-.1l.2-.1v-.1l.1-.1.1-.1.1-.1.1-.1v-.1l.2-.1v-.1l.1-.1.1-.1.1-.1v-.2h.2v-.2h.1l.1-.2v-.1l.2-.1v-.1l.1-.1.1-.2.2-.2.1-.2v-.1l.2-.1v-.1l.1-.1.1-.2.2-.2v-.1l.1-.1v-.1l.1-.1.1-.2.2-.2v-.1l.1-.1v-.2h.1v-.2l.1-.1.1-.1v-.1l.1-.2h.1v-.2l.1-.1.1-.1v-.2h.1v-.2l.1-.1.1-.2.1-.2v-.1l.1-.2.2-.2V287.6h.1v-.2l.1-.1v-.1l.1-.2v-.1l.1-.1v-.2h.1v-.2l.2-.1v-.2l.1-.2v-.1l.1-.2v-.1l.1-.1v-.2l.1-.2v-.1l.1-.2v-.1l.1-.1v-.2h.1v-.2l.1-.1V283.7l.1-.1v-.2l.1-.1v-.1l.1-.2v-.2l.1-.2v-.2l.1-.1V282l.1-.2v-.2l.1-.2v-.2l.1-.2v-.2l.1-.1v-.4l.1-.2V279.8l.1-.1v-.4l.1-.1V278.6l.1-.1V277.9l.1-.1V277l.1-.1V276l.1-.1V133.8h-.1V132.8h-.1v-.5l-.1-.2v-.5l-.1-.1v-.4l-.1-.2v-.3l-.1-.2v-.3l-.1-.2-.1-.3v-.2l-.1-.2v-.3l-.2-.2v-.3l-.1-.2v-.2l-.2-.3v-.2l-.1-.3v-.2l-.2-.2v-.3l-.1-.2-.1-.2-.1-.3v-.2l-.2-.2v-.3l-.2-.2v-.2l-.2-.3v-.2l-.2-.2v-.2l-.2-.3v-.2l-.2-.2-.1-.2-.1-.2-.2-.3v-.2l-.2-.2-.1-.2-.1-.2-.2-.3v-.2l-.2-.2-.2-.2v-.2l-.2-.2-.2-.2-.1-.2-.1-.3-.2-.2-.1-.2-.2-.2-.1-.2-.2-.2-.1-.2-.2-.2-.1-.2-.2-.2-.1-.1-.2-.2-.2-.2-.1-.2-.2-.2-.2-.2-.1-.2-.2-.2-.2-.2-.1-.1-.2-.2-.2-.2-.1-.2-.2-.2-.2-.1-.2-.2-.1-.2-.2-.2-.2-.1-.2-.2-.2-.2-.2-.1-.2-.2-.2-.2-.2-.1v-.1l-.2-.1-.2-.2-.2-.1v-.1h-.2v-.2h-.2v-.1l-.2-.1-.2-.1v-.1h-.2v-.2h-.2v-.1l-.2-.1-.2-.1-.1-.1h-.1l-.1-.2h-.1l-.1-.1h-.1l-.1-.1-.2-.1-.2-.1v-.1h-.2l-.1-.1-.1-.1h-.1l-.1-.2h-.2l-.2-.2-113.6-65h-.2l-.1-.2h-.2l-.1-.1-.1-.1h-.2l-.1-.2h-.2l-.1-.1-.2-.1h-.1l-.2-.2h-.1l-.2-.1h-.1l-.2-.1-.1-.1h-.2l-.1-.2h-.2l-.1-.1h-.2l-.1-.1-.2-.1h-.1l-.2-.1-.1-.1h-.2l-.1-.1-.2-.1h-.1l-.2-.1h-.1l-.2-.1-.1-.1h-.2l-.1-.1h-.2l-.1-.1h-.2l-.1-.1h-.2l-.1-.1h-.2l-.1-.1h-.2l-.2-.1h-.1l-.2-.1h-.1l-.2-.1h-.1l-.2-.1h-.1l-.2-.1h-.1l-.2-.1h-.2l-.1-.1h-.2l-.1-.1H948.2l-.2-.1h-.2l-.1-.1H947.4l-.2-.1h-.1l-.2-.1H946.6l-.2-.1H946.1l-.2-.1h-.4l-.2-.1H945l-.2-.1h-.4l-.2-.1h-.5l-.1-.1h-.7l-.1-.1h-.7l-.1-.1H941.2l-.2-.1H939.3l-.2-.1h-1 .2zM1483.5 260V137.5c0-15.8-8.5-30.4-22.2-38.3l-113.7-65a52.6 52.6 0 00-53.1.6l-96 57.6a67 67 0 00-32.6 57.5v119.5c0 20 10.6 38.4 27.8 48.5l104.7 61.2c14 8.1 31.1 8.3 45.2.4l116-64.5a46.7 46.7 0 0024-40.8v-14.4z" fill="#37322e"/><path fill-rule="evenodd" clip-rule="evenodd" d="M1321.7 13.9h3.4l.3.1h1.6l.3.1h.8l.2.1h.8l.3.1h.5l.3.1h.8l.3.1h.5l.3.1h.2l.3.1h.3l.2.1h.6l.3.1h.2l.3.1h.3l.2.1h.3v.1h.3l.2.1h.3l.3.1h.2l.3.1.3.1h.2l.3.1.3.1h.2l.3.1.3.1h.2l.3.1.3.1h.2l.3.2h.2l.3.1h.3v.1h.2l.3.2h.2l.3.1.3.1.2.1.3.1h.2l.3.2h.3l.2.1.3.1.2.1.3.1.2.1.3.1.2.1.3.1.2.1.3.1.3.1.2.1.3.1.2.1.3.1.2.1.3.1.2.1.3.2h.2l.3.2.2.1.3.1.2.1.3.1.2.2h.3v.1l.2.1.3.1.2.2h.3l.2.2.3.1.2.1.3.2.2.1.3.2h.2v.1l.3.1.2.2.2.1.3.1.2.2 113.7 65 .2.1.2.1.2.1.2.2h.2v.1l.2.1.2.1.2.1.2.2.3.1.2.1.1.2h.3v.1l.2.1.1.2.3.1.1.1.3.2.1.1.2.1.2.2.2.1.2.1.2.2.2.1.2.2.2.1.2.1.2.2.1.1.2.2.2.1.2.1.2.2.2.1.2.2.2.1.1.2.2.1.2.2.2.1.2.2.2.1.1.2.4.3.3.3.4.3.3.3.4.4.3.3.4.3.3.3.4.4.3.3.3.3.4.4.3.3.3.4.3.3.4.4.3.3.3.4.3.3.3.4.3.3.3.4.3.3.3.4.3.4.3.3v.1l.3.3.3.4.2.4.3.3.3.4.2.4.3.4.3.4.2.4.3.4.2.4.3.4.2.4.3.4.2.4.3.4.2.4.2.4.2.4.3.4.2.4.2.4v.1l.2.4.2.4.2.4.2.4.2.4v.1l.2.4.2.4.2.4.2.5.2.4.2.4.1.5.2.4.2.4v.1l.1.4.2.4.1.5.2.4.1.4v.1l.2.4.2.4v.5l.2.4.1.5.2.4v.5h.1l.1.4.1.5.2.4v.5l.2.5v.4l.2.5v.5l.2.4v.7l.1.3v.2l.1.2v.3l.1.2v.7h.1v.5l.1.2v.5l.1.2v.7l.1.3V132.3l.1.3V133.5l.1.3v2.1l.1.3V277.3l-.1.2v1.3l-.1.3v.7l-.1.3v.7l-.1.3v.5l-.1.2v.6l-.1.2v.5l-.1.2v.6h-.1v.5l-.1.2v.3l-.1.2v.2l-.1.3v.2l-.1.3v.2l-.1.3v.2l-.1.3v.2l-.1.2v.3l-.1.2v.3h-.1v.2l-.1.3v.2l-.1.3-.1.2v.2l-.1.3-.1.2v.3l-.1.2-.1.2v.3h-.1v.2l-.1.3-.1.2v.2h-.1v.3l-.2.2v.2l-.1.3v.2h-.1v.2l-.1.3-.1.2-.1.2-.1.3-.1.2v.2h-.1v.3l-.2.2v.2l-.1.3-.1.2-.1.2-.1.3-.1.2-.1.2v.3h-.1v.2l-.2.2v.2l-.2.3v.2l-.2.2v.3l-.2.2v.2l-.2.2v.3l-.2.2v.2l-.2.2-.1.3-.1.2-.1.2-.1.2-.1.2-.2.3v.2l-.2.2-.1.2-.1.2-.1.2-.2.3v.2l-.2.2-.1.2-.1.2-.2.2v.3l-.2.2-.1.2-.2.2v.2h-.1l-.1.2-.1.2-.2.3v.2h-.1l-.1.2-.2.2v.2h-.1l-.1.2-.2.2-.1.2-.1.2-.2.2-.1.2-.2.2v.2l-.2.2-.2.2v.2h-.1l-.1.2-.2.2-.1.2-.1.2-.2.2-.2.2-.1.2-.2.2-.1.2-.2.2-.1.2-.2.2-.1.2-.2.2-.1.2-.2.2-.1.2-.2.2-.2.2-.1.2-.2.1-.1.2-.2.2-.1.2-.2.2-.2.2-.1.2-.2.2-.2.1-.1.2-.2.2-.2.2-.1.2-.2.2-.2.2-.1.1-.2.2-.2.2-.2.2-.1.1-.2.2-.2.2-.2.2-.2.2-.1.1-.2.2-.2.2-.2.1-.2.2-.1.2-.2.2-.2.1-.2.2-.2.2-.2.1-.2.2-.1.2-.2.1-.2.2-.2.2-.2.1-.2.2-.2.2-.2.1-.2.2-.2.1-.2.2-.1.2-.2.1-.2.2-.2.1-.2.2-.2.1-.2.2-.2.1-.2.2-.2.1-.2.2-.2.1-.2.2-.2.1-.3.2-.2.1-.2.2h-.2v.1l-.2.1-.2.2-.2.1-.2.2-.2.1-.2.2-.3.1-.2.2h-.2v.1l-.2.1-.2.2h-.2v.1l-.2.1-.2.2-.3.1-.2.1-.2.2h-.2l-.2.2-.3.1-.2.1-.2.2h-.2l-116 64.7h-.2v.1l-.2.1-.2.1-.3.1-.2.2h-.2l-.2.2-.2.1-.2.1-.3.1-.2.1-.2.1-.2.1-.2.1-.3.1-.2.1-.2.1-.2.1-.3.2h-.2l-.2.2h-.2l-.3.1-.2.1-.2.1-.2.1-.3.1-.2.1-.2.1h-.2v.1h-.3l-.2.2h-.2l-.2.2h-.2l-.3.1-.2.1h-.2v.1h-.2l-.3.2h-.2l-.2.1h-.2v.1h-.3l-.2.2h-.2l-.3.1h-.2l-.2.2h-.4v.1h-.3l-.4.2-.5.1-.4.2h-.5l-.5.2-.4.1-.5.1-.5.1-.4.2h-.5l-.4.2h-.5l-.5.1-.4.1-.5.1h-.5v.1h-.4l-.5.1-.5.1h-.5l-.4.2h-1l-.4.1h-1v.1h-.9l-.5.1h-1.4v.1h-5.7l-.4-.1h-1l-.5-.1h-.9l-.5-.1h-.4l-.5-.1-.5-.1h-.5l-.4-.1-.5-.1h-.5v-.1h-.4l-.5-.2h-.5l-.4-.1-.5-.1-.5-.1-.4-.1-.5-.1-.5-.2h-.4l-.5-.2-.5-.1-.4-.1-.5-.2-.4-.1-.5-.2-.4-.1h-.1l-.4-.2h-.3l-.2-.1-.2-.1h-.2l-.3-.2h-.2l-.2-.1-.3-.1h-.2v-.1h-.2l-.2-.1-.2-.1-.3-.1-.2-.1-.2-.1h-.3v-.1h-.2l-.2-.2h-.2l-.3-.1-.2-.1-.2-.1-.2-.1-.2-.1-.3-.1-.2-.1-.2-.1-.2-.1-.3-.1-.2-.1-.2-.1-.2-.1-.2-.1-.3-.1-.2-.2h-.2l-.2-.2-.2-.1-.2-.1-.3-.1-.2-.1-.2-.1-.2-.1-.2-.2h-.2l-.3-.2-.2-.1-.2-.1-.2-.2h-.2v-.1l-.2-.1-.2-.1-104.8-61.2-.2-.2-.3-.1-.2-.2-.3-.1-.2-.2-.3-.1-.2-.2-.3-.1-.2-.2-.3-.1-.2-.2-.2-.2-.3-.1-.2-.2-.3-.1-.2-.2-.2-.1-.3-.2-.2-.2-.3-.1-.2-.2-.2-.2-.3-.1-.2-.2-.2-.2-.2-.1-.3-.2-.2-.2-.2-.1-.2-.2-.3-.2-.2-.2-.2-.1-.2-.2-.3-.2-.2-.2-.2-.1-.2-.2-.2-.2-.3-.2-.2-.2-.2-.1-.2-.2-.2-.2-.2-.2-.2-.2-.3-.2-.2-.2-.2-.1-.2-.2-.2-.2-.2-.2-.2-.2-.2-.2-.2-.2-.2-.2-.2-.2-.2-.2-.2-.2-.2-.2-.2-.2-.2-.2-.2-.2-.2-.2-.2-.2-.2-.2-.2-.2-.2-.2-.2-.2-.2-.2-.2-.2-.2-.2-.2-.2-.2-.2-.2-.3-.2-.2-.2-.2-.1-.2-.2-.2-.2-.2-.2-.2-.2-.3-.2-.2-.1-.2-.2-.2-.2-.2-.2-.2-.2-.2-.1-.3-.2-.2-.2-.2-.2-.2-.1-.2-.2-.3-.2-.2-.1-.2-.2-.2-.2-.2-.1-.3-.2-.2-.2-.2-.1-.3-.2-.2-.2-.2-.1-.3-.2-.2-.2-.2-.1-.3-.2-.2-.1-.2-.2-.2-.1-.3-.2-.2-.1-.3-.2-.2-.1-.2-.2-.2-.1-.3-.2-.2-.1-.2-.2-.3-.1-.2-.1-.2-.2-.3-.1-.2-.2-.2-.1-.3-.2-.2-.1-.3-.1-.2-.2-.3-.1-.2-.2-.2v-.3h-.1l-.1-.2-.1-.3-.2-.2-.1-.3-.1-.2-.1-.3-.2-.2-.1-.3-.1-.2-.1-.3-.2-.2-.1-.3-.1-.2-.1-.3-.2-.2v-.3l-.2-.2-.1-.3-.1-.3-.1-.2-.2-.3v-.2l-.2-.3v-.2l-.2-.3-.1-.2-.1-.3-.1-.3-.1-.2-.1-.3-.1-.3-.1-.2-.1-.3-.1-.3-.1-.2-.1-.3-.1-.3-.1-.2-.1-.3-.1-.3-.1-.2v-.3h-.1v-.3l-.2-.2v-.3l-.2-.3v-.2l-.1-.3-.1-.3v-.2h-.1v-.3l-.1-.3-.1-.3-.1-.2v-.3l-.2-.3v-.3l-.1-.2v-.3l-.2-.3v-.2l-.1-.3v-.3l-.1-.3-.1-.2v-.3l-.2-.3v-.5h-.1v-.3l-.1-.3v-.3l-.1-.2v-.3h-.1v-.3l-.1-.3v-.3l-.1-.2v-.3l-.1-.3v-.3l-.1-.2v-.6l-.1-.3v-.3l-.1-.3v-.2l-.1-.3v-.5l-.1-.3v-.6l-.1-.3v-.6l-.1-.2V275.6l-.1-.3v-1.1l-.1-.3v-1.8l-.1-.3V145l.1-.3v-1l.1-.3v-1l.1-.3v-.7l.1-.3v-.7l.1-.3v-.3l.1-.3v-.4l.1-.3v-.3l.1-.3v-.3l.1-.4v-.3l.1-.3v-.3l.1-.3v-.4l.1-.3v-.3l.1-.3.1-.4v-.3l.1-.3.1-.3v-.3l.1-.3v-.4l.2-.3v-.3l.1-.3v-.3h.1v-.4l.1-.3.1-.3v-.3h.1v-.3l.1-.3.1-.4.1-.3.1-.3v-.3l.2-.3v-.3l.2-.3v-.3l.1-.3.1-.4.1-.3.1-.3.1-.3.1-.3.1-.3.1-.3.1-.3.1-.3.1-.3.1-.3.1-.3.1-.3.1-.4.1-.3.2-.3v-.3l.2-.3.1-.3.1-.3.1-.3.2-.3v-.3l.2-.3.1-.3.1-.3.2-.3v-.3l.2-.3.1-.3.2-.3v-.3h.1l.1-.3.2-.3v-.3h.1l.1-.2.2-.3.1-.3.1-.3.2-.3.1-.3.2-.3.1-.3.1-.2.2-.3.1-.3.2-.3.1-.3.2-.3.1-.3.2-.2.1-.3.2-.3.1-.3.2-.3.2-.2.1-.3.2-.3.1-.3.2-.3.2-.2.1-.3.2-.3.1-.3.2-.2.2-.3.1-.3.2-.3.2-.2.2-.3.1-.3.2-.2.2-.3.1-.3.2-.3.2-.2.2-.3.2-.3.2-.2.1-.3.2-.2.2-.3.2-.3.2-.2.2-.3.2-.2.2-.3.2-.3.1-.2.2-.3.2-.2.2-.3.2-.2.2-.3.2-.2.2-.3.2-.3.3-.2.2-.3.2-.2.2-.3.2-.2.2-.3.2-.2.2-.3.2-.2.2-.3.2-.2.2-.3.2-.2.3-.2.2-.3.2-.2.2-.2.2-.3.3-.2.2-.3.2-.2.2-.2.2-.3.3-.2.2-.2.2-.3.3-.2.2-.2.2-.2.2-.3.3-.2.2-.2.2-.3.3-.2.2-.2.3-.2.2-.3.2-.2.3-.2.2-.2.3-.2.2-.2.2-.2.3-.3.2-.2.3-.2.2-.2.3-.2.2-.2.3-.2.2-.3.3-.2.2-.2.3-.2.2-.2.3-.2.2-.2.3-.2.3-.2.2-.2.3-.2.2-.2.3-.2.3-.2.2-.2.3-.2.3-.2.2-.2.3-.2.3-.2.2-.1.3-.2.3-.2.3-.2.2-.2.3-.2.3-.1.2-.2.3-.2.3-.2.3-.1.3-.2.2-.2.3-.2.3-.1.3-.2.3-.2 96-57.6h.2V23l.2-.1.3-.2.2-.1.2-.2h.3v-.1l.2-.1.3-.2.2-.1.2-.1.3-.2h.2v-.1l.3-.1.2-.1.3-.2h.2V21l.3-.1.2-.1.2-.2h.3v-.1l.2-.1.3-.1.2-.2h.3l.2-.2.3-.1.2-.1.3-.1.2-.2h.3l.2-.2h.3l.2-.2.3-.1.2-.1.3-.1.3-.1.2-.1.3-.1.2-.1.3-.1.2-.1.3-.1.3-.1.2-.1.3-.1.2-.1.3-.1h.2v-.1h.3l.3-.2h.2l.3-.2h.3l.2-.1.3-.1h.3l.2-.2h.3l.2-.1.3-.1h.3l.2-.2h.3l.3-.1.2-.1h.3l.2-.1.3-.1h.2l.3-.1.3-.1h.2l.3-.2h.5l.3-.1h.3v-.1h.2l.3-.1h.3l.3-.1h.2l.3-.1h.3l.2-.1h.3l.3-.1h.2l.3-.1h.3l.2-.1h.6l.2-.1h.3l.3-.1h.5l.3-.1h.5l.3-.1h.8l.3-.1h.8l.3-.1h1.1l.2-.1h2l.2-.1H1321.2l.6.2zm-.3 27H1318.1l-.2.1h-1.1l-.2.1H1316l-.2.1h-.4l-.2.1h-.5l-.1.1h-.4l-.1.1h-.5l-.1.1h-.4l-.1.1h-.2l-.1.1h-.4l-.1.1h-.2l-.2.1H1311.5l-.1.1h-.2l-.2.1H1310.8l-.1.1h-.2l-.1.1h-.2l-.2.1h-.1l-.2.1h-.1l-.2.1h-.1l-.2.1h-.2l-.1.1h-.2l-.1.1h-.2l-.1.1h-.2l-.1.1-.2.1h-.1l-.2.1h-.1l-.2.1-.1.1h-.2l-.1.1h-.2l-.1.1-.2.1h-.1l-.2.1h-.1l-.2.1-.1.1h-.2l-.1.1-.2.1h-.1l-.2.2h-.1l-.2.1h-.1l-.2.1-.1.1-.2.1h-.1l-.2.1-.1.1-.2.1h-.1l-.2.2h-.1l-.2.1-.1.1h-.2l-.1.2h-.1l-.2.1-.1.1h-.2l-.1.2h-.2l-96 57.6-.1.1-.2.1-.2.2h-.2l-.2.2-.2.1-.2.1-.2.1-.1.2h-.2l-.2.2-.2.1-.2.2-.1.1-.2.1-.2.1-.2.2h-.2l-.2.2-.1.1-.2.2h-.2l-.2.2-.1.1-.2.2-.2.1-.2.1-.1.2-.2.1-.2.1-.2.2-.1.1-.2.1-.2.2-.1.1-.2.1-.2.2-.1.1-.2.1-.2.2-.1.1-.2.2-.2.1-.1.1-.2.2-.2.1-.1.2-.2.1-.1.2-.2.1-.2.1-.1.2-.2.1-.2.2-.1.1-.2.2-.1.1-.2.2-.1.2-.2.1-.1.2-.2.1-.1.2-.2.1-.1.2-.2.1-.1.2-.2.2-.1.1-.2.2-.1.1-.2.2-.1.2-.2.1-.1.2-.2.1-.1.2-.1.2-.2.1-.1.2-.2.1v.2l-.2.2-.2.1-.1.2-.1.2-.2.1-.1.2-.1.2-.2.1v.2l-.2.2-.2.1v.2l-.2.2-.2.1v.2l-.2.2-.1.1-.2.2v.2l-.2.2-.1.1-.2.2v.2l-.2.2-.1.1-.1.2-.2.2v.2l-.2.2-.1.1-.1.2-.2.2v.2l-.2.1-.1.2-.1.2-.1.2-.1.2-.2.2v.1l-.2.2v.2l-.2.2-.1.2-.1.2-.1.2-.1.1-.1.2-.1.2-.1.2-.1.2-.1.2-.1.2-.1.1-.1.2-.1.2-.1.2-.1.2-.1.2-.1.2-.1.2v.2l-.2.2v.2l-.2.1v.2l-.1.2-.1.2-.1.2-.1.2v.2l-.2.2v.2l-.1.2-.1.2-.1.2v.2l-.2.2v.2l-.1.2-.1.2v.2l-.2.2v.2l-.1.2v.2l-.2.2v.2l-.1.2v.2l-.2.2v.2l-.1.2v.2l-.1.2-.1.2v.2l-.1.2v.2l-.2.2v.4l-.1.2-.1.2v.3l-.1.2v.2l-.1.2v.2l-.1.2-.1.2v.2l-.1.2v.2l-.1.2v.2l-.1.3v.2l-.1.2v.2l-.1.2v.2l-.1.2v.4l-.1.3v.2l-.1.2v.4l-.1.2v.5l-.1.2v.2l-.1.2V142.2l-.1.3v.4l-.1.2V143.7l-.1.2V144.8l-.1.2V146l-.1.2V147.4l-.1.2V273l.1.1V274l.1.2v.6l.1.2v.5l.1.2v.4l.1.1v.5l.1.2v.4l.1.1v.4l.1.1v.2l.1.2V278.5l.1.2V279l.1.2v.1l.1.2v.2l.1.1v.4l.1.1v.2l.1.2v.1l.1.2v.2l.1.1v.2l.1.1v.2l.1.2v.2l.1.1v.2l.1.1v.2l.1.2v.1l.1.2v.2l.2.1V284l.1.2v.2l.2.1v.4l.1.1.1.2v.1l.1.2v.2l.2.1v.2l.1.1v.2l.1.1.1.2v.2l.2.1V287.1l.2.2v.1l.1.2v.1l.2.2v.1l.1.2v.1l.2.2v.1l.1.2.1.1v.2l.2.2v.1l.1.2.1.1v.2l.2.1v.2l.1.1.1.1.1.2.1.1v.2l.2.1v.2l.1.1.1.2.1.1.1.2.1.1.1.2v.1l.2.1v.2l.2.1v.2l.2.1v.1l.2.2v.1l.2.2v.1l.2.2v.1l.2.1v.2l.2.1v.2l.2.1v.1l.2.2v.1l.2.1v.2l.2.1v.2l.2.1v.1l.2.2h.1l.1.2.1.1.1.2.1.1.2.1v.2l.2.1v.1l.2.2.1.1.1.1.1.2h.2v.2l.2.1.1.2.1.1.1.1.2.2.2.2.1.1.1.2h.2v.2l.2.1.1.1.2.2.2.2.1.1.2.1v.2h.2l.1.2.2.1.1.1.1.1.1.2h.2l.1.2.1.1.2.1.1.1.1.1.2.1.1.2h.1l.2.2.2.2.2.1.1.1.1.1.2.1.1.1.2.2h.1l.1.2h.2l.1.2h.2l.1.2h.2v.2h.2l.2.2h.1l.2.2.1.1.2.1.1.1h.2l.1.2h.2l.1.2h.2v.2h.2l.2.2h.1l.2.1.1.1.2.1.1.1.2.1.2.1.1.1 104.7 61.2h.1l.2.1v.1h.2l.1.1.1.1h.1l.2.1.2.1.1.1h.1l.1.1h.2v.1l.2.1h.1l.1.1h.2v.1h.2l.1.1h.1l.2.1.2.1.1.1h.1l.2.1.2.1h.1l.1.1h.2v.1h.2l.1.1h.1l.2.1.2.1h.2l.2.1.2.1h.1l.1.1h.2v.1H1311.3l.3.2h.2l.3.1.2.1h.3l.2.1.3.1h.2l.3.1h.2l.3.1.2.1h.3l.2.1h.3l.3.1h.5l.2.1h.3l.3.1h.2l.3.1h.7l.3.1h.8l.2.1H1324.5l.3-.1h.5l.2-.1h.5l.3-.1h.3l.2-.1h.3l.2-.1h.3l.2-.1h.3l.2-.1h.3l.2-.2h.5l.3-.1.2-.1h.3l.2-.2h.4l.1-.1h.2l.2-.1h.1l.1-.1H1331.7l.1-.1h.1l.2-.1.2-.1h.2l.2-.1.2-.1h.1l.2-.1.2-.1h.1l.1-.1h.2v-.1h.2l.1-.1h.1l.1-.1h.2v-.1h.2l.1-.2h.2l.2-.1h.1l.1-.1.1-.1h.2v-.1h.2l.1-.1.1-.1h.2v-.1h.2l.1-.2H1337l116-64.5v-.1h.2l.1-.1.1-.1h.2l.1-.2h.2l.2-.2.2-.1h.1l.1-.2h.2v-.1h.2l.1-.1.1-.1h.1l.1-.2h.1l.2-.1v-.1h.2v-.2h.2l.1-.1.1-.1h.1l.1-.2h.2v-.1l.2-.1.2-.2h.1l.1-.1.1-.1.1-.1h.1l.1-.2h.2v-.2h.2v-.1l.2-.1v-.1l.2-.1.2-.2.2-.2.2-.2.2-.1v-.1l.2-.1v-.1l.2-.1.2-.2.2-.2.2-.2.2-.2.2-.2.2-.1v-.1l.1-.1.1-.1.1-.1.1-.1.1-.1.1-.1.1-.1v-.1l.2-.1v-.1l.2-.2.1-.2h.1l.1-.2h.1v-.2h.2v-.2h.1l.1-.2.1-.1v-.1l.2-.1v-.1l.1-.1.1-.1.1-.2.2-.2.1-.2h.1v-.2l.2-.1v-.1l.1-.1.1-.1v-.2h.1l.1-.2h.1v-.2l.2-.1v-.2l.2-.2.1-.2v-.1l.1-.1.1-.1v-.1l.2-.2v-.2l.2-.1v-.1l.1-.1v-.2h.1l.1-.2v-.1l.1-.1.1-.2.1-.2.1-.1v-.1l.1-.2.1-.2.1-.1v-.2h.1l.1-.2v-.1l.1-.2.1-.2v-.1l.1-.1v-.2h.1l.1-.2v-.1l.1-.2.1-.2v-.1l.1-.2.1-.2v-.1l.1-.2v-.1l.1-.1v-.2h.1v-.2l.1-.1v-.2l.1-.1V284.8h.1v-.2l.1-.2v-.2l.1-.1v-.2l.1-.1V283.5l.1-.1v-.1l.1-.2v-.2l.1-.2v-.2l.1-.2v-.2l.1-.2v-.2l.1-.2v-.4h.1v-.5l.1-.1V280.2l.1-.1v-.4l.1-.2v-.5l.1-.2v-.5l.1-.2V277.3l.1-.1v-1.5l.1-.1V134.8l-.1-.2V133.8l-.1-.2v-.4l-.1-.2v-.5l-.1-.1v-.5l-.1-.3v-.2l-.1-.3v-.2l-.2-.3v-.5l-.1-.2v-.3l-.2-.2v-.5l-.2-.2v-.5l-.2-.3v-.2l-.1-.2-.1-.3v-.2l-.2-.2v-.3l-.2-.2v-.2l-.2-.3v-.2l-.2-.2v-.2l-.1-.3-.2-.2v-.2l-.2-.3v-.2l-.2-.2v-.2l-.2-.3-.1-.2-.1-.2-.2-.2v-.2l-.2-.3-.1-.2-.2-.2-.1-.2-.1-.2-.2-.2-.1-.2-.1-.3-.2-.2-.1-.2-.1-.2-.2-.2-.1-.2-.2-.2-.1-.2-.2-.2-.1-.2-.2-.2-.1-.2-.2-.2-.1-.2-.2-.2-.1-.2-.2-.2-.2-.2-.1-.2-.2-.1-.2-.2-.1-.2-.2-.2-.2-.2-.1-.2-.2-.1-.2-.2-.2-.2-.2-.2-.2-.1-.1-.2-.2-.2-.2-.2-.2-.1-.2-.2-.2-.1-.2-.2-.2-.2-.2-.1v-.1h-.2v-.2h-.2v-.1l-.2-.1-.2-.2-.2-.1-.2-.2-.2-.1v-.1h-.2v-.1l-.2-.1h-.1l-.1-.2h-.1l-.1-.1h-.1l-.1-.2h-.2l-.1-.2h-.2l-.1-.2h-.2l-.2-.2-.2-.1h-.1l-.1-.1-.1-.1h-.1l-.2-.1L1341 46h-.2v-.1l-.2-.1h-.2l-.1-.2h-.2l-.1-.1h-.2l-.1-.2h-.2l-.1-.1h-.2l-.1-.2h-.2l-.1-.1h-.2l-.1-.1-.2-.1h-.1l-.2-.1-.1-.1h-.2l-.1-.1-.2-.1h-.1l-.2-.1-.1-.1h-.2l-.1-.1h-.2l-.1-.1-.2-.1h-.1l-.2-.1h-.1l-.2-.1-.1-.1h-.2l-.1-.1h-.2l-.2-.1h-.1l-.2-.1h-.1l-.2-.1h-.1l-.2-.1h-.1l-.2-.1h-.1l-.2-.1h-.1l-.2-.1h-.2l-.1-.1H1332.4l-.2-.1h-.1l-.2-.1h-.2l-.1-.1H1331.3l-.2-.1h-.1l-.2-.1H1330.5l-.2-.1H1330l-.1-.1H1329.6l-.2-.1H1329.1l-.2-.1h-.5l-.1-.1H1328l-.2-.1h-.6l-.2-.1h-.6l-.2-.1h-.6l-.2-.1h-.9l-.2-.1h-2.9v-.2z" fill="#37322e"/><path d="M1041 204c0 47.2-9 61-26.9 80.6-17.9 19.7-41.6 27.6-71 27.6-27 0-48.8-9.6-67.7-26.3-20.9-18.4-36-47-36-78.9 0-31.4 11.6-58.5 32.4-78.7a107.4 107.4 0 0173.3-29.2c33.8 0 68.8 16 90.4 47.6l-31.7 26.8c-13.4-25-33-33.5-60.8-34.3-30.8-.8-64.8 28.6-62.3 67.8 1.4 22 11.7 59.6 61 66.6 26 3.6 55.4-24 55.4-39h-48.7V197h92.5v7z" fill="#fff"/><path fill-rule="evenodd" clip-rule="evenodd" d="M1324.7 99.1a106.6 106.6 0 110 213.2 106.6 106.6 0 010-213.2zm0 39.6a67 67 0 110 134 67 67 0 010-134z" fill="#fff"/></g><defs><filter id="filter0_d" x="-3" y="0" width="1508" height="418" filterUnits="userSpaceOnUse" color-interpolation-filters="sRGB"><feFlood flood-opacity="0" result="BackgroundImageFix"/><feColorMatrix in="SourceAlpha" values="0 0 0 0 0 0 0 0 0 0 0 0 0 0 0 0 0 0 127 0"/><feOffset dy="4"/><feGaussianBlur stdDeviation="2"/><feColorMatrix values="0 0 0 0 0 0 0 0 0 0 0 0 0 0 0 0 0 0 0.25 0"/><feBlend in2="BackgroundImageFix" result="effect1_dropShadow"/><feBlend in="SourceGraphic" in2="effect1_dropShadow" result="shape"/></filter></defs></svg>