<svg width="2500" height="1021" viewBox="0 0 2500 1021" fill="none" xmlns="http://www.w3.org/2000/svg">
<path opacity="0.1" d="M2242.69 21.2027C2242.2 23.1509 2242.2 25.0992 2242.69 27.0474C2242.69 27.0474 2249.02 68.4732 2241.71 86.9888L1941.52 868.18C1920.08 925.685 1948.83 989.523 2006.33 1011.46C2063.84 1033.38 2127.68 1005.12 2150.59 948.102L2450.78 166.911C2456.63 151.803 2490.25 122.077 2490.25 122.077C2491.72 120.612 2493.18 119.152 2494.15 117.692V117.204C2494.15 116.715 2494.64 116.715 2494.64 116.227C2502.44 96.2515 2452.24 58.2388 2383.04 31.4371C2313.84 4.63041 2250.98 -0.730918 2243.18 19.7378C2243.18 19.7378 2242.69 20.2261 2242.69 21.2027Z" fill="#37322e"/>
<path d="M2233.92 14.3768C2233.43 16.33 2233.43 18.2782 2233.92 20.2265C2233.92 20.2265 2240.25 61.6474 2232.94 80.1679L1932.75 861.359C1911.31 918.864 1940.06 982.702 1997.57 1004.63C2055.07 1026.56 2118.91 998.298 2141.82 941.281L2442.01 160.09C2447.86 144.982 2481.48 115.256 2481.48 115.256C2482.95 113.791 2484.41 112.331 2485.39 110.871V110.383C2485.39 109.894 2485.87 109.894 2485.87 109.406C2493.67 89.4257 2443.48 51.4179 2374.27 24.6112C2305.07 -2.19054 2242.2 -7.55187 2234.4 12.9169C2234.4 13.4052 2234.4 13.8934 2233.92 14.3817V14.3768Z" fill="#37322e"/>
<path d="M2328.46 367.692L2111.6 931.047C2095.52 971.496 2049.22 992.448 2007.8 976.369C1966.37 960.285 1944.44 913.015 1959.56 872.565L2097.95 512.429C2097.95 512.429 2115.01 484.65 2149.13 464.675C2183.24 444.689 2211.02 449.074 2248.54 432.507C2286.55 415.939 2328.46 367.692 2328.46 367.692V367.692Z" fill="#37322e"/>
<path d="M2433.62 93.112C2437.94 81.8376 2406.85 59.3425 2364.18 42.8679C2321.5 26.3933 2283.41 22.1745 2279.09 33.4441C2274.77 44.7185 2305.86 67.2087 2348.53 83.6882C2391.21 100.163 2429.31 104.382 2433.62 93.112Z" fill="#37322e"/>
<path opacity="0.3" d="M2231.9 20.168C2231.9 20.168 2238.19 61.4766 2230.93 79.9434L1932.7 858.933C1911.4 916.271 1939.96 979.934 1997.09 1001.8C2006.77 1005.69 2016.94 1008.12 2027.1 1008.61C2007.99 994.014 1994.06 973.683 1987.35 950.595C1980.64 927.506 1981.51 902.875 1989.82 880.314L2282.25 116.877C2282.25 116.877 2242.07 79.4551 2231.9 20.168V20.168Z" fill="white"/>
<g opacity="0.5">
<path opacity="0.5" d="M2136.04 531.394C2140.85 531.394 2144.76 527.478 2144.76 522.648C2144.76 517.819 2140.85 513.903 2136.04 513.903C2131.23 513.903 2127.32 517.819 2127.32 522.648C2127.32 527.478 2131.23 531.394 2136.04 531.394Z" fill="white"/>
<path opacity="0.5" d="M2192.69 598.459C2199.9 598.459 2205.76 592.585 2205.76 585.339C2205.76 578.093 2199.9 572.219 2192.69 572.219C2185.47 572.219 2179.61 578.093 2179.61 585.339C2179.61 592.585 2185.47 598.459 2192.69 598.459Z" fill="white"/>
<path opacity="0.5" d="M2106.02 684.958C2119.66 684.958 2130.71 673.861 2130.71 660.173C2130.71 646.484 2119.66 635.388 2106.02 635.388C2092.38 635.388 2081.33 646.484 2081.33 660.173C2081.33 673.861 2092.38 684.958 2106.02 684.958Z" fill="white"/>
<path opacity="0.5" d="M2066.32 718.977C2073.54 718.977 2079.39 713.102 2079.39 705.856C2079.39 698.61 2073.54 692.736 2066.32 692.736C2059.1 692.736 2053.25 698.61 2053.25 705.856C2053.25 713.102 2059.1 718.977 2066.32 718.977Z" fill="white"/>
<path opacity="0.5" d="M2118.12 811.789C2122.94 811.789 2126.84 807.874 2126.84 803.044C2126.84 798.214 2122.94 794.299 2118.12 794.299C2113.31 794.299 2109.41 798.214 2109.41 803.044C2109.41 807.874 2113.31 811.789 2118.12 811.789Z" fill="white"/>
</g>
<path opacity="0.1" d="M588.208 474.539C601.362 485.232 625.244 478.914 641.323 461.418C658.384 442.952 660.82 419.143 647.661 408.45C634.502 397.756 610.625 404.075 594.541 422.541C577.485 441.008 574.56 464.338 588.208 474.543V474.539ZM548.735 509.04C545.317 509.04 538.984 515.359 544.346 517.79C551.655 520.217 555.068 526.536 555.068 535.286C548.735 571.731 503.408 613.04 485.869 627.131C481.479 631.501 487.817 641.223 492.202 637.825C501.948 630.046 522.417 614.011 538.984 592.629C511.694 653.372 458.091 732.097 437.622 759.797C357.7 870.11 236.352 971.672 153.022 971.672C86.2548 971.672 29.7314 926.477 17.5439 860.393C16.5673 853.098 6.82123 851.643 8.76947 861.36C23.8769 952.234 94.0527 987.707 178.848 987.707C271.929 987.707 381.094 920.647 441.518 851.643C538.984 740.359 601.85 612.063 585.283 539.656C578.462 512.932 559.453 508.552 548.735 509.04V509.04ZM1147.66 751.536C1173.49 745.217 1194.44 731.125 1194.44 708.772C1194.44 706.34 1190.06 706.34 1190.06 708.772C1190.06 721.892 1174.95 733.069 1157.9 735.5C1117.93 741.814 1038.98 695.164 1001.95 647.053C1041.91 662.117 1123.3 640.251 1161.79 612.551C1197.37 586.794 1211.5 558.611 1213.94 535.769C1218.33 497.864 1176.9 475.515 1118.91 497.864C1081.87 512.932 1037.52 545.491 991.23 606.721C1039.96 526.536 1135.97 395.33 1230.02 311.746C1344.54 210.183 1410.82 229.617 1307.99 337.502C1265.6 381.721 1185.67 439.065 1130.6 463.85C1113.55 471.14 1121.83 480.857 1134.02 475.51C1192.49 449.758 1270.47 396.785 1317.74 352.561C1457.11 218.928 1340.64 118.332 1186.65 259.748C1081.87 355.964 1013.65 456.56 954.189 587.283C933.725 612.063 918.618 632.473 900.098 648.025C897.656 649.968 896.201 651.912 894.736 653.86C843.564 697.595 763.159 756.882 712.964 757.366C677.388 758.342 662.28 731.609 668.618 697.112C678.364 643.166 734.404 579.504 782.163 557.639C844.053 529.451 880.6 584.368 799.219 628.098C768.032 644.138 730.996 652.883 715.889 652.883C698.345 652.883 699.805 660.173 714.912 660.662C739.766 661.633 779.726 650.945 806.045 638.791C889.375 598.948 894.736 524.592 804.092 522.165C705.654 518.762 587.72 602.346 588.696 707.8C589.673 755.422 627.681 781.179 679.824 781.179C767.056 780.203 844.541 714.114 908.384 655.803C917.641 648.025 926.411 639.763 935.185 631.018C912.768 687.39 901.557 739.871 906.919 778.747C910.332 806.936 926.411 820.056 939.082 830.749C941.523 832.688 946.88 830.749 943.472 825.398C924.951 803.533 930.312 737.927 955.654 674.27C977.095 717.034 1060.43 770.974 1147.66 751.536ZM1042.89 567.356C1144.74 476.487 1184.7 557.639 1119.88 607.205C1086.25 632.961 1019.49 652.4 998.54 639.763L994.15 637.336C991.714 632.961 988.789 628.586 986.841 624.216C1003.9 603.318 1023.39 584.851 1042.89 567.356ZM1609.16 463.85C1650.1 468.22 1633.04 418.655 1591.62 431.291C1573.1 436.633 1555.07 472.112 1541.91 502.727C1500.98 563.469 1432.75 646.57 1384.99 690.305C1342.59 726.75 1303.61 736.472 1351.36 668.435C1370.86 641.223 1395.71 612.063 1409.84 582.908C1443.47 509.529 1371.83 476.97 1313.84 521.189C1280.21 546.946 1234.89 599.914 1199.32 629.075C1189.57 636.848 1192.01 648.508 1201.76 640.735C1230.02 617.898 1279.73 565.413 1322.61 534.797C1358.19 507.585 1372.32 525.081 1351.85 547.917C1323.59 580.476 1273.88 637.336 1261.21 673.293C1243.67 727.239 1264.62 751.047 1300.2 751.047C1348.93 751.047 1421.54 675.242 1470.27 614.983C1486.35 594.573 1503.9 570.759 1519 547.917C1476.61 630.046 1432.26 713.142 1377.19 788.469C1299.22 894.407 1201.75 974.104 1109.16 974.104C1042.4 974.104 984.892 928.909 972.71 862.82C971.733 855.53 962.964 854.07 963.935 863.791C979.043 954.661 1049.22 990.139 1134.01 990.139C1227.09 990.139 1316.76 936.199 1379.63 870.11C1506.34 736.467 1521.44 586.311 1560.43 502.239C1578.95 463.85 1595.52 462.395 1609.16 463.85V463.85ZM2124.76 335.549C2143.28 303.962 2142.3 279.182 2098.93 279.182C2066.27 280.154 2006.82 302.991 1979.04 324.372C1972.71 330.691 1975.63 334.089 1983.43 330.691C1988.79 328.748 1995.13 325.344 2000.98 322.917C2032.16 305.906 2019.49 341.384 2012.67 354.504C1975.63 419.138 1909.84 510.007 1875.24 555.203C1858.82 577.306 1841.08 598.402 1822.12 618.376C1788.98 649.968 1723.2 705.852 1673 724.314C1511.69 784.573 1717.35 510.496 1734.4 488.142C1772.42 440.52 1857.7 357.419 1883.53 315.627C1902.05 284.036 1901.07 259.255 1857.7 259.255C1825.05 260.232 1765.6 283.069 1737.82 304.451C1731.48 310.769 1734.4 314.167 1742.2 310.769C1747.56 308.826 1753.9 305.422 1759.75 302.991C1790.94 285.984 1778.27 321.457 1771.44 334.582C1734.4 399.211 1668.62 490.085 1634.01 535.281C1605.75 573.186 1571.15 611.086 1544.35 632.468C1533.63 641.218 1539.96 649.48 1550.68 642.19C1560.43 635.872 1574.56 621.78 1590.64 605.256C1561.4 663.572 1537.52 745.701 1614.52 755.417C1680.31 764.163 1758.29 697.59 1808.96 648.02L1827 630.041L1831.38 625.666C1802.14 683.982 1778.27 766.111 1855.26 775.828C1939.57 787.493 2044.35 674.265 2084.8 632.468C2092.59 624.695 2090.16 611.086 2077 624.695C2053.12 649.48 1972.22 722.859 1913.74 744.724C1752.44 804.983 1958.09 530.906 1975.15 508.552C2013.65 459.958 2098.93 376.858 2124.76 335.554V335.549Z" fill="#37322e"/>
<path d="M579.434 466.277C592.593 476.97 616.47 470.652 632.554 453.157C649.609 434.69 652.046 410.881 638.887 400.188C625.732 389.495 601.851 395.813 585.772 414.28C568.716 432.747 566.274 455.588 579.434 466.282V466.277ZM540.449 500.784C537.036 500.784 530.703 507.097 536.065 509.529C543.374 511.96 546.782 518.274 546.782 527.024C540.449 563.469 495.122 604.778 477.583 618.87C473.198 623.245 479.536 632.961 483.916 629.563C493.667 621.785 514.131 605.749 530.703 584.368C503.408 645.11 449.805 723.835 429.336 751.536C349.414 861.848 228.066 963.411 144.736 963.411C77.9737 963.411 21.4454 918.215 9.25787 852.131C8.2813 844.836 -1.45991 843.381 0.488335 853.098C15.5958 943.972 85.7715 979.446 170.566 979.446C263.648 979.446 372.808 912.385 433.237 843.381C530.698 732.097 593.569 603.806 576.997 531.399C569.688 504.182 551.167 499.807 540.449 500.784V500.784ZM1138.89 743.274C1164.72 736.956 1185.67 722.864 1185.67 700.51C1185.67 698.079 1181.28 698.079 1181.28 700.51C1181.28 713.63 1166.18 724.807 1149.12 727.239C1109.16 733.552 1030.21 686.907 993.179 638.791C1033.14 653.86 1114.52 631.99 1153.02 604.29C1188.6 578.533 1202.73 550.349 1205.17 527.507C1209.55 489.602 1168.13 467.253 1110.14 489.602C1073.1 504.67 1028.75 537.229 982.456 598.459C1031.19 518.274 1127.19 387.068 1221.25 303.484C1335.77 201.921 1402.05 221.355 1299.22 329.241C1256.82 373.459 1176.9 430.803 1121.83 455.588C1104.78 462.878 1113.06 472.595 1125.24 467.248C1183.73 441.497 1261.69 388.528 1308.96 344.299C1448.34 210.666 1331.87 110.071 1177.88 251.487C1073.1 347.219 1004.88 448.298 945.42 579.021C924.951 603.806 909.844 624.216 891.323 639.763C888.887 641.707 887.427 643.655 885.967 645.598C834.795 689.333 754.385 748.621 704.189 749.104C668.618 750.081 653.506 723.347 659.844 688.85C669.59 634.905 725.635 571.243 773.394 549.377C835.283 521.194 871.831 576.106 790.449 619.836C759.258 635.876 722.222 644.626 707.114 644.626C689.57 644.626 691.035 651.912 706.138 652.4C730.991 653.372 770.957 642.683 797.271 630.53C880.606 590.686 885.967 516.331 795.317 513.904C696.88 510.5 578.945 594.084 579.922 699.539C580.898 747.161 618.906 772.917 671.055 772.917C758.286 771.941 835.772 705.857 899.609 647.541C908.867 639.763 917.642 631.501 926.416 622.756C903.994 679.128 892.788 731.609 898.145 770.486C901.563 798.674 917.642 811.794 930.313 822.488C932.749 824.426 938.11 822.488 934.697 817.141C916.182 795.271 921.538 729.666 946.88 666.008C968.809 708.772 1052.14 762.712 1138.89 743.274ZM1034.11 558.606C1135.97 467.737 1175.93 548.889 1111.11 598.459C1077.49 624.216 1010.72 643.655 989.766 631.018L985.381 628.586C982.939 624.216 980.02 619.841 978.071 615.466C995.127 595.056 1014.62 576.106 1034.11 558.611V558.606ZM1600.39 455.593C1641.32 459.968 1624.27 410.398 1582.85 423.035C1564.33 428.376 1546.29 463.855 1533.14 494.47C1492.2 555.212 1423.97 638.313 1376.22 682.048C1333.82 718.494 1294.83 728.215 1342.59 660.178C1362.09 632.966 1386.94 603.811 1401.07 574.651C1434.7 501.272 1363.06 468.713 1305.07 512.932C1271.44 538.689 1226.12 591.658 1190.55 620.818C1180.8 628.591 1183.24 640.251 1192.98 632.478C1221.25 609.641 1270.96 557.156 1313.84 526.54C1349.41 499.329 1363.54 516.824 1343.08 539.661C1314.81 572.224 1265.11 629.08 1252.44 665.041C1234.89 718.982 1255.85 742.79 1291.42 742.79C1340.15 742.79 1412.77 666.985 1461.5 606.726C1477.58 586.316 1495.13 562.502 1510.23 539.661C1467.84 621.789 1423.49 704.89 1368.42 780.212C1290.44 886.15 1192.98 965.847 1100.39 965.847C1033.63 965.847 976.123 920.652 963.936 854.563C962.959 847.273 954.189 845.813 955.166 855.535C970.273 946.404 1040.45 981.882 1125.24 981.882C1218.33 981.882 1307.99 927.942 1370.86 861.853C1497.56 728.21 1512.67 578.054 1551.66 493.982C1570.18 455.593 1587.23 453.65 1600.39 455.593H1600.39ZM2115.99 326.809C2134.5 295.222 2133.53 270.437 2090.16 270.437C2057.5 271.414 1998.05 294.25 1970.27 315.632C1963.94 321.951 1966.86 325.349 1974.66 321.951C1980.02 320.007 1986.35 316.604 1992.2 314.172C2023.39 297.165 2010.72 332.639 2003.9 345.764C1966.86 410.393 1901.07 501.267 1866.47 546.462C1850.05 568.566 1832.31 589.662 1813.35 609.636C1780.21 641.223 1714.43 697.107 1664.23 715.574C1502.92 775.832 1708.58 501.755 1725.63 479.397C1763.65 431.775 1848.93 348.679 1874.76 306.887C1893.28 275.295 1892.3 250.515 1848.93 250.515C1816.27 251.487 1756.82 274.324 1729.04 295.705C1722.71 302.024 1725.63 305.427 1733.43 302.024C1738.79 300.081 1745.13 296.682 1750.98 294.25C1782.16 277.244 1769.49 312.717 1762.67 325.837C1725.63 390.471 1659.84 481.345 1625.24 526.536C1596.98 564.441 1562.38 602.346 1535.58 623.728C1524.85 632.473 1531.19 640.735 1541.91 633.445C1551.66 627.131 1565.79 613.035 1581.87 596.516C1552.63 654.831 1528.75 736.956 1605.75 746.677C1671.54 755.422 1749.51 688.845 1800.2 639.28L1818.23 621.296L1822.61 616.926C1793.37 675.242 1769.49 757.366 1846.49 767.087C1930.8 778.747 2035.58 665.525 2076.03 623.728C2083.82 615.955 2081.38 602.346 2068.23 615.955C2044.35 640.735 1963.45 714.114 1904.97 735.984C1743.67 796.243 1949.32 522.165 1966.37 499.807C2005.36 451.213 2090.15 368.118 2115.98 326.809H2115.99Z" fill="#37322e"/>
</svg>
