<svg fill="none" xmlns="http://www.w3.org/2000/svg" viewBox="0 0 2500 1021"><path opacity=".1" d="M2243 21v6s6 41-1 60l-300 781c-22 58 7 122 64 143 58 22 122-6 145-63l300-781c6-15 39-45 39-45l4-4v-1l1-1c7-20-43-58-112-85-69-26-132-32-140-11v1z" fill="#37322e"/><path d="M2234 14v6s6 42-1 60l-300 781a112 112 0 00209 80l300-781c6-15 39-45 39-45l4-4v-1l1-1c8-20-43-58-112-84-69-27-132-33-140-12v1z" fill="#37322e"/><path d="M2328 368l-216 563a81 81 0 01-104 45 82 82 0 01-48-103l138-361s17-27 51-47 62-16 100-32c38-17 79-65 79-65zM2434 93c4-11-27-34-70-50-42-17-81-21-85-10-4 12 27 34 70 51 42 16 80 20 85 9z" fill="#37322e"/><path opacity=".3" d="M2232 20s6 41-1 60l-298 779a111 111 0 0094 150 113 113 0 01-37-129l292-763s-40-38-50-97z" fill="#fff"/><g opacity=".5" fill="#fff"><path opacity=".5" d="M2136 531a9 9 0 100-17 9 9 0 000 17zM2193 598a13 13 0 100-26 13 13 0 000 26zM2106 685a25 25 0 100-50 25 25 0 000 50zM2066 719a13 13 0 100-26 13 13 0 000 26zM2118 812a9 9 0 100-18 9 9 0 000 18z"/></g><path opacity=".1" d="M588 475c13 10 37 4 53-14 17-18 20-42 7-53-13-10-37-4-53 15-18 18-20 41-7 52zm-39 34c-4 0-10 6-5 9 8 2 11 9 11 17-6 37-52 78-69 92-5 5 2 14 6 11 10-8 30-24 47-45-27 60-81 139-101 167-80 110-202 212-285 212-67 0-123-46-135-112-1-7-11-8-9 1 15 91 85 127 170 127 93 0 202-67 263-136 97-112 160-240 143-312-7-27-26-31-36-31zm599 243c25-7 46-21 46-43 0-3-4-3-4 0 0 13-15 24-32 27-40 6-119-41-156-89 40 15 121-7 160-34 35-26 50-54 52-77 4-38-37-60-95-38-37 15-81 47-128 109 49-80 145-212 239-295 115-102 181-82 78 26a686 686 0 01-177 126c-17 7-9 17 3 12 58-26 136-79 184-123 139-134 23-235-131-93a955 955 0 00-233 327c-20 25-35 45-54 61l-5 6c-51 44-132 103-182 103-36 1-51-25-44-60 9-54 65-117 113-139 62-29 99 26 17 70-31 16-68 25-83 25-18 0-16 7-1 8 25 1 65-10 91-22 83-40 89-114-2-117-98-3-216 80-215 186 1 47 39 73 91 73 87-1 165-67 228-125l27-25c-22 56-33 109-28 148 3 28 19 41 32 52 3 2 8 0 4-6-18-21-13-87 13-151 21 43 104 97 192 78zm-105-185c102-91 142-9 77 40-34 26-101 45-121 33l-5-3-7-13c17-21 36-39 56-57zm566-103c41 4 24-45-17-33-19 6-37 41-50 72-41 60-109 144-157 187-42 37-81 46-34-22 20-27 45-56 59-85 33-73-38-106-96-62-34 26-79 79-115 108-9 8-7 20 3 12 28-23 78-76 121-106 35-27 49-10 29 13-28 32-78 89-91 125-17 54 4 78 39 78 49 0 122-76 170-136 16-20 34-44 49-67-42 82-87 165-142 240-78 106-175 186-268 186-67 0-124-45-136-111-1-7-10-9-9 1 15 91 85 126 170 126 93 0 183-54 246-120 126-134 141-284 180-368 19-38 36-40 49-38zm516-128c18-32 17-57-26-57-33 1-92 24-120 45-6 7-3 10 4 7l18-8c31-17 18 18 12 32a2194 2194 0 01-191 263c-33 32-99 88-149 106-161 61 44-214 61-236 38-47 124-131 150-172 18-32 17-57-26-57-33 1-92 24-120 45-7 7-4 10 4 7l18-8c31-17 18 18 11 32-37 64-102 155-137 200-28 38-63 76-90 97-10 9-4 17 7 10 9-6 24-20 40-37-30 59-53 141 24 150 65 9 143-57 194-107l18-18 4-4c-29 58-53 140 24 150 85 11 189-102 230-144 8-7 5-21-8-7-24 24-105 98-163 120-162 60 44-214 61-236 39-49 124-132 150-173z" fill="#37322e"/><path d="M579 466c14 11 37 5 54-13s19-42 6-53-37-4-53 14c-17 19-20 42-7 52zm-39 35c-3 0-9 6-4 9 7 2 11 8 11 17-7 36-52 78-69 92-5 4 2 14 6 11 10-8 30-24 47-46-28 61-81 140-102 168-80 110-201 211-284 211-67 0-124-45-136-111-1-7-10-9-9 1 16 91 86 126 171 126 93 0 202-67 262-136 98-111 161-239 144-312-7-27-26-31-37-30zm599 242c26-6 47-20 47-42 0-3-5-3-5 0 0 13-15 24-32 26-40 7-119-40-156-88 40 15 122-7 160-35 36-25 50-54 52-76 5-38-37-61-95-38-37 15-81 47-128 108 49-80 145-211 239-295 115-101 181-82 78 26a686 686 0 01-177 127c-17 7-9 17 3 11 59-26 137-78 184-123 139-133 23-234-131-93a951 951 0 00-233 328c-20 25-35 45-54 61l-5 6c-51 43-132 103-182 103-35 1-50-26-44-60 10-54 66-118 113-140 62-28 99 27 17 71-31 16-68 25-83 25-17 0-16 7-1 7 25 1 65-9 91-21 84-40 89-115-2-117-98-3-216 80-215 186 1 47 39 73 91 73 87-1 165-67 229-125l26-25c-22 56-33 109-28 147 4 29 20 42 32 52 3 2 8 0 5-5-19-22-13-87 12-151 22 43 105 97 192 77zm-105-184c102-91 142-10 77 39-34 26-100 46-121 33l-5-2-7-14c17-20 37-39 56-56zm566-103c41 4 24-46-17-33-19 5-37 41-50 71-41 61-109 144-157 188-42 36-81 46-33-22 19-27 44-56 58-85 34-74-38-106-96-62-34 26-79 79-114 108-10 8-8 19 2 11 28-22 78-75 121-105 35-28 50-10 29 13-28 32-78 89-91 125-17 54 4 78 39 78 49 0 122-76 171-136 16-21 33-44 48-67-42 82-87 165-142 240-78 106-175 186-268 186-66 0-124-45-136-111-1-8-10-9-9 1 15 90 85 126 170 126 93 0 183-54 246-120 127-134 142-284 181-368 18-38 35-40 48-38zm516-129c19-32 18-57-26-57-32 1-92 24-120 46-6 6-3 9 5 6l17-8c31-17 19 19 12 32a2195 2195 0 01-191 264c-33 31-99 87-149 106-161 60 45-214 62-237 38-47 123-130 149-172 18-32 17-56-26-56-33 0-92 23-120 45-6 6-3 9 4 6l18-8c31-17 18 19 12 32-37 64-103 155-138 201-28 37-63 75-89 97-11 8-5 17 6 9 10-6 24-20 40-36-29 58-53 140 24 150 66 8 144-58 194-108l18-18 5-4c-30 58-54 140 23 150 85 12 190-101 230-143 8-8 5-22-8-8-24 25-105 98-163 120-161 60 44-214 61-236 39-49 124-132 150-173z" fill="#37322e"/></svg>