<svg xmlns="http://www.w3.org/2000/svg" viewBox="0 0 182 47"><path xmlns="http://www.w3.org/2000/svg" fill="#37322e" d="M10.7 26.7v.1l-5.4 2.3-4.4-4.3v-.1H1l9.7 2zm.6-1.3L0 23l6.2-6.2a1833.6 1833.6 0 005.5 7.9 3 3 0 00-.5.6zm2.3-15.7v-.1L23 .1l4 4c.1 0 .1 0 0 0l-4.8 7.6a2.4 2.4 0 00-2.3.5l-6.3-2.6zM13 24l-5.6-8.2v-.1l5-5h.1l6.6 2.8a2.3 2.3 0 00.6 2.2L14.5 24h-.1a2.6 2.6 0 00-.7 0h-.6zm1.8 5l10.5 15.2v.1L23 46.6l-13.1-13 2.8-4.5h.1a2.7 2.7 0 002 0zm-3.2-.7L9 32.5l-2.5-2.3V30l5-2.1.2.3zm4.8-2l-.1-.4 14-6h.1l.3.2-1.2 7.6a2 2 0 00-1.7 1v.1l-11.4-2.3v-.1zm12.4 5.3l-1.8 11-.6.6h-.1l-10.4-15V28l.1-.3h.1L27.6 30v.1a2 2 0 001.2 1.4zm8.6.6v.1L29 40.8h-.1l1.4-9.1a2.1 2.1 0 001-.8l6.2 1.3zM29.8 18V18.6l-14 6c-.1 0-.1 0 0 0l5.1-8.2h.5c.8 0 1.5-.4 2-1l6.4 2.6zm15.4 6.5v.1L38.7 31l-7-1.4h-.1a2 2 0 00-.8-1.4l1.3-7.7a2 2 0 001.4-.9l11.7 5zm1.2-1.1l-.1.1-12.1-5.1v-.1l4.9-2.1 7.3 7.2zm-23-10.6c-.1 0-.1 0 0 0L28 5.2l4.3 4.2-1.1 7a2 2 0 00-.7.3h-.1L23.8 14a2.5 2.5 0 00-.5-1.2zm9.3 3.8l.9-5.7h.1l4.2 4.1v.1l-4.5 2a2 2 0 00-.7-.5zM102.4 14.4h3.1v-2.8h-3.1v2.8zm9.3-1.5c-.8.8-1.3 2-1.3 3.7v1.3h-2.1v2.3h2.1v12h3.2v-12h2.8V18h-2.8v-1.3c0-1.6.7-2.4 2.3-2.4l1.2.1v-2.5a7.3 7.3 0 00-1.7-.2c-1.6 0-2.8.4-3.7 1.3zm11.7 14.7l-3-9.7h-3.3l5 14.2-.5 1.2c-.3.7-.6 1.2-1 1.5a3 3 0 01-1.8.5h-.6v2.4a5.6 5.6 0 001.5.3c2 0 3.5-1.2 4.4-3.6l5.6-16.5h-3.4l-2.9 9.7zm-21 4.6h3.1V17.9h-3.1v14.3zm-13.6-2.8c-.2-.2-.3-.6-.3-1.2v-8H91v-2.4h-2.5v-3.4h-3.1v3.4H83v2.4h2.4v8.1c0 2.8 1.2 4.1 3.6 4.1.7 0 1.4 0 2-.3v-2.5l-1 .2c-.6 0-1-.1-1.2-.4zm-10.2-5.7h-6c.1-1.1.5-2 1-2.6.5-.6 1.2-1 2-1 1 0 1.7.4 2.1 1 .5.5.8 1.3.9 2.3v.3zm-3-6.1a6 6 0 00-3.2 1c-1 .6-1.7 1.4-2.3 2.6a8.9 8.9 0 00-.8 3.8v.4c0 2.1.7 3.8 1.9 5.1 1.2 1.3 2.9 2 4.9 2a7 7 0 003.1-.8 5.5 5.5 0 002.3-2l-1.7-1.6c-1 1.2-2.1 1.8-3.5 1.8-1 0-2-.4-2.6-1-.7-.7-1-1.7-1.2-2.9h9.2v-1.2c0-2.3-.5-4-1.5-5.3a5.6 5.6 0 00-4.5-2zm-13.5 0a5 5 0 00-4.1 1.9l-.1-1.7h-3v14.4h3.2V22a3 3 0 012.8-1.8c.9 0 1.5.2 1.9.7.4.4.6 1.1.6 2v9.3h3.1v-9.5c0-3.4-1.5-5.1-4.4-5.1zm32.2 14.6h3.2V11.8h-3.2v20.4z"/><path d="M139.3 29.7c.8 0 1.4-.3 2-.7.5-.5.8-1.1.8-1.8h3a4.7 4.7 0 01-.8 2.5c-.5.8-1.2 1.4-2.1 1.8a6.3 6.3 0 01-2.9.7c-2 0-3.6-.6-4.8-2a7.7 7.7 0 01-1.7-5.3v-.3c0-2.2.6-4 1.7-5.3a6 6 0 014.8-2c1.7 0 3 .6 4.1 1.6 1.1 1 1.7 2.3 1.7 3.9h-3a3 3 0 00-.8-2c-.6-.6-1.2-.9-2-.9-1 0-1.9.4-2.5 1.2-.5.7-.8 1.9-.8 3.4v.5c0 1.6.3 2.7.8 3.5.6.8 1.4 1.2 2.5 1.2zm11-12l.2 1.4c1-1.1 2.3-1.7 4-1.7 2 0 3.3.7 4 2.2a5 5 0 014.4-2.2c1.6 0 2.8.4 3.5 1.3.8.9 1.2 2.1 1.2 3.8V32h-3.2v-9.4c0-.9-.2-1.5-.6-2-.4-.4-1-.6-2-.6-.7 0-1.3.2-1.8.6a3 3 0 00-1 1.5V32H156v-9.5c0-1.7-1-2.5-2.6-2.5-1.3 0-2.2.5-2.8 1.6V32h-3.2V17.6h3zM178.8 28c0-.6-.2-1-.7-1.3-.5-.3-1.2-.6-2.3-.8-1.1-.3-2-.6-2.8-1-1.6-.7-2.4-1.8-2.4-3.3 0-1.2.5-2.3 1.6-3 1-1 2.3-1.3 4-1.3 1.7 0 3 .4 4.1 1.2a4 4 0 011.6 3.3h-3.2a2 2 0 00-.7-1.5c-.5-.4-1-.6-1.8-.6s-1.3.1-1.8.5c-.4.3-.6.7-.6 1.3 0 .5.2.9.6 1.1.4.3 1.2.6 2.5.9 1.3.2 2.2.6 3 1 .7.3 1.2.8 1.6 1.3.3.6.5 1.2.5 2 0 1.3-.5 2.3-1.6 3.1-1 .8-2.5 1.2-4.2 1.2-1.2 0-2.2-.2-3.1-.6-1-.4-1.7-1-2.2-1.8-.5-.7-.8-1.5-.8-2.4h3.2c0 .8.3 1.4.8 1.8.6.4 1.3.6 2.1.6.9 0 1.5-.2 2-.5.4-.3.6-.7.6-1.2z" fill="#37322e"/></svg>