<svg fill="none" xmlns="http://www.w3.org/2000/svg" viewBox="0 0 168 60"><path fill-rule="evenodd" clip-rule="evenodd" d="M42.4 21.3l.8.5 5.9-2.4v-.1l-5.5-5.5-1.3 7.4zm-12.2-5l.6 1.5 8.7 3.8c.3-.3.6-.4 1-.5V21l1.5-8.8V12l-5.5-5.4h-.1l-6.2 9.5v.1zM60 30l-9.4-9.3-6.4 2.7v.1L60 30.2V30c.1 0 .1-.1 0-.1zm-1.6 1.5l-15-6.4c-.5.6-1 1-1.8 1v.1l-1.7 9.9c.6.5 1 1.1 1 1.8v.1l9.2 2v-.1l8.3-8.3v-.1zM38.6 23l-8.2-3.5h-.1a3 3 0 01-2.5 1.4h-.5-.1l-6.8 10.5h.1l18-7.6V23.5l.1-.4V23zm9.8 18.3l-8-1.7c-.3.4-.7.7-1.2 1l-2 11.7.1.1h.1l11-11h.1v-.1zm-11-.8c-.8-.3-1.4-1-1.6-1.8L21 35.6h-.1l-.3.4 13.5 19.5 1-.8 2.2-14.2zm-16.1-6.7L36 37c.5-.7 1.3-1.2 2.1-1.3h.1l1.6-9.8-.4-.3-18.2 7.7v.7zM15 36.3L15 36h-.1l-6.3 2.6v.1l3 3.1h.2l3.4-5.4zm4.2 1h-.1a3.4 3.4 0 01-2.5 0l-.1.1-3.7 5.7v.2L29.7 60h.1l3-3-13.5-19.7zm-2.4-6.6h.9l.9.1 7-10.6V20a3 3 0 01-.9-2.8l-8.5-3.7h-.1l-6.5 6.5 7.2 10.6zm.8-18.4l8 3.4h.1a3.1 3.1 0 013-.5V15l6.3-9.8L30 0h-.1L17.7 12v.1zm-3 20.3l.7-1-7-10.1h-.1l-8.1 8 14.5 3zm-.7 1.7L1.3 31.5c-.1.1 0 .2 0 .2l5.5 5.5H7l7-2.9zM122 15.1h4v26.3h-4V15zm-41.7 7.4c-2.2 0-4 .8-5.3 2.5l-.1-2.2H71v18.5h4.1V28.2a4 4 0 013.7-2.3c1 0 2 .3 2.4.9.5.5.8 1.4.8 2.6v12h4V29c0-4.4-2-6.6-5.7-6.6zm17.6 0a7.7 7.7 0 00-7.2 4.6c-.7 1.5-1 3.1-1 5v.5c0 2.7.8 5 2.4 6.6a8.3 8.3 0 006.2 2.5c1.6 0 3-.3 4.1-1a7.1 7.1 0 003-2.5l-2.2-2.1a5.5 5.5 0 01-4.6 2.3c-1.3 0-2.4-.5-3.3-1.3-.9-1-1.4-2.1-1.5-3.7h11.9v-1.6c0-3-.7-5.3-2-6.9a7.2 7.2 0 00-5.8-2.4zm3.7 7.9h-7.8a6 6 0 011.3-3.3c.7-.9 1.6-1.2 2.8-1.2 1 0 2 .3 2.6 1 .7.7 1 1.8 1.1 3.2v.3zm13.2 7.4c-.3-.3-.4-.8-.4-1.5V25.9h3.2v-3h-3.2v-4.5h-4v4.4h-3V26h3v10.5c0 3.5 1.5 5.3 4.7 5.3.8 0 1.7-.1 2.7-.4V38l-1.5.1c-.7 0-1.2 0-1.5-.4zm17.5-15h4.1v18.6h-4V22.9zm27.2 12.6L155.7 23h-4.4l6.4 18.4-.6 1.6c-.3.9-.7 1.5-1.3 1.9a4 4 0 01-2.3.6l-.7-.1v3.2c.7.2 1.3.3 2 .3 2.6 0 4.4-1.5 5.6-4.6l7.2-21.3h-4.4l-3.7 12.5zm-15-19c-1.2 1.1-1.8 2.7-1.8 4.8v1.7H140v3h2.8v15.5h4.1V25.9h3.7v-3h-3.7v-1.7c0-2 1-3 3-3l1.5.1v-3.2c-.7-.3-1.5-.4-2.2-.4-2 0-3.6.6-4.7 1.7zm-8-1.7v3.7h-4.2v-3.7h4.1z" fill="#37322e"/></svg>