<svg viewBox="0 0 148 90" xmlns="http://www.w3.org/2000/svg"><path d="M35 23.5h27.8v2.2H37.5v16.7h23.8v2.2H37.5V63h25.6v2.2H35V23.5zm30.3 0h3l13.1 18.3 13.4-18.3L113.1.2 83 43.8l15.4 21.4h-3l-14-19.5-14.2 19.5h-3l15.5-21.4-14.5-20.3zm34.3 2.2v-2.2h31.8v2.2h-14.6v39.5h-2.6V25.7H99.6zM.1 23.5h3.2l44 66-18.1-24.3L2.8 26.6l-.1 38.6H.1V23.5zm131 38.8c-.5 0-.9-.4-.9-1 0-.5.4-.9 1-.9.5 0 .8.4.8 1 0 .5-.3.9-.9.9zm2.5-2.4h1.4c0 .7.6 1.2 1.4 1.2.8 0 1.3-.5 1.3-1.5v-6.4h1.4v6.4c0 1.8-1 2.8-2.7 2.8-1.7 0-2.8-1-2.8-2.5zm7.4-.1h1.3c.2.8 1 1.4 2.2 1.4 1.1 0 2-.6 2-1.4 0-.7-.6-1.1-1.8-1.4l-1.1-.3c-1.7-.3-2.4-1.1-2.4-2.5 0-1.6 1.3-2.6 3.3-2.6 1.8 0 3.1 1 3.2 2.6h-1.4c-.1-.9-.8-1.4-1.9-1.4-1 0-1.8.5-1.8 1.4 0 .6.5 1 1.6 1.2l1 .3c1.9.4 2.6 1.2 2.6 2.5 0 1.7-1.3 2.8-3.4 2.8-2 0-3.3-1-3.4-2.6z" fill="#37322e"/></svg>