<svg fill="none" xmlns="http://www.w3.org/2000/svg" viewBox="0 0 556 98"><path fill-rule="evenodd" clip-rule="evenodd" d="M74.4 3.7c1 1.1 1.7 2.6 1.6 4.2v81.5a7 7 0 01-1.8 4.7 6.2 6.2 0 01-4.6 1.9c-1 0-2-.2-3-.5a5 5 0 01-2.1-1.4L11.7 25.4V90a5.7 5.7 0 01-6 5.9c-1.5 0-3-.6-4-1.7-1-1-1.7-2.6-1.7-4.1V8.4C0 6.7.7 5 2 3.8A6 6 0 016.3 2c1 0 2.1.2 3 .6 1 .3 1.8 1 2.4 1.7l52.5 68.9V7.9a5.7 5.7 0 016-5.9 5 5 0 014 1.7h.2zm108.7.2c1.1 1.3 1.8 3 1.7 4.6v51.6c.1 6.6-1.5 13.2-4.7 19a35.5 35.5 0 01-31.6 18.2 39 39 0 01-18.8-4.8 34 34 0 01-13-13.2 38.6 38.6 0 01-4.7-19.1V8.6a6 6 0 012-4.6 6.7 6.7 0 019.3 0 6.4 6.4 0 011.9 4.6V60c-.1 4.4 1 8.7 3.2 12.6a23.2 23.2 0 0029.4 9.9A24 24 0 00172.6 60V8.6c0-1.7.5-3.4 1.6-4.7 1.2-1.3 2.8-2 4.5-1.9a6 6 0 014.4 1.9zM287 85.7a6.3 6.3 0 011.1 3.8c.1 1.7-.6 3.4-1.9 4.6a6.4 6.4 0 01-4.3 1.7c-2.1.1-4.1-1-5.3-2.7l-26-34.8L225 93.1a6.2 6.2 0 01-5.2 2.8c-1.6 0-3-.6-4.1-1.7-1-1-1.7-2.4-1.7-3.8a7 7 0 011.6-4.4l27.6-37.5-27.7-37.2a6.2 6.2 0 01.5-8.4 6.3 6.3 0 017.4-1.2 6 6 0 012.4 2l25.8 34.6L277 4c1.1-1.7 3-2.8 5.1-3a6 6 0 014.3 2 6 6 0 011.9 4c0 1.5-.5 2.8-1.4 4l-28 37.2 28 37.5h.1zm96.5-82c1.2 1.1 2 2.8 1.9 4.5 0 1.7-.7 3.3-2 4.4a6.3 6.3 0 01-4.6 1.6H355v75.4a6 6 0 01-1.9 4.5 7.4 7.4 0 01-9.8 0 6.2 6.2 0 01-2-4.5V14.2h-23.8c-1.7 0-3.3-.5-4.6-1.7A5.9 5.9 0 01311 8c0-1.6.6-3.2 1.8-4.3 1.3-1.2 3-1.8 4.6-1.7h61.4c1.7 0 3.4.5 4.7 1.7zM412.7 93.6a28 28 0 01-10.5-10.3c-.7-1-1.1-2.3-1.2-3.6 0-1.7.7-3.3 2-4.4a6.7 6.7 0 014.2-2c2.4.3 4.6 1.5 6 3.4 3 5 8.4 8 14.1 7.8A17.2 17.2 0 00445 67.3V8.5a6 6 0 012-4.6 7 7 0 019.5-.1 6.3 6.3 0 011.8 4.6v59a29 29 0 01-15 26 31.2 31.2 0 01-30.5.2h-.1zm92.5.4c-5.3-2-10.2-5-14.4-9a7.2 7.2 0 01-2.8-5.4 6 6 0 012-4.4 6 6 0 014.3-1.9c1.5 0 2.8.5 3.9 1.5 3.2 3 7 5.5 11 7.3 4.2 1.6 8.6 2.4 13 2.4 5 .1 10-1.2 14.3-4 3.5-2 5.8-5.7 5.8-9.8.1-4.3-2.1-8.4-5.8-10.8a52 52 0 00-17.4-6.3c-9.2-2-16.3-5-21.3-9.3-5-4.3-7.4-10.3-7.4-17.9-.1-5 1.3-9.9 4.2-14 2.9-4 6.8-7.2 11.4-9.2a45.5 45.5 0 0132.4-.5 33 33 0 0112 7.1c1.8 1.4 3 3.5 3 5.7a6 6 0 01-1.8 4.3 5.7 5.7 0 01-4.4 2c-1 0-2.2-.4-3-1.1a32.1 32.1 0 00-21.4-8.2c-5-.3-10 1-14.3 3.6a11.9 11.9 0 000 19.8 50 50 0 0015.8 6c5.9 1.1 11.6 3 17.1 5.3a24 24 0 0110.3 8.6 26 26 0 013.6 14.4c.1 5-1.4 9.8-4.3 13.8-3 4.2-7.2 7.4-12 9.4a49.8 49.8 0 01-33.9.6h.1z" fill="#37322e"/></svg>