<svg fill="none" xmlns="http://www.w3.org/2000/svg" viewBox="0 0 140 36"><path fill-rule="evenodd" clip-rule="evenodd" d="M35.5 18.7L33 16.1c-.2-.2-.3-.5-.3-.8V12c0-3-.4-4-1-5.2-.5-1-1.4-2-2.5-2.5-1-.6-2.2-1-5.2-1h-4.3a.2.2 0 01-.1-.3L22 .3c.2-.2.5-.3.8-.3h1.5c4 0 5.5.4 7 1.2 1.4.8 2.6 2 3.3 3.4.8 1.5 1.2 3 1.2 7v7a.2.2 0 01-.4.1zm-18.3 17L20 33c.2-.3.5-.4.8-.4h3.2c3 0 4.1-.3 5.2-.9 1-.6 2-1.4 2.6-2.5.5-1.1.9-2.2.9-5.2v-4.3a.2.2 0 01.2-.3l.1.1 2.7 2.7c.2.2.3.5.3.8v1.5c0 4-.4 5.4-1.2 6.9-.7 1.4-2 2.6-3.4 3.4-1.4.8-2.9 1.2-6.9 1.2h-7a.2.2 0 01-.2-.4zM.4 17.2L3 19.9c.3.2.4.5.4.8V24c0 3 .3 4 .9 5.2.5 1 1.4 2 2.5 2.5 1.1.6 2.2 1 5.2 1h4.3a.2.2 0 01.2.2v.1l-2.7 2.7c-.2.2-.5.3-.8.3h-1.5c-4 0-5.4-.4-7-1.2-1.4-.8-2.5-2-3.3-3.4-.8-1.5-1.2-3-1.2-7v-7a.2.2 0 01.4-.1zM16 3c-.2.3-.5.4-.7.4H12c-3 0-4 .3-5.2.9-1 .6-2 1.4-2.5 2.5-.6 1.1-1 2.2-1 5.2v4.3a.2.2 0 01-.3.2L.3 13.8c-.2-.2-.3-.5-.3-.8v-1.5c0-4 .4-5.4 1.2-6.9.8-1.4 2-2.6 3.4-3.4C6 .4 7.6 0 11.6 0h7a.2.2 0 01.1.4L16 3zm14 10.1l-3.7-3.4a2.2 2.2 0 00-1.6-.7H14a.2.2 0 01-.1-.4L16.5 6c.2-.3.5-.4.8-.4h8.5c2.5 0 4.5 2 4.5 4.5V13a.2.2 0 01-.4.1zM22.7 30l3.5-3.6a2.2 2.2 0 00.6-1.6V14a.2.2 0 01.4-.1l2.7 2.6c.2.3.3.5.3.8V26c0 2.5-2 4.5-4.5 4.5H23a.2.2 0 01-.2-.4zM6 22.9l3.6 3.4a2.2 2.2 0 001.6.7H22a.2.2 0 01.2.4L19.4 30c-.2.3-.5.4-.8.4h-8.5a4.5 4.5 0 01-4.5-4.5V23A.2.2 0 016 23zM13 6L9.6 9.6l-.5.9-.1.8V22a.2.2 0 01-.4.1l-2.7-2.6c-.2-.3-.3-.5-.3-.8V10c0-2.5 2-4.5 4.5-4.5h2.8a.2.2 0 01.2.4zm33.1 4.4h.9c.6 0 1 .5 1 1v1l.1.1c.5-.8 1.2-1.5 2-1.9a6.6 6.6 0 015.5 0 6.3 6.3 0 013.5 4 9.3 9.3 0 010 5.9c-.3.9-.8 1.7-1.4 2.4a6.3 6.3 0 01-8.7.7 5 5 0 01-.7-.7v7.3a1.3 1.3 0 01-1.4 1.3h-.8a1.3 1.3 0 01-1.3-1.3V11.7c0-.7.6-1.3 1.3-1.3zm10 7.1c0-.5 0-1-.2-1.6a4 4 0 00-2-2.3c-.6-.2-1.1-.4-1.8-.4a3.8 3.8 0 00-3 1.4 4 4 0 00-.7 1.3 4.8 4.8 0 000 3.3 4 4 0 002 2.3c.5.2 1.1.3 1.7.3a3.8 3.8 0 003-1.3l.8-1.3c.2-.6.3-1.1.3-1.7zm8.4-7.1h1c.6 0 1.1.5 1.1 1.1v1.2c.5-.9 1-1.5 1.7-2a4.4 4.4 0 013-.6.8.8 0 01.7.7v2a.7.7 0 01-.9.7h-.8c-.8 0-1.4 0-2 .4A3.6 3.6 0 0067 16l-.2 1v6.3a1.3 1.3 0 01-1.3 1.3h-.8a1.3 1.3 0 01-1.3-1.3V11.7c0-.7.6-1.3 1.3-1.3zm11.6 0h.8c.7 0 1.3.6 1.3 1.3v11.7a1.3 1.3 0 01-1.3 1.3h-.8a1.3 1.3 0 01-1.3-1.3V11.7c0-.7.6-1.3 1.3-1.3zm-1.8-4.9c0-.6.2-1 .6-1.5a2 2 0 011.6-.6c.6 0 1.1.2 1.6.6.4.4.6 1 .6 1.5a2 2 0 01-.6 1.6c-.5.4-1 .6-1.6.6A2 2 0 0175 7a2.1 2.1 0 01-.6-1.5zm14.8 8.2c-.7-.6-1.4-.8-1.9-.8s-.9.1-1.3.3c-.5.3-.7.7-.7 1.2 0 .4.2.8.5 1l1.4.5 1.8.4 1.8.7c.5.3 1 .7 1.4 1.3.3.5.5 1.2.5 2.2 0 .8-.2 1.5-.5 2.1-.4.6-.8 1-1.4 1.4a6 6 0 01-1.9.8 9.6 9.6 0 01-5-.2 5 5 0 01-1.3-.8 1.3 1.3 0 01-.1-2l.3-.3a1.3 1.3 0 011.8 0l.6.4a3.5 3.5 0 002.6.4l.7-.3.6-.5.2-.8c0-.5-.2-.8-.6-1-.3-.3-.8-.5-1.3-.7l-1.8-.4c-.6 0-1.2-.3-1.8-.6-.6-.3-1-.7-1.4-1.2-.3-.5-.5-1.2-.5-2.2 0-.7.1-1.4.5-2 .3-.6.7-1 1.2-1.5.5-.4 1.1-.6 1.8-.8a7.8 7.8 0 014.7.2l1 .7a1.3 1.3 0 01.2 2l-.5.4a1.3 1.3 0 01-1.6 0zm7.7-3.3h.7c.7 0 1.3.6 1.3 1.3v1c.4-.8.9-1.4 1.5-1.9.7-.5 1.6-.8 2.7-.8 2.2 0 3.6 1 4.3 2.7a5 5 0 011.9-2c.7-.5 1.6-.7 2.6-.7s1.7.2 2.3.5a4 4 0 011.6 1.3c.4.6.6 1.2.8 2 .2.7.3 1.5.3 2.4v7.2a1.3 1.3 0 01-1.3 1.3h-.8a1.3 1.3 0 01-1.4-1.3v-6.8-1.3l-.5-1a2 2 0 00-.7-.8c-.4-.2-.8-.3-1.3-.3s-1 .2-1.4.4l-.9.8-.5 1.2a6 6 0 00-.1 1.3v6.5a1.3 1.3 0 01-1.3 1.3h-.8a1.3 1.3 0 01-1.4-1.3v-7.2c0-1-.1-1.6-.5-2.2-.4-.5-1-.8-1.8-.8a2.8 2.8 0 00-2.4 1.1l-.6 1.2-.1 1.4v6.5a1.3 1.3 0 01-1.3 1.3h-.9a1.3 1.3 0 01-1.3-1.3V11.7c0-.7.6-1.3 1.3-1.3zm25.5 0h.8c.7 0 1.3.6 1.3 1.3v11.7a1.3 1.3 0 01-1.3 1.3h-.8a1.3 1.3 0 01-1.3-1.3V11.7c0-.7.6-1.3 1.3-1.3zm-1.8-4.9c0-.6.2-1 .6-1.5a2 2 0 011.6-.6c.6 0 1.1.2 1.6.6.4.4.6 1 .6 1.5a2 2 0 01-.6 1.6c-.5.4-1 .6-1.6.6a2 2 0 01-1.6-.7 2.1 2.1 0 01-.6-1.5zm16.8 8.4l-.4-.3-1.4-.4a3.8 3.8 0 00-3 1.4 4 4 0 00-.7 1.3 4.8 4.8 0 000 3.3 4 4 0 002 2.3 3.8 3.8 0 003.2 0l.3-.2a1.3 1.3 0 011.8.2l.5.6a1.3 1.3 0 01-.3 1.9 8 8 0 01-3.8 1c-1 0-2-.1-2.9-.5a7 7 0 01-4-3.9c-.3-.9-.5-2-.5-3 0-1.2.2-2.2.6-3.1.3-1 .9-1.7 1.6-2.4a7 7 0 012.3-1.5 7.2 7.2 0 015.5 0c.4 0 .8.3 1.3.7a1.3 1.3 0 01.1 2l-.5.5a1.3 1.3 0 01-1.7 0z" fill="#37322e"/></svg>