<svg fill="none" xmlns="http://www.w3.org/2000/svg" viewBox="0 0 786 171"><path d="M287 79.1c-10 0-17.8 2.6-25.5 6.7v74.4c0 2-1.7 3.9-3.7 3.9h-17c-2 0-3.7-1.8-3.7-3.9V63.4c0-2 1.7-3.7 3.7-3.7h16.1c2 0 3.7 1.7 3.7 3.7v3.9c9.1-7 19.1-8.9 26.5-8.9 2 0 3.7 1.7 3.7 3.7v13.3a4 4 0 01-3.8 3.7zM384.5 120.3h-60.3v.6c0 10.7 4.4 23.5 22.2 23.5 13.5 0 26.3-1.1 34-1.9h.6c1.9 0 3.3.9 3.3 2.8v12.2c0 3-.6 4.3-3.9 4.8-12 2.2-19.2 3.1-35.9 3.1-18.5 0-44.8-10-44.8-46.4v-13.7c0-28.9 16.1-47 44.4-47 28.5 0 44 19.4 44 47v10.4c.1 3-1 4.6-3.6 4.6zm-20.9-18.1c0-14.4-8-22.8-19.4-22.8-11.4 0-19.8 8.1-19.8 22.8v.7h39.2v-.7zM490.8 164h-17c-2 0-3.7-1.8-3.7-3.9V99.8c0-16.1-1.5-20.7-15.7-20.7-6.3 0-13.1 2.6-20.9 6.7v74.4c0 2-1.7 3.9-3.7 3.9h-17c-2 0-3.7-1.8-3.7-3.9V63.4c0-2 1.7-3.7 3.7-3.7h16.1c2 0 3.7 1.7 3.7 3.7v3.9a48.3 48.3 0 0130-8.9c26.6 0 32 17.9 32 41.4v60.3c-.1 2.1-1.7 3.9-3.8 3.9zM596.3 160.7c-11.5 3-25.3 4.8-37.2 4.8-29.8 0-44.2-17.6-44.2-46.4v-14.2c0-28.9 14.4-46.4 44.2-46.4 4.4 0 10.9.4 17.8 1.3V27.1c0-2 1.7-3.7 3.7-3.7h17c2 0 3.7 1.7 3.7 3.7v128.8c0 2.6-.8 3.7-5 4.8zm-19.4-81.1a164 164 0 00-17.8-1.3c-15.9 0-19.8 11.3-19.8 26.5V119c0 15.2 3.9 26.5 19.8 26.5 6.7 0 14.2-.6 17.8-1.3V79.6zM706.9 120.3h-60.3v.6c0 10.7 4.4 23.5 22.2 23.5 13.5 0 26.3-1.1 34-1.9h.6c1.8 0 3.3.9 3.3 2.8v12.2c0 3-.6 4.3-3.9 4.8-12 2.2-19.2 3.1-35.9 3.1-18.5 0-44.8-10-44.8-46.4v-13.7c0-28.9 16.1-47 44.4-47 28.5 0 44 19.4 44 47v10.4c.1 3-1 4.6-3.6 4.6zM686 102.2c0-14.4-8-22.8-19.4-22.8-11.5 0-19.8 8.1-19.8 22.8v.7H686v-.7zM781.5 79.1c-10 0-17.8 2.6-25.5 6.7v74.4c0 2-1.7 3.9-3.7 3.9h-17c-2 0-3.7-1.8-3.7-3.9V63.4c0-2 1.7-3.7 3.7-3.7h16.1c2 0 3.7 1.7 3.7 3.7v3.9c9.1-7 19.1-8.9 26.5-8.9 2 0 3.7 1.7 3.7 3.7v13.3a4 4 0 01-3.8 3.7zM113.3 0h-2v22.6h22.6V0h-20.6zM53.5 0A53 53 0 004.2 32.7 53 53 0 000 53.5v80.4h22.6V53.2a32 32 0 0131-30.6h43.2V0H53.5zM150.4 74.2h-2v22.6H171V74.2h-20.6zM150.4 37.1h-2v22.6H171V37.1h-20.6zM169 0h-20.6v22.6H171V0h-2zM150.4 111.3h-2v22.6H171v-22.6h-20.6zM150.4 148.4h-2V171H171v-22.6h-20.6zM113.3 148.4h-2V171h22.6v-22.6h-20.6zM76.2 148.4h-2V171h22.6v-22.6H76.2zM39.1 148.4h-2V171h22.6v-22.6H39.1zM2 148.4H0V171h22.6v-22.6H2z" fill="#37322e"/></svg>