<svg version="1.1" id="svelte" xmlns="http://www.w3.org/2000/svg" x="0" y="0" viewBox="0 0 519 139" xml:space="preserve"><path id="back" d="M110.2 28.4a34.1 34.1 0 00-45.8-9.8l-26 16.6a30 30 0 00-13.5 20c-1.2 6.9-.2 14 3.1 20.2a30.4 30.4 0 00-4.5 11.2C22 95 24 103.7 29 110.7a34.1 34.1 0 0045.8 9.8l26.1-16.6a30 30 0 0013.5-20 32 32 0 00-3.1-20.2c2.2-3.4 3.8-7.2 4.5-11.2 1.4-8.4-.6-17-5.6-24.1" fill="#37322e"/><path id="front" d="M61.9 112.2a20.7 20.7 0 01-22.2-8.2c-3-4.2-4.2-9.4-3.3-14.5l.6-2.4.5-1.5 1.3 1c3.1 2.2 6.5 4 10.2 5.1l1 .3-.1 1c-.1 1.4.3 2.7 1.1 3.8a6.5 6.5 0 006.7 2.5l1.6-.7 26-16.6a5 5 0 002.4-3.6c.3-1.5-.1-3.1-1-4.4a6.5 6.5 0 00-6.7-2.5l-1.6.7-10 6.3a20.7 20.7 0 01-27.5-5.9A18.7 18.7 0 0145.8 46L72 29.3a20.7 20.7 0 0127.5 5.9c3 4.2 4.2 9.4 3.3 14.5l-.6 2.4-.5 1.5-1.3-1c-3.1-2.3-6.5-4-10.2-5.1l-1-.3.1-1a6 6 0 00-1.1-3.9 6.2 6.2 0 00-8.3-1.7L53.8 57.3a5.5 5.5 0 00-1.5 8 6.4 6.4 0 006.7 2.5l1.6-.7 10-6.3a20.7 20.7 0 0127.5 5.9c3 4.2 4.2 9.4 3.3 14.5a18 18 0 01-8.1 12.1l-26.1 16.6c-1.6 1-3.4 1.8-5.3 2.3" fill="#fff"/><path class="st2" d="M150.8 85.9l8.3-3.1c2.5 5.4 7.3 9 13.7 9 6.5 0 10.8-3.2 10.8-9.2 0-6.5-6.5-8.8-13.5-11.2-8.3-3-17.4-6.2-17.4-17.1 0-8.4 6.9-15.6 19-15.6 10.1 0 16.4 5 18.4 11.8l-8.2 2.7c-1.4-3.4-5.1-6-10.9-6-5.7 0-9.1 2.6-9.1 7.2 0 4.9 5.5 6.8 12 9 8.6 3.2 18.8 6.8 18.8 19.2 0 11.4-8.9 17.8-20.4 17.8-10.4 0-18.5-5.6-21.5-14.5zM241 85.7h-24.1L212 99.4h-9.2l21.5-59.6h9.1L255 99.4h-9.2L241 85.7zm-10-28.1c-.7-1.9-1.6-4.7-2-6.7l-2 6.7-7.3 20.3h18.6L231 57.6zM268.3 39.8h23.9c14.6 0 19.7 9.3 19.7 18.2 0 8.3-5.5 18.2-19.7 18.2h-15.1v23.2h-8.9V39.8zM302.8 58c0-4.2-2.1-9.7-10-9.7h-15.6v19.4h15.6c7.4 0 10-5.1 10-9.7zM326 39.8h23.9c14.6 0 19.7 9.3 19.7 18.2 0 8.3-5.5 18.2-19.7 18.2h-15.1v23.2H326V39.8zM360.4 58c0-4.2-2.1-9.7-10-9.7h-15.6v19.4h15.6c7.5 0 10-5.1 10-9.7zM383.7 39.8h37v8.3h-28.1v16.4h18.1v8.3h-18.1V91h30v8.3h-38.8V39.8zM438.7 39.8h25.1c14.6 0 19.2 8.7 19.2 17.6a17 17 0 01-12.9 16.9l12.3 25.1h-10.1L460.5 75h-12.9v24.4h-8.9V39.8zM464 66.5c7.4 0 9.9-4.5 9.9-9.1 0-4.2-2-9.1-9.9-9.1h-16.4v18.2H464z"/></svg>