<svg xmlns="http://www.w3.org/2000/svg" viewBox="0 0 800 400"><path fill="#37322e" d="M296.3 70.2a21.3 21.3 0 00-17.6-13.3 282.7 282.7 0 00-258 113.9 21.4 21.4 0 00-2.2 21.5 282 282 0 0090.5 111 284.4 284.4 0 00129.5 51.8 21.7 21.7 0 0011-1.5 22.1 22.1 0 008.8-6.7 283.8 283.8 0 0055.3-131.2 281.7 281.7 0 00-17.3-145.5zm-147.1 43a109 109 0 0140.4-6.3c21.2.6 46 5.7 69.9 36.9a10.9 10.9 0 01-11.1 17.2 11 11 0 01-6.2-4c-15-19.6-29.2-27.7-53.2-28.4a90.1 90.1 0 00-31.9 4.8 10.9 10.9 0 01-14-6.2 10.8 10.8 0 016.1-14zm86.3 168.5a112.7 112.7 0 01-40.4 6.2 95.1 95.1 0 01-19.6-2.4 96 96 0 01-55.8-36.7 10.9 10.9 0 0117.3-13.2 73.7 73.7 0 0058.7 30.6 91.5 91.5 0 0031.9-4.7 10.8 10.8 0 017.9 20.2zM262 247a11.5 11.5 0 01-12.5 7.6 9.5 9.5 0 01-2.3-.5 11.6 11.6 0 01-7.1-14.8c3.7-10.2.3-14.9-.8-16.5-9-12.5-39.3-13.7-51.9-13.6-30.9.3-51.7-7.3-61.6-22.5s-6.1-31.4-2.6-39.3a11.6 11.6 0 0121.2 9.3c-.1.4-4 10.2.8 17.4s20.2 12.1 42 12c35.9-.3 59.7 7.6 71 23.3A39.8 39.8 0 01262 247zM629.3 270.3H436.6a8.4 8.4 0 010-16.8h192.7a8.4 8.4 0 010 16.8zM408.2 195.3c-4-3.4-10.4-5.9-19.7-7.8a61.8 61.8 0 01-9.7-2.7c-2.5-1-3.5-1.9-3.9-2.5a5.3 5.3 0 01-.9-3.2c0-1 .2-2.5 2.7-3.8a17.6 17.6 0 018.5-1.7 25.1 25.1 0 017.8 1 16.2 16.2 0 015.9 3.7 10.5 10.5 0 006.9 2.8 7.3 7.3 0 004.5-1.4 6.6 6.6 0 002.7-5.1 7.8 7.8 0 00-1.9-5 27.4 27.4 0 00-10.7-7.6 39.3 39.3 0 00-15-2.7 36.3 36.3 0 00-12.8 2.2 23 23 0 00-10.1 6.7 17.1 17.1 0 00-3.9 11.3c0 10.8 8.4 17.9 24.9 21.1 5.8 1.1 10 2.4 12.3 4s3.1 3 3.1 4.9-1 3.6-3.1 4.9-5.7 2.1-10 2.1a24.1 24.1 0 01-9.3-1.8 19.7 19.7 0 01-6.5-4.1c-3.2-3.3-7-3.8-11.1-.7a7.3 7.3 0 00-3.1 6.1 6.9 6.9 0 002 5 32.1 32.1 0 0012.2 7.2 48.9 48.9 0 0016.3 2.7 37.9 37.9 0 0015-2.8 21.9 21.9 0 009.7-7.9 19.2 19.2 0 003.4-11.2 17.5 17.5 0 00-6.2-13.7zM458.4 173.7a20.3 20.3 0 017.7 1.4 17.8 17.8 0 016.1 4.4 7.5 7.5 0 006 2.8 6.4 6.4 0 003.8-1.2 7 7 0 003.4-5.9 6.2 6.2 0 00-1.6-4.3 32.3 32.3 0 00-25.4-11.6 35.2 35.2 0 00-18 4.6 32.1 32.1 0 00-12.5 12.8 38.5 38.5 0 00-4.4 18.4 37.6 37.6 0 004.5 18.3 34.2 34.2 0 0012.8 12.8 36 36 0 0018.2 4.7c9.3 0 17.1-2.9 23.3-8.8a6.2 6.2 0 002-4.5 7.4 7.4 0 00-3-5.7c-2.8-2.1-6.3-1.9-9.8.6s-7.3 4-12.5 4a20.6 20.6 0 01-10.5-2.8 19 19 0 01-7.1-7.5 23.3 23.3 0 01-2.6-11.1c0-6.5 1.9-11.7 5.5-15.6s8.3-5.8 14.1-5.8zM563.6 161.9a7.8 7.8 0 00-5.8-2.3 8 8 0 00-5.6 2.2 7.8 7.8 0 00-2.3 5.8v34.7a12.3 12.3 0 01-2.1 7 14.3 14.3 0 01-6 5.1 19.2 19.2 0 01-8.7 1.9c-5.5 0-9.7-1.5-13-4.6s-4.8-7.7-4.8-13.9v-30.2a8 8 0 10-15.9 0v30.2c0 6.9 1.3 12.9 4 17.9a28.6 28.6 0 0011.2 11.4 33.3 33.3 0 0016.1 3.9 32.2 32.2 0 0012.1-2.3 26 26 0 007.3-4.1 8.4 8.4 0 002.1 3.5 7.7 7.7 0 005.6 2.3 7.8 7.8 0 005.8-2.3 8.1 8.1 0 002.2-5.7v-54.8a7.9 7.9 0 00-2.2-5.7zM605.3 214.7h-3.1c-.8 0-1.9-.2-3-2.1a12.9 12.9 0 01-1.5-6.6v-67.2a7.6 7.6 0 00-2.2-5.6 7.5 7.5 0 00-5.6-2.2 7.6 7.6 0 00-5.6 2.2 7.5 7.5 0 00-2.2 5.6V206a29.6 29.6 0 002.5 12.4 20.7 20.7 0 007.1 8.8 18.3 18.3 0 0010.5 3.2h.2a11.5 11.5 0 007.1-2.1 7 7 0 003-5.7 8.2 8.2 0 00-2-5.6 6.7 6.7 0 00-5.2-2.3zM642.1 214.7h-3c-.8 0-1.9-.2-3-2.1a12.9 12.9 0 01-1.5-6.6v-67.2a8 8 0 00-2.2-5.6 7.6 7.6 0 00-5.6-2.2 7.3 7.3 0 00-5.6 2.2 7.5 7.5 0 00-2.2 5.6V206a31.2 31.2 0 002.4 12.4 20.9 20.9 0 007.2 8.8 18.3 18.3 0 0010.5 3.2h.2a11.2 11.2 0 007-2.1 6.7 6.7 0 003-5.7 8.1 8.1 0 00-1.9-5.6 6.9 6.9 0 00-5.3-2.3zM712 160.5a8.6 8.6 0 00-3.6-.7c-2 0-4.7.8-6.4 4.5l-18.3 41.4-20.9-41.6a7.2 7.2 0 00-6.7-4.3 8.1 8.1 0 00-3.1.6 9.3 9.3 0 00-3.3 2.6 7 7 0 00-.5 7.3l27.3 51.8-11.9 26.9a8.4 8.4 0 00-.9 3.7c0 2 .8 4.6 4.7 6.3a8.7 8.7 0 003.6.9c2 0 4.8-.8 6.3-4.8l37.6-84.6a9.5 9.5 0 00.9-3.7c0-2-.9-4.7-4.8-6.3z"/></svg>