<svg fill="none" xmlns="http://www.w3.org/2000/svg" viewBox="0 0 230 62"><path d="M28 30.8h-9.5v4.6h9.3c.6 0 1.1-.2 1.5-.6.4-.4.6-1 .6-1.6 0-.6-.1-1.2-.5-1.7-.3-.5-.8-.7-1.3-.7zm.4-5.6c.4-.3.6-.9.6-1.7 0-.7-.2-1.2-.5-1.5-.3-.3-.7-.5-1.2-.5h-8.8v4.2H27c.5 0 1-.2 1.3-.5z" fill="#37322e"/><path d="M42.5 8.1H6.2a2 2 0 00-2 2v36.4c0 1 .9 1.8 2 1.8h5.3v7.2l6.7-7.2h24.3c1.1 0 1.8-.7 1.8-1.8V10.2c0-1-.7-2-1.9-2zm-6.1 29.5c-.5.8-1.2 1.5-2 2a9 9 0 01-3 1.3c-1 .3-2.3.5-3.5.5H11.5V15.5h18.6c1 0 1.7.2 2.5.6.7.4 1.3 1 1.8 1.5a7 7 0 011.6 4.5c0 1.2-.3 2.3-1 3.5-.6 1-1.5 2-2.7 2.4 1.5.5 2.6 1.2 3.5 2.3a7 7 0 011.2 4.3 6 6 0 01-.7 3zM69.3 41.2c-1.6 0-3.2-.2-4.7-.7-1.5-.5-2.9-1.3-4-2.3l2-3.6c1.2.8 2.3 1.4 3.4 1.9s2.2.6 3.2.6c.7 0 1.3-.1 1.7-.4.5-.2.6-.6.6-1.1 0-.5-.2-1-.7-1.2a12 12 0 00-2.8-1l-3.2-1a10 10 0 01-2.1-1.2c-.6-.3-1-.8-1.2-1.4-.3-.5-.4-1.2-.4-1.8a6 6 0 012.2-4.7c.6-.6 1.5-1 2.4-1.3.9-.3 2-.5 3-.5 1.4 0 2.7.2 4 .6 1.2.4 2.4 1 3.6 2.1L74 27.7c-.9-.7-1.8-1.2-2.8-1.6-1-.4-1.7-.5-2.5-.5-.6 0-1.2 0-1.6.3-.5.3-.6.7-.6 1.2 0 .6.2 1 .7 1.2.4.3 1.3.6 2.6.9l3.4 1c1 .4 1.7.8 2.3 1.3A4.1 4.1 0 0177 35c0 1.9-.7 3.3-2.1 4.4a8.8 8.8 0 01-5.7 1.7zM92.2 40l-2.7.9c-1 .3-2 .5-3.1.5-.8 0-1.4-.1-2-.3-.7-.2-1.3-.5-1.8-1-.4-.3-.8-.9-1-1.5a6 6 0 01-.5-2.3v-10h-2.4V22H81v-6h5.7v6h4v4.3h-4v8c0 .6.2 1 .5 1.4.3.2.7.3 1.2.3s1 0 1.3-.2a6 6 0 001.2-.5l1.1 4.7zm10.8 1.3c-1.5 0-3-.2-4.3-.8a9 9 0 01-5.2-5.3c-.9-2.4-.9-5 0-7.5a9 9 0 015.2-5.3c1.2-.5 2.7-.8 4.3-.8a9.7 9.7 0 019.5 6.1 10.3 10.3 0 01-2 10.7c-1 1-2 1.6-3.2 2.1a11 11 0 01-4.3.8zm-4.2-9.8c0 1.5.4 2.7 1.2 3.6a4 4 0 003 1.4 3.8 3.8 0 003-1.4l1-1.6.2-2c0-1.5-.4-2.7-1.2-3.6-.7-1-1.8-1.4-3-1.4a4 4 0 00-3 1.4c-.3.5-.7 1-.9 1.6a6 6 0 00-.3 2zm29.3-4.6c-1.4 0-2.7.3-3.9.7-1 .4-1.8 1-2.4 2v11.4H116v-19h5.3v3.8a7.4 7.4 0 012.6-3c1-.8 2-1.1 3.2-1.2h1v5.3zm2.5 16.9c.8.3 1.7.4 2.5.5.7 0 1.3-.3 1.7-.7a8 8 0 001-2.6l-7.2-19h6l4.3 14 3.9-14h5.4l-7.3 22a7.5 7.5 0 01-10.3 4.7v-4.9zm31.2-2.5a7.2 7.2 0 01-6.3-3.5V41h-5V14.5h5.7V25a6.9 6.9 0 016.2-3.5 8 8 0 016 2.9 12.1 12.1 0 011.7 10.9c-.5 1.2-1.2 2.3-2 3.1a8.5 8.5 0 01-6.3 2.8zm-1.6-4.8a4.4 4.4 0 004.2-3 5.7 5.7 0 00-1-5.5 3.7 3.7 0 00-3-1.5 4 4 0 00-2.4 1c-.8.6-1.4 1.4-1.8 2.4v4a4.5 4.5 0 004 2.5zm13.3-22h5.8v19.7c0 1.5.6 2.2 1.8 2.2a4 4 0 002-.5l.7 4.3c-1.6.7-3.3 1-5.1 1.1-1.7 0-3-.5-3.8-1.3a5 5 0 01-1.4-3.8V14.5zm21.2 26.8c-1.5 0-3-.2-4.3-.8a9.1 9.1 0 01-5.2-5.3 10.6 10.6 0 012-10.6 10 10 0 017.5-3 9.7 9.7 0 0110 11.7c-.4 1.9-1.2 3.6-2.5 5-.9 1-2 1.7-3.2 2.2a11 11 0 01-4.3.8zm-4.2-9.8c0 1.5.4 2.7 1.2 3.6a4 4 0 003 1.4 3.8 3.8 0 003-1.4 5.6 5.6 0 001.2-3.6c0-1.5-.4-2.7-1.2-3.6-.8-1-1.8-1.4-3-1.4a4 4 0 00-3 1.4l-1 1.6-.2 2zm30 9.5l-5-7.7-2 2.1V41h-5.8V14.5h5.8v15.3l6.4-7.9h6.2l-6.9 8.2 7.4 10.8h-6.1z" fill="#37322e"/></svg>