<svg fill="none" xmlns="http://www.w3.org/2000/svg" viewBox="0 0 119 31"><path fill-rule="evenodd" clip-rule="evenodd" d="M26 4.7H8.8v8.7h8.4c.3 0 .6.2.6.5v8.4h8.7v-17a.5.5 0 00-.5-.6z" fill="#37322e"/><path opacity=".4" fill-rule="evenodd" clip-rule="evenodd" d="M8.8 4.7v8.7H.7a.3.3 0 01-.2-.5l8.3-8.2zm9.4 25.8a.3.3 0 01-.4-.2v-8h8.7l-8.3 8.1z" fill="#37322e"/><path opacity=".4" d="M8.8 13.4h8.7c.2 0 .3 0 .3.2v8.7H9.3a.5.5 0 01-.5-.6v-8.3z" fill="#37322e"/><path fill-rule="evenodd" clip-rule="evenodd" d="M114.8 4.2c.5.5 1 .7 1.7.7s1.3-.2 1.8-.7c.5-.5.7-1 .7-1.7s-.2-1.3-.7-1.8a2.4 2.4 0 00-1.8-.7c-.7 0-1.2.2-1.7.7a2.4 2.4 0 000 3.5zm-53 6.3h-3.6V17c0 .5.1 1 .4 1.2.3.2.7.4 1.2.4H61.7v3.6h-.1c-2.7.3-4.6 0-5.7-.8-1.2-.8-1.7-2.3-1.7-4.4v-6.4h-2.7V6.9v-.1h2.7V4.2 4l3.9-1.6v4.4h3.6v3.7zm7.2-1c.4-1 1-1.8 1.9-2.3.8-.5 1.8-.7 2.8-.7v4.2a.1.1 0 01-.1.2c-1.2-.1-2.2.1-3.1.7-1 .7-1.5 1.7-1.5 3.2v7.3h-4V6.9v-.1h4v2.6zm19-2.7v1.8a6.2 6.2 0 00-5.1-2.3c-2.1 0-3.9.8-5.4 2.4a8.1 8.1 0 00-2.2 5.8c0 2.3.7 4.2 2.2 5.8a7.1 7.1 0 005.4 2.3c2.2 0 3.8-.7 5-2.2V22h4V6.9v-.1H88zm-7.5 10.8c.8.8 1.9 1.2 3.1 1.2 1.3 0 2.3-.4 3.1-1.2.8-.8 1.3-1.8 1.3-3.1a4.2 4.2 0 00-4.4-4.4c-1.2 0-2.3.4-3 1.2-.9.9-1.3 1.9-1.3 3.2 0 1.3.4 2.3 1.2 3.1zm29.4-9a7.1 7.1 0 00-5.4-2.3 6 6 0 00-5 2.3V6.9l-.2-.1h-3.8v21.5h3.9v-8a6 6 0 005 2.3c2.2 0 4-.8 5.5-2.3a8.1 8.1 0 002.2-5.8c0-2.3-.7-4.2-2.2-5.8zm-9.2 9c.8.8 1.8 1.2 3 1.2 1.3 0 2.3-.4 3.1-1.2.9-.8 1.3-1.8 1.3-3.1a4.2 4.2 0 00-4.4-4.4 4.2 4.2 0 00-4.3 4.4c0 1.3.4 2.3 1.3 3.1zm13.9 4.6V6.9v-.1h3.9v15.3h-3.9zm-71.8-10c-.5-.3-.8-.6-.8-1s.2-.8.5-1c.3-.2.8-.3 1.3-.3 1 0 1.7.4 2.3 1.1a.1.1 0 00.1 0l3.4-1.4v-.1-.2a6 6 0 00-2.3-2.1c-1-.6-2.2-.9-3.5-.9-1.7 0-3.1.5-4.2 1.3-1.2 1-1.7 2.1-1.7 3.6 0 1 .2 1.9.8 2.6.5.6 1.2 1.1 2 1.4l2.4.8 2 .7c.5.2.8.6.8 1 0 .9-.7 1.3-2.1 1.3-1.4 0-2.3-.5-2.9-1.5a.2.2 0 00-.2 0l-3.4 1.4v.2c1.2 2.4 3.3 3.5 6.5 3.5 1.8 0 3.2-.4 4.4-1.3 1.2-.8 1.8-2 1.8-3.6 0-1-.2-2-.8-2.6a4.6 4.6 0 00-2-1.5 21 21 0 00-2.4-.8 11 11 0 01-2-.7z" fill="#37322e"/></svg>