<svg xmlns="http://www.w3.org/2000/svg" viewBox="0 0 688.8 139"><path d="M547.5 99.3l-16.8-31.2L520.2 81v18.4h-8.9V39.7h8.9v28.9l23-29h10.2l-16.7 21L558 99.3zm29.6 0V39.7h8.9v59.6zm55-51.1v51.1h-8.8V48.2h-16.9v-8.5H649v8.5z" fill="#37322e"/><path data-name="svelte" d="M172.4 100.3a24 24 0 01-13.7-3.8 19.9 19.9 0 01-8-10.6l8.4-3.1a15.4 15.4 0 005.4 6.6 14.4 14.4 0 008.3 2.4 12.1 12.1 0 007.9-2.4 8.3 8.3 0 003-6.8 7.5 7.5 0 00-.9-3.4 10.3 10.3 0 00-1.8-2.6 12.3 12.3 0 00-3.2-2.1l-3.5-1.6-4.2-1.5q-3.4-1.2-5-2a38.5 38.5 0 01-4.5-2.2 16.5 16.5 0 01-4.2-3.1 15.3 15.3 0 01-2.5-4.2 14.8 14.8 0 014-16.7q5-4.6 13.9-4.6 7.3 0 12 3.3a15.7 15.7 0 016.4 8.6l-8.2 2.7a9.5 9.5 0 00-4-4.4 13.3 13.3 0 00-7-1.6 10.7 10.7 0 00-6.6 1.8 6.3 6.3 0 00-2.4 5.3 5.5 5.5 0 001.8 4.1 12.9 12.9 0 004 2.6q2 .9 6.2 2.3l3.8 1.5 3.6 1.5a25.1 25.1 0 013.6 2 32 32 0 013 2.5 12.7 12.7 0 012.6 3 17.3 17.3 0 011.6 3.9 17.6 17.6 0 01.6 4.8q0 8.4-5.7 13.1t-14.7 4.7zm54.7-1l-20.5-59.6h9.6l13.5 41.5a64.8 64.8 0 011.9 6.9 63.8 63.8 0 011.9-6.8l13.3-41.6h9.5l-20.4 59.6zm47.3 0V39.7h37V48h-28.2v16.4h18.2v8.3h-18.2V91h30v8.3zm61.4 0V39.7h8.9v51h29.1v8.6zm71.4-51.1v51.1h-8.9V48.2h-16.8v-8.5H424v8.5zm35.2 51.1V39.7h37V48h-28.1v16.4h18.1v8.3h-18.1V91h30v8.3z" fill="#37322e"/><path d="M110.3 28.3a34.2 34.2 0 00-45.8-9.8L38.5 35a30 30 0 00-13.6 20A31.5 31.5 0 0028 75.5a30 30 0 00-4.5 11.2 31.9 31.9 0 005.5 24 34.2 34.2 0 0045.8 10l26-16.7a30 30 0 0013.6-20 31.5 31.5 0 00-3.1-20.3 30 30 0 004.4-11.2 31.9 31.9 0 00-5.4-24" fill="#37322e"/><path d="M62 112a20.7 20.7 0 01-22.3-8.2 19.2 19.2 0 01-3.3-14.5 18.1 18.1 0 01.7-2.4l.4-1.5 1.4 1a33.6 33.6 0 0010.2 5l1 .4-.1 1a5.8 5.8 0 001 3.8 6.2 6.2 0 006.7 2.5 5.7 5.7 0 001.6-.7l26.1-16.6a5.4 5.4 0 002.4-3.6 5.8 5.8 0 00-1-4.4 6.2 6.2 0 00-6.6-2.5 5.7 5.7 0 00-1.6.7l-10 6.3a19 19 0 01-5.3 2.4 20.7 20.7 0 01-22.2-8.3A19.2 19.2 0 0137.8 58a18 18 0 018.1-12L72 29.2a19 19 0 015.3-2.3 20.7 20.7 0 0122.3 8.3 19.2 19.2 0 013.2 14.5 18.5 18.5 0 01-.6 2.4l-.5 1.5-1.3-1a33.6 33.6 0 00-10.2-5l-1-.4v-1a5.9 5.9 0 00-1-3.8 6.2 6.2 0 00-6.7-2.5 5.7 5.7 0 00-1.6.7L54 57.2a5.4 5.4 0 00-2.5 3.6 5.8 5.8 0 001 4.4 6.2 6.2 0 006.7 2.5 5.8 5.8 0 001.6-.7l10-6.3a19 19 0 015.2-2.4 20.7 20.7 0 0122.3 8.3 19.2 19.2 0 013.3 14.5 18 18 0 01-8.2 12l-26 16.7a19 19 0 01-5.4 2.3" fill="#fff"/></svg>