<svg xmlns="http://www.w3.org/2000/svg" xmlns:xlink="http://www.w3.org/1999/xlink">
    <symbol id="architecture" viewBox="0 0 512 512">
        <path d="M128 6H0m128 500H0M6 0v512M384 506h128M384 6h128m-6 506V0" stroke="#d72516"
            stroke-width="12" />
        <path
            d="M179.6 322c0-2.1-1.7-3.8-3.7-3.8a40.4 40.4 0 01-16.7-77.1 3.7 3.7 0 10-3.1-6.8 48 48 0 0019.8 91.4c2 0 3.7-1.7 3.7-3.8zM206.5 243.6A63.3 63.3 0 01325 225a3.7 3.7 0 106.6-3.5c-2.1-4-4.6-7.6-7.3-11v-50l9-10.8a11.3 11.3 0 10-5.7-4.8l-10 11.8c-.5.7-.8 1.5-.8 2.4v43.3a70.7 70.7 0 00-22.6-13.9v-26.2a11.3 11.3 0 10-7.5 0v23.8a71.1 71.1 0 00-27-1.6v-34.8a11.3 11.3 0 10-7.4 0V186a70.8 70.8 0 00-27 13v-36.5a11.3 11.3 0 10-7.5 0v43.3a70.5 70.5 0 00-17.4 31c-1.8-1-3.6-2-5.4-2.8v-74.7c0-.9-.4-1.7-1-2.4l-9.9-11.9a11.3 11.3 0 10-5.7 4.8l9 10.9v70.8c-3.7-1-7.6-1.4-11.5-1.4a3.8 3.8 0 000 7.5c9 0 17.5 2.9 24.6 8.4a3.7 3.7 0 006-2.3zm130.8-108.1a3.7 3.7 0 110 7.5 3.7 3.7 0 010-7.5zm-46.8 12.6a3.7 3.7 0 110 7.5 3.7 3.7 0 010-7.5zM256 135.5a3.7 3.7 0 110 7.5 3.7 3.7 0 010-7.5zm-34.5 12.6a3.7 3.7 0 110 7.5 3.7 3.7 0 010-7.5zm-50.8-8.9a3.7 3.7 0 117.5 0 3.7 3.7 0 01-7.5 0zM347.9 253.5c-2.8 0-5.4.3-8 .9-.1-5.2-.7-10.4-1.9-15.5a3.7 3.7 0 00-7.3 1.7 63.7 63.7 0 011.5 18.7 3.7 3.7 0 005.1 3.7 28.6 28.6 0 1110.6 55.2h-12.3a3.8 3.8 0 000 7.5h12.3a36.1 36.1 0 000-72.2zM305.8 318.2H271a3.8 3.8 0 000 7.5h15.7v36.5a11.3 11.3 0 107.5 0v-36.5h11.6a3.8 3.8 0 000-7.5zm-15.3 58.3a3.7 3.7 0 110-7.5 3.7 3.7 0 010 7.5zM241 318.2h-34.2a3.8 3.8 0 000 7.5h11v36.5a11.3 11.3 0 107.5 0v-36.5H241a3.8 3.8 0 000-7.5zm-19.5 58.3a3.7 3.7 0 110-7.5 3.7 3.7 0 010 7.5z"
            fill="#d72516" />
        <path
            d="M191.4 285.8a11.3 11.3 0 00-3.7 21.9v51.2l-15.9 19a3.7 3.7 0 105.8 4.8l16.7-20c.6-.7.9-1.5.9-2.4v-52.6a11.3 11.3 0 00-3.8-21.9zm0 15a3.7 3.7 0 110-7.5 3.7 3.7 0 010 7.5zM256 285.8a11.3 11.3 0 00-3.8 21.9v72.6a3.8 3.8 0 007.6 0v-72.6a11.3 11.3 0 00-3.8-21.9zm0 15a3.7 3.7 0 110-7.5 3.7 3.7 0 010 7.5zM324.3 359v-51.3a11.3 11.3 0 10-7.5 0v52.6c0 .9.3 1.7.9 2.4l16.8 20a3.7 3.7 0 105.7-4.9L324.3 359zm-3.7-65.7a3.7 3.7 0 110 7.5 3.7 3.7 0 010-7.5z"
            fill="#d72516" />
    </symbol>

    <symbol id="blogging" viewBox="0 0 512 512">
        <path d="M128 6H0m128 500H0M6 0v512M384 506h128M384 6h128m-6 506V0" stroke="#0b70ba"
            stroke-width="12" />
        <path
            d="M378.9 152H133.1a5.1 5.1 0 00-5.1 5v161.4c0 2.8 2.3 5 5.1 5h90v26.4h-18.2a5.1 5.1 0 100 10.2h102.2a5.1 5.1 0 000-10.2H289v-26.3h89.9c2.8 0 5.1-2.3 5.1-5.1V157c0-2.9-2.3-5.1-5.1-5.1zM278.8 349.8h-45.6v-26.3h45.6v26.3zm95-36.5H138.2V162.2h235.6v151z"
            fill="#0b70ba" />
        <path
            d="M247.3 174H156a5.1 5.1 0 00-5.1 5.2V245c0 2.8 2.3 5.1 5 5.1h91.5c2.8 0 5.1-2.3 5.1-5.1v-66c0-2.7-2.3-5-5-5zm-78.9 66l16.2-16.2 16.2 16.2h-32.4zm73.8 0h-27l-.4-.5-8.8-8.7 19.9-19.9 16.3 16.4V240zm0-27.1L229.5 200c-2-2-5.3-2-7.3 0l-23.4 23.4-10.6-10.5c-2-2-5.2-2-7.2 0l-20 20v-48.7h81.2v28.6z"
            fill="#0b70ba" />
        <path
            d="M360.6 183.3l-9.2-9.3a12 12 0 00-17 0l-66.2 66.2a5 5 0 00-1.3 2.1l-7.2 23.8H156a5.1 5.1 0 100 10.2h107.8a5 5 0 002-.5l26.6-8a5 5 0 002.2-1.3l66.1-66.2a12 12 0 000-17zm-89.4 80.2l3-10 7 7-10 3zm19.7-7.8L279 243.8l51.8-51.7 11.8 11.8-51.7 51.8zm62.5-62.6l-3.6 3.6-11.8-11.9 3.6-3.5c.7-.8 1.9-.8 2.6 0l9.2 9.2a1.8 1.8 0 010 2.6zM334 290.6H156a5.1 5.1 0 100 10.2H334a5.1 5.1 0 000-10.2zM356.7 290.6h-2.8a5.1 5.1 0 100 10.2h2.8a5.1 5.1 0 000-10.2z"
            fill="#0b70ba" />
    </symbol>

    <symbol id="money" viewBox="0 0 512 512">
        <path d="M128 6H0m128 500H0M6 0v512M384 506h128M384 6h128m-6 506V0" stroke="#21815b"
            stroke-width="12" />
        <path fill-rule="evenodd" clip-rule="evenodd"
            d="M237.5 172c-4-11.6-7.5-23.4-10.6-35.4 11.2-12.2 54.5-10.6 67-.1l-11.5 27.4c6.2-8.2 8.2-11.5 12-16 1.5 1 3 2.1 4.3 3.3 3.3 3 6.2 6.3 6.8 10.9.4 3-.4 6-3 9L276 202c-3.4-.5-6.8-1.4-10-2.5l4.8-11-9.6 10.4a36 36 0 00-25.6 3.2l-26.8-32.2a9 9 0 01-2.3-5.8c0-7.8 11.6-14.5 17.7-17l13.3 25zm34.3 58.2l-5.2-24c22.4 4.2 58.4 49.8 70 70.6 5.9 10.6 11 22.2 15.3 35.2 8.5 31.6.4 61-33.9 68-21.4 4.3-61.4 4.6-84 3.4-24.1-1.3-61.7-1.2-71.5-26.1-15.8-40.2 13.2-88 39.6-117.3 3.5-3.9 7-7.5 10.8-10.8 9.6-8.4 20-18.5 32.3-22.7l-12 22.3 17.4-23h9.2l12 24.4zM260.7 250v4.2c4.5.5 8.3 1.4 11.5 2.8a26.7 26.7 0 0112.8 12.9c1 2.2 1.5 4.3 1.5 6.2 0 2-.7 3.9-2.3 5.4a7.7 7.7 0 01-5.5 2.3c-4.2 0-6.8-2.2-8-6.7a14.3 14.3 0 00-10-10.4v26.1a140 140 0 0112.4 4 25.3 25.3 0 0116.4 23.8 27.5 27.5 0 01-13.3 23.6 35 35 0 01-15.6 4.7v4.3c0 2.4-.2 4.3-.7 5.4-.5 1.1-1.5 1.7-3.1 1.7s-2.6-.5-3.2-1.4a8 8 0 01-1-4.3v-5.6c-4.8-.5-9.1-1.7-12.8-3.4a30.3 30.3 0 01-14.6-14.8 21.5 21.5 0 01-1.7-8.3c0-2 .8-3.8 2.3-5.4a7.9 7.9 0 015.9-2.4c1.9 0 3.5.4 4.8 1.3a7 7 0 012.7 3.7 81 81 0 003 7.9 15.6 15.6 0 0010.5 8.4v-29.2a76.6 76.6 0 01-14-5.2c-3.8-1.9-7-4.6-9.2-8-2.4-3.6-3.6-8.1-3.6-13.6a24 24 0 017-17.8 30.8 30.8 0 0119.8-8V250c0-3.5 1.3-5.3 4-5.3s4 1.7 4 5.2zm-8 40.5v-24c-3.5 1-6.3 2.4-8.2 4-2 1.8-3 4.4-3 7.9 0 3.3 1 5.8 2.8 7.5 1.8 1.7 4.6 3.2 8.4 4.6zm8 18.6v27.6c4.2-.9 7.5-2.5 9.8-5.1a13 13 0 003.4-9c0-3.6-1-6.4-3.3-8.4s-5.6-3.7-10-5z"
            fill="#21815b" />
    </symbol>

    <symbol id="shield" viewBox="0 0 512 512">
        <path d="M128 6H0m128 500H0M6 0v512M384 506h128M384 6h128m-6 506V0" stroke="#0b70ba"
            stroke-width="12" />
        <path fill-rule="evenodd" clip-rule="evenodd"
            d="M256 128c44 28 83 41 116 37 6 119-38 190-115 219-76-27-120-95-117-220 40 2 78-7 116-36zm1 41c30 18 56 27 79 25 4 81-26 129-79 149h-1V169h1zm-1-26c39 24 73 36 103 33 5 105-34 167-102 193-67-24-106-83-103-195 35 2 69-5 102-31z"
            fill="#0b70ba" />
    </symbol>

    <symbol id="shopping" viewBox="0 0 512 512">
        <path
            d="M373 128h-47c-5 0-8 4-10 8l-43 137h-93l-26-76h97a11 11 0 100-22H139c-10 0-12 9-10 14l33 98c1 5 6 8 10 8h108c5 0 9-3 10-8l44-137h39c6 0 11-5 11-11s-5-11-11-11zM182 314c-19 0-35 16-35 35s16 35 35 35 35-16 35-35-16-35-35-35zm13 35c0 8-6 14-13 14s-13-6-13-14c0-7 6-13 13-13s13 6 13 13zM267 314c-19 0-35 16-35 35s16 35 35 35 34-16 34-35-15-35-34-35zm13 35c0 8-6 14-13 14s-13-6-13-14c0-7 6-13 13-13s13 6 13 13z"
            fill="#21815b" />
        <path d="M128 6H0m128 500H0M6 0v512M384 506h128M384 6h128m-6 506V0" stroke="#21815b"
            stroke-width="12" />
    </symbol>

    <symbol id="speedometer" viewBox="0 0 512 512">
        <path d="M128 6H0m128 500H0M6 0v512M384 506h128M384 6h128m-6 506V0" stroke="#d72516"
            stroke-width="12" />
        <path
            d="M248 256l69-44h1l7 7v2l-52 60c-7 8-15 10-22 8-3-1-6-3-8-6l-4-8c-1-7 1-14 9-19zm-93 128a149 149 0 01-36-165 148 148 0 11242 161h-2l-7-8h-1l-20-20v-2l11-11h1l16 16a132 132 0 0027-76h-22l-1-2v-15l1-1h21a129 129 0 00-35-75l-14 15h-1l-11-11v-2l13-14a131 131 0 00-76-28v19l-1 1h-15l-2-1v-19a130 130 0 00-74 33l14 14v2l-11 11h-1l-14-14a130 130 0 00-31 76h22l1 1v16l-1 1h-22a129 129 0 0029 73l18-18h2l10 11v2a1358 1358 0 00-30 30z"
            fill="#d72516" />
    </symbol>

    <symbol id="11ty" viewBox="0 0 1160 966">
        <path
            d="M361.2 809.1c-9 0-13.5-12-13.5-36.1V177.9c0-11.5-2.3-16.9-7-16.2l-43.1 10.8c-7.9.7-11.8-7.2-11.8-23.7V97.1c0-14.3 4.3-22.4 12.9-24.2l142.2-36.6a19 19 0 014.8-.5c7.9 0 11.8 8.4 11.8 25.3v712c0 24.1-4.7 36.1-14 36.1l-82.3-.1v0zm368.3 1.1c-14.4 0-26.8-1-37.4-3a99.8 99.8 0 01-33.1-13.5 84 84 0 01-28.3-28.8 166.5 166.5 0 01-18-51.2c-4.6-21.9-7-47.9-7-78.1V359.4c0-7.2-2-10.8-5.9-10.8h-33.4c-9 0-13.5-8.6-13.5-25.8v-29.1c0-17.6 4.5-26.4 13.5-26.4h33.4c3.9 0 5.9-4.8 5.9-14.5l9.7-209.5c1.1-19 5.7-28.5 14-28.5h53.9c9 0 13.5 9.5 13.5 28.5v209.5c0 9.7 2.1 14.5 6.5 14.5H772c9 0 13.5 8.8 13.5 26.4v29.1c0 17.2-4.5 25.8-13.5 25.8h-68.9c-2.5 0-4.2.6-5.1 1.9-.9 1.2-1.3 4.2-1.3 8.9v277.9c0 20.8 1.3 38.2 4 52 2.7 13.8 6.6 24 11.8 30.4a41.4 41.4 0 0015.6 12.9 49.2 49.2 0 0019.1 3.2h38.2c9.7 0 14.5 6.7 14.5 19.9V788c0 14.7-5.2 22.1-15.6 22.1l-54.8.1v0zm206.7 64.6c8.2 0 15.4-6.7 21.5-20.2s9.2-32.6 9.2-57.4c0-5.8-3.6-25.7-10.8-59.8L850.5 298.5c-.7-5-1.1-9-1.1-11.9 0-12.9 2.7-19.4 8.1-19.4h65.2c5 0 9.1 1.7 12.4 5.1 3.3 3.4 5.8 10.3 7.5 20.7l70 370.5c1.4 4.3 2.3 6.5 2.7 6.5 1.4 0 2.2-2 2.2-5.9l54.9-369.5a47 47 0 016.7-21.8c3-3.8 6.9-5.7 11.6-5.7h45.2c6.1 0 9.2 7 9.2 21 0 3.2-.4 7.4-1.1 12.4l-95.9 499.3c-7.5 41.3-15.8 72.9-24.8 94.8-9 21.9-19 36.8-30.2 44.7a77.6 77.6 0 01-44.2 12.4h-5.4c-29.1 0-48.8-7.7-59.2-23.2-2.9-3.2-4.3-11.5-4.3-24.8 0-26.6 4.3-39.9 12.9-39.9.7 0 7.2 1.8 19.4 5.4 12.4 3.8 20.3 5.6 23.9 5.6v0zM90.2 810.1c-9 0-13.5-12-13.5-36.1V178.9c0-11.5-2.3-16.9-7-16.2l-43.1 10.8c-7.9.7-11.8-7.2-11.8-23.7V98.1c0-14.3 4.3-22.4 12.9-24.2L170 37.2a19 19 0 014.8-.5c7.9 0 11.8 8.4 11.8 25.3v712c0 24.1-4.7 36.1-14 36.1H90.2v0z"
            fill="var(--chisel-neutral-900)" stroke="var(--chisel-neutral-900)" stroke-width="28"
            stroke-miterlimit="10" />
    </symbol>

    <symbol id="astro" viewBox="0 0 196 79">
        <path fill-rule="evenodd" clip-rule="evenodd"
            d="M50.1666 6.74934C50.7589 7.48456 51.0609 8.47692 51.6648 10.4607L64.8605 53.8086C59.9039 51.2366 54.584 49.4355 49.0844 48.4674L40.4928 19.4338C40.4243 19.2021 40.2827 18.9989 40.0891 18.8545C39.8955 18.71 39.6604 18.6321 39.4188 18.6325C39.1773 18.6328 38.9424 18.7114 38.7492 18.8564C38.556 19.0013 38.415 19.205 38.3472 19.4368L29.8595 48.4528C24.3351 49.4163 18.9908 51.2203 14.0127 53.8022L27.2727 10.451C27.879 8.46991 28.1816 7.47968 28.7739 6.74599C29.2968 6.09797 29.9769 5.59467 30.7495 5.2841C31.6246 4.9325 32.6602 4.9325 34.7318 4.9325H44.203C46.277 4.9325 47.3141 4.9325 48.1901 5.28502C48.9633 5.5962 49.6437 6.10035 50.1666 6.74934Z"
            fill="var(--chisel-neutral-900)" />
        <path fill-rule="evenodd" clip-rule="evenodd"
            d="M51.7456 55.8717C49.5705 57.7318 45.2284 59.0002 40.2272 59.0002C34.0887 59.0002 28.9437 57.0892 27.5787 54.5192C27.0906 55.9923 26.9813 57.6779 26.9813 58.7549C26.9813 58.7549 26.6595 64.0428 30.3374 67.7207C30.3374 65.8109 31.8855 64.2628 33.7953 64.2628C37.0685 64.2628 37.0649 67.1186 37.0618 69.4354V69.6423C37.0618 73.159 39.2111 76.1736 42.2677 77.4442C41.7973 76.4758 41.5536 75.413 41.5551 74.3363C41.5551 70.9823 43.5243 69.7334 45.8128 68.2822C47.6336 67.1274 49.6567 65.8444 51.051 63.2704C51.8018 61.8839 52.1938 60.3316 52.1914 58.7549C52.1914 57.7498 52.0351 56.7809 51.7456 55.8717Z"
            fill="var(--chisel-neutral-900)" />
        <path
            d="M104.556 53.4819L101.532 44.4099H89.004L86.076 53.4819H80.556L91.98 19.9779H98.796L110.22 53.4819H104.556ZM95.388 24.9699H95.148L90.3 39.7539H100.188L95.388 24.9699ZM122.945 54.0579C120.577 54.0579 118.593 53.6419 116.993 52.8099C115.393 51.9779 114.001 50.8259 112.817 49.3539L116.177 46.2819C117.105 47.4019 118.129 48.2819 119.249 48.9219C120.401 49.5299 121.729 49.8339 123.233 49.8339C124.769 49.8339 125.905 49.5459 126.641 48.9699C127.409 48.3619 127.793 47.5299 127.793 46.4739C127.793 45.6739 127.521 45.0019 126.977 44.4579C126.465 43.8819 125.553 43.5139 124.241 43.3539L121.937 43.0659C119.377 42.7459 117.361 42.0099 115.889 40.8579C114.449 39.6739 113.729 37.9299 113.729 35.6259C113.729 34.4099 113.953 33.3379 114.401 32.4099C114.849 31.4499 115.473 30.6499 116.273 30.0099C117.105 29.3379 118.081 28.8259 119.201 28.4739C120.353 28.1219 121.617 27.9459 122.993 27.9459C125.233 27.9459 127.057 28.2979 128.465 29.0019C129.905 29.7059 131.185 30.6819 132.305 31.9299L129.089 35.0019C128.449 34.2339 127.601 33.5779 126.545 33.0339C125.521 32.4579 124.337 32.1699 122.993 32.1699C121.553 32.1699 120.481 32.4579 119.777 33.0339C119.105 33.6099 118.769 34.3619 118.769 35.2899C118.769 36.2499 119.073 36.9699 119.681 37.4499C120.289 37.9299 121.265 38.2819 122.609 38.5059L124.913 38.7939C127.665 39.2099 129.665 40.0259 130.913 41.2419C132.193 42.4259 132.833 44.0259 132.833 46.0419C132.833 47.2579 132.593 48.3619 132.113 49.3539C131.665 50.3139 131.009 51.1459 130.145 51.8499C129.281 52.5539 128.241 53.0979 127.025 53.4819C125.809 53.8659 124.449 54.0579 122.945 54.0579ZM145.328 53.4819C143.504 53.4819 142.128 53.0179 141.2 52.0899C140.272 51.1299 139.808 49.7859 139.808 48.0579V32.7939H135.92V28.5219H138.032C138.896 28.5219 139.488 28.3299 139.808 27.9459C140.16 27.5619 140.336 26.9379 140.336 26.0739V21.7059H145.04V28.5219H150.272V32.7939H145.04V49.2099H149.888V53.4819H145.328ZM155.947 53.4819V28.5219H161.179V33.3219H161.419C161.771 32.0419 162.507 30.9219 163.627 29.9619C164.747 29.0019 166.299 28.5219 168.283 28.5219H169.675V33.5619H167.611C165.531 33.5619 163.931 33.8979 162.811 34.5699C161.723 35.2419 161.179 36.2339 161.179 37.5459V53.4819H155.947ZM183.88 54.0579C182.152 54.0579 180.568 53.7539 179.128 53.1459C177.72 52.5379 176.52 51.6739 175.528 50.5539C174.536 49.4019 173.768 48.0259 173.224 46.4259C172.68 44.7939 172.408 42.9859 172.408 41.0019C172.408 39.0179 172.68 37.2259 173.224 35.6259C173.768 33.9939 174.536 32.6179 175.528 31.4979C176.52 30.3459 177.72 29.4659 179.128 28.8579C180.568 28.2499 182.152 27.9459 183.88 27.9459C185.608 27.9459 187.176 28.2499 188.584 28.8579C190.024 29.4659 191.24 30.3459 192.232 31.4979C193.224 32.6179 193.992 33.9939 194.536 35.6259C195.08 37.2259 195.352 39.0179 195.352 41.0019C195.352 42.9859 195.08 44.7939 194.536 46.4259C193.992 48.0259 193.224 49.4019 192.232 50.5539C191.24 51.6739 190.024 52.5379 188.584 53.1459C187.176 53.7539 185.608 54.0579 183.88 54.0579ZM183.88 49.7379C185.672 49.7379 187.112 49.1939 188.2 48.1059C189.288 46.9859 189.832 45.3219 189.832 43.1139V38.8899C189.832 36.6819 189.288 35.0339 188.2 33.9459C187.112 32.8259 185.672 32.2659 183.88 32.2659C182.088 32.2659 180.648 32.8259 179.56 33.9459C178.472 35.0339 177.928 36.6819 177.928 38.8899V43.1139C177.928 45.3219 178.472 46.9859 179.56 48.1059C180.648 49.1939 182.088 49.7379 183.88 49.7379Z"
            fill="var(--chisel-neutral-900)" />
    </symbol>


    <symbol id="aws" viewBox="0 0 304 182">
        <path
            d="M86.4 66.4c0 3.7.4 6.7 1.1 8.9.8 2.2 1.8 4.6 3.2 7.2.5.8.7 1.6.7 2.3 0 1-.6 2-1.9 3L83.2 92c-.9.6-1.8.9-2.6.9-1 0-2-.5-3-1.4a31 31 0 01-3.6-4.7l-3.1-5.9a37 37 0 01-29.4 13.8c-8.4 0-15.1-2.4-20-7.2a25.7 25.7 0 01-7.4-19.2c0-8.5 3-15.4 9.1-20.6a36.4 36.4 0 0124.5-7.8c3.4 0 6.9.3 10.6.8 3.7.5 7.5 1.3 11.5 2.2v-7.3c0-7.6-1.6-12.9-4.7-16-3.2-3.1-8.6-4.6-16.3-4.6-3.5 0-7.1.4-10.8 1.3A79.7 79.7 0 0023.7 21l-1.6.3c-1.4 0-2.1-1-2.1-3.1v-4.9c0-1.6.2-2.8.7-3.5.5-.7 1.4-1.4 2.8-2.1a60.6 60.6 0 0128.2-6.4c11.9 0 20.6 2.7 26.2 8.1 5.5 5.4 8.3 13.6 8.3 24.6v32.4h.2zM45.8 81.6c3.3 0 6.7-.6 10.3-1.8 3.6-1.2 6.8-3.4 9.5-6.4 1.6-1.9 2.8-4 3.4-6.4.6-2.4 1-5.3 1-8.7v-4.2a83.5 83.5 0 00-18.6-2.3c-6.7 0-11.6 1.3-14.9 4-3.3 2.7-4.9 6.5-4.9 11.5 0 4.7 1.2 8.2 3.7 10.6 2.4 2.5 5.9 3.7 10.5 3.7zm80.3 10.8c-1.8 0-3-.3-3.8-1-.8-.6-1.5-2-2.1-3.9L96.7 10.2c-.6-2-.9-3.3-.9-4 0-1.6.8-2.5 2.4-2.5h9.8c1.9 0 3.2.3 3.9 1 .8.6 1.4 2 2 3.9l16.8 66.2 15.6-66.2c.5-2 1.1-3.3 1.9-3.9.8-.6 2.2-1 4-1h8c1.9 0 3.2.3 4 1 .8.6 1.5 2 1.9 3.9l15.8 67 17.3-67c.6-2 1.3-3.3 2-3.9.8-.6 2.1-1 3.9-1h9.3c1.6 0 2.5.8 2.5 2.5l-.2 1.6-.7 2.5-24.1 77.3c-.6 2-1.3 3.3-2.1 3.9-.8.6-2.1 1-3.8 1h-8.6c-1.9 0-3.2-.3-4-1-.8-.7-1.5-2-1.9-4L156 23l-15.4 64.4c-.5 2-1.1 3.3-1.9 4-.8.7-2.2 1-4 1h-8.6zm128.5 2.7a66.2 66.2 0 01-26.9-5.8c-1.6-.9-2.7-1.9-3.1-2.8a7 7 0 01-.6-2.8v-5.1c0-2.1.8-3.1 2.3-3.1l1.8.3 2.5 1a54.4 54.4 0 0022.9 4.7 27 27 0 0014.6-3.3c3.4-2.2 5.2-5.4 5.2-9.5 0-2.8-.9-5.1-2.7-7a25 25 0 00-10.1-5.2L246 52a30.5 30.5 0 01-16-10.2A23.8 23.8 0 01234.9 8c3-2.3 6.4-4 10.4-5.2a43.6 43.6 0 0119.3-1.3l6.5 1.1 5.7 1.6c1.8.6 3.2 1.2 4.2 1.8 1.4.8 2.4 1.6 3 2.5.6.8.9 1.9.9 3.3v4.7c0 2.1-.8 3.2-2.3 3.2-.8 0-2.1-.4-3.8-1.2a45.7 45.7 0 00-19.2-3.9c-5.7 0-10.2.9-13.3 2.8-3.1 1.9-4.7 4.8-4.7 8.9 0 2.8 1 5.2 3 7.1 2 1.9 5.7 3.8 11 5.5l14.2 4.5a30.4 30.4 0 0115.5 9.6c3.1 4.1 4.6 8.8 4.6 14 0 4.3-.9 8.2-2.6 11.6a26.9 26.9 0 01-7.3 8.8 32.2 32.2 0 01-11.1 5.6 47.6 47.6 0 01-14.3 2.1z"
            fill="var(--chisel-neutral-900)" />
        <path fill-rule="evenodd" clip-rule="evenodd"
            d="M273.5 143.7c-32.9 24.3-80.7 37.2-121.8 37.2A220.3 220.3 0 013 124.2c-3.1-2.8-.3-6.6 3.4-4.4a299.9 299.9 0 00148.8 39.5 297 297 0 00113.5-23.2c5.5-2.5 10.2 3.6 4.8 7.6z"
            fill="var(--chisel-neutral-900)" />
        <path fill-rule="evenodd" clip-rule="evenodd"
            d="M287.2 128.1c-4.2-5.4-27.8-2.6-38.5-1.3-3.2.4-3.7-2.4-.8-4.5 18.8-13.2 49.7-9.4 53.3-5 3.6 4.5-1 35.4-18.6 50.2-2.7 2.3-5.3 1.1-4.1-1.9 4-9.9 12.9-32.2 8.7-37.5z"
            fill="var(--chisel-neutral-900)" />
    </symbol>

    <symbol id="azure" viewBox="0 0 53 16">
        <path
            d="M9.1 14.4l4.6-.8-2.3-2.8L9 7.9l2.5-6.8a1099.8 1099.8 0 018.2 14v.1H4.5l4.6-.8zm29.1-.7c-1.2 0-1.8-.7-2-2V7.4h1v4c0 .6.2 1 .4 1.2l.7.4h.7c.3-.1.6-.2.8-.5.3-.2.4-.6.5-1V7.3h1.1V13.6h-1V13v-.5a2.1 2.1 0 01-2.2 1.1zm11.7 0l-1.2-.3c-.7-.5-1.1-1.3-1.3-2.3V10c.1-.7.4-1.4.8-1.9l.4-.4a2.8 2.8 0 012-.6c.7 0 1.3.4 1.7.8.4.5.6 1.2.6 2v.8h-4.5l.2 1c.1.3.3.6.5.7.3.3.7.4 1.1.5h.8a3.1 3.1 0 001.5-.7v.9l-.1.1c-.5.3-1 .5-1.5.5h-1zm2-4c0-.5-.2-1-.5-1.3-.3-.2-.5-.4-.8-.4h-.7c-.3 0-.6.2-.8.4a2.3 2.3 0 00-.6 1.4h3.4zm-30.4 3.9L23.2 9 25 4.7H26v.1l3.4 8.8h-1.2l-.4-1.2-.5-1.3h-3.7l-.5 1.3-.4 1.2h-1.2zm5.5-3.4a780.8 780.8 0 00-1.7-3.9 246.2 246.2 0 01-1.4 3.9 61.4 61.4 0 003 0zm2.7 3.2v-.1l2-2.6 1.8-2.6H30v-.8H35V7.6L33 10l-1.9 2.6H35v.9h-5.2v-.2zm13.8.2V7.3h1V8.4l.6-.8a1.5 1.5 0 011.2-.5l.4.1v1.1c-.3-.2-.5-.2-.7-.2h-.4l-.7.6a3 3 0 00-.4 1.2v3.7H44a9 9 0 01-.5 0zM0 13.6l2.5-4.4L5 5l3-2.5A1080.9 1080.9 0 0110.7.1L7.6 7l-3 6.7H0z"
            fill="var(--chisel-neutral-900)" />
    </symbol>

    <symbol id="begin" viewBox="0 0 192 57">
        <path
            d="M137.73 38.1a6.56 6.56 0 110-13.13 6.56 6.56 0 010 13.12zm12.1-19.9h-3.9c-.86 0-1.36.58-1.64 1.26a.46.46 0 01-.62.24 13.75 13.75 0 00-5.94-1.42 13.25 13.25 0 105.41 25.32h.01c.54-.26.82-.07.85.32-.09 4.74-2.52 6.85-6.8 6.85a5.87 5.87 0 01-5.19-2.7 1.04 1.04 0 00-.89-.48H126a.83.83 0 00-.82 1.03c1.2 4.46 5.7 8.23 12.22 8.23 9.63 0 13.42-6.4 13.42-13.43V19.2a1 1 0 00-1-1M79.1 38.1a6.57 6.57 0 110-13.14 6.57 6.57 0 010 13.13zm1.94-19.67c-2.64-.4-5.34.02-7.74 1.2-.22.1-.48-.05-.48-.3V7.69a1 1 0 00-1-1h-4.8A1.01 1.01 0 0066 7.69v35.66a1 1 0 001 1h4.25c.6 0 1.12-.36 1.34-.88a.33.33 0 01.46-.17 13.25 13.25 0 108-24.87"
            fill="var(--chisel-neutral-900)" />
        <path fill-rule="evenodd" clip-rule="evenodd"
            d="M190.2 23.02c-1.77-4.6-6.82-6.25-11.4-5.36-1.26.24-2.48.68-3.59 1.3-.08.05-.26.19-.44.3-.18.09-.47 0-.54-.17a1.46 1.46 0 00-1.34-.9h-4.24a1 1 0 00-1 1v24.17c0 .54.43.98.97.98h4.97a.98.98 0 00.98-.98V29.08c0-2.97 1.77-5.3 4.8-5.3 3.32 0 4.73 2.23 4.73 5.1v14.46c0 .56.46 1.02 1.02 1.02H190c.56 0 1.01-.46 1.01-1.02V27.68a13 13 0 00-.8-4.66zm-28.44-4.81h-4.92a1 1 0 00-1 1v24.14a1 1 0 001 1h4.91a1 1 0 001-1V19.21a1 1 0 00-1-1h.01zm-47.8 10.1h-11.3c-.26 0-.46-.21-.42-.46.34-2.1 2.93-4.07 6.07-4.07s5.73 1.98 6.07 4.07c.04.24-.17.46-.43.46zm-5.71-10.1c-7.82 0-13.64 6.8-13.17 14.37a13.16 13.16 0 0012.04 12.1v.02c9.23.67 12.74-4.93 13.73-7.3a.76.76 0 00-.07-.7.75.75 0 00-.63-.32h-5.45c-.32 0-.62.13-.86.34-2.8 2.49-6.64 1.86-7.14 1.76h-.05a7 7 0 01-5-4.4.38.38 0 01.35-.52h18.25c.65 0 1.18-.52 1.18-1.15v-1.3c-.33-6.88-5.36-12.9-13.17-12.9h-.01zM159.3 6.68a3.98 3.98 0 00-3.95 4 3.96 3.96 0 007.9.01c0-2.22-1.73-4-3.95-4M23.63 10.47V.94A.93.93 0 0022.6 0c-4.9.55-9.4 2.48-13.08 5.4a.93.93 0 00-.06 1.38l6.77 6.74c.32.32.82.35 1.2.1a14.33 14.33 0 015.43-2.25.93.93 0 00.78-.91M13.67 33.47a14.18 14.18 0 01-2.25-5.4.94.94 0 00-.92-.78H.94c-.55 0-1 .47-.93 1.02.55 4.9 2.49 9.37 5.42 13.04.34.42.99.45 1.38.06l6.76-6.75a.94.94 0 00.1-1.2M41.48 5.4C37.71 2.42 33.18.55 28.4 0a.93.93 0 00-1.03.94v9.53c0 .45.34.83.78.91 1.95.36 3.8 1.13 5.43 2.24a.94.94 0 001.2-.1l6.76-6.74a.92.92 0 00-.06-1.37M24.84 28.72L9.46 44.05a.92.92 0 00.06 1.38A25.6 25.6 0 0025.5 51a25.6 25.6 0 0015.98-5.57.92.92 0 00.06-1.38L26.16 28.72a.93.93 0 00-1.32 0M13.57 16.17L6.81 9.43a.93.93 0 00-1.38.06C2.43 13.24.55 17.76 0 22.53a.93.93 0 00.93 1.02h9.56c.45 0 .83-.33.9-.78a14.12 14.12 0 012.26-5.4.94.94 0 00-.1-1.2h.01zm26.92 7.38h9.56c.55 0 .99-.48.93-1.02a25.38 25.38 0 00-5.42-13.04.93.93 0 00-1.38-.06l-6.76 6.74a.93.93 0 00-.1 1.2 14.24 14.24 0 012.26 5.4.93.93 0 00.9.78M39.58 28.06a14.12 14.12 0 01-2.25 5.41.93.93 0 00.1 1.2l6.76 6.74a.94.94 0 001.38-.07c3-3.75 4.88-8.27 5.42-13.04a.93.93 0 00-.94-1.02h-9.56a.94.94 0 00-.92.77"
            fill="var(--chisel-neutral-900)" />
    </symbol>

    <symbol id="cloudflare" viewBox="0 0 174 68">
        <path
            d="M76 54V30h9.4c5.4 0 8.6 3.4 8.6 8.1 0 4.8-3.2 8.1-8.7 8.1H81V54h-5zm5-11.9h3.4c3 0 4.4-1.6 4.4-4s-1.5-4-4.4-4H81v8zm19.5 12.2c-3.5 0-6-1.8-6-5.3 0-4 3.2-5.2 6.8-5.6 3-.3 4.3-.4 4.3-1.6 0-1.5-1-2.4-2.6-2.4-1.8 0-3 .9-3.3 2l-4.6-.3c.7-3.3 3.6-5.3 7.9-5.3 4 0 7.6 1.8 7.6 6V54H106v-2.5h-.2c-.8 1.7-2.6 2.8-5.2 2.8zm1.4-3.4c2.2 0 3.8-1.4 3.8-3.3v-2c-.6.5-2.4.7-3.5.9-1.8.2-3 .9-3 2.3s1.2 2 2.7 2zM121.2 61c-4.8 0-7.6-2.1-8.2-5l4.6-.6c.4 1 1.5 2 3.7 2s3.8-1 3.8-3.4v-3.3h-.2c-.7 1.5-2.3 3-5.2 3-4 0-7.3-2.8-7.3-8.8 0-6.2 3.4-9.2 7.3-9.2 3 0 4.5 1.8 5.2 3.2h.2v-3h5v18.2c0 4.6-3.7 7-8.9 7zm.1-11.1c2.4 0 3.8-1.9 3.8-5 0-3.2-1.3-5.3-3.8-5.3-2.4 0-3.8 2.2-3.8 5.2 0 3.1 1.4 5 3.8 5zm19.5 4.4c-5.5 0-8.9-3.6-8.9-9.3 0-5.6 3.4-9.3 8.7-9.3 4.8 0 8.5 3 8.5 9.1v1.4h-12.3c0 2.7 1.6 4.3 4.1 4.3 1.7 0 3-.7 3.5-2l4.6.2c-.7 3.4-3.7 5.6-8.2 5.6zm-4-11.2h7.6a3.6 3.6 0 00-3.7-3.7 3.8 3.8 0 00-3.9 3.7zm29.1-2l-4.5.2c-.3-1.1-1.3-2-3-2-1.6 0-2.8.6-2.8 1.7 0 .9.6 1.4 2.3 1.8l3.3.6c3.5.8 5.2 2.3 5.2 5 0 3.5-3.4 5.9-8 5.9-4.8 0-7.8-2.2-8.2-5.6l4.9-.3c.3 1.5 1.5 2.3 3.3 2.3 1.7 0 2.9-.8 2.9-1.9 0-.9-.8-1.4-2.3-1.8l-3.1-.6c-3.6-.7-5.3-2.4-5.2-5.1 0-3.5 3-5.6 7.6-5.6 4.5 0 7.2 2 7.6 5.3zM84.1 17.9h-2c-.1-1-1-1.7-2-1.7-1.5 0-2.4 1.1-2.4 3 0 2 1 3.2 2.4 3.2 1 0 1.8-.6 2-1.6h2c-.2 1.7-1.6 3.3-4 3.3-2.6 0-4.5-1.7-4.5-4.8 0-3.1 2-4.9 4.4-4.9 2.2 0 3.9 1.3 4.1 3.5zm2.9-3.3V24h-2v-9.4h2zm4.2 9.5c-2.2 0-3.5-1.4-3.5-3.6s1.3-3.7 3.5-3.7c2.1 0 3.5 1.5 3.5 3.7S93.3 24 91.2 24zm0-1.5c1 0 1.5-.9 1.5-2.1 0-1.3-.5-2.2-1.5-2.2s-1.5 1-1.5 2.2c0 1.2.5 2.1 1.5 2.1zM100 21v-4h2v7h-2v-1.3c-.3.8-1.1 1.4-2.2 1.4-1.4 0-2.4-1-2.4-2.7V17h2v4.2c0 .8.5 1.3 1.2 1.3S100 22 100 21zm5.6 3.1c-1.6 0-2.9-1.3-2.9-3.6 0-2.5 1.3-3.7 2.9-3.7a2 2 0 012 1.3v-3.6h2V24h-2v-1.1a2.1 2.1 0 01-2 1.2zm.6-1.6c1 0 1.5-.8 1.5-2 0-1.3-.5-2.1-1.5-2.1s-1.5.8-1.5 2c0 1.3.5 2.2 1.5 2.2zm8.3-5.6v1.5h-1.4V24h-2v-5.6h-1v-1.5h1v-.5c0-1.6 1-2.3 2.3-2.3a5 5 0 011.4.2l-.3 1.5-.6-.1c-.6 0-.8.2-.8.7v.5h1.4zm2.6-2.3V24h-2v-9.4h2zm3 9.5c-1.3 0-2.3-.7-2.3-2 0-1.7 1.3-2.1 2.7-2.3 1.2 0 1.7-.1 1.7-.6 0-.6-.4-1-1-1-.8 0-1.2.4-1.3.9l-1.8-.2c.2-1.3 1.4-2 3-2s3 .6 3 2.3V24h-1.8v-1c-.4.7-1 1.1-2.1 1.1zm.6-1.3c.9 0 1.5-.6 1.5-1.3v-.8c-.2.2-1 .3-1.4.3-.7.1-1.1.4-1.1 1 0 .5.4.8 1 .8zm4.4 1.2v-7.1h2v1.3c.3-1 1-1.4 1.7-1.4h.6v1.8h-.8c-.8 0-1.5.5-1.5 1.4v4h-2zm7.7.1c-2.2 0-3.5-1.4-3.5-3.6s1.3-3.7 3.4-3.7c2 0 3.4 1.2 3.4 3.6v.6h-4.9c0 1 .7 1.7 1.6 1.7.7 0 1.2-.3 1.4-.8h1.8c-.3 1.4-1.4 2.2-3.2 2.2zm-1.6-4.4h3c0-.8-.6-1.4-1.4-1.4a1.5 1.5 0 00-1.6 1.4zM46 10h14l2 2v44l-2 2H40.8l1-1.5h17.6l1.1-1.1V12.6l-1.1-1.1H47.3l-1.5 7.4h-1.5l1.4-7.5.3-1.4zM12 58l-2-2V12l2-2h19.9l-1 1.5H12.6l-1.1 1.1v42.8l1.1 1.1h14.5l-.2 1.5H12zm3-5h8.5l-.3 1.5H14l-.5-.5v-9l1.5 3v5zm34 0l1.5 1.5H43l1-1.5h5z"
            fill="var(--chisel-neutral-900)" />
        <path
            d="M32.7 40H19l-1.7-3.1 23-34L44 4.4 39.4 28H53l1.7 3-22 34-3.7-1.3L32.7 40zM15.5 17a1.5 1.5 0 110-3 1.5 1.5 0 010 3zm4 0a1.5 1.5 0 110-3 1.5 1.5 0 010 3zm4 0a1.5 1.5 0 110-3 1.5 1.5 0 010 3z"
            fill="var(--chisel-neutral-900)" />
    </symbol>

    <symbol id="digitalocean" viewBox="0 0 603 103">
        <path fill="var(--chisel-neutral-900)"
            d="M52.1 102.1V82.5a31.1 31.1 0 0011.4-59.9 31.1 31.1 0 00-42.4 28.9H1.5c0-33.1 32-58.9 66.7-48.1a50.8 50.8 0 01-16.1 98.7z" />
        <path fill="var(--chisel-neutral-900)" class="st0"
            d="M52.1 82.5H32.6V63h19.5zM32.6 97.5h-15v-15h15zM17.6 82.5H5V70h12.6z" />
        <path id="XMLID_2635_"
            d="M181.5 30.2a37 37 0 00-21.4-6.1h-18.3v58.1h18.3a35 35 0 0021.4-6.4c3.2-2.2 5.7-5.4 7.4-9.3s2.6-8.5 2.6-13.7a34 34 0 00-2.6-13.6 20.6 20.6 0 00-7.4-9zm-29 3.8h5.8c6.4 0 11.7 1.3 15.7 3.7 4.4 2.7 6.7 7.8 6.7 15.1 0 7.6-2.3 12.9-6.7 15.8a28.3 28.3 0 01-15.6 3.8h-5.8l-.1-38.4z" />
        <path fill="var(--chisel-neutral-900)"
            d="M204.3 23.4c-1.8 0-3.3.6-4.5 1.8a6.1 6.1 0 00-1.9 4.4c0 1.8.6 3.3 1.9 4.5 1.2 1.2 2.7 1.9 4.5 1.9s3.3-.6 4.5-1.9a6.4 6.4 0 001.9-4.5c0-1.8-.6-3.3-1.9-4.4a6.3 6.3 0 00-4.5-1.8zM199 41.3h10.3v41H199zM246.8 44.7a15.4 15.4 0 00-10.3-4.4 19 19 0 00-14.1 5.8 20.3 20.3 0 00-5.5 14.7c0 5.8 1.8 10.7 5.5 14.7a19 19 0 0014.1 5.8c4 0 7.4-1.1 10.2-3.3v1c0 3.4-.9 6-2.7 7.9a10 10 0 01-7.4 2.7c-4.8 0-7.7-1.9-11.4-6.8l-7 6.7.2.3a25 25 0 006.9 6.2c3.1 2 6.9 3 11.5 3 6.1 0 11.1-1.9 14.7-5.6 3.7-3.7 5.5-8.7 5.5-14.9V41.3h-10.1l-.1 3.4zm-2.7 24.2c-1.8 2-4.1 3-7.1 3s-5.3-1-7-3c-1.8-2-2.7-4.7-2.7-8s.9-6.1 2.7-8.1 4.1-3.1 7-3.1c3 0 5.3 1 7.1 3.1 1.8 2 2.7 4.8 2.7 8.1s-1 6-2.7 8zM265.7 41.3H276v41h-10.3zM271 23.4c-1.8 0-3.3.6-4.5 1.8a6.1 6.1 0 00-1.9 4.4c0 1.8.6 3.3 1.9 4.5 1.2 1.2 2.7 1.9 4.5 1.9s3.3-.6 4.5-1.9a6.4 6.4 0 001.9-4.5c0-1.8-.6-3.3-1.9-4.4a6.3 6.3 0 00-4.5-1.8zM298.6 30.3h-10.1v11.1h-5.9v9.4h5.9v17c0 5.3 1.1 9.1 3.2 11.3 2.1 2.2 5.8 3.3 11.1 3.3l5-.2h.5v-9.4l-3.5.2c-2.5 0-4.1-.4-4.9-1.3s-1.2-2.7-1.2-5.4V50.7h9.6v-9.4h-9.6v-11h-.1zM356.5 24.1h10.3v58.1h-10.3zM470.9 67.6a24.4 24.4 0 01-5.2 4.8 9.7 9.7 0 01-5.3 1.4c-3 0-5.5-1.1-7.5-3.4s-3-5.2-3-8.7 1-6.4 2.9-8.6c2-2.3 4.4-3.4 7.4-3.4 3.3 0 6.8 2.1 9.8 5.6l6.8-6.5a20.2 20.2 0 00-16.9-8.5c-5.7 0-10.6 2.1-14.6 6.1s-6 9.2-6 15.3 2 11.2 6 15.3 8.9 6.1 14.6 6.1c7.5 0 13.5-3.2 17.5-9.1l-6.5-6.4zM513.2 47c-1.5-2-3.5-3.7-5.9-4.9a19.3 19.3 0 00-8.5-1.8c-5.8 0-10.5 2.1-14 6.3a23.7 23.7 0 00-5.2 15.4c0 6.2 1.9 11.3 5.7 15.3 3.7 3.9 8.8 5.9 14.9 5.9 6.9 0 12.7-2.8 16.9-8.4l.2-.3-6.7-6.5c-.6.8-1.5 1.6-2.3 2.4a11 11 0 01-8.2 3.3c-2.9 0-5.2-.8-7-2.5a8.9 8.9 0 01-2.9-6.2h27.3l.1-3.8a22.7 22.7 0 00-4.4-14.2zm-22.5 9.7c.5-2 1.4-3.6 2.7-4.9a7.3 7.3 0 015.4-2.1c2.5 0 4.4.7 5.7 2.1a8.1 8.1 0 012.1 4.8h-15.9v.1zM552.8 44.4c-3.1-2.7-7.4-4-12.8-4-3.4 0-6.6.8-9.5 2.2a17 17 0 00-7 6.6l.1.1 6.6 6.3c2.7-4.3 5.7-5.8 9.7-5.8 2.2 0 3.9.6 5.3 1.7s2 2.6 2 4.4v2c-2.6-.8-5.1-1.2-7.6-1.2-5.1 0-9.3 1.2-12.4 3.6a12.3 12.3 0 00-4.7 10.2c0 3.8 1.3 7 4 9.3 2.7 2.2 6 3.4 9.9 3.4s7.6-1.6 10.9-4.3v3.4h10.1V55.9c.2-4.9-1.4-8.8-4.6-11.5zm-18.3 22.2a8.7 8.7 0 014.9-1.2c2.5 0 5.1.5 7.8 1.5v4a12.4 12.4 0 01-8.9 3.1c-1.8 0-3.2-.4-4.1-1.2-.9-.8-1.4-1.7-1.4-3s.6-2.4 1.7-3.2zM597.2 45.2a15.4 15.4 0 00-12-4.8 14 14 0 00-9.9 3.5v-2.5h-10.1v41h10.3V59.7c0-3.1.7-5.6 2.2-7.3 1.5-1.8 3.4-2.6 6.1-2.6 2.3 0 4.1.8 5.4 2.3 1.3 1.6 2 3.7 2 6.4v23.7h10.3V58.5c0-5.6-1.4-10.1-4.3-13.3zM343.6 44.4c-3.1-2.7-7.4-4-12.8-4-3.4 0-6.6.8-9.5 2.2a17 17 0 00-7 6.6l.1.1 6.6 6.3c2.7-4.3 5.7-5.8 9.7-5.8 2.2 0 3.9.6 5.3 1.7s2 2.6 2 4.4v2c-2.6-.8-5.1-1.2-7.6-1.2-5.1 0-9.3 1.2-12.4 3.6a12.3 12.3 0 00-4.7 10.2c0 3.8 1.3 7 4 9.3 2.7 2.2 6 3.4 9.9 3.4s7.6-1.6 10.9-4.3v3.4h10.1V55.9c.1-4.9-1.5-8.8-4.6-11.5zm-18.3 22.2a8.7 8.7 0 014.9-1.2c2.5 0 5.1.5 7.8 1.5v4a12.4 12.4 0 01-8.9 3.1c-1.8 0-3.2-.4-4.1-1.2a3.7 3.7 0 01-1.4-3c0-1.3.5-2.4 1.7-3.2zM404.2 83.1a30 30 0 110-60 30 30 0 010 60zm0-49.3a19.4 19.4 0 100 38.8 19.4 19.4 0 000-38.8z" />
    </symbol>

    <symbol id="firebase" viewBox="0 0 239 68">
        <path
            d="M72.2 52.7h-4.5V17.6H88v4.3H72.2v11.5h14.2v4.2H72.2v15zm24-30c-1 1-2.7 1.2-4 .4a3.2 3.2 0 01-1-4 3.1 3.1 0 016 1.3 3 3 0 01-1 2.2zm0 30h-4.4v-24h4.5v24zm9.8 0h-4.4v-24h4.2v3.9h.2a6.1 6.1 0 012.8-3.2 7.9 7.9 0 014-1.3c1.2 0 2.3.2 3.4.6l-1.7 4.2c-.8-.3-1.6-.4-2.4-.4-1.6 0-3.2.8-4.2 2a7 7 0 00-2 5l.1 13.2zm22.3.7c-3.5 0-6.4-1.2-8.7-3.6a13 13 0 01-3.3-9.1c0-3.3 1-6.6 3.2-9 2.1-2.5 5.2-3.9 8.4-3.8 3.5 0 6.3 1.1 8.4 3.5 2.1 2.3 3.2 5.4 3.1 9.3v.8h-18.7c.1 2.4 1 4.3 2.4 5.8a7.2 7.2 0 005.1 2c3.2 0 5.4-1.3 6.5-4l4 1.6a10.7 10.7 0 01-10.4 6.5zm6.4-15.6c0-1.4-.7-2.7-1.8-4-1.2-1.2-2.9-1.8-5.1-1.8-1.6 0-3.1.5-4.3 1.6a8 8 0 00-2.5 4.2h13.7zm20.8 15.6a10 10 0 01-4.8-1.1 8.2 8.2 0 01-3.2-3h-.2v3.4H143V17.6h4.5v11l-.2 3.4h.2a8.2 8.2 0 013.2-3 10.3 10.3 0 0112.8 2.5 13 13 0 013.2 9.2 13 13 0 01-3.3 9 10.3 10.3 0 01-8 3.7zm-.7-4c2 0 4-1 5.3-2.4a8.9 8.9 0 002.2-6.3c0-2.7-.7-4.8-2.2-6.3a7.2 7.2 0 00-10.7 0 8.9 8.9 0 00-2.2 6.3c0 2.6.8 4.7 2.3 6.3a7 7 0 005.3 2.4zm23.2 4c-2.5 0-4.6-.7-6.2-2.2a7.4 7.4 0 01-2.6-5.8c0-2.6 1-4.6 3-6.1a12 12 0 017.4-2.3c2.6 0 4.7.5 6.4 1.5v-.7c0-1.6-.6-3.1-1.8-4.2a6.3 6.3 0 00-4.4-1.6c-1.2 0-2.4.3-3.5 1-1 .5-1.7 1.4-2.1 2.5l-4-1.8a9.4 9.4 0 013.2-4c1.6-1.2 3.7-1.8 6.3-1.8 3 0 5.6.9 7.6 2.7 2 1.7 3 4.3 3 7.6v14.5H186v-3.3h-.2a8.7 8.7 0 01-7.8 4zm.8-4c1.8 0 3.6-.8 5-2.1s2.2-3 2.2-5c-1.2-1-3.1-1.5-5.6-1.5-2.2 0-3.8.5-4.9 1.4-1 .8-1.6 2-1.6 3.3 0 1.2.5 2.2 1.5 2.8 1 .7 2.2 1 3.4 1zm24.5 4a10.5 10.5 0 01-10.3-6.8l4-1.7c1.2 3 3.4 4.5 6.4 4.5 1.2 0 2.4-.2 3.4-.9.8-.5 1.3-1.5 1.3-2.4 0-1.6-1-2.7-3.2-3.2l-4.8-1.2c-1.6-.4-3-1.2-4.3-2.2-1.3-1.1-2-2.7-2-4.5a6 6 0 012.8-5.1c1.9-1.4 4.2-2 6.5-2 2 0 4 .5 5.6 1.4 1.6 1 2.9 2.4 3.6 4.2l-3.9 1.6c-.9-2.1-2.7-3.2-5.4-3.2-1.2 0-2.3.2-3.3.8-.9.5-1.4 1.3-1.4 2.3 0 1.4 1 2.3 3.2 2.8l4.6 1.1c2.3.5 3.9 1.4 5 2.7 1 1.2 1.6 2.7 1.5 4.3 0 2.1-.9 4.1-2.6 5.4-1.7 1.4-4 2.1-6.7 2.1zm24 0c-3.6 0-6.5-1.2-8.8-3.6a13 13 0 01-3.3-9.1c-.1-3.4 1-6.6 3.2-9 2-2.5 5.2-3.9 8.4-3.8 3.5 0 6.3 1.1 8.4 3.5 2 2.3 3.1 5.4 3.1 9.3v.8h-18.7c.1 2.4 1 4.3 2.4 5.8a7.2 7.2 0 005.1 2c3.2 0 5.4-1.3 6.5-4l4 1.6a10.7 10.7 0 01-10.4 6.5zm6.3-15.6c-.1-1.4-.7-2.7-1.9-4-1.1-1.2-2.8-1.8-5-1.8-1.6 0-3.1.5-4.3 1.6a8 8 0 00-2.5 4.2h13.7zM2.2 44.3L8.8 1.7c0-.6.6-1.2 1.2-1.3.7 0 1.3.2 1.6.8l7.1 13.4L2.2 44.3zm47 10.3l-6.3-39.2c-.1-.5-.5-1-1-1.2-.6-.1-1.2 0-1.6.4L.5 54.6l22 12.4c1.4.8 3.1.8 4.5 0l22.2-12.4zm-18-34.2l-5-9.7a1.5 1.5 0 00-2.7 0l-22.4 40 30.2-30.3z"
            fill="var(--chisel-neutral-900)" />
    </symbol>

    <symbol id="netlify" viewBox="0 0 168 60">
        <path fill-rule="evenodd" clip-rule="evenodd"
            d="M42.4 21.3l.8.5 5.9-2.4v-.1l-5.5-5.5-1.3 7.4zm-12.2-5l.6 1.5 8.7 3.8c.3-.3.6-.4 1-.5V21l1.5-8.8V12l-5.5-5.4h-.1l-6.2 9.5v.1zM60 30l-9.4-9.3-6.4 2.7v.1L60 30.2V30c.1 0 .1-.1 0-.1zm-1.6 1.5l-15-6.4c-.5.6-1 1-1.8 1v.1l-1.7 9.9c.6.5 1 1.1 1 1.8v.1l9.2 2v-.1l8.3-8.3v-.1zM38.6 23l-8.2-3.5h-.1a3 3 0 01-2.5 1.4h-.5-.1l-6.8 10.5h.1l18-7.6V23.5l.1-.4V23zm9.8 18.3l-8-1.7c-.3.4-.7.7-1.2 1l-2 11.7.1.1h.1l11-11h.1v-.1zm-11-.8c-.8-.3-1.4-1-1.6-1.8L21 35.6h-.1l-.3.4 13.5 19.5 1-.8 2.2-14.2zm-16.1-6.7L36 37c.5-.7 1.3-1.2 2.1-1.3h.1l1.6-9.8-.4-.3-18.2 7.7v.7zM15 36.3L15 36h-.1l-6.3 2.6v.1l3 3.1h.2l3.4-5.4zm4.2 1h-.1a3.4 3.4 0 01-2.5 0l-.1.1-3.7 5.7v.2L29.7 60h.1l3-3-13.5-19.7zm-2.4-6.6h.9l.9.1 7-10.6V20a3 3 0 01-.9-2.8l-8.5-3.7h-.1l-6.5 6.5 7.2 10.6zm.8-18.4l8 3.4h.1a3.1 3.1 0 013-.5V15l6.3-9.8L30 0h-.1L17.7 12v.1zm-3 20.3l.7-1-7-10.1h-.1l-8.1 8 14.5 3zm-.7 1.7L1.3 31.5c-.1.1 0 .2 0 .2l5.5 5.5H7l7-2.9zM122 15.1h4v26.3h-4V15zm-41.7 7.4c-2.2 0-4 .8-5.3 2.5l-.1-2.2H71v18.5h4.1V28.2a4 4 0 013.7-2.3c1 0 2 .3 2.4.9.5.5.8 1.4.8 2.6v12h4V29c0-4.4-2-6.6-5.7-6.6zm17.6 0a7.7 7.7 0 00-7.2 4.6c-.7 1.5-1 3.1-1 5v.5c0 2.7.8 5 2.4 6.6a8.3 8.3 0 006.2 2.5c1.6 0 3-.3 4.1-1a7.1 7.1 0 003-2.5l-2.2-2.1a5.5 5.5 0 01-4.6 2.3c-1.3 0-2.4-.5-3.3-1.3-.9-1-1.4-2.1-1.5-3.7h11.9v-1.6c0-3-.7-5.3-2-6.9a7.2 7.2 0 00-5.8-2.4zm3.7 7.9h-7.8a6 6 0 011.3-3.3c.7-.9 1.6-1.2 2.8-1.2 1 0 2 .3 2.6 1 .7.7 1 1.8 1.1 3.2v.3zm13.2 7.4c-.3-.3-.4-.8-.4-1.5V25.9h3.2v-3h-3.2v-4.5h-4v4.4h-3V26h3v10.5c0 3.5 1.5 5.3 4.7 5.3.8 0 1.7-.1 2.7-.4V38l-1.5.1c-.7 0-1.2 0-1.5-.4zm17.5-15h4.1v18.6h-4V22.9zm27.2 12.6L155.7 23h-4.4l6.4 18.4-.6 1.6c-.3.9-.7 1.5-1.3 1.9a4 4 0 01-2.3.6l-.7-.1v3.2c.7.2 1.3.3 2 .3 2.6 0 4.4-1.5 5.6-4.6l7.2-21.3h-4.4l-3.7 12.5zm-15-19c-1.2 1.1-1.8 2.7-1.8 4.8v1.7H140v3h2.8v15.5h4.1V25.9h3.7v-3h-3.7v-1.7c0-2 1-3 3-3l1.5.1v-3.2c-.7-.3-1.5-.4-2.2-.4-2 0-3.6.6-4.7 1.7zm-8-1.7v3.7h-4.2v-3.7h4.1z"
            fill="var(--chisel-neutral-900)" />
    </symbol>

    <symbol id="nextjs" viewBox="0 0 148 90">
        <path
            d="M35 23.5h27.8v2.2H37.5v16.7h23.8v2.2H37.5V63h25.6v2.2H35V23.5zm30.3 0h3l13.1 18.3 13.4-18.3L113.1.2 83 43.8l15.4 21.4h-3l-14-19.5-14.2 19.5h-3l15.5-21.4-14.5-20.3zm34.3 2.2v-2.2h31.8v2.2h-14.6v39.5h-2.6V25.7H99.6zM.1 23.5h3.2l44 66-18.1-24.3L2.8 26.6l-.1 38.6H.1V23.5zm131 38.8c-.5 0-.9-.4-.9-1 0-.5.4-.9 1-.9.5 0 .8.4.8 1 0 .5-.3.9-.9.9zm2.5-2.4h1.4c0 .7.6 1.2 1.4 1.2.8 0 1.3-.5 1.3-1.5v-6.4h1.4v6.4c0 1.8-1 2.8-2.7 2.8-1.7 0-2.8-1-2.8-2.5zm7.4-.1h1.3c.2.8 1 1.4 2.2 1.4 1.1 0 2-.6 2-1.4 0-.7-.6-1.1-1.8-1.4l-1.1-.3c-1.7-.3-2.4-1.1-2.4-2.5 0-1.6 1.3-2.6 3.3-2.6 1.8 0 3.1 1 3.2 2.6h-1.4c-.1-.9-.8-1.4-1.9-1.4-1 0-1.8.5-1.8 1.4 0 .6.5 1 1.6 1.2l1 .3c1.9.4 2.6 1.2 2.6 2.5 0 1.7-1.3 2.8-3.4 2.8-2 0-3.3-1-3.4-2.6z"
            fill="var(--chisel-neutral-900)" />
    </symbol>

    <symbol id="nuxtjs" viewBox="0 0 556 98">
        <path fill-rule="evenodd" clip-rule="evenodd"
            d="M74.4 3.7c1 1.1 1.7 2.6 1.6 4.2v81.5a7 7 0 01-1.8 4.7 6.2 6.2 0 01-4.6 1.9c-1 0-2-.2-3-.5a5 5 0 01-2.1-1.4L11.7 25.4V90a5.7 5.7 0 01-6 5.9c-1.5 0-3-.6-4-1.7-1-1-1.7-2.6-1.7-4.1V8.4C0 6.7.7 5 2 3.8A6 6 0 016.3 2c1 0 2.1.2 3 .6 1 .3 1.8 1 2.4 1.7l52.5 68.9V7.9a5.7 5.7 0 016-5.9 5 5 0 014 1.7h.2zm108.7.2c1.1 1.3 1.8 3 1.7 4.6v51.6c.1 6.6-1.5 13.2-4.7 19a35.5 35.5 0 01-31.6 18.2 39 39 0 01-18.8-4.8 34 34 0 01-13-13.2 38.6 38.6 0 01-4.7-19.1V8.6a6 6 0 012-4.6 6.7 6.7 0 019.3 0 6.4 6.4 0 011.9 4.6V60c-.1 4.4 1 8.7 3.2 12.6a23.2 23.2 0 0029.4 9.9A24 24 0 00172.6 60V8.6c0-1.7.5-3.4 1.6-4.7 1.2-1.3 2.8-2 4.5-1.9a6 6 0 014.4 1.9zM287 85.7a6.3 6.3 0 011.1 3.8c.1 1.7-.6 3.4-1.9 4.6a6.4 6.4 0 01-4.3 1.7c-2.1.1-4.1-1-5.3-2.7l-26-34.8L225 93.1a6.2 6.2 0 01-5.2 2.8c-1.6 0-3-.6-4.1-1.7-1-1-1.7-2.4-1.7-3.8a7 7 0 011.6-4.4l27.6-37.5-27.7-37.2a6.2 6.2 0 01.5-8.4 6.3 6.3 0 017.4-1.2 6 6 0 012.4 2l25.8 34.6L277 4c1.1-1.7 3-2.8 5.1-3a6 6 0 014.3 2 6 6 0 011.9 4c0 1.5-.5 2.8-1.4 4l-28 37.2 28 37.5h.1zm96.5-82c1.2 1.1 2 2.8 1.9 4.5 0 1.7-.7 3.3-2 4.4a6.3 6.3 0 01-4.6 1.6H355v75.4a6 6 0 01-1.9 4.5 7.4 7.4 0 01-9.8 0 6.2 6.2 0 01-2-4.5V14.2h-23.8c-1.7 0-3.3-.5-4.6-1.7A5.9 5.9 0 01311 8c0-1.6.6-3.2 1.8-4.3 1.3-1.2 3-1.8 4.6-1.7h61.4c1.7 0 3.4.5 4.7 1.7zM412.7 93.6a28 28 0 01-10.5-10.3c-.7-1-1.1-2.3-1.2-3.6 0-1.7.7-3.3 2-4.4a6.7 6.7 0 014.2-2c2.4.3 4.6 1.5 6 3.4 3 5 8.4 8 14.1 7.8A17.2 17.2 0 00445 67.3V8.5a6 6 0 012-4.6 7 7 0 019.5-.1 6.3 6.3 0 011.8 4.6v59a29 29 0 01-15 26 31.2 31.2 0 01-30.5.2h-.1zm92.5.4c-5.3-2-10.2-5-14.4-9a7.2 7.2 0 01-2.8-5.4 6 6 0 012-4.4 6 6 0 014.3-1.9c1.5 0 2.8.5 3.9 1.5 3.2 3 7 5.5 11 7.3 4.2 1.6 8.6 2.4 13 2.4 5 .1 10-1.2 14.3-4 3.5-2 5.8-5.7 5.8-9.8.1-4.3-2.1-8.4-5.8-10.8a52 52 0 00-17.4-6.3c-9.2-2-16.3-5-21.3-9.3-5-4.3-7.4-10.3-7.4-17.9-.1-5 1.3-9.9 4.2-14 2.9-4 6.8-7.2 11.4-9.2a45.5 45.5 0 0132.4-.5 33 33 0 0112 7.1c1.8 1.4 3 3.5 3 5.7a6 6 0 01-1.8 4.3 5.7 5.7 0 01-4.4 2c-1 0-2.2-.4-3-1.1a32.1 32.1 0 00-21.4-8.2c-5-.3-10 1-14.3 3.6a11.9 11.9 0 000 19.8 50 50 0 0015.8 6c5.9 1.1 11.6 3 17.1 5.3a24 24 0 0110.3 8.6 26 26 0 013.6 14.4c.1 5-1.4 9.8-4.3 13.8-3 4.2-7.2 7.4-12 9.4a49.8 49.8 0 01-33.9.6h.1z"
            fill="var(--chisel-neutral-900)" />
    </symbol>

    <symbol id="render" viewBox="0 0 786 171">
        <path
            d="M287 79.1c-10 0-17.8 2.6-25.5 6.7v74.4c0 2-1.7 3.9-3.7 3.9h-17c-2 0-3.7-1.8-3.7-3.9V63.4c0-2 1.7-3.7 3.7-3.7h16.1c2 0 3.7 1.7 3.7 3.7v3.9c9.1-7 19.1-8.9 26.5-8.9 2 0 3.7 1.7 3.7 3.7v13.3a4 4 0 01-3.8 3.7zM384.5 120.3h-60.3v.6c0 10.7 4.4 23.5 22.2 23.5 13.5 0 26.3-1.1 34-1.9h.6c1.9 0 3.3.9 3.3 2.8v12.2c0 3-.6 4.3-3.9 4.8-12 2.2-19.2 3.1-35.9 3.1-18.5 0-44.8-10-44.8-46.4v-13.7c0-28.9 16.1-47 44.4-47 28.5 0 44 19.4 44 47v10.4c.1 3-1 4.6-3.6 4.6zm-20.9-18.1c0-14.4-8-22.8-19.4-22.8-11.4 0-19.8 8.1-19.8 22.8v.7h39.2v-.7zM490.8 164h-17c-2 0-3.7-1.8-3.7-3.9V99.8c0-16.1-1.5-20.7-15.7-20.7-6.3 0-13.1 2.6-20.9 6.7v74.4c0 2-1.7 3.9-3.7 3.9h-17c-2 0-3.7-1.8-3.7-3.9V63.4c0-2 1.7-3.7 3.7-3.7h16.1c2 0 3.7 1.7 3.7 3.7v3.9a48.3 48.3 0 0130-8.9c26.6 0 32 17.9 32 41.4v60.3c-.1 2.1-1.7 3.9-3.8 3.9zM596.3 160.7c-11.5 3-25.3 4.8-37.2 4.8-29.8 0-44.2-17.6-44.2-46.4v-14.2c0-28.9 14.4-46.4 44.2-46.4 4.4 0 10.9.4 17.8 1.3V27.1c0-2 1.7-3.7 3.7-3.7h17c2 0 3.7 1.7 3.7 3.7v128.8c0 2.6-.8 3.7-5 4.8zm-19.4-81.1a164 164 0 00-17.8-1.3c-15.9 0-19.8 11.3-19.8 26.5V119c0 15.2 3.9 26.5 19.8 26.5 6.7 0 14.2-.6 17.8-1.3V79.6zM706.9 120.3h-60.3v.6c0 10.7 4.4 23.5 22.2 23.5 13.5 0 26.3-1.1 34-1.9h.6c1.8 0 3.3.9 3.3 2.8v12.2c0 3-.6 4.3-3.9 4.8-12 2.2-19.2 3.1-35.9 3.1-18.5 0-44.8-10-44.8-46.4v-13.7c0-28.9 16.1-47 44.4-47 28.5 0 44 19.4 44 47v10.4c.1 3-1 4.6-3.6 4.6zM686 102.2c0-14.4-8-22.8-19.4-22.8-11.5 0-19.8 8.1-19.8 22.8v.7H686v-.7zM781.5 79.1c-10 0-17.8 2.6-25.5 6.7v74.4c0 2-1.7 3.9-3.7 3.9h-17c-2 0-3.7-1.8-3.7-3.9V63.4c0-2 1.7-3.7 3.7-3.7h16.1c2 0 3.7 1.7 3.7 3.7v3.9c9.1-7 19.1-8.9 26.5-8.9 2 0 3.7 1.7 3.7 3.7v13.3a4 4 0 01-3.8 3.7zM113.3 0h-2v22.6h22.6V0h-20.6zM53.5 0A53 53 0 004.2 32.7 53 53 0 000 53.5v80.4h22.6V53.2a32 32 0 0131-30.6h43.2V0H53.5zM150.4 74.2h-2v22.6H171V74.2h-20.6zM150.4 37.1h-2v22.6H171V37.1h-20.6zM169 0h-20.6v22.6H171V0h-2zM150.4 111.3h-2v22.6H171v-22.6h-20.6zM150.4 148.4h-2V171H171v-22.6h-20.6zM113.3 148.4h-2V171h22.6v-22.6h-20.6zM76.2 148.4h-2V171h22.6v-22.6H76.2zM39.1 148.4h-2V171h22.6v-22.6H39.1zM2 148.4H0V171h22.6v-22.6H2z"
            fill="var(--chisel-neutral-900)" />
    </symbol>

    <symbol id="sveltekit" viewBox="0 0 688.8 139">
        <path
            d="M547.5 99.3l-16.8-31.2L520.2 81v18.4h-8.9V39.7h8.9v28.9l23-29h10.2l-16.7 21L558 99.3zm29.6 0V39.7h8.9v59.6zm55-51.1v51.1h-8.8V48.2h-16.9v-8.5H649v8.5z"
            fill="var(--chisel-neutral-900)" />
        <path data-name="svelte"
            d="M172.4 100.3a24 24 0 01-13.7-3.8 19.9 19.9 0 01-8-10.6l8.4-3.1a15.4 15.4 0 005.4 6.6 14.4 14.4 0 008.3 2.4 12.1 12.1 0 007.9-2.4 8.3 8.3 0 003-6.8 7.5 7.5 0 00-.9-3.4 10.3 10.3 0 00-1.8-2.6 12.3 12.3 0 00-3.2-2.1l-3.5-1.6-4.2-1.5q-3.4-1.2-5-2a38.5 38.5 0 01-4.5-2.2 16.5 16.5 0 01-4.2-3.1 15.3 15.3 0 01-2.5-4.2 14.8 14.8 0 014-16.7q5-4.6 13.9-4.6 7.3 0 12 3.3a15.7 15.7 0 016.4 8.6l-8.2 2.7a9.5 9.5 0 00-4-4.4 13.3 13.3 0 00-7-1.6 10.7 10.7 0 00-6.6 1.8 6.3 6.3 0 00-2.4 5.3 5.5 5.5 0 001.8 4.1 12.9 12.9 0 004 2.6q2 .9 6.2 2.3l3.8 1.5 3.6 1.5a25.1 25.1 0 013.6 2 32 32 0 013 2.5 12.7 12.7 0 012.6 3 17.3 17.3 0 011.6 3.9 17.6 17.6 0 01.6 4.8q0 8.4-5.7 13.1t-14.7 4.7zm54.7-1l-20.5-59.6h9.6l13.5 41.5a64.8 64.8 0 011.9 6.9 63.8 63.8 0 011.9-6.8l13.3-41.6h9.5l-20.4 59.6zm47.3 0V39.7h37V48h-28.2v16.4h18.2v8.3h-18.2V91h30v8.3zm61.4 0V39.7h8.9v51h29.1v8.6zm71.4-51.1v51.1h-8.9V48.2h-16.8v-8.5H424v8.5zm35.2 51.1V39.7h37V48h-28.1v16.4h18.1v8.3h-18.1V91h30v8.3z"
            fill="var(--chisel-neutral-900)" />
        <path
            d="M110.3 28.3a34.2 34.2 0 00-45.8-9.8L38.5 35a30 30 0 00-13.6 20A31.5 31.5 0 0028 75.5a30 30 0 00-4.5 11.2 31.9 31.9 0 005.5 24 34.2 34.2 0 0045.8 10l26-16.7a30 30 0 0013.6-20 31.5 31.5 0 00-3.1-20.3 30 30 0 004.4-11.2 31.9 31.9 0 00-5.4-24"
            fill="var(--chisel-neutral-900)" />
        <path
            d="M62 112a20.7 20.7 0 01-22.3-8.2 19.2 19.2 0 01-3.3-14.5 18.1 18.1 0 01.7-2.4l.4-1.5 1.4 1a33.6 33.6 0 0010.2 5l1 .4-.1 1a5.8 5.8 0 001 3.8 6.2 6.2 0 006.7 2.5 5.7 5.7 0 001.6-.7l26.1-16.6a5.4 5.4 0 002.4-3.6 5.8 5.8 0 00-1-4.4 6.2 6.2 0 00-6.6-2.5 5.7 5.7 0 00-1.6.7l-10 6.3a19 19 0 01-5.3 2.4 20.7 20.7 0 01-22.2-8.3A19.2 19.2 0 0137.8 58a18 18 0 018.1-12L72 29.2a19 19 0 015.3-2.3 20.7 20.7 0 0122.3 8.3 19.2 19.2 0 013.2 14.5 18.5 18.5 0 01-.6 2.4l-.5 1.5-1.3-1a33.6 33.6 0 00-10.2-5l-1-.4v-1a5.9 5.9 0 00-1-3.8 6.2 6.2 0 00-6.7-2.5 5.7 5.7 0 00-1.6.7L54 57.2a5.4 5.4 0 00-2.5 3.6 5.8 5.8 0 001 4.4 6.2 6.2 0 006.7 2.5 5.8 5.8 0 001.6-.7l10-6.3a19 19 0 015.2-2.4 20.7 20.7 0 0122.3 8.3 19.2 19.2 0 013.3 14.5 18 18 0 01-8.2 12l-26 16.7a19 19 0 01-5.4 2.3"
            fill="var(--chisel-neutral-50)" />
    </symbol>

    <symbol id="vercel" viewBox="0 0 283 64">
        <path
            d="M141 16c-11 0-19 7.2-19 18s9 18 20 18c6.7 0 12.6-2.6 16.2-7l-7.6-4.5c-2 2.2-5.1 3.5-8.6 3.5-4.8 0-8.8-2.5-10.3-6.5h28c.2-1.1.3-2.3.3-3.5 0-10.8-8-18-19-18zm-9.4 14.5c1.2-4 4.6-6.5 9.4-6.5 4.8 0 8.2 2.5 9.5 6.5h-19zM248.7 16c-11 0-19 7.2-19 18s9 18 20 18c6.7 0 12.6-2.6 16.2-7l-7.6-4.5c-2 2.2-5.1 3.5-8.6 3.5-4.8 0-8.8-2.5-10.3-6.5h28c.2-1.1.3-2.3.3-3.5 0-10.8-8-18-19-18zm-9.4 14.5c1.2-4 4.6-6.5 9.4-6.5 4.8 0 8.2 2.5 9.5 6.5h-19zm-39 3.5c0 6 3.9 10 10 10 4 0 7.1-1.9 8.7-5l7.7 4.5a18.5 18.5 0 01-16.5 8.5c-11 0-19-7.2-19-18s8-18 19-18c7.4 0 13.3 3.2 16.5 8.5l-7.7 4.4c-1.5-3-4.6-4.9-8.8-4.9-6 0-10 4-10 10zm82.4-29v46h-9V5h9zM37 0l37 64H0L37 0zm92.4 5l-27.7 48L74 5h10.4l17.3 30L119 5h10.4zm59 12v9.7c-1-.3-2.1-.5-3.3-.5-5.8 0-10 4-10 10V51h-9V17h9v9.2c0-5 6-9.2 13.2-9.2z"
            fill="var(--chisel-neutral-900)" />
    </symbol>

    <symbol id="bigcommerce" xmlns:xlink="http://www.w3.org/1999/xlink"
        viewBox="0 0 132 30">
        <title>BigCommerce</title>
        <defs />
        <g id="Page-1" stroke="none" stroke-width="1" fill="none" fill-rule="evenodd">
            <g id="Style-Guide---Navigation-Elements"
                transform="translate(-77.000000, -1573.000000)"
                fill="var(--chisel-neutral-900)">
                <path
                    d="M115.619019,1590.67915 C115.102121,1589.97805 114.223214,1589.40461 113.158799,1589.40461 C111.187381,1589.40461 109.765641,1590.90925 109.765641,1592.94728 C109.765641,1594.98604 111.187381,1596.49031 113.158799,1596.49031 C114.079851,1596.49031 114.940748,1596.09756 115.391008,1595.70626 C115.421265,1595.67993 115.436754,1595.64206 115.436754,1595.60203 L115.436754,1594.49664 C115.436754,1594.42739 115.380562,1594.37077 115.311041,1594.37077 L112.775538,1594.37077 C112.67468,1594.37077 112.592913,1594.2889 112.592913,1594.18828 L112.592913,1592.54768 C112.592913,1592.4467 112.67468,1592.36483 112.775538,1592.36483 L117.321722,1592.36483 L117.321722,1589.93008 L115.853875,1590.73397 C115.77571,1590.77689 115.67197,1590.75092 115.619019,1590.67915 Z M94.2776736,1591.83121 L96.9857166,1591.83121 C97.7612442,1591.83121 98.246084,1591.3941 98.246084,1590.69877 C98.246084,1590.03517 97.7612442,1589.56633 96.9857166,1589.56633 L94.2776736,1589.56633 C94.18474,1589.56633 94.1098167,1589.6417 94.1098167,1589.73439 L94.1098167,1591.66315 C94.1098167,1591.75584 94.18474,1591.83121 94.2776736,1591.83121 Z M105.287608,1598.18403 C105.287608,1598.26734 105.220249,1598.33443 105.137402,1598.33443 L103.143651,1598.33443 C103.060443,1598.33443 102.993084,1598.26734 102.993084,1598.18403 L102.993084,1587.69488 C102.993084,1587.61193 103.060443,1587.54449 103.143651,1587.54449 L105.137402,1587.54449 C105.220249,1587.54449 105.287608,1587.61193 105.287608,1587.69488 L105.287608,1598.18403 Z M116.748703,1573.07014 L96.9761711,1587.54449 L97.4865857,1587.54449 C99.5386901,1587.54449 100.588696,1588.85437 100.588696,1590.29408 C100.588696,1591.41427 100.004079,1592.2416 99.2195459,1592.6073 C99.0891506,1592.66825 99.0938333,1592.8529 99.2271103,1592.90736 C100.141678,1593.28207 100.799058,1594.26196 100.799058,1595.4063 C100.799058,1597.04041 99.732482,1598.33443 97.6645284,1598.33443 L91.9833294,1598.33443 C91.8903957,1598.33443 91.8151123,1598.25941 91.8151123,1598.16636 L91.8151123,1591.3223 L77.1481669,1602.05922 C76.8672048,1602.26515 77.0123686,1602.71092 77.3610498,1602.71092 L116.961586,1602.71092 C117.160421,1602.71092 117.321794,1602.54935 117.321794,1602.35027 L117.321794,1596.91995 C116.262062,1597.90922 114.868778,1598.52882 113.158511,1598.52882 C109.991923,1598.52882 107.406711,1596.34508 107.406711,1592.94739 C107.406711,1589.53383 109.991923,1587.36632 113.158511,1587.36632 C115.14974,1587.36632 116.48359,1588.26939 117.321794,1589.37262 L117.321794,1573.36119 C117.321794,1573.06618 116.986801,1572.89595 116.748703,1573.07014 Z M94.2776736,1596.31219 L97.0826125,1596.31219 C97.9388267,1596.31219 98.455725,1595.85921 98.455725,1595.08273 C98.455725,1594.40362 97.9716056,1593.85327 97.0826125,1593.85327 L94.2776736,1593.85327 C94.18474,1593.85327 94.1098167,1593.92865 94.1098167,1594.02133 L94.1098167,1596.14412 C94.1098167,1596.23681 94.18474,1596.31219 94.2776736,1596.31219 Z M128.814299,1595.9849 L127.578426,1595.3433 C127.49882,1595.30182 127.398322,1595.33212 127.350054,1595.40786 C126.827392,1596.22834 125.863116,1596.83747 124.815271,1596.83747 C122.758124,1596.83747 121.230842,1595.1875 121.230842,1592.93848 C121.230842,1590.65773 122.758124,1589.03985 124.815271,1589.03985 C125.862395,1589.03985 126.826312,1589.63384 127.349334,1590.4655 C127.397962,1590.54304 127.49954,1590.57298 127.580227,1590.52934 L128.806735,1589.86033 C128.900029,1589.80948 128.932808,1589.69299 128.875534,1589.60283 C128.099647,1588.38022 126.814785,1587.35742 124.815271,1587.35742 C121.744859,1587.35742 119.360283,1589.60643 119.360283,1592.93848 C119.360283,1596.25502 121.744859,1598.51991 124.815271,1598.51991 C126.812624,1598.51991 128.082717,1597.47005 128.8849,1596.24673 C128.945775,1596.15404 128.912276,1596.03575 128.814299,1595.9849 Z M135.256257,1596.83755 C133.150122,1596.83755 131.808347,1595.15511 131.808347,1592.93855 C131.808347,1590.70649 133.150122,1589.03992 135.256257,1589.03992 C137.346544,1589.03992 138.703807,1590.70649 138.703807,1592.93855 C138.703807,1595.15511 137.346544,1596.83755 135.256257,1596.83755 Z M133.783007,1587.54611 C131.465789,1588.16607 129.936347,1590.25423 129.936347,1592.93855 C129.936347,1596.15808 132.136136,1598.51998 135.256257,1598.51998 C137.913151,1598.51998 139.918788,1596.78994 140.44181,1594.2726 C141.293702,1590.17309 137.699187,1586.49878 133.783007,1587.54611 Z M153.518186,1587.53561 L151.15306,1587.53561 C151.04788,1587.53561 150.953505,1587.59981 150.914963,1587.69791 L148.054552,1595.1017 L145.177932,1587.69719 C145.13939,1587.59981 145.045015,1587.53561 144.939834,1587.53561 L142.574349,1587.53561 C142.504469,1587.53561 142.447556,1587.5926 142.447556,1587.66256 L142.447556,1598.19897 C142.447556,1598.26893 142.504469,1598.32591 142.574349,1598.32591 L144.211494,1598.32591 C144.281374,1598.32591 144.338287,1598.26893 144.338287,1598.19897 L144.338287,1589.99453 L147.628066,1598.26857 C147.641754,1598.30319 147.675253,1598.32591 147.712355,1598.32591 L148.39675,1598.32591 C148.433851,1598.32591 148.46735,1598.30319 148.481038,1598.26857 L151.754608,1589.99453 L151.754608,1598.19897 C151.754608,1598.26893 151.81116,1598.32591 151.881401,1598.32591 L153.518186,1598.32591 C153.588426,1598.32591 153.644979,1598.26893 153.644979,1598.19897 L153.644979,1587.66256 C153.644979,1587.5926 153.588426,1587.53561 153.518186,1587.53561 Z M177.694511,1587.53561 L170.699994,1587.53561 C170.592292,1587.53561 170.505122,1587.62289 170.505122,1587.73073 L170.505122,1598.1308 C170.505122,1598.23864 170.592292,1598.32591 170.699994,1598.32591 L177.694511,1598.32591 C177.802214,1598.32591 177.889384,1598.23864 177.889384,1598.1308 L177.889384,1596.85482 C177.889384,1596.74699 177.802214,1596.65971 177.694511,1596.65971 L172.590726,1596.65971 C172.483023,1596.65971 172.395853,1596.57243 172.395853,1596.4646 L172.395853,1593.84555 C172.395853,1593.73772 172.483023,1593.65044 172.590726,1593.65044 L177.581766,1593.65044 C177.689108,1593.65044 177.776639,1593.5628 177.776639,1593.45533 L177.776639,1592.17935 C177.776639,1592.07151 177.689108,1591.98424 177.581766,1591.98424 L172.590726,1591.98424 C172.483023,1591.98424 172.395853,1591.89696 172.395853,1591.78913 L172.395853,1589.39693 C172.395853,1589.2891 172.483023,1589.20182 172.590726,1589.20182 L177.694511,1589.20182 C177.802214,1589.20182 177.889384,1589.11418 177.889384,1589.00671 L177.889384,1587.73073 C177.889384,1587.62289 177.802214,1587.53561 177.694511,1587.53561 Z M185.068219,1592.63139 L182.659869,1592.63139 C182.553248,1592.63139 182.466798,1592.54483 182.466798,1592.43808 L182.466798,1589.39491 C182.466798,1589.28816 182.553248,1589.2016 182.659869,1589.2016 L185.068219,1589.2016 C186.134074,1589.2016 186.909962,1589.8652 186.909962,1590.90063 C186.909962,1591.95192 186.134074,1592.63139 185.068219,1592.63139 Z M186.551555,1594.03143 C187.757892,1593.72704 188.848601,1592.6927 188.848601,1590.9165 C188.848601,1588.91056 187.44307,1587.53576 185.310279,1587.53576 L180.769138,1587.53576 C180.662516,1587.53576 180.576067,1587.62231 180.576067,1587.72907 L180.576067,1598.13239 C180.576067,1598.23914 180.662516,1598.32606 180.769138,1598.32606 L182.273366,1598.32606 C182.379988,1598.32606 182.466798,1598.23914 182.466798,1598.13239 L182.466798,1594.4909 C182.466798,1594.38415 182.553248,1594.29759 182.659869,1594.29759 L184.246945,1594.29759 C184.315385,1594.29759 184.378421,1594.33366 184.413361,1594.39244 L186.676187,1598.23085 C186.710767,1598.28963 186.774164,1598.32606 186.842603,1598.32606 L188.580967,1598.32606 C188.732614,1598.32606 188.825908,1598.1598 188.745222,1598.03105 C188.246334,1597.23293 186.876463,1595.04161 186.425843,1594.32067 C186.354161,1594.20671 186.42116,1594.06425 186.551555,1594.03143 Z M203.696659,1589.20171 L208.81017,1589.20171 C208.914991,1589.20171 209,1589.1166 209,1589.01129 L209,1587.72593 C209,1587.62098 208.914991,1587.53551 208.81017,1587.53551 L201.805928,1587.53551 C201.701107,1587.53551 201.615738,1587.62098 201.615738,1587.72593 L201.615738,1598.13538 C201.615738,1598.24069 201.701107,1598.32581 201.805928,1598.32581 L208.81017,1598.32581 C208.914991,1598.32581 209,1598.24069 209,1598.13538 L209,1596.85002 C209,1596.74508 208.914991,1596.65996 208.81017,1596.65996 L203.696659,1596.65996 C203.591478,1596.65996 203.506469,1596.57449 203.506469,1596.46954 L203.506469,1593.84076 C203.506469,1593.73545 203.591478,1593.65033 203.696659,1593.65033 L208.697065,1593.65033 C208.802246,1593.65033 208.887255,1593.56522 208.887255,1593.45991 L208.887255,1592.17455 C208.887255,1592.0696 208.802246,1591.98413 208.697065,1591.98413 L203.696659,1591.98413 C203.591478,1591.98413 203.506469,1591.89902 203.506469,1591.79371 L203.506469,1589.39213 C203.506469,1589.28682 203.591478,1589.20171 203.696659,1589.20171 Z M199.686789,1595.94003 L198.450915,1595.29843 C198.371309,1595.25696 198.270811,1595.28725 198.222544,1595.36299 C197.699882,1596.18347 196.735605,1596.79261 195.687761,1596.79261 C193.630613,1596.79261 192.103332,1595.14263 192.103332,1592.89362 C192.103332,1590.61286 193.630613,1588.99499 195.687761,1588.99499 C196.734885,1588.99499 197.698801,1589.58898 198.221823,1590.42064 C198.270451,1590.49818 198.37203,1590.52811 198.452716,1590.48447 L199.679224,1589.81547 C199.772518,1589.76461 199.805297,1589.64776 199.748024,1589.55796 C198.972136,1588.33536 197.687275,1587.31255 195.687761,1587.31255 C192.617348,1587.31255 190.232772,1589.56157 190.232772,1592.89362 C190.232772,1596.21016 192.617348,1598.47504 195.687761,1598.47504 C197.684753,1598.47504 198.955206,1597.42519 199.757389,1596.20186 C199.818265,1596.10918 199.784765,1595.99088 199.686789,1595.94003 Z M167.476494,1587.53561 L165.111369,1587.53561 C165.006188,1587.53561 164.911814,1587.59981 164.873271,1587.69791 L162.01286,1595.1017 L159.13624,1587.69719 C159.097698,1587.59981 159.003323,1587.53561 158.898143,1587.53561 L156.532657,1587.53561 C156.462777,1587.53561 156.405864,1587.5926 156.405864,1587.66256 L156.405864,1598.19897 C156.405864,1598.26893 156.462777,1598.32591 156.532657,1598.32591 L158.169802,1598.32591 C158.239683,1598.32591 158.296595,1598.26893 158.296595,1598.19897 L158.296595,1589.99453 L161.586374,1598.26857 C161.600062,1598.30319 161.633561,1598.32591 161.670663,1598.32591 L162.355058,1598.32591 C162.392159,1598.32591 162.425659,1598.30319 162.439347,1598.26857 L165.712916,1589.99453 L165.712916,1598.19897 C165.712916,1598.26893 165.769469,1598.32591 165.839709,1598.32591 L167.476494,1598.32591 C167.546734,1598.32591 167.603287,1598.26893 167.603287,1598.19897 L167.603287,1587.66256 C167.603287,1587.5926 167.546734,1587.53561 167.476494,1587.53561 Z"
                    id="BG---Logo-Main" />
            </g>
        </g>
    </symbol>

    <symbol id="medusa" viewBox="0 0 265 64" fill="none">
        <path
            d="M96.3298 46.382H90.023V29.9213C90.023 28.0861 89.5765 26.6442 88.6835 25.5955C87.7904 24.5094 86.5626 23.9663 84.9998 23.9663C83.2138 23.9663 81.8185 24.5655 80.8138 25.764C79.8464 26.9625 79.3627 28.6105 79.3627 30.7079V46.382H73V18.8539H79.2511V21.2697C80.9627 19.2097 83.3254 18.1798 86.3393 18.1798C89.7253 18.1798 92.2741 19.3783 93.9857 21.7753C96.1066 19.3783 98.953 18.1798 102.525 18.1798C106.097 18.1798 108.795 19.2285 110.618 21.3258C112.478 23.3858 113.409 26.4007 113.409 30.3708V46.382H107.046V29.9213C107.046 28.0861 106.599 26.6442 105.706 25.5955C104.813 24.5094 103.586 23.9663 102.023 23.9663C100.237 23.9663 98.8414 24.5843 97.8368 25.8202C96.8322 27.0187 96.3298 28.6479 96.3298 30.7079V46.382Z"
            fill="var(--chisel-neutral-900)"></path>
        <path
            d="M143.804 32.2809L143.748 34.5281H125.05C125.199 36.588 125.925 38.2172 127.227 39.4157C128.529 40.6142 130.204 41.2135 132.25 41.2135C135.19 41.2135 137.534 39.9213 139.283 37.3371L143.58 41.382C140.678 45.1273 136.901 47 132.25 47C128.12 47 124.809 45.6891 122.316 43.0674C119.785 40.4082 118.52 36.9813 118.52 32.7865C118.52 28.7041 119.674 25.2397 121.981 22.3933C124.325 19.5843 127.432 18.1798 131.301 18.1798C135.432 18.1798 138.539 19.5655 140.622 22.3371C142.743 25.1086 143.804 28.4232 143.804 32.2809ZM131.357 24.0225C129.757 24.0225 128.436 24.5281 127.395 25.5393C126.39 26.5506 125.72 27.8427 125.385 29.4157H137.05C137.013 27.8801 136.511 26.6067 135.543 25.5955C134.576 24.5468 133.181 24.0225 131.357 24.0225Z"
            fill="var(--chisel-neutral-900)"></path>
        <path
            d="M161.988 18.1798C165.039 18.1798 167.588 19.0787 169.634 20.8764V7H175.997V46.382H169.746V43.9101C167.811 45.97 165.225 47 161.988 47C158.118 47 154.918 45.6517 152.388 42.9551C149.895 40.221 148.648 36.7753 148.648 32.618C148.648 28.4607 149.895 25.015 152.388 22.2809C154.881 19.5468 158.081 18.1798 161.988 18.1798ZM167.792 26.3258C166.49 24.6779 164.704 23.8539 162.434 23.8539C160.165 23.8539 158.378 24.6779 157.076 26.3258C155.774 27.9738 155.123 30.0712 155.123 32.618C155.123 35.1648 155.774 37.2622 157.076 38.9101C158.378 40.5581 160.165 41.382 162.434 41.382C164.704 41.382 166.49 40.5581 167.792 38.9101C169.095 37.2622 169.746 35.1648 169.746 32.618C169.746 30.0712 169.095 27.9738 167.792 26.3258Z"
            fill="var(--chisel-neutral-900)"></path>
        <path
            d="M182.444 18.8539H188.807V35.3146C188.807 37.1498 189.253 38.6105 190.146 39.6966C191.039 40.7453 192.304 41.2697 193.942 41.2697C195.69 41.2697 197.067 40.6517 198.072 39.4157C199.114 38.1423 199.634 36.4569 199.634 34.3595V18.8539H205.997V46.382H199.746V44.1348C197.997 46.0449 195.635 47 192.658 47C189.532 47 187.039 45.9326 185.179 43.7978C183.356 41.6255 182.444 38.6479 182.444 34.8652V18.8539Z"
            fill="var(--chisel-neutral-900)"></path>
        <path
            d="M224.294 35.9888L220.666 35.0899C215.122 33.779 212.35 30.8764 212.35 26.382C212.35 23.9101 213.28 21.9251 215.141 20.427C217.001 18.9288 219.401 18.1798 222.341 18.1798C226.285 18.1798 229.727 19.7154 232.666 22.7865L228.592 27.1685C226.917 24.8464 224.778 23.6854 222.173 23.6854C221.057 23.6854 220.145 23.9476 219.439 24.4719C218.769 24.9588 218.434 25.5581 218.434 26.2697C218.434 27.5431 219.327 28.4045 221.113 28.8539L225.411 29.8652C230.992 31.1386 233.782 34.0037 233.782 38.4607C233.782 41.0075 232.815 43.0674 230.88 44.6404C228.983 46.2135 226.341 47 222.955 47C218.192 47 214.415 45.221 211.625 41.6629L215.643 37.5056C217.652 40.1648 220.257 41.4944 223.457 41.4944C226.248 41.4944 227.643 40.5581 227.643 38.6854C227.643 37.4869 226.527 36.588 224.294 35.9888Z"
            fill="var(--chisel-neutral-900)"></path>
        <path
            d="M246.935 47C244.293 47 242.098 46.2509 240.349 44.7528C238.6 43.2172 237.726 41.176 237.726 38.6292C237.726 35.7079 238.768 33.4419 240.852 31.8315C242.935 30.221 245.689 29.4157 249.112 29.4157C250.823 29.4157 252.665 29.7341 254.637 30.3708V28.5169C254.637 27.1685 254.135 26.0824 253.13 25.2584C252.126 24.397 250.842 23.9663 249.279 23.9663C246.414 23.9663 244.256 25.2959 242.805 27.9551L238.507 23.9101C239.512 22.0749 240.982 20.6704 242.917 19.6966C244.889 18.6854 247.028 18.1798 249.335 18.1798C252.944 18.1798 255.791 19.0787 257.874 20.8764C259.958 22.6742 261 25.2397 261 28.573V46.382H254.749V44.2472C252.702 46.0824 250.098 47 246.935 47ZM244.089 38.1798C244.089 39.1161 244.442 39.8839 245.149 40.4831C245.893 41.0824 246.917 41.382 248.219 41.382C250.898 41.382 253.037 40.5955 254.637 39.0225V35.8764C252.628 35.1273 250.73 34.7528 248.944 34.7528C247.456 34.7528 246.265 35.0524 245.372 35.6517C244.517 36.2509 244.089 37.0936 244.089 38.1798Z"
            fill="var(--chisel-neutral-900)"></path>
        <path
            d="M49.7749 12.7525L36.8679 5.32673C32.6449 2.89109 27.4702 2.89109 23.2471 5.32673L10.2806 12.7525C6.11709 15.1881 3.5 19.703 3.5 24.5148V39.4257C3.5 44.297 6.11709 48.7525 10.2806 51.1881L23.1877 58.6733C27.4107 61.1089 32.5854 61.1089 36.8084 58.6733L49.7155 51.1881C53.9385 48.7525 56.4961 44.297 56.4961 39.4257V24.5148C56.6151 19.703 53.998 15.1881 49.7749 12.7525ZM30.0278 45.2475C22.7118 45.2475 16.7639 39.3069 16.7639 32C16.7639 24.6931 22.7118 18.7525 30.0278 18.7525C37.3438 18.7525 43.3512 24.6931 43.3512 32C43.3512 39.3069 37.4032 45.2475 30.0278 45.2475Z"
            fill="var(--chisel-neutral-900)"></path>
    </symbol>

    <symbol id="shopify" viewBox="0 0 608 173.7">
        <title>Shopify</title>
        <path fill="var(--chisel-neutral-500)"
            d="M130.7 32.9c-.1-.9-.9-1.3-1.5-1.4-.6-.1-12.6-.2-12.6-.2s-10.1-9.8-11.1-10.8-2.9-.7-3.7-.5c0 0-1.9.6-5.1 1.6-.5-1.7-1.3-3.8-2.4-5.9-3.6-6.9-8.8-10.5-15.2-10.5-.4 0-.9 0-1.3.1-.2-.2-.4-.4-.6-.7-2.8-3-6.3-4.4-10.5-4.3-8.2.2-16.3 6.1-23 16.7-4.7 7.4-8.2 16.7-9.2 23.9-9.4 2.9-16 4.9-16.1 5-4.7 1.5-4.9 1.6-5.5 6.1C12.4 55.3 0 151.4 0 151.4l104.1 18 45.1-11.2S130.8 33.7 130.7 32.9zm-39.2-9.7c-2.4.7-5.1 1.6-8.1 2.5-.1-4.1-.6-9.9-2.5-14.9 6.3 1.2 9.3 8.2 10.6 12.4zM78 27.4c-5.5 1.7-11.4 3.5-17.4 5.4 1.7-6.4 4.9-12.8 8.8-17 1.5-1.6 3.5-3.3 5.9-4.3 2.3 4.7 2.7 11.4 2.7 15.9zM66.8 5.8c1.9 0 3.5.4 4.9 1.3-2.2 1.1-4.4 2.8-6.4 5-5.2 5.6-9.2 14.2-10.8 22.6-5 1.5-9.8 3-14.3 4.4 3-13.2 14-32.9 26.6-33.3z"></path>
        <path fill="var(--chisel-neutral-700)"
            d="M129.2 31.5c-.6-.1-12.6-.2-12.6-.2s-10.1-9.8-11.1-10.8c-.4-.4-.9-.6-1.4-.6v149.5l45.1-11.2S130.8 33.8 130.7 32.9c-.2-.9-.9-1.3-1.5-1.4z"></path>
        <path fill="var(--chisel-neutral-50)"
            d="M79.1 54.7l-5.2 19.6s-5.8-2.7-12.8-2.2c-10.2.6-10.3 7-10.2 8.7.6 8.8 23.6 10.7 24.9 31.2 1 16.2-8.6 27.2-22.4 28.1-16.6 1-25.7-8.7-25.7-8.7l3.5-14.9s9.2 6.9 16.5 6.5c4.8-.3 6.5-4.2 6.3-7-.7-11.4-19.5-10.8-20.7-29.5-1-15.8 9.4-31.8 32.3-33.3 9-.8 13.5 1.5 13.5 1.5z"></path>
        <path fill="var(--chisel-neutral-900)"
            d="M210.3 96.5c-5.2-2.8-7.9-5.2-7.9-8.5 0-4.2 3.7-6.9 9.6-6.9 6.8 0 12.8 2.8 12.8 2.8l4.8-14.6s-4.4-3.4-17.3-3.4c-18 0-30.5 10.3-30.5 24.8 0 8.2 5.8 14.5 13.6 19 6.3 3.6 8.5 6.1 8.5 9.9 0 3.9-3.1 7-9 7-8.7 0-16.9-4.5-16.9-4.5l-5.1 14.6s7.6 5.1 20.3 5.1c18.5 0 31.8-9.1 31.8-25.5.1-8.9-6.6-15.2-14.7-19.8zm73.8-30.8c-9.1 0-16.3 4.3-21.8 10.9l-.3-.1 7.9-41.4h-20.6l-20 105.3h20.6l6.9-36c2.7-13.6 9.7-22 16.3-22 4.6 0 6.4 3.1 6.4 7.6 0 2.8-.3 6.3-.9 9.1l-7.8 41.2h20.6l8.1-42.6c.9-4.5 1.5-9.9 1.5-13.4 0-11.5-6.2-18.6-16.9-18.6zm63.5 0c-24.8 0-41.2 22.4-41.2 47.4 0 16 9.9 28.8 28.4 28.8 24.3 0 40.8-21.8 40.8-47.4-.1-14.7-8.8-28.8-28-28.8zm-10.2 60.4c-7 0-10-6-10-13.4 0-11.8 6.1-31.1 17.3-31.1 7.3 0 9.7 6.3 9.7 12.4 0 12.7-6.1 32.1-17 32.1zm90.8-60.4c-13.9 0-21.8 12.2-21.8 12.2h-.3l1.2-11.1h-18.2c-.9 7.5-2.5 18.8-4.2 27.3l-14.3 75.4h20.6l5.7-30.5h.4s4.2 2.7 12.1 2.7c24.2 0 40-24.8 40-49.9.1-13.7-6.1-26.1-21.2-26.1zm-19.7 60.7c-5.4 0-8.5-3-8.5-3l3.4-19.3c2.4-12.8 9.1-21.4 16.3-21.4 6.3 0 8.2 5.8 8.2 11.4 0 13.3-7.9 32.3-19.4 32.3zm70.4-90.2c-6.6 0-11.8 5.2-11.8 12 0 6.1 3.9 10.3 9.7 10.3h.3c6.4 0 12-4.3 12.1-12 0-6-4-10.3-10.3-10.3zm-28.8 104.2h20.6l14-73h-20.8zm87-73.2h-14.3l.7-3.4c1.2-7 5.4-13.3 12.2-13.3 3.7 0 6.6 1 6.6 1l4-16.1s-3.6-1.8-11.2-1.8c-7.3 0-14.6 2.1-20.2 6.9-7 6-10.3 14.6-12 23.3l-.6 3.4h-9.6l-3 15.5h9.6l-10.9 57.7H509l10.9-57.7h14.2l3-15.5zm49.6.2s-12.9 32.5-18.7 50.2h-.3c-.4-5.7-5.1-50.2-5.1-50.2H541l12.4 67.1c.3 1.5.1 2.4-.4 3.4-2.4 4.6-6.4 9.1-11.2 12.4-3.9 2.8-8.2 4.6-11.7 5.8l5.7 17.5c4.2-.9 12.8-4.3 20.2-11.2 9.4-8.8 18.1-22.4 27-40.9l25.2-54.1h-21.5z"></path>
    </symbol>

    <symbol id="snipcart" viewBox="0 0 183 47" fill="none">
        <title>Snipcart</title>
        <path
            d="M38.478 8.937l-14-8.012a7.17 7.17 0 00-7.044 0L3.522 8.937C1.321 10.17 0 12.547 0 15.013v16.113c0 2.553 1.32 4.843 3.522 6.075l13.912 8.013a7.17 7.17 0 007.044 0L38.39 37.2c2.201-1.232 3.522-3.61 3.522-6.075V15.013c.088-2.466-1.32-4.843-3.434-6.076zm-6.516 6.692c-.352-.352-.88-.528-1.585-.528-2.73 0-7.044-1.057-9.157-3.17-.176-.088-.352-.088-.44 0-2.113 2.113-6.428 3.17-9.157 3.17-.705 0-1.233.176-1.585.528-.352.44-.529 1.057-.617 1.585l24.654 9.95c.44.176.705.616.705 1.056 0 .352.176 2.378-1.145 3.874-.528.617-1.497 1.321-3.17 1.321-2.2 0-4.842.705-6.603 1.761-.705.44-1.233.88-1.497 1.409-.264.44-.705.704-1.321.704-.528 0-1.057-.264-1.233-.704-.88-1.673-4.93-3.17-8.1-3.17-1.673 0-2.642-.704-3.17-1.32-1.497-1.586-1.409-3.699-1.32-3.963.087-.528.527-.969 1.056-.969h.088c.616.089 1.056.617.968 1.233 0 .352 0 1.497.617 2.201.352.353.88.529 1.585.529 2.73 0 7.044 1.056 9.157 3.17.176.088.352.088.44 0 2.113-2.114 6.428-3.17 9.157-3.17.705 0 1.233-.176 1.585-.529.44-.44.529-1.144.617-1.584l-24.655-9.95-.088-.088c-.088-.088-.176-.088-.264-.176 0 0-.088-.088-.088-.176s-.088-.177-.088-.177c0-.088 0-.088-.088-.176 0-.088 0-.088-.088-.176 0-.264-.176-2.377 1.145-3.874.528-.616 1.497-1.32 3.17-1.32 3.17 0 7.22-1.498 8.1-3.17.264-.44.705-.705 1.233-.705.528 0 1.056.264 1.32.705.265.528.793.968 1.497 1.408C25.27 12.107 28 12.9 30.201 12.9c1.673 0 2.642.705 3.17 1.321 1.32 1.497 1.233 3.61 1.145 3.874-.088.529-.529.969-1.057.969h-.088c-.616-.088-1.056-.616-.968-1.233.176-.352.176-1.497-.44-2.201z"
            fill="var(--chisel-neutral-900)" class="logo-snipcart__icon" data-v-ef4ec502=""></path>
        <path
            d="M68.545 19.37c0-1.593 1.783-2.276 3.21-2.276 1.425 0 2.97.455 3.09 2.049h1.307c-.357-2.618-2.734-3.187-4.517-3.187-2.258 0-4.397 1.252-4.397 3.642 0 2.846 3.446 3.529 5.705 4.325 1.188.342 2.139 1.025 2.139 2.277 0 1.707-1.783 2.618-3.328 2.618-1.901 0-3.447-.57-3.447-2.618H67c0 2.162 1.902 3.756 4.16 3.756 2.852 0 5.467-.91 5.467-3.756-.238-4.78-8.082-3.073-8.082-6.83zm24.484 8.537l-7.726-11.723h-1.426V29.5h1.307V18.005L92.672 29.5h1.545V16.184H92.91l.119 11.723zm9.746 1.707h1.307v-13.43h-1.307v13.43zm13.43-13.43h-3.447V29.5h1.308v-5.805h2.258c2.733 0 5.705-.57 5.705-3.756-.119-3.187-3.209-3.756-5.824-3.756zm.832 6.487h-3.09v-5.35h3.09c1.902 0 3.565.57 3.565 2.619-.118 2.162-1.782 2.731-3.565 2.731zm16.164 6.033c-3.566 0-4.635-3.073-4.635-5.805 0-2.732 1.069-5.805 4.635-5.805 1.545 0 3.09.683 3.328 2.277h1.307c-.238-2.39-2.377-3.415-4.635-3.415-4.16 0-6.062 3.3-6.062 6.943 0 3.756 1.783 6.943 6.062 6.943 2.258 0 4.397-1.252 4.754-3.528h-1.307c-.357 1.707-1.902 2.39-3.447 2.39zm14.143-12.52L141.758 29.5h1.308l1.426-3.643h6.893l1.545 3.643h1.427l-5.586-13.317h-1.427zm-2.377 8.65l3.09-7.512 2.972 7.512h-6.062zm20.681-2.276c1.663-.456 2.733-1.48 2.733-2.96 0-1.252-.475-2.276-1.426-2.845-1.07-.683-2.021-.683-3.328-.683h-4.516v13.317h1.307v-6.374h3.447c2.496 0 2.733.569 2.971 3.642.119.91.119 1.935.475 2.732h1.427c-.595-.797-.476-1.821-.713-3.984-.238-1.366-.595-2.504-2.377-2.845zm-2.734-.456h-2.734v-4.78h2.853c1.307 0 3.803-.228 3.803 2.39.119 2.276-2.139 2.39-3.922 2.39zm9.984-5.918v1.138h4.516v12.293h1.188V17.322H183v-1.138h-10.102z"
            fill="var(--chisel-neutral-900)" class="logo-snipcart__text" data-v-ef4ec502=""></path>
    </symbol>

    <symbol id="swell" viewBox="31 7 58 24">
        <title>Swell</title>
        <path
            fill="var(--chisel-neutral-900)"
            d="M37.994 19.8c-1.78-.489-3.317-.91-3.317-2.556 0-1.17.934-2.053 2.175-2.053 1.503 0 1.955 1.002 2.392 1.972.361.802.703 1.56 1.623 1.56.77 0 1.35-.563 1.35-1.31 0-1.692-2.068-3.442-5.527-3.442-3.14 0-5.418 1.718-5.418 4.086 0 3.161 2.444 3.814 4.6 4.392 1.766.472 3.292.88 3.292 2.505 0 1.285-.895 2.052-2.392 2.052-1.698 0-2.17-1.024-2.63-2.014-.367-.795-.714-1.546-1.682-1.546-.915 0-1.46.522-1.46 1.396 0 1.637 2.158 3.33 5.772 3.33 3.413 0 5.797-1.646 5.797-4.003 0-3.117-2.43-3.783-4.575-4.37ZM60.556 13.97c-.968 0-1.594.626-1.594 1.593 0 .934.519 1.493 1.07 2.085.607.652 1.234 1.326 1.234 2.596 0 3.544-2.244 6.397-4.1 6.397-.423 0-.766-.136-1.022-.405-.404-.425-.6-1.177-.585-2.235l.054-9.251c0-.278-.08-.486-.236-.62-.181-.156-.453-.2-.81-.13l-2.655.561c-.348.066-.572.304-.572.61v.083c0 .278.2.467.412.667.29.274.618.582.618 1.213V21c0 3.53-1.74 5.64-3.423 5.64-.395 0-.724-.134-.979-.403-.409-.43-.617-1.183-.6-2.18l.053-9.307c0-.249-.063-.425-.193-.542-.212-.19-.565-.167-.848-.124l-2.878.477c-.326.067-.544.312-.544.609v.083c0 .278.2.467.413.667.29.274.618.582.618 1.213v5.69c0 4.853 3.03 5.376 4.333 5.376 1.918 0 3.48-.855 4.531-2.478.614 1.6 1.906 2.478 3.66 2.478 3.366 0 6.775-3.32 6.775-9.665.002-2.815-1.046-4.564-2.732-4.564ZM70.705 20.617c-1.035.214-2.692.248-3.77.173-.047-.39-.07-.808-.07-1.246 0-2.457 1.303-4.239 3.098-4.239 1.375 0 2.56 1.185 2.585 2.586.028 2.027-.916 2.516-1.843 2.727Zm5.265 2.778c-.253-.105-.557-.01-.74.232l-.012.017c-.566 1.17-2.115 1.988-3.763 1.988-1.952 0-3.473-1.233-4.192-3.39 1.633.15 2.97.099 4.081-.157 2.786-.618 4.448-2.188 4.448-4.197 0-1.004-.33-1.851-.982-2.52-.898-.92-2.36-1.418-4.112-1.4-3.861.03-6.665 2.975-6.665 7.003 0 4.323 2.756 7.227 6.857 7.227 1.939 0 3.188-.799 3.894-1.468.794-.755 1.355-1.78 1.496-2.743l.001-.005c.025-.274-.09-.495-.311-.587ZM81.787 26.575c-.308-.256-.627-.52-.627-1.088V7.674c0-.249-.103-.46-.284-.577-.216-.14-.513-.129-.84.033l-2.74 1.401c-.243.126-.517.268-.517.6v.084c0 .245.175.419.378.62.279.276.625.211.625.878v14.773c0 .572-.288.836-.566 1.092-.225.207-.437.403-.437.73v.084c0 .32.264.526.672.526h4.122c.412 0 .7-.215.7-.526v-.084c0-.33-.236-.526-.486-.733ZM87.943 26.575c-.308-.256-.627-.52-.627-1.088V7.674c0-.249-.103-.46-.284-.577-.216-.14-.514-.129-.84.033l-2.74 1.401c-.243.126-.517.268-.517.6v.084c0 .245.174.419.378.62.278.276.625.211.625.878v14.773c0 .572-.288.836-.566 1.092-.225.207-.439.403-.439.73v.084c0 .32.265.526.672.526h4.123c.412 0 .7-.215.7-.526v-.084c0-.33-.235-.526-.485-.733Z"></path>
    </symbol>

    <symbol id="vendure" viewBox="0 0 434 95" fill="none">
        <path
            d="M56.0596 32.1219C55.6145 31.4937 54.8632 31.1113 54.0563 31.1113H45.598C44.5685 31.1113 43.6225 31.7668 43.2886 32.7229L28.8761 73.8041L14.2409 32.6956C13.907 31.7395 12.9888 31.084 11.9315 31.084H3.22278C2.4159 31.084 1.69248 31.4664 1.21948 32.0946C0.774308 32.7229 0.663014 33.5423 0.913426 34.2798L21.6698 90.6846C22.0036 91.6406 22.9218 92.2689 23.9513 92.2689H33.1609C34.1903 92.2689 35.1085 91.6406 35.4424 90.6846L56.31 34.2798C56.5883 33.5423 56.477 32.7229 56.004 32.0946L56.0596 32.1219Z"
            fill="var(--chisel-neutral-900)" />
        <path
            d="M116.27 63.6159C116.353 62.7145 116.409 61.4854 116.409 59.8738C116.409 54.1923 115.101 48.9752 112.541 44.3317C109.981 39.6882 106.364 35.9461 101.857 33.242C97.3218 30.5378 92.1744 29.1448 86.6097 29.1448C80.7111 29.1448 75.3412 30.5651 70.6668 33.3512C65.9925 36.1373 62.3198 40.0706 59.7044 45.0146C57.1168 49.9039 55.8091 55.5034 55.8091 61.6492C55.8091 67.795 57.1446 73.3946 59.76 78.3112C62.4033 83.2552 66.1316 87.1885 70.8338 89.9746C75.536 92.7607 80.9615 94.181 86.9436 94.181C93.3708 94.181 99.0468 92.8972 103.832 90.3297C108.59 87.7621 112.486 84.1839 115.407 79.7043C116.103 78.6117 115.797 77.164 114.711 76.4265L108.089 72.0835C107.533 71.7284 106.865 71.5918 106.197 71.7284C105.558 71.8649 104.973 72.2747 104.639 72.821C102.914 75.6617 100.577 77.9015 97.7391 79.5131C94.9011 81.0973 91.2006 81.9167 86.721 81.9167C81.3789 81.9167 77.2888 80.1959 74.2282 76.6177C71.5572 73.5038 69.9156 69.9256 69.2757 65.7191H113.849C115.101 65.7191 116.158 64.7904 116.27 63.5613V63.6159ZM70.1382 54.247C71.1398 50.9146 72.8371 48.1012 75.2299 45.7248C78.1792 42.8294 81.8797 41.4091 86.5819 41.4091C91.2841 41.4091 95.1794 42.6382 97.9339 45.1512C100.188 47.2271 101.801 50.2863 102.692 54.2197H70.1104L70.1382 54.247Z"
            fill="var(--chisel-neutral-900)" />
        <path
            d="M174.894 39.7975C172.64 36.3012 169.58 33.5971 165.796 31.7943C162.095 30.0462 157.977 29.1448 153.637 29.1448C148.935 29.1448 144.733 30.2647 141.116 32.4499C139.642 33.3512 138.278 34.4165 137.054 35.6184V33.4605C137.054 32.1494 135.969 31.0568 134.606 31.0568H126.259C124.923 31.0568 123.81 32.1221 123.81 33.4605V89.8653C123.81 91.1764 124.895 92.269 126.259 92.269H134.606C135.941 92.269 137.054 91.2037 137.054 89.8653V61.6492C137.054 55.2849 138.39 50.1771 141.033 46.5169C143.509 43.0753 147.21 41.3818 152.301 41.3818C161.038 41.3818 165.1 45.9433 165.1 55.7493V89.8653C165.1 91.1764 166.185 92.269 167.549 92.269H175.896C177.231 92.269 178.344 91.2037 178.344 89.8653V52.1437C178.344 47.4456 177.203 43.2938 174.978 39.7975H174.894Z"
            fill="var(--chisel-neutral-900)" />
        <path
            d="M245.566 0H237.219C235.883 0 234.77 1.06527 234.77 2.40369V35.7003C233.184 34.3346 231.431 33.1327 229.567 32.1767C225.755 30.1827 221.498 29.1994 216.963 29.1994C211.065 29.1994 205.695 30.6198 201.02 33.4059C196.346 36.1919 192.673 40.0979 190.058 45.0146C187.47 49.8766 186.163 55.4488 186.163 61.6219C186.163 67.795 187.498 73.5038 190.114 78.3931C192.757 83.3371 196.485 87.2704 201.187 90.0565C205.889 92.8426 211.259 94.263 217.186 94.263C221.665 94.263 225.867 93.2523 229.623 91.2583C231.459 90.275 233.184 89.1278 234.742 87.7621V89.9199C234.742 91.231 235.828 92.3236 237.191 92.3236H245.538C246.874 92.3236 247.986 91.2583 247.986 89.9199V2.40369C247.986 1.09259 246.901 0 245.538 0H245.566ZM234.77 61.6765C234.77 65.6372 233.991 69.2154 232.433 72.3293C230.903 75.4158 228.844 77.7376 226.117 79.4311C223.418 81.1246 220.413 81.944 216.935 81.944C213.457 81.944 210.592 81.1246 207.948 79.4311C205.277 77.7376 203.218 75.3885 201.688 72.302C200.13 69.1881 199.351 65.5825 199.351 61.54C199.351 57.4974 200.13 54.0284 201.688 50.9692C203.218 47.9099 205.277 45.6155 207.948 43.8947C210.592 42.2012 213.541 41.3817 216.935 41.3817C220.33 41.3817 223.418 42.2012 226.117 43.8947C228.788 45.5609 230.903 47.9646 232.433 50.9965C233.991 54.1104 234.77 57.6886 234.77 61.6492V61.6765Z"
            fill="var(--chisel-neutral-900)" />
        <path
            d="M311.508 31.0842H303.16C301.825 31.0842 300.712 32.1495 300.712 33.4879V61.6766C300.712 68.041 299.376 73.1488 296.733 76.809C294.257 80.2506 290.556 81.9441 285.465 81.9441C276.728 81.9441 272.666 77.3826 272.666 67.5766V33.4606C272.666 32.1495 271.581 31.0569 270.217 31.0569H261.87C260.535 31.0569 259.422 32.1222 259.422 33.4606V71.1821C259.422 75.8803 260.563 80.0321 262.789 83.5284C265.042 87.0247 268.103 89.7288 271.887 91.5316C275.615 93.2797 279.705 94.1811 284.046 94.1811C288.748 94.1811 292.949 93.0612 296.566 90.876C298.041 89.9747 299.404 88.9367 300.656 87.7075V89.8654C300.656 91.1765 301.741 92.2691 303.105 92.2691H311.452C312.787 92.2691 313.9 91.2038 313.9 89.8654V33.4879C313.9 32.1768 312.815 31.0842 311.452 31.0842H311.508Z"
            fill="var(--chisel-neutral-900)" />
        <path
            d="M361.59 30.1281C359.559 29.4999 357.416 29.1721 355.218 29.1721C350.46 29.1721 346.148 30.4832 342.336 33.1054C340.694 34.2253 339.164 35.5638 337.745 37.1207V33.5152C337.745 32.204 336.66 31.1115 335.297 31.1115H326.949C325.614 31.1115 324.501 32.1767 324.501 33.5152V89.92C324.501 91.2311 325.586 92.3237 326.949 92.3237H335.297C336.632 92.3237 337.745 91.2584 337.745 89.92V62.9331C337.745 58.3442 338.58 54.3563 340.249 51.0239C341.891 47.7734 344.061 45.2878 346.704 43.5943C349.347 41.9008 352.13 41.0813 355.19 41.0813C356.888 41.0813 358.39 41.4091 359.781 42.0646C360.532 42.4197 361.423 42.3651 362.118 41.9281C362.814 41.491 363.259 40.7262 363.259 39.9068V32.4226C363.259 31.3846 362.564 30.4559 361.562 30.1554L361.59 30.1281Z"
            fill="var(--chisel-neutral-900)" />
        <path
            d="M421.828 63.6159C421.911 62.7145 421.967 61.5127 421.967 59.8738C421.967 54.1924 420.659 48.9479 418.127 44.3318C415.567 39.6883 411.95 35.9462 407.443 33.242C402.908 30.5379 397.76 29.1721 392.196 29.1721C386.297 29.1721 380.927 30.5925 376.253 33.3786C371.578 36.1647 367.906 40.098 365.29 45.0419C362.703 49.9313 361.395 55.5308 361.395 61.6766C361.395 67.8224 362.731 73.4219 365.346 78.3385C367.989 83.2825 371.718 87.2158 376.448 90.0019C381.15 92.788 386.575 94.2084 392.557 94.2084C398.985 94.2084 404.661 92.9246 409.446 90.357C414.204 87.7894 418.099 84.2112 421.021 79.7316C421.716 78.639 421.41 77.1913 420.325 76.4538L413.703 72.1108C413.147 71.7557 412.479 71.6191 411.811 71.7557C411.171 71.8923 410.615 72.302 410.253 72.8483C408.528 75.689 406.191 77.9288 403.325 79.5404C400.487 81.1246 396.787 81.9441 392.307 81.9441C386.965 81.9441 382.875 80.2232 379.814 76.645C377.143 73.5311 375.502 69.9529 374.862 65.7465H419.435C420.687 65.7465 421.744 64.8178 421.856 63.5886L421.828 63.6159ZM375.696 54.247C376.698 50.9146 378.395 48.1012 380.788 45.7248C383.737 42.8295 387.438 41.4091 392.14 41.4091C396.842 41.4091 400.737 42.6383 403.492 45.1512C405.746 47.2271 407.359 50.2864 408.25 54.2197H375.668L375.696 54.247Z"
            fill="var(--chisel-neutral-900)" />
        <path fill-rule="evenodd" clip-rule="evenodd"
            d="M425.175 15.8333C421.188 15.8333 417.956 19.0233 417.956 22.9583C417.956 26.8934 421.188 30.0833 425.175 30.0833C429.163 30.0833 432.395 26.8934 432.395 22.9583C432.395 19.0233 429.163 15.8333 425.175 15.8333ZM416.351 22.9583C416.351 18.1489 420.302 14.25 425.175 14.25C430.049 14.25 434 18.1489 434 22.9583C434 27.7678 430.049 31.6667 425.175 31.6667C420.302 31.6667 416.351 27.7678 416.351 22.9583Z"
            fill="var(--chisel-neutral-900)" />
        <path
            d="M424.686 22.2427C425.185 22.2427 425.547 22.1443 425.765 21.9565C425.982 21.7776 426.1 21.4734 426.1 21.0441C426.1 20.6236 425.982 20.3284 425.765 20.1406C425.547 19.9617 425.185 19.8722 424.686 19.8722H423.671V22.2427H424.686ZM423.671 23.8797V27.3684H421.26V18.1458H424.94C426.173 18.1458 427.07 18.3515 427.641 18.763C428.221 19.1655 428.502 19.8096 428.502 20.6952C428.502 21.3035 428.357 21.8044 428.058 22.198C427.759 22.5827 427.315 22.8779 426.707 23.0568C427.043 23.1373 427.333 23.3072 427.596 23.5667C427.859 23.8261 428.121 24.2197 428.384 24.7564L429.699 27.3684H427.133L425.991 25.0784C425.765 24.6222 425.529 24.3002 425.293 24.1392C425.058 23.9692 424.74 23.8797 424.351 23.8797H423.671Z"
            fill="var(--chisel-neutral-900)" />
    </symbol>

    <symbol preserveAspectRatio="xMidYMid" id="woocommerce" viewBox="0 0 256 153">
        <title id="logoTitle">WooCommerce</title>
        <path
            d="m23.759 0h208.38c13.187 0 23.863 10.675 23.863 23.863v79.542c0 13.187-10.675 23.863-23.863 23.863h-74.727l10.257 25.118-45.109-25.118h-98.695c-13.187 0-23.863-10.675-23.863-23.863v-79.542c-0.10466-13.083 10.571-23.863 23.758-23.863z"
            fill="var(--chisel-neutral-900)"></path>
        <path
            d="m14.578 21.75c1.4569-1.9772 3.6423-3.0179 6.5561-3.226 5.3073-0.41626 8.3252 2.0813 9.0537 7.4927 3.226 21.75 6.7642 40.169 10.511 55.259l22.79-43.395c2.0813-3.9545 4.6829-6.0358 7.8049-6.2439 4.5789-0.3122 7.3886 2.6016 8.5333 8.7415 2.6016 13.841 5.9317 25.6 9.8862 35.59 2.7057-26.433 7.2846-45.476 13.737-57.236 1.561-2.9138 3.8504-4.3707 6.8683-4.5789 2.3935-0.20813 4.5789 0.52033 6.5561 2.0813 1.9772 1.561 3.0179 3.5382 3.226 5.9317 0.10406 1.8732-0.20813 3.4341-1.0407 4.9951-4.0585 7.4927-7.3886 20.085-10.094 37.567-2.6016 16.963-3.5382 30.179-2.9138 39.649 0.20813 2.6016-0.20813 4.8911-1.2488 6.8683-1.2488 2.2894-3.122 3.5382-5.5154 3.7463-2.7057 0.20813-5.5154-1.0406-8.2211-3.8504-9.678-9.8862-17.379-24.663-22.998-44.332-6.7642 13.32-11.759 23.311-14.985 29.971-6.1398 11.759-11.343 17.795-15.714 18.107-2.8098 0.20813-5.2033-2.1854-7.2846-7.1805-5.3073-13.633-11.031-39.961-17.171-78.985-0.41626-2.7057 0.20813-5.0992 1.665-6.9724zm223.64 16.338c-3.7463-6.5561-9.2618-10.511-16.65-12.072-1.9772-0.41626-3.8504-0.62439-5.6195-0.62439-9.9902 0-18.107 5.2033-24.455 15.61-5.4114 8.8455-8.1171 18.628-8.1171 29.346 0 8.013 1.665 14.881 4.9951 20.605 3.7463 6.5561 9.2618 10.511 16.65 12.072 1.9772 0.41626 3.8504 0.62439 5.6195 0.62439 10.094 0 18.211-5.2033 24.455-15.61 5.4114-8.9496 8.1171-18.732 8.1171-29.45 0.10406-8.1171-1.665-14.881-4.9951-20.501zm-13.112 28.826c-1.4569 6.8683-4.0585 11.967-7.9089 15.402-3.0179 2.7057-5.8276 3.8504-8.4293 3.3301-2.4976-0.52033-4.5789-2.7057-6.1398-6.7642-1.2488-3.226-1.8732-6.452-1.8732-9.4699 0-2.6016 0.20813-5.2033 0.72846-7.5967 0.93659-4.2667 2.7057-8.4293 5.5154-12.384 3.4341-5.0992 7.0764-7.1805 10.823-6.452 2.4976 0.52033 4.5789 2.7057 6.1398 6.7642 1.2488 3.226 1.8732 6.452 1.8732 9.4699 0 2.7057-0.20813 5.3073-0.72846 7.7008zm-52.033-28.826c-3.7463-6.5561-9.3659-10.511-16.65-12.072-1.9772-0.41626-3.8504-0.62439-5.6195-0.62439-9.9902 0-18.107 5.2033-24.455 15.61-5.4114 8.8455-8.1171 18.628-8.1171 29.346 0 8.013 1.665 14.881 4.9951 20.605 3.7463 6.5561 9.2618 10.511 16.65 12.072 1.9772 0.41626 3.8504 0.62439 5.6195 0.62439 10.094 0 18.211-5.2033 24.455-15.61 5.4114-8.9496 8.1171-18.732 8.1171-29.45 0-8.1171-1.665-14.881-4.9951-20.501zm-13.216 28.826c-1.4569 6.8683-4.0585 11.967-7.9089 15.402-3.0179 2.7057-5.8276 3.8504-8.4293 3.3301-2.4976-0.52033-4.5789-2.7057-6.1398-6.7642-1.2488-3.226-1.8732-6.452-1.8732-9.4699 0-2.6016 0.20813-5.2033 0.72846-7.5967 0.93658-4.2667 2.7057-8.4293 5.5154-12.384 3.4341-5.0992 7.0764-7.1805 10.823-6.452 2.4976 0.52033 4.5789 2.7057 6.1398 6.7642 1.2488 3.226 1.8732 6.452 1.8732 9.4699 0.10406 2.7057-0.20813 5.3073-0.72846 7.7008z"
            fill="var(--chisel-neutral-50)"></path>
    </symbol>

    <symbol id="devto" viewBox="0 0 448 512">
        <path
            d="M120.12 208.29c-3.88-2.9-7.77-4.35-11.65-4.35H91.03v104.47h17.45c3.88 0 7.77-1.45 11.65-4.35 3.88-2.9 5.82-7.25 5.82-13.06v-69.65c-.01-5.8-1.96-10.16-5.83-13.06zM404.1 32H43.9C19.7 32 .06 51.59 0 75.8v360.4C.06 460.41 19.7 480 43.9 480h360.2c24.21 0 43.84-19.59 43.9-43.8V75.8c-.06-24.21-19.7-43.8-43.9-43.8zM154.2 291.19c0 18.81-11.61 47.31-48.36 47.25h-46.4V172.98h47.38c35.44 0 47.36 28.46 47.37 47.28l.01 70.93zm100.68-88.66H201.6v38.42h32.57v29.57H201.6v38.41h53.29v29.57h-62.18c-11.16.29-20.44-8.53-20.72-19.69V193.7c-.27-11.15 8.56-20.41 19.71-20.69h63.19l-.01 29.52zm103.64 115.29c-13.2 30.75-36.85 24.63-47.44 0l-38.53-144.8h32.57l29.71 113.72 29.57-113.72h32.58l-38.46 144.8z">
        </path>
    </symbol>

    <symbol id="email" viewBox="0 0 20 20">
        <path d="M2.003 5.884L10 9.882l7.997-3.998A2 2 0 0016 4H4a2 2 0 00-1.997 1.884z" />
        <path d="M18 8.118l-8 4-8-4V14a2 2 0 002 2h12a2 2 0 002-2V8.118z" />
    </symbol>

    <symbol id="github" viewBox="0 0 496 512">
        <path
            d="M165.9 397.4c0 2-2.3 3.6-5.2 3.6-3.3.3-5.6-1.3-5.6-3.6 0-2 2.3-3.6 5.2-3.6 3-.3 5.6 1.3 5.6 3.6zm-31.1-4.5c-.7 2 1.3 4.3 4.3 4.9 2.6 1 5.6 0 6.2-2s-1.3-4.3-4.3-5.2c-2.6-.7-5.5.3-6.2 2.3zm44.2-1.7c-2.9.7-4.9 2.6-4.6 4.9.3 2 2.9 3.3 5.9 2.6 2.9-.7 4.9-2.6 4.6-4.6-.3-1.9-3-3.2-5.9-2.9zM244.8 8C106.1 8 0 113.3 0 252c0 110.9 69.8 205.8 169.5 239.2 12.8 2.3 17.3-5.6 17.3-12.1 0-6.2-.3-40.4-.3-61.4 0 0-70 15-84.7-29.8 0 0-11.4-29.1-27.8-36.6 0 0-22.9-15.7 1.6-15.4 0 0 24.9 2 38.6 25.8 21.9 38.6 58.6 27.5 72.9 20.9 2.3-16 8.8-27.1 16-33.7-55.9-6.2-112.3-14.3-112.3-110.5 0-27.5 7.6-41.3 23.6-58.9-2.6-6.5-11.1-33.3 2.6-67.9 20.9-6.5 69 27 69 27 20-5.6 41.5-8.5 62.8-8.5s42.8 2.9 62.8 8.5c0 0 48.1-33.6 69-27 13.7 34.7 5.2 61.4 2.6 67.9 16 17.7 25.8 31.5 25.8 58.9 0 96.5-58.9 104.2-114.8 110.5 9.2 7.9 17 22.9 17 46.4 0 33.7-.3 75.4-.3 83.6 0 6.5 4.6 14.4 17.3 12.1C428.2 457.8 496 362.9 496 252 496 113.3 383.5 8 244.8 8zM97.2 352.9c-1.3 1-1 3.3.7 5.2 1.6 1.6 3.9 2.3 5.2 1 1.3-1 1-3.3-.7-5.2-1.6-1.6-3.9-2.3-5.2-1zm-10.8-8.1c-.7 1.3.3 2.9 2.3 3.9 1.6 1 3.6.7 4.3-.7.7-1.3-.3-2.9-2.3-3.9-2-.6-3.6-.3-4.3.7zm32.4 35.6c-1.6 1.3-1 4.3 1.3 6.2 2.3 2.3 5.2 2.6 6.5 1 1.3-1.3.7-4.3-1.3-6.2-2.2-2.3-5.2-2.6-6.5-1zm-11.4-14.7c-1.6 1-1.6 3.6 0 5.9 1.6 2.3 4.3 3.3 5.6 2.3 1.6-1.3 1.6-3.9 0-6.2-1.4-2.3-4-3.3-5.6-2z">
        </path>
    </symbol>

    <symbol id="linkedin" viewBox="0 0 512 512">
        <path
            d="m256 0c-141.363281 0-256 114.636719-256 256s114.636719 256 256 256 256-114.636719 256-256-114.636719-256-256-256zm-74.390625 387h-62.347656v-187.574219h62.347656zm-31.171875-213.1875h-.40625c-20.921875 0-34.453125-14.402344-34.453125-32.402344 0-18.40625 13.945313-32.410156 35.273437-32.410156 21.328126 0 34.453126 14.003906 34.859376 32.410156 0 18-13.53125 32.402344-35.273438 32.402344zm255.984375 213.1875h-62.339844v-100.347656c0-25.21875-9.027343-42.417969-31.585937-42.417969-17.222656 0-27.480469 11.601563-31.988282 22.800781-1.648437 4.007813-2.050781 9.609375-2.050781 15.214844v104.75h-62.34375s.816407-169.976562 0-187.574219h62.34375v26.558594c8.285157-12.78125 23.109375-30.960937 56.1875-30.960937 41.019531 0 71.777344 26.808593 71.777344 84.421874zm0 0" />
    </symbol>

    <symbol id="twitter" viewBox="0 0 512 512">
        <path
            d="M459.37 151.716c.325 4.548.325 9.097.325 13.645 0 138.72-105.583 298.558-298.558 298.558-59.452 0-114.68-17.219-161.137-47.106 8.447.974 16.568 1.299 25.34 1.299 49.055 0 94.213-16.568 130.274-44.832-46.132-.975-84.792-31.188-98.112-72.772 6.498.974 12.995 1.624 19.818 1.624 9.421 0 18.843-1.3 27.614-3.573-48.081-9.747-84.143-51.98-84.143-102.985v-1.299c13.969 7.797 30.214 12.67 47.431 13.319-28.264-18.843-46.781-51.005-46.781-87.391 0-19.492 5.197-37.36 14.294-52.954 51.655 63.675 129.3 105.258 216.365 109.807-1.624-7.797-2.599-15.918-2.599-24.04 0-57.828 46.782-104.934 104.934-104.934 30.213 0 57.502 12.67 76.67 33.137 23.715-4.548 46.456-13.32 66.599-25.34-7.798 24.366-24.366 44.833-46.132 57.827 21.117-2.273 41.584-8.122 60.426-16.243-14.292 20.791-32.161 39.308-52.628 54.253z" />
    </symbol>

    <symbol viewBox="0 0 24 24" id="rss">
        <circle cx="6.18" cy="17.82" r="2.18" />
        <path
            d="M4 4.44v2.83c7.03 0 12.73 5.7 12.73 12.73h2.83c0-8.59-6.97-15.56-15.56-15.56zm0 5.66v2.83c3.9 0 7.07 3.17 7.07 7.07h2.83c0-5.47-4.43-9.9-9.9-9.9z" />
    </symbol>
</svg>