<svg xmlns="http://www.w3.org/2000/svg" xmlns:xlink="http://www.w3.org/1999/xlink">
    <symbol id="architecture" viewBox="0 0 512 512">
        <path d="M128 6H0m128 500H0M6 0v512M384 506h128M384 6h128m-6 506V0" stroke="#d72516" stroke-width="12"/><path d="M179.6 322c0-2.1-1.7-3.8-3.7-3.8a40.4 40.4 0 01-16.7-77.1 3.7 3.7 0 10-3.1-6.8 48 48 0 0019.8 91.4c2 0 3.7-1.7 3.7-3.8zM206.5 243.6A63.3 63.3 0 01325 225a3.7 3.7 0 106.6-3.5c-2.1-4-4.6-7.6-7.3-11v-50l9-10.8a11.3 11.3 0 10-5.7-4.8l-10 11.8c-.5.7-.8 1.5-.8 2.4v43.3a70.7 70.7 0 00-22.6-13.9v-26.2a11.3 11.3 0 10-7.5 0v23.8a71.1 71.1 0 00-27-1.6v-34.8a11.3 11.3 0 10-7.4 0V186a70.8 70.8 0 00-27 13v-36.5a11.3 11.3 0 10-7.5 0v43.3a70.5 70.5 0 00-17.4 31c-1.8-1-3.6-2-5.4-2.8v-74.7c0-.9-.4-1.7-1-2.4l-9.9-11.9a11.3 11.3 0 10-5.7 4.8l9 10.9v70.8c-3.7-1-7.6-1.4-11.5-1.4a3.8 3.8 0 000 7.5c9 0 17.5 2.9 24.6 8.4a3.7 3.7 0 006-2.3zm130.8-108.1a3.7 3.7 0 110 7.5 3.7 3.7 0 010-7.5zm-46.8 12.6a3.7 3.7 0 110 7.5 3.7 3.7 0 010-7.5zM256 135.5a3.7 3.7 0 110 7.5 3.7 3.7 0 010-7.5zm-34.5 12.6a3.7 3.7 0 110 7.5 3.7 3.7 0 010-7.5zm-50.8-8.9a3.7 3.7 0 117.5 0 3.7 3.7 0 01-7.5 0zM347.9 253.5c-2.8 0-5.4.3-8 .9-.1-5.2-.7-10.4-1.9-15.5a3.7 3.7 0 00-7.3 1.7 63.7 63.7 0 011.5 18.7 3.7 3.7 0 005.1 3.7 28.6 28.6 0 1110.6 55.2h-12.3a3.8 3.8 0 000 7.5h12.3a36.1 36.1 0 000-72.2zM305.8 318.2H271a3.8 3.8 0 000 7.5h15.7v36.5a11.3 11.3 0 107.5 0v-36.5h11.6a3.8 3.8 0 000-7.5zm-15.3 58.3a3.7 3.7 0 110-7.5 3.7 3.7 0 010 7.5zM241 318.2h-34.2a3.8 3.8 0 000 7.5h11v36.5a11.3 11.3 0 107.5 0v-36.5H241a3.8 3.8 0 000-7.5zm-19.5 58.3a3.7 3.7 0 110-7.5 3.7 3.7 0 010 7.5z" fill="#d72516"/><path d="M191.4 285.8a11.3 11.3 0 00-3.7 21.9v51.2l-15.9 19a3.7 3.7 0 105.8 4.8l16.7-20c.6-.7.9-1.5.9-2.4v-52.6a11.3 11.3 0 00-3.8-21.9zm0 15a3.7 3.7 0 110-7.5 3.7 3.7 0 010 7.5zM256 285.8a11.3 11.3 0 00-3.8 21.9v72.6a3.8 3.8 0 007.6 0v-72.6a11.3 11.3 0 00-3.8-21.9zm0 15a3.7 3.7 0 110-7.5 3.7 3.7 0 010 7.5zM324.3 359v-51.3a11.3 11.3 0 10-7.5 0v52.6c0 .9.3 1.7.9 2.4l16.8 20a3.7 3.7 0 105.7-4.9L324.3 359zm-3.7-65.7a3.7 3.7 0 110 7.5 3.7 3.7 0 010-7.5z" fill="#d72516"/>
    </symbol>

    <symbol id="blogging" viewBox="0 0 512 512">
        <path d="M128 6H0m128 500H0M6 0v512M384 506h128M384 6h128m-6 506V0" stroke="#0b70ba" stroke-width="12"/><path d="M378.9 152H133.1a5.1 5.1 0 00-5.1 5v161.4c0 2.8 2.3 5 5.1 5h90v26.4h-18.2a5.1 5.1 0 100 10.2h102.2a5.1 5.1 0 000-10.2H289v-26.3h89.9c2.8 0 5.1-2.3 5.1-5.1V157c0-2.9-2.3-5.1-5.1-5.1zM278.8 349.8h-45.6v-26.3h45.6v26.3zm95-36.5H138.2V162.2h235.6v151z" fill="#0b70ba"/><path d="M247.3 174H156a5.1 5.1 0 00-5.1 5.2V245c0 2.8 2.3 5.1 5 5.1h91.5c2.8 0 5.1-2.3 5.1-5.1v-66c0-2.7-2.3-5-5-5zm-78.9 66l16.2-16.2 16.2 16.2h-32.4zm73.8 0h-27l-.4-.5-8.8-8.7 19.9-19.9 16.3 16.4V240zm0-27.1L229.5 200c-2-2-5.3-2-7.3 0l-23.4 23.4-10.6-10.5c-2-2-5.2-2-7.2 0l-20 20v-48.7h81.2v28.6z" fill="#0b70ba"/><path d="M360.6 183.3l-9.2-9.3a12 12 0 00-17 0l-66.2 66.2a5 5 0 00-1.3 2.1l-7.2 23.8H156a5.1 5.1 0 100 10.2h107.8a5 5 0 002-.5l26.6-8a5 5 0 002.2-1.3l66.1-66.2a12 12 0 000-17zm-89.4 80.2l3-10 7 7-10 3zm19.7-7.8L279 243.8l51.8-51.7 11.8 11.8-51.7 51.8zm62.5-62.6l-3.6 3.6-11.8-11.9 3.6-3.5c.7-.8 1.9-.8 2.6 0l9.2 9.2a1.8 1.8 0 010 2.6zM334 290.6H156a5.1 5.1 0 100 10.2H334a5.1 5.1 0 000-10.2zM356.7 290.6h-2.8a5.1 5.1 0 100 10.2h2.8a5.1 5.1 0 000-10.2z" fill="#0b70ba"/>
    </symbol>

    <symbol id="money" viewBox="0 0 512 512">
        <path d="M128 6H0m128 500H0M6 0v512M384 506h128M384 6h128m-6 506V0" stroke="#21815b" stroke-width="12"/><g clip-path="url(#clip0)"><path fill-rule="evenodd" clip-rule="evenodd" d="M237.5 172c-4-11.6-7.5-23.4-10.6-35.4 11.2-12.2 54.5-10.6 67-.1l-11.5 27.4c6.2-8.2 8.2-11.5 12-16 1.5 1 3 2.1 4.3 3.3 3.3 3 6.2 6.3 6.8 10.9.4 3-.4 6-3 9L276 202c-3.4-.5-6.8-1.4-10-2.5l4.8-11-9.6 10.4a36 36 0 00-25.6 3.2l-26.8-32.2a9 9 0 01-2.3-5.8c0-7.8 11.6-14.5 17.7-17l13.3 25zm34.3 58.2l-5.2-24c22.4 4.2 58.4 49.8 70 70.6 5.9 10.6 11 22.2 15.3 35.2 8.5 31.6.4 61-33.9 68-21.4 4.3-61.4 4.6-84 3.4-24.1-1.3-61.7-1.2-71.5-26.1-15.8-40.2 13.2-88 39.6-117.3 3.5-3.9 7-7.5 10.8-10.8 9.6-8.4 20-18.5 32.3-22.7l-12 22.3 17.4-23h9.2l12 24.4zM260.7 250v4.2c4.5.5 8.3 1.4 11.5 2.8a26.7 26.7 0 0112.8 12.9c1 2.2 1.5 4.3 1.5 6.2 0 2-.7 3.9-2.3 5.4a7.7 7.7 0 01-5.5 2.3c-4.2 0-6.8-2.2-8-6.7a14.3 14.3 0 00-10-10.4v26.1a140 140 0 0112.4 4 25.3 25.3 0 0116.4 23.8 27.5 27.5 0 01-13.3 23.6 35 35 0 01-15.6 4.7v4.3c0 2.4-.2 4.3-.7 5.4-.5 1.1-1.5 1.7-3.1 1.7s-2.6-.5-3.2-1.4a8 8 0 01-1-4.3v-5.6c-4.8-.5-9.1-1.7-12.8-3.4a30.3 30.3 0 01-14.6-14.8 21.5 21.5 0 01-1.7-8.3c0-2 .8-3.8 2.3-5.4a7.9 7.9 0 015.9-2.4c1.9 0 3.5.4 4.8 1.3a7 7 0 012.7 3.7 81 81 0 003 7.9 15.6 15.6 0 0010.5 8.4v-29.2a76.6 76.6 0 01-14-5.2c-3.8-1.9-7-4.6-9.2-8-2.4-3.6-3.6-8.1-3.6-13.6a24 24 0 017-17.8 30.8 30.8 0 0119.8-8V250c0-3.5 1.3-5.3 4-5.3s4 1.7 4 5.2zm-8 40.5v-24c-3.5 1-6.3 2.4-8.2 4-2 1.8-3 4.4-3 7.9 0 3.3 1 5.8 2.8 7.5 1.8 1.7 4.6 3.2 8.4 4.6zm8 18.6v27.6c4.2-.9 7.5-2.5 9.8-5.1a13 13 0 003.4-9c0-3.6-1-6.4-3.3-8.4s-5.6-3.7-10-5z" fill="#21815b"/></g><defs><clipPath id="clip0"><path fill="#21815b" transform="translate(158 128)" d="M0 0h197v256H0z"/></clipPath></defs>
    </symbol>

    <symbol id="shield" viewBox="0 0 512 512">
        <path d="M128 6H0m128 500H0M6 0v512M384 506h128M384 6h128m-6 506V0" stroke="#0b70ba" stroke-width="12"/><g clip-path="url(#clip0)"><path fill-rule="evenodd" clip-rule="evenodd" d="M256 128c44 28 83 41 116 37 6 119-38 190-115 219-76-27-120-95-117-220 40 2 78-7 116-36zm1 41c30 18 56 27 79 25 4 81-26 129-79 149h-1V169h1zm-1-26c39 24 73 36 103 33 5 105-34 167-102 193-67-24-106-83-103-195 35 2 69-5 102-31z" fill="#0b70ba"/></g><defs><clipPath id="clip0"><path fill="#0b70ba" transform="translate(140 128)" d="M0 0h233v256H0z"/></clipPath></defs>
    </symbol>

    <symbol id="shopping" viewBox="0 0 512 512">
        <path d="M373 128h-47c-5 0-8 4-10 8l-43 137h-93l-26-76h97a11 11 0 100-22H139c-10 0-12 9-10 14l33 98c1 5 6 8 10 8h108c5 0 9-3 10-8l44-137h39c6 0 11-5 11-11s-5-11-11-11zM182 314c-19 0-35 16-35 35s16 35 35 35 35-16 35-35-16-35-35-35zm13 35c0 8-6 14-13 14s-13-6-13-14c0-7 6-13 13-13s13 6 13 13zM267 314c-19 0-35 16-35 35s16 35 35 35 34-16 34-35-15-35-34-35zm13 35c0 8-6 14-13 14s-13-6-13-14c0-7 6-13 13-13s13 6 13 13z" fill="#21815b"/><path d="M128 6H0m128 500H0M6 0v512M384 506h128M384 6h128m-6 506V0" stroke="#21815b" stroke-width="12"/>
    </symbol>

    <symbol id="speedometer" viewBox="0 0 512 512">
        <path d="M128 6H0m128 500H0M6 0v512M384 506h128M384 6h128m-6 506V0" stroke="#d72516" stroke-width="12"/><g clip-path="url(#clip0)"><path d="M248 256l69-44h1l7 7v2l-52 60c-7 8-15 10-22 8-3-1-6-3-8-6l-4-8c-1-7 1-14 9-19zm-93 128a149 149 0 01-36-165 148 148 0 11242 161h-2l-7-8h-1l-20-20v-2l11-11h1l16 16a132 132 0 0027-76h-22l-1-2v-15l1-1h21a129 129 0 00-35-75l-14 15h-1l-11-11v-2l13-14a131 131 0 00-76-28v19l-1 1h-15l-2-1v-19a130 130 0 00-74 33l14 14v2l-11 11h-1l-14-14a130 130 0 00-31 76h22l1 1v16l-1 1h-22a129 129 0 0029 73l18-18h2l10 11v2a1358 1358 0 00-30 30z" fill="#d72516"/></g><defs><clipPath id="clip0"><path fill="#d72516" transform="translate(108 128)" d="M0 0h296v256H0z"/></clipPath></defs>
    </symbol>
</svg>